<svg xmlns="http://www.w3.org/2000/svg" width="1800" height="1440" viewBox="0 0 1800 1440"><path fill="#010204" d="M975 75.188c3.228 1.311 4.155 2.81 6 5.812.907 4.032 1.24 8.095 1.598 12.207l.362 3.689q.476 4.934.917 9.873a1857 1857 0 0 0 .768 8.186c2.03 21.308 3.868 42.638 5.224 64 .127 1.978.262 3.956.397 5.934.602 9.292.87 18.586 1.08 27.895a4900 4900 0 0 0 .205 8.705l.106 4.44q.136 5.667.242 11.333.105 5.566.256 11.13.052 2.098.082 4.195c.115 7.62.261 13.136 4.763 19.413v2l3 1c3.005 5.245 4.423 11.4 6 17.188 2.84 10.054 6.502 14.744 15 20.812q2.254 1.683 4.5 3.375l1.969 1.46C1029 319 1029 319 1030 320c4.101.668 8.245 1.051 12.375 1.5l3.756.42c5.953.645 11.846 1.184 17.833 1.29 15.58.299 30.904 4.348 46.036 7.79l3.463.787c56.359 13.035 56.359 13.035 66.537 23.213a97 97 0 0 0 7.188 3.313c.706.3 1.412.602 2.14.913a417 417 0 0 0 10.695 4.36c12.464 4.918 24.206 11.03 35.977 17.414l2.18 1.178c11.659 6.344 22.58 13.535 32.504 22.388 2.93 1.814 4.927 1.466 8.316 1.434 2.3 1.529 2.88 2.422 3.441 5.121l.121 2.317c.191 3.412.814 5.562 2.438 8.562l.684 2.293c1.992 4.097 5.13 6.875 8.379 10.02l1.97 1.955C1300.846 441 1300.846 441 1302 441l-1-8h4q.792 3.935 1.563 7.875l.458 2.262c1.092 5.636 1.092 5.636-.021 7.863a126 126 0 0 0 1.938 5.5c2.804 8.645 3.976 19.757 1.062 28.5.438 2.688.438 2.688 1 5l-5 1 .199 2.253c1.087 13.976 1.16 27.985 1.363 41.997l.062 4.104q.177 12.045.33 24.09.063 4.811.137 9.62.094 6.18.14 12.36.018 2.1.053 4.196c.187 11.968-2.357 22.161-6.284 33.38l2 2c0 4.794-1.394 7.891-3.687 12.063-3.036 5.759-4.702 11.516-6.313 17.812-1.996 7.793-4.331 14.909-7.703 22.227-1.129 2.522-1.972 4.936-2.735 7.586-2.232 7.065-6.831 13.168-11.374 18.937-2.015 2.584-3.69 5.218-5.258 8.086-4.895 8.915-10.19 16.2-17.321 23.467-4.104 4.183-7.827 8.46-11.359 13.135-6.58 8.64-13.949 18.16-24.5 21.812-4.419 1.821-7.25 5.144-10.504 8.547-3.227 3.345-6.699 6.33-10.246 9.328l-2.453 2.152c-7.804 6.674-16.138 11.792-25.406 16.211-4.224 2.202-8.124 4.801-12.079 7.45l-2.341 1.54c-3.54 2.361-6.869 4.714-9.99 7.608-4.873 4.29-10.72 6.949-16.481 9.851l-3.647 1.858A1708 1708 0 0 1 1110 840l-2.758 1.391c-10.16 5.103-20.427 9.34-31.212 12.96l-2.69.922-2.395.795C1069 857 1069 857 1067 860c-2.164.95-2.164.95-4.625 1.688l-2.477.761L1058 863c-.418 5.116.656 7.679 3.438 11.938 4.871 7.47 4.782 14.784 4.874 23.437l.088 2.71c.137 14.426-9.186 23.813-18.4 33.915 2.095 2.095 3.513 2.765 6.219 3.883 14.372 6.093 25.993 12.161 33.531 26.43 3.93 11.592 5.921 27.187 1.184 38.816A112 112 0 0 1 1084 1013l2.605.918c7.085 2.51 14.123 5.102 21.122 7.848q3.308 1.246 6.671 2.343c11.698 3.838 22.429 9.62 31.602 17.891q1.01 2.495 2 5a112 112 0 0 0 3.375 3.813c6.374 7.158 8.247 12.465 7.965 22.175-.42 3.716-1.243 5.953-3.34 9.012l1.617.516A472 472 0 0 1 1165 1085l2.754.914 2.684.961 2.496.867c2.066 1.258 2.066 1.258 3.039 3.766C1177 1094 1177 1094 1179.3 1095.12l2.699.879c7.878 4.369 14.533 9.764 21 16l2.285 2.145C1207 1116 1207 1116 1207 1118l1.84.778c6.197 3.507 8.411 12 10.41 18.41l.773 2.365c3.775 11.711 5.754 26.989-.023 38.447-1.48 1.758-1.48 1.758-3 3h-2c-.1.694-.199 1.387-.3 2.102-2.391 9.909-8.991 18.197-16.055 25.25a379 379 0 0 0-5.188 5.296c-8.55 8.816-17.22 14.857-28.228 20.17-5.42 2.662-10.383 5.74-15.34 9.18a183 183 0 0 1-11.053 7.096l-2.651 1.59a295 295 0 0 1-5.192 3.03c-2.182 1.317-4.142 2.533-5.993 4.286-.348 3.172-.348 3.172 0 6-2.08 2.69-4.406 3.799-7.512 5.066l-2.909 1.192-3.266 1.304-3.513 1.428c-7.904 3.187-15.88 6.147-23.898 9.033-24.964 9.023-48.503 19.183-71.856 31.802-5.424 2.927-10.908 5.73-16.421 8.487l-2.733 1.37c-8.628 4.27-17.38 8.271-26.142 12.255l-2.118.964c-29.877 13.561-29.877 13.561-42.632 13.099v2c-4.284 2.285-8.436 3.836-13.094 5.188-10.03 3.017-19.688 6.926-29.406 10.812-35.248 14.094-35.248 14.094-46.125 14.188l-2.29.042C829 1383 829 1383 826 1381c-2.18.137-2.18.137-4.875.688l-3.277.597L814 1383c-23.01 4.261-45.53 4.007-68.625.75l-2.244-.31c-11.523-1.626-23.936-3.694-33.131-11.44v-2l-1.687-.297c-11.632-2.279-20.51-7.963-27.481-17.746a641 641 0 0 1-3.95-6.227c-2.142-3.106-4.454-5.144-7.41-7.433-3.824-3.368-5.283-8.58-5.627-13.52-.024-6.128.603-11.892 1.78-17.902l.527-2.751c1.33-6.525 3.271-12.565 5.776-18.724 1.487-3.684 2.512-7.094 3.072-11.025 3.435-21.396 19.793-41.545 33.514-57.593 3.256-3.905 6.241-8.027 9.267-12.11 2.893-3.483 5.676-6.062 9.907-7.735C730 1196 730 1196 732 1193l-2.187-.625c-3.798-1.856-5.311-3.97-7.813-7.375-2.764-8.292-.787-15.765 2.32-23.664 1.384-2.748 2.823-5.073 4.563-7.59 3.26-4.776 5.588-9.757 7.867-15.059q1.147-2.619 2.297-5.238l.995-2.302A131 131 0 0 1 743 1125l-3-3c2.545-10.436 10.827-15.31 19.327-20.899a496 496 0 0 0 4.587-3.066c5.964-4.017 11.99-7.937 18.024-11.848l2.188-1.419c3.59-2.32 7.191-4.599 10.874-6.768-1.407-3.143-3.11-5.41-5.437-7.937-5.238-5.916-5.238-5.916-6.563-9.063.375-3.188.375-3.188 1-6l-1-2c-.948-7.586 1.776-11.84 6-18l2-3-1-3c2.225-12.223 11.084-21.767 18.73-31.008 4.283-5.19 8.283-10.573 12.27-15.992q1.498-2.001 3-4l-1.898-1.469c-5.639-4.624-8.037-7.316-9.102-14.531l-1.023-2.246c-1.265-3.565-1.23-6.9-1.164-10.629l.001-2.066c.03-3.424.265-6.601.76-10.004L812 934l-1-1c.222-6.102 1.889-10.289 4.844-15.605 1.2-2.485 1.664-4.694 2.156-7.395l-1.973.02c-63.096.616-63.096.616-90.027-3.02l-3.03-.39c-16.814-2.277-33.086-7.938-48.163-15.695-2.776-1.406-5.613-2.615-8.495-3.79l-3.261-1.367c-3.648-.906-4.68-.177-8.051 1.242-6.231-.149-10.487-2.649-15.687-5.75-5.156-2.981-10.185-5.774-15.75-7.937-9.41-3.72-18.925-8.995-23.59-18.38-3.538-7.032-12.141-11.912-18.153-16.652-4.576-3.775-7.626-7.776-10.883-12.715-2.84-3.762-6.287-6.65-9.898-9.656C559 814 559 814 558 811c-2.917-.77-5.724-1.36-8.687-1.875-20.96-4.013-20.96-4.013-28.313-10.125l1-5 10-2-1.758-2.457c-4.402-6.218-8.371-12.41-11.898-19.18-1.214-2.134-2.452-3.803-4.094-5.613-2.25-2.75-2.25-2.75-3.043-5.89-1.262-4.752-3.974-8.377-6.77-12.36a1822 1822 0 0 1-3.257-4.785l-1.63-2.4C483.533 715.382 483.533 715.382 484 705l4-1c5.587 7.371 10.49 14.925 15 23q-.672-5.82-1.367-11.637c-.466-3.896-.901-7.795-1.328-11.695l-.743-6.48-.333-3.163-.35-2.982-.295-2.656c-.672-2.748-1.812-4.212-3.584-6.387-3.043-7.607-3.15-15.291-3.133-23.36l-.003-2.984q0-3.117.006-6.233.005-4.724-.007-9.446 0-3.044.004-6.086l-.006-2.81c.016-4.509.184-8.93.643-13.415.635-6.41.603-12.78.558-19.217l-.011-3.81q-.019-5.976-.051-11.952a7566 7566 0 0 1-.062-15.8l-.026-3.646-.01-3.41-.016-2.982c.12-3.018.614-5.873 1.114-8.849a100 100 0 0 0-.875-5.312c-.476-4.559.039-6.775 2.813-10.438 3.06-3.412 6.37-6.493 9.886-9.43 2.494-2.086 4.895-4.259 7.301-6.445 2.672-2.423 5.346-4.78 8.188-7 3.971-3.51 7.072-7.15 8.5-12.312 5.476-14.124 27.112-23.155 39.582-30.375 12.601-7.314 24.997-14.997 37.293-22.813 6.746-4.285 13.535-8.49 20.375-12.625l2.617-1.594 2.418-1.453 2.14-1.292C636 426 636 426 638 426l-.936-3.818c-1.184-5.344-1.677-10.65-2.083-16.1l-.249-3.155c-.93-12.067-1.685-24.145-2.423-36.224l-.455-7.363q-.474-7.659-.94-15.319-.594-9.687-1.197-19.374-.47-7.587-.935-15.176-.219-3.566-.441-7.132c-1.32-21.202-2.222-42.41-2.591-63.651l-.05-2.796c-.047-3.967.162-7.066 1.831-10.697 1.49-3.24 1.757-4.574 1.219-8.007l-.34-2.555q-.42-2.697-.851-5.39l-.371-2.68-.395-2.434C627 202 627 202 628.762 200.203c3.324-1.787 5.658-1.065 9.238-.203 2 2 2 2 2.02 5.746q-.102 2.346-.207 4.691c-.182 6.972.451 12.024 3.996 18.204 3.052 6.044 2.651 13.649 3.129 20.297.528 7.27 1.099 14.533 1.753 21.793 1.115 12.453 1.986 24.91 2.746 37.39l.381 6.129q.495 7.983.984 15.966.491 7.984.987 15.97.76 12.27 1.516 24.544A30536 30536 0 0 0 658 414l2.5-1.206 12.211-5.894q5.213-2.519 10.436-5.014 1.845-.882 3.689-1.77c9.704-4.667 19.549-8.764 29.601-12.616l4.666-1.8A4800 4800 0 0 1 736 380l2.56-.978c19.288-7.367 38.575-14.657 58.233-20.99a315 315 0 0 0 12.133-4.188c15.14-5.48 30.518-9.276 46.199-12.844l3.194-.738c10.665-2.45 21.041-4.617 31.998-4.998 6.086-.213 11.768-1.256 17.683-2.639 11.778-2.658 11.778-2.658 16.89-3.305 10.167-1.298 16.235-4.618 24.11-11.32a99 99 0 0 1 4.188-2.375C963.51 309.261 971.764 295.151 976 284c1.525-6.607 1.134-13.328.863-20.055q-.062-2.918-.116-5.835c-.558-24.214-2.441-48.399-4.28-72.542-.467-6.173-.912-12.347-1.36-18.521-2.55-34.941-2.55-34.941-4.038-51.87l-.217-2.476q-.482-5.482-.998-10.96c-.546-5.987-.992-11.97-1.181-17.98l-.107-3.145C965 78 965 78 966.77 76.14c2.816-1.44 5.126-1.243 8.23-.953M872 812l1 3Z"/><path fill="#f0b505" d="m1144 407 2.435.041c11.888.22 23.215 2.014 34.91 4.15 10.373 1.86 20.474 2.898 31.026 2.783l2.422-.025 2.212-.04c2.62.12 4.678.895 6.995 2.091v2l2.168.41c2.754.574 5.435 1.27 8.145 2.027 3.198.892 6.383 1.726 9.624 2.438 9.043 2.256 17.036 5.773 23.45 12.602 1.825 1.723 3.733 2.947 5.863 4.273 6.344 4.174 12.147 8.9 14.75 16.25.188 3.875.188 3.875 0 7l4 2-2 2c-1.438 5.808-1.339 11.922-1.562 17.875l-.131 3.242A3138 3138 0 0 0 1288 496a833 833 0 0 1-21.894-3.853c-14.71-2.785-29.183-5.177-44.157-5.803C1219 486 1219 486 1217 484c-2.691-.274-2.691-.274-6.17-.306l-3.961-.048q-2.169-.01-4.338-.017l-4.493-.033c-4.846-.031-9.692-.034-14.538-.034l-2.483-.002c-20.172-.02-40.228.086-60.267 2.69l-2.4.31c-8.772 1.175-17.461 2.792-26.147 4.487l-2.557.495c-3.238.652-6.214 1.278-9.27 2.552-3.236 1.234-6.144 1.251-9.603 1.363l-4.492.176-2.415.087c-22.723.844-45.277 3.122-67.886 5.468-6.654.687-13.308 1.315-19.98 1.812 2.675-1.783 4.068-2.418 7.073-3.145l2.467-.606 2.651-.632 2.73-.664q2.856-.692 5.713-1.376c2.922-.7 5.842-1.41 8.762-2.12l5.545-1.34 2.658-.644 2.458-.587 2.166-.52C1020 491 1020 491 1022 491l-1-4c-6.215-.38-10.436.161-16 3-2.66 1.33-5.237 1.316-8.165 1.544-11.188.893-21.76 3.07-32.65 5.701-6.044 1.433-12.116 2.744-18.185 4.067l-4.063.89a2465 2465 0 0 1-22.382 4.778l-2.409.503-4.842 1.01a1688 1688 0 0 0-44.007 9.788c-7.65 1.81-15.315 3.553-22.985 5.282l-3.89.878a2633 2633 0 0 1-18.742 4.157l-10.385 2.269a275 275 0 0 0-18.482 4.758c-7.608 2.239-15.245 3.505-23.074 4.715-12.274 1.959-24.3 4.951-36.377 7.857a874 874 0 0 1-13.55 3.115l-2.136.477a245 245 0 0 1-14.414 2.719c-2.262.492-2.262.492-4.688 1.48-2.827 1.111-5.45 1.611-8.449 2.074l-3.164.497c-3.319.494-6.636.988-9.961 1.441v-2c-7.265-.461-11.589.727-18 4-7.812 3.896-15.418 7.25-23.812 9.688-24.97 7.41-47.557 21.118-69.188 35.312-4.97 3.235-9.946 6.42-15.11 9.34-7.629 4.331-14.316 8.545-20.675 14.676C527.188 634.623 522.52 638 517 638l-.076-1.912q-.175-4.263-.361-8.525l-.12-3.01-.127-2.862-.11-2.65C516 617 516 617 515 616c-.04-2-.043-4 0-6l-3.437-.437C508 609 508 609 507 608c-.851-6.932.956-12.255 3.51-18.608 2.291-5.708 4.106-11.477 5.665-17.427.552-1.93.552-1.93 1.825-4.965 2.023-.691 2.023-.691 4-1l2-4c1.572-1.612 1.572-1.612 3.406-3.172l2.004-1.765a425 425 0 0 1 4.18-3.579c4.86-4.32 6.152-7.152 7.41-13.484 8.1-10.05 29.06-14.202 40.875-17.687l2.672-.791a223 223 0 0 1 14.352-3.584c13.28-2.848 25.891-6.655 38.664-11.25l5.38-1.897c8.18-2.892 16.314-5.874 24.402-9.013 8.256-3.201 16.368-6.095 25.03-8.028q2.825-.662 5.648-1.328l2.895-.677c11.093-2.681 22.07-5.843 33.058-8.921 43.718-12.232 43.718-12.232 59.13-15.12 2.965-.721 5.707-1.776 8.55-2.875 4.77-1.687 9.69-2.85 14.594-4.079l3.258-.852 3.133-.789 2.829-.72c2.561-.394 4.101-.22 6.53.611l-3 1.75-3 2.25v4c5.9.36 10.307-.83 15.813-2.875l2.611-.94c7.045-2.56 14.027-5.283 21.014-7.998 19.742-7.665 39.713-14.8 60.182-20.281q3.966-1.064 7.928-2.144 6.47-1.76 12.947-3.494 2.62-.703 5.24-1.414c2.464-.667 4.93-1.322 7.398-1.975l2.27-.62c5.254-1.373 5.254-1.373 8.597-.259l-6 2 2 5c14.021-.247 27.645-3.136 41.211-6.558 6.409-1.578 12.854-2.102 19.422-2.646 11.197-.933 22.306-2.13 33.43-3.733 13.296-1.872 26.625-3.146 40-4.313l2.982-.27c13.683-1.225 27.219-1.732 40.955-1.48"/><path fill="#72141a" d="m1080.875 514.813 2.027-.038c3.557-.01 6.281.277 9.75 1.26 5.917 1.624 11.974.913 18.035.59 39.111-1.863 39.111-1.863 54.313 11.563a611 611 0 0 1 5 4.812l2.5 2.277c5.044 4.737 9.155 9.75 13 15.473l1.277 1.897c3.235 4.988 5.223 9.282 5.223 15.353l1.938.938C1196 570 1196 570 1197 571c.7 6.748-1.498 12.43-3.687 18.75l-1.03 3.094c-2.07 6.1-4.448 11.9-7.31 17.674-1.549 3.951-1.317 7.29-.973 11.482h-3l-.043 2.09c-.369 7.264-1.971 11.897-5.957 17.91l-1.793 2.875c-7.444 11.648-16.663 21.587-27.652 29.996-2.073 1.621-3.915 3.07-5.555 5.129.25 3.688.25 3.688 1 7-2.805 3.572-6.235 5.396-10.227 7.453l-1.784.925a720 720 0 0 1-3.717 1.905c-1.902.97-3.798 1.952-5.694 2.936C1110.291 705 1110.291 705 1108 705l-1 3c-2.614 1.255-2.614 1.255-6.098 2.488l-1.884.68a802 802 0 0 1-6.08 2.144q-2.07.738-4.136 1.478-4.06 1.454-8.125 2.895c-5.712 2.043-11.373 4.213-17.036 6.39C1061 725 1061 725 1059 725l-1-2-3.68.488c-6.145.68-12.268.696-18.445.7l-3.457.037c-8.454.014-14.974-.16-21.418-6.225l-1-2c-2.263-.806-4.55-1.405-6.871-2.023C1001 713 1001 713 999.98 710.945L999 709c-1.953-.61-1.953-.61-4.25-.75l-2.437-.187C990 708 990 708 986.75 708.25c-2.75-.25-2.75-.25-5.625-2.437C979 703 979 703 979.141 700.637c-.2-3.755-1.91-5.007-4.516-7.637-3.16-3.21-5.224-5.69-6.625-10l2-1c-.554-5.252-2.333-9.096-4.75-13.687l-2.172-4.32a98 98 0 0 0-3.719-6.673c-5.254-9.21-4.942-21.083-3.359-31.32 1.807-6.396 4.766-12.221 8-18 1.554-2.842 2-3.693 2-7-1.853.22-1.853.22-4 1-1.28 1.95-1.28 1.95-2.36 4.473l-1.19 2.724-1.2 2.865-1.246 2.877A691 691 0 0 0 953 622h-3c.691-10.138 5.972-19.215 10.5-28.125l1.113-2.263c2.758-5.288 2.758-5.288 6.02-6.967L970 584c2.375-2.187 2.375-2.187 5-5q1.685-1.66 3.375-3.312a109 109 0 0 0 6.84-7.504c3.624-4.158 7.584-7.49 11.972-10.809l2.348-1.8c7.383-5.612 14.958-10.94 22.606-16.184a187 187 0 0 0 9.093-6.657c14.246-10.968 31.503-17.904 49.641-17.922"/><path fill="#017071" d="M1011.175 333.934c12.321-.33 12.321-.33 17.473 1.024 4.526 1.168 8.982 1.589 13.633 1.937l5.448.45 2.857.23c19.648 1.6 39.004 3.997 58.414 7.425l-1 7-18 1v5l2.52.184 3.293.253 3.269.247C1102 359 1102 359 1105 360l.148 2.668.227 3.52c.07 1.148.14 2.297.21 3.48.39 3.132 1.096 5.485 2.415 8.332h5c1.48-2.962 1.353-5.835 1.563-9.125l.253-3.883L1115 362h5l-.5 3.313c-.666 5.226-.587 10.427-.5 15.687 2.827-.573 3.892-.899 6.063-2.937 2.603-4.116 3.735-8.373 4.937-13.063h8c-1.135-3.291-1.993-3.996-5.125-5.75L1130 358v-7c6.543 1.3 12.496 3.166 18.688 5.625 5.738 2.243 11.477 4.456 17.289 6.504l2.958 1.046q2.799.986 5.605 1.947c4.903 1.734 9.04 3.75 13.372 6.613 4.006 2.427 8.385 4.066 12.713 5.827 5.86 2.39 11.216 4.705 16.375 8.438l4.875 3.188 2.367 1.542L1226 393v1c-8.323.442-15.619.077-23.687-2-9.987-2.528-21.768-3.866-31.903-1.36-3.593.536-6.722-.626-10.16-1.577-11.625-2.95-23.346-2.44-35.25-2.063l-1 5c4.974 1.757 9.742 3.326 15 4v1c-15.351.183-30.662-.384-46-1l-1-4c-6.952-.25-13.474.243-20.328 1.41-3.677.59-7.351 1.08-11.047 1.535l-2.088.258a3251 3251 0 0 1-14.932 1.797l-6.307.75-4.248.5c-7.541.883-15.02 1.864-22.481 3.294-3.585.636-7.183 1.039-10.8 1.444-48.618 5.45-48.618 5.45-57.738 12.543-2.797 2.023-5.325 2.28-8.718 2.844a147 147 0 0 0-16.813 4.063 538 538 0 0 1-19.742 5.57c-1.98.522-3.958 1.05-5.922 1.627-8.77 2.526-17.698 4.247-26.64 6.037-4.93.988-9.858 1.987-14.786 2.988l-2.975.604c-8.416 1.717-16.803 3.55-25.185 5.423-10.675 2.379-21.371 4.52-32.125 6.5-15.01 2.77-29.788 5.792-44.5 9.875l-2.725.745-2.548.728-2.256.637C735 464 735 464 733.13 465.63c-3.052 1.964-5.016 1.298-8.556.77-7.96-.752-13.506 1.144-20.761 4.226q-3.547 1.413-7.102 2.805l-3.466 1.362c-5.099 1.898-10.279 3.227-15.56 4.502-6.474 1.58-12.726 3.647-18.99 5.916-5.38 1.895-5.38 1.895-8.695.79l3-1-1-2c-7.26 1.344-13.53 3.73-20.25 6.75l-3.108 1.36a221 221 0 0 0-14.892 7.202c-8.528 4.042-18.101 4.96-27.328 6.52-4.872.84-9.417 1.94-14.11 3.48-7.401 2.336-14.643 2.047-22.312 1.688 1.514-4.353 4.837-6.242 8.5-8.687 19.827-13.693 19.827-13.693 22.238-21.793 2.024-4.042 5.619-5.624 9.45-7.832l2.452-1.455c6.138-3.609 12.38-7.001 18.692-10.292 3.073-1.608 6.083-3.308 9.088-5.04 11.002-6.33 22.387-11.896 33.766-17.51q4.413-2.184 8.814-4.391v-6a688 688 0 0 1 8.5-4.687l2.34-1.319c5.14-2.776 10.284-4.754 15.879-6.408 8.11-2.406 15.631-5.679 23.281-9.274q3.178-1.47 6.36-2.937 2.242-1.034 4.483-2.073c8.674-4.017 17.391-7.935 26.11-11.851q3.942-1.772 7.883-3.547l4.89-2.2 2.225-1.003c13.215-5.937 13.215-5.937 18.049-6.451 7.406-1.093 14.385-3.415 21.507-5.651 5.056-1.58 10.047-3.038 15.243-4.099 5.207-1.11 9.985-2.842 14.938-4.75 16.701-6.342 33.578-10.827 51.373-12.546 8.226-.846 16.165-2.475 24.218-4.284 15.943-3.565 31.396-4.95 47.69-5.61 6.884-.301 13.694-1.049 20.531-1.873 10.901-1.294 21.705-2.169 32.675-2.503"/><path fill="#bd0a0a" d="M768.25 569.313c5.363 2.108 10.433 3.967 16.125 5 7.437 1.667 13.188 6.54 18.625 11.687a167 167 0 0 1 3 5 128 128 0 0 0 4.688 4.625c3.64 3.53 6.6 7.049 9.437 11.25 2.412 3.487 4.05 5.594 8 7.188 4.522 1.876 6.514 4.784 8.813 9.03 2.9 7.935 1.18 16.462-.493 24.516-.526 2.827-.6 5.523-.445 8.391l2 1c.27 5.14.084 8.272-2.215 12.965-1 2.592-1.333 5.098-1.722 7.847-1.437 9.302-4.734 16.168-10.297 23.708-1.656 2.326-3.019 4.667-4.391 7.168-4.041 6.88-9.499 12.639-14.81 18.55a228 228 0 0 0-4.092 4.77l-2.223 2.617-1.86 2.227c-2.792 2.51-5.706 4.062-9.008 5.818-2.314 1.292-4.442 2.697-6.6 4.232-8.726 6.203-16.848 10.795-27.11 13.914C750 762 750 762 746.8 763.63c-4.004 1.96-7.433 2.009-11.801 1.371-2.875-1.562-2.875-1.562-5-3l-3 1c-2.832.303-5.664.508-8.504.719C716 764 716 764 714 765c-2.06.156-4.124.275-6.187.375-7.173.48-7.173.48-10.563 2.188-4.163 1.84-7.761 2.243-12.25 1.437-2.562-1.875-2.562-1.875-4-4v-2l-3.937-.687c-4.92-.97-9.65-2.35-14.438-3.813-6.815-2.075-13.546-3.586-20.625-4.5 1.305 2.61 2.358 2.68 5.063 3.625.733.26 1.466.52 2.222.79.566.192 1.132.386 1.715.585-4.52 1.439-7.933.049-12.25-1.5l-2.316-.824c-5.943-2.239-10.063-5.057-14.434-9.676q-1.731-1.428-3.5-2.812L616 742v-2h8l-1-3c-2.285-.95-2.285-.95-5.062-1.687l-2.786-.762L613 734l.125-3c.011-2.813-.355-5.173-1.125-7.875-3.309-12.45 1.612-24.927 4.922-36.918.813-3.048 1.479-6.102 2.094-9.195 2.24-10.967 5.474-19.772 11.254-29.348 2.515-4.178 4.614-8.486 6.698-12.892 5.113-10.777 11.168-19.844 18.693-29.067 1.69-2.153 3.116-4.424 4.527-6.768C663.405 593.9 668.046 590.27 673 587h2v2c3.836-.98 7.395-2.108 11-3.75l5-2.25 3.137-1.418c8.623-3.69 17.161-6.002 26.362-7.845 4.81-.99 8.33-2.061 12.501-4.737 2.902-.695 2.902-.695 5.938-1.125l3.027-.445L745 567l2.879-.555c7.879-1.124 13.107-.09 20.371 2.867"/><path fill="#015271" d="M1025 506c-2.575 2.575-4.93 3.106-8.375 4.313C1004.28 514.938 987.473 523.79 980 535l-.5 3.188c-1.48 5.68-7.003 8.542-11.5 11.812a89 89 0 0 0-5 4v2c3.107-1.468 5.905-3.2 8.75-5.125l2.422-1.633L976 548l2 1-1.547 1.809C966.394 562.812 956.553 574.808 952 590l-.777 2.531a428 428 0 0 0-1.418 4.824c-2.091 6.873-4.68 13.6-7.168 20.336l-1.324 3.621-1.2 3.239c-2.503 7.756-3.415 14.803-3.3 22.949l.001 2.742c.045 6.617.045 6.617 1.186 7.758.355 2.48.66 4.949.938 7.438.347 2.855.704 5.708 1.062 8.562l.363 2.934c1.75 11.048 8.52 19.75 17.334 26.334 8.089 5.785 15.263 9.63 25.15 11.216 4.264.698 8.099 2.048 12.153 3.516-3.654 1.268-6.49.757-10.25.063l-3.266-.59L979 717v4h-9v5c17.658 10.357 39.468 11.852 59.25 7.5l3.078-.844c2.666-.654 4.94-.776 7.672-.656-19.34 12.893-45.256 16.103-67.555 20.341-10.663 2.047-21.222 4.52-31.785 7.027-18.885 4.481-37.876 8.206-57.035 11.32l-2.881.47c-14.49 2.332-28.497 3.504-43.174 3.674-6.429.096-12.706.715-19.07 1.606l-2.681.372c-3.422.517-6.527 1.086-9.796 2.249-4.285 1.334-8.43 1.416-12.898 1.566l-2.942.115c-14.053.48-28.124.347-42.183.26 2.956-2.956 6.798-4.334 10.594-5.994 4.408-2.077 6.869-4.523 9.895-8.304 2.437-2.745 5.354-4.39 8.511-6.202 6.951-4.178 13.724-8.575 20.438-13.125.91-.61 1.82-1.218 2.76-1.846 10.154-6.906 20.047-14.31 24.11-26.334 1.676-4.61 4.33-8.027 7.38-11.82C842.384 693.585 849.795 678.662 855 662h-2l-.332-3.812c-.766-8.431-1.602-16.842-3.043-25.188l-.648-3.812c-1.076-3.511-2.364-4.72-4.977-7.188-.426-2-.426-2-.312-4l.074-2c.238-2 .238-2 .86-4.031.58-3.022-.98-4.977-2.392-7.574-1.375-2.678-2.448-5.404-3.543-8.207-3.203-7.802-7.306-15.528-13.687-21.188l-3-1 4 11a135 135 0 0 1-8.195-4.426l-2.405-1.407-2.525-1.48c-5.114-2.992-10.184-5.937-15.562-8.437-4.128-1.963-7.113-4.6-10.461-7.676-5.105-4.34-11.073-5.08-17.497-5.851-2.355-.723-2.355-.723-3.68-2.79L765 551c6.609-2.052 13.338-3.363 20.125-4.687l3.535-.721 3.41-.666 3.087-.612c5.187-.573 8.288.69 12.405 3.749a211 211 0 0 0 11.313 7.687c15.002 10.046 27.04 24.046 35.125 40.25v2l3-1c1.21-3.488 1.02-4.945-.3-8.46a167 167 0 0 0-2.013-3.915l-1.093-2.112C844.498 565.357 832.933 548.997 814 542c1-2 1-2 3.08-2.698 3.2-.723 6.399-1.435 9.607-2.115l3.805-.811c9.806-2.032 19.633-3.372 29.57-4.563 17.119-2.055 34.003-5.097 50.938-8.313l3.923-.744q7.58-1.436 15.16-2.88c21.887-4.16 43.869-7.502 65.917-10.688l3.329-.484q4.71-.68 9.421-1.349l2.865-.415c4.502-.632 8.824-1.104 13.385-.94"/><path fill="#011e25" d="M1088 1028c9.644 3.223 18.852 7.592 28 12l2.877 1.354c4.7 2.26 8.735 4.543 12.623 8.083l2.469 2.184c5.464 6.4 4.381 14.465 4.031 22.379l-.031 2.781c-.505 5.7-2.712 8.411-6.969 12.157-17.903 14.008-39.137 24.164-60.418 31.87-3.603 1.318-6.778 2.52-9.582 5.192l-1 3c-2.338 1.103-2.338 1.103-5.441 2.121l-3.432 1.14-3.69 1.177c-.62.2-.62.2-3.761 1.22-14.281 4.577-28.534 7.814-43.28 10.505-15.449 2.855-15.449 2.855-20.396 4.837l-2 3c-2.6 1.056-2.6 1.056-5.914 2.016l-3.71 1.092-4.001 1.142-4.1 1.196q-4.154 1.214-8.314 2.41a1148 1148 0 0 0-10.586 3.113c-11.687 3.478-23.412 6.674-35.27 9.517q-2.031.495-4.054 1.028c-5.63 1.478-11.31 2.42-17.051 3.361-25.105 4.279-25.105 4.279-35.562 10.02-6.202 2.812-13.685 3.506-20.438 3.105l-3-2c-2.268-.319-2.268-.319-4.887-.414l-2.842-.117-2.958-.094-2.995-.117q-3.658-.141-7.318-.258l-.875-1.937C803 1184 803 1184 801 1183c-5.842.138-11.625 1.084-17.375 2.063-10.761 1.679-22.355 2.17-32.625-2.063-2.38-2.35-3.839-3.861-4.312-7.21.58-4.017 1.294-7.119 3.437-10.602C752 1162 752 1162 751.938 1159.625 751 1158 751 1158 748 1157c1.597-10.842 10.273-23.273 18-31l.293-3.68c.963-8.147 7.883-14.212 13.993-19.178 9.283-7.062 18.957-13.55 29.714-18.142v-4l3.375 1.25c4.829 1.612 9.724 2.766 14.688 3.875l2.288.517c8.49 1.856 16.6 2.527 25.274 2.483l3.063-.015q4.656-.038 9.312-.11l2.698-.038c12.055-.224 23.968-1.374 35.927-2.837l2.052-.246c7.694-.933 15.084-2.222 22.572-4.214 4.177-1.01 8.351-1.43 12.626-1.79q2.403-.22 4.805-.445l2.258-.207c1.777-.192 3.544-.485 5.304-.797 2.806-.433 5.185-.324 8.008-.113 19.732.048 41.355-12.922 56.92-24.052 5.662-4.034 10.701-6.783 17.83-6.261v-2l2.379-1.137c9.63-4.69 9.63-4.69 13.496-7.676C1058 1035 1058 1035 1061 1034.564c3.43-.643 3.624-1.143 5.813-3.626 5.948-5.195 13.919-4.584 21.187-2.937"/><path fill="#034f57" d="M1037 943h3c1.153 1.153 2.3 2.312 3.418 3.5 3.988 3.78 8.858 6.655 13.77 9.063 2.398 1.225 3.946 2.32 5.937 4.062 2.875 2.375 2.875 2.375 4.871 2.71 2.004.665 2.004.665 3.531 2.852l1.41 2.813c1.854 3.65 3.772 7.152 5.938 10.625 2.502 4.59 3.14 8.233 2.125 13.375-2.359 7.556-5.657 14.16-11 20l-2.43 2.734c-12.804 13.487-31.011 20.205-48.155 26.46a165 165 0 0 0-16.602 7.119l-2.018.987c-3.21 1.64-4.753 2.636-6.795 5.7a433 433 0 0 1-5.53-.163c-5.143.339-9.895 2.626-14.658 4.476-21.297 7.959-21.297 7.959-31.576 7.473-3.176.304-5.887 1.423-8.88 2.519-7.84 2.738-15.707 4.271-23.892 5.58-2.294.368-4.585.752-6.876 1.138-22.742 3.799-45.946 5.076-68.588-.023l-3.723-.797c-5.885-1.349-5.885-1.349-8.277-2.203l-1-2-3.812-.312c-3.443-.34-4.003-.508-6.625-3.063-3.645-6.123-3.535-13.589-1.891-20.414.709-2.107 1.46-4.165 2.328-6.211-1.863.305-1.863.305-4 1-3.29 4.7-4.537 8.322-5 14-2.403-1.837-2.96-2.727-3.398-5.777l.023-3.16-.023-3.153c.444-3.247 1.015-4.673 3.398-6.91h4l-.742-2.074c-.36-4.086 1.454-6.454 3.617-9.738q1.253-1.993 2.5-3.989l1.313-2.08c2.159-3.485 4.177-7.046 6.187-10.619l1.117-1.956c1.709-3.034 3.248-6.033 4.555-9.263 2.138-4.828 4.692-7.9 9.453-10.281 4.458-.364 8.602.286 13 1q2.874.268 5.75.5c4.122.372 4.122.372 5.25 1.5 13.687.787 26.24-.887 39.03-5.88 5.732-2.109 11.168-2.557 17.247-2.889 6.234-.387 12.407-1.228 18.598-2.043l2.01-.264c9.178-1.21 18.346-2.483 27.49-3.924l2.875-.429c6.12-1.007 11.177-2.901 16.75-5.571 2.563-1.076 5.15-2.079 7.75-3.062l2.08-.79c4.266-1.573 8.453-2.74 12.92-3.648 12.19-2.615 23.454-9.704 32.25-18.5"/><path fill="#d78e04" d="M1278 608c3.001 3.345 3.001 3.345 2.996 6.227l-.559 2.398-.503 2.352c-.813 2.633-1.768 5.07-2.829 7.609-2.312 5.681-3.801 11.458-5.23 17.414l-.762 3.078c-1.157 4.728-2.192 9.4-2.953 14.207-1.01 5.107-3.209 8.282-6.598 12.153l-1.71 2.016c-11.626 13.451-23.82 25.883-38.943 35.338a200 200 0 0 0-5.71 3.774c-6.713 4.575-13.522 8.935-20.53 13.044-3.14 1.845-6.214 3.732-9.22 5.788-23.127 15.639-52.222 24.157-78.96 31.532a55 55 0 0 0-7.192 2.73c-3.108 1.263-4.223 1.655-7.36.903-4.301-.615-5.914.066-9.937 1.437-2.368.345-4.745.631-7.125.875-6.528.732-12.937 1.823-19.375 3.125l-2.497.503a242 242 0 0 0-10.778 2.456c-4.115 1.036-8.252 1.888-12.416 2.697l-4.612.91q-3.577.703-7.155 1.402-3.492.685-6.983 1.376l-2.135.413c-4.383.868-8.631 2.01-12.924 3.243q-3.18.341-6.375.5c-3.707.184-7.156.582-10.755 1.45-4.737 1.072-9.446 1.692-14.272 2.198l-2.71.295q-4.41.475-8.826.932l-3.102.326c-33.734 3.531-67.527 6.37-101.428 7.616l-2.479.098q-2.226.088-4.453.156c-4.331.172-8.497.712-12.774 1.427-6.923 1.109-13.735 1.39-20.736 1.53l-5.91.158c-4.774.127-9.549.236-14.323.343-15.82.36-31.278 1.038-46.857 3.971l-1 3c-19.206.577-38.409 1.1-57.625 1.125l-2.118.008q-2.96.006-5.921 0l-3.358-.004c-2.784-.12-5.258-.56-7.978-1.129q-2.756-.209-5.52-.316l-3.095-.127-3.197-.12-3.256-.13q-3.966-.159-7.932-.307l2-1v-2l-2.984.113c-4.269-.003-8.148-.87-12.266-1.926l-2.14-.501c-6.53-1.64-6.53-1.64-8.61-4.686v-2l-2.371-.148-3.067-.227c-1.009-.07-2.018-.14-3.058-.21-.826-.138-1.653-.274-2.504-.415l-1-2a188 188 0 0 0-8.812-1.687c-10.054-1.852-19.403-4.857-28.95-8.467a488 488 0 0 0-6.242-2.303c-9.145-3.382-9.145-3.382-12.996-6.543l1-5-2.152-1.39-2.785-1.86-2.778-1.828C538 764 538 764 537.06 761.953 537 760 537 760 539 757l-2-4c6.229.804 11.805 3.819 17.273 6.762 9.475 4.972 19.212 7.986 29.54 10.613l2.002.512c7.514 1.904 15.01 3.508 22.667 4.706 2.923.472 5.773 1.12 8.643 1.845 6.248 1.493 12.53 2.563 18.872 3.56 3.104.492 6.015 1.006 9.003 2.002l1 2c24.547 8.449 56.947 4.776 82.52 3.36 10.84-.532 21.692-.475 32.543-.485l2.967-.008a2170 2170 0 0 1 11.348.005c5.002.033 9.888.298 14.868.823 6.101.513 11.499-.305 17.466-1.425 6.159-1.142 12.292-1.854 18.53-2.403l2.887-.254q4.372-.375 8.746-.738 4.465-.378 8.93-.765 2.746-.237 5.495-.464l2.492-.213 2.178-.181c2.03-.252 2.03-.252 4.077-.767 2.458-.61 4.876-.663 7.398-.756 10.302-.387 20.152-2.084 30.242-4.104l4.76-.922a952 952 0 0 0 21.041-4.32 269 269 0 0 1 14.393-2.712c13.892-2.232 27.516-5.451 41.19-8.734 3.99-.955 7.986-1.883 11.984-2.804q10.98-2.531 21.945-5.133l2.52-.597c8.312-1.995 15.963-4.658 23.75-8.133 3.132-1.067 5.309-1.497 8.535-1.743 5.51-.44 10.321-1.918 15.507-3.777l2.92-1.028c13.711-4.975 28.154-10.708 40.855-17.905 2.352-1.005 3.908-.865 6.444-.653 6.382.124 11.263-2.137 16.969-4.789l2.934-1.293c6.49-2.918 12.527-6.332 18.566-10.082 3.326-1.891 5.475-2.941 9.277-3.367 14.976-2.546 31.88-17.507 42.723-27.633a1058 1058 0 0 1 4.5-3.937l2.031-1.778L1213 664l2 1-1.531 1.68-1.969 2.195-1.969 2.18C1208 673 1208 673 1208 675c5.027-.476 7.787-1.915 11.75-5 .517-.4 1.033-.802 1.565-1.215 5.117-4.02 9.96-8.315 14.685-12.785l2.258-2.133c3.843-3.73 6.776-7.39 9.742-11.867 1.245-1.57 2.49-3.14 3.756-4.694 6.514-7.999 11.913-16.491 17.244-25.306l2-3c3.625-.687 3.625-.687 7-1"/><path fill="#bd0a0a" d="m1080.625 514.813 2.082-.038c3.623-.01 6.43.264 9.961 1.26 5.91 1.627 11.965.913 18.02.59 39.11-1.863 39.11-1.863 54.312 11.563a611 611 0 0 1 5 4.812l2.5 2.277c5.044 4.737 9.155 9.75 13 15.473l1.277 1.897c3.235 4.988 5.223 9.282 5.223 15.353l1.938.938C1196 570 1196 570 1197 571c.7 6.748-1.498 12.43-3.687 18.75l-1.03 3.094c-2.07 6.1-4.448 11.9-7.31 17.674-1.549 3.951-1.317 7.29-.973 11.482h-3l-.043 2.09c-.369 7.264-1.971 11.897-5.957 17.91l-1.793 2.875c-7.444 11.648-16.663 21.587-27.652 29.996-2.073 1.621-3.915 3.07-5.555 5.129.25 3.688.25 3.688 1 7-2.805 3.572-6.235 5.396-10.227 7.453l-1.784.925a720 720 0 0 1-3.717 1.905c-1.902.97-3.798 1.952-5.694 2.936C1110.291 705 1110.291 705 1108 705l-1 3c-2.614 1.255-2.614 1.255-6.098 2.488l-1.884.68a802 802 0 0 1-6.08 2.144q-2.07.738-4.136 1.478-4.06 1.454-8.125 2.895c-5.712 2.043-11.373 4.213-17.036 6.39C1061 725 1061 725 1059 725l-1-2-3.68.488c-6.145.68-12.268.696-18.445.7l-3.457.037c-8.454.014-14.974-.16-21.418-6.225l-1-2c-2.263-.806-4.55-1.405-6.871-2.023C1001 713 1001 713 999.98 710.945L999 709c-1.953-.61-1.953-.61-4.25-.75l-2.437-.187C990 708 990 708 986.75 708.25c-2.75-.25-2.75-.25-5.687-2.437C979 703 979 703 979 700.375c1.123-2.667 1.695-3.633 4-5.375a93 93 0 0 1 8.188-1.937l2.497-.504c7.919-1.562 15.886-2.861 23.865-4.076 10.546-1.66 19.335-4.605 28.7-9.733q2.765-1.493 5.531-2.98l2.696-1.451a128 128 0 0 1 6.68-3.245c7.087-3.228 11.823-6.447 16.738-12.523 2.194-2.659 4.572-4.904 7.105-7.239 3.857-3.77 4.403-5.939 5-11.312 2.092-2.617 4.462-4.82 7-7l2 1c1.5-1.375 1.5-1.375 3-3 0-2 0-2-1-5l1.875-2.125c2.844-3.847 2.921-7.2 3.125-11.875h-2v8h-1v-10l5-2-5 1c.063-1.75.063-1.75 1-4 5.252-3.61 9.464-4.675 15.75-5.125 7.888-.634 7.888-.634 11.25-2.875.293-2.383.293-2.383.188-5.125l-.083-2.758L1131 587l-2.273 1.313c-7.685 4.18-13.228 6.054-21.844 4.242-6.876-2.114-11.768-6.995-16.258-12.43-2.843-5.467-4.447-11.961-3.625-18.125 2.7-5.513 6.482-8.572 12-11 4.295-1.23 8.61-2.177 13-3-12.542-6.73-24.791-13.207-38.297-17.777-2.89-1.07-4.418-1.653-5.828-4.473.17-3.754 1.405-6.437 3.125-9.75 3.066-1.533 6.264-1.184 9.625-1.187"/><path fill="#72141a" d="M675 587v2h5l.938 3.438C682 596 682 596 683 597c1.793-.058 3.584-.147 5.375-.25 3.047-.035 3.047-.035 5.625.25 1.625 2.313 1.625 2.313 3 5 6.28 3.12 13.654 4 20.5 5.125l2.973.512c5.184.876 10.328 1.612 15.572 2.015 2.296.409 3.96 1.146 5.955 2.348 1.25 2.125 1.25 2.125 2 4l-2.668 1.32c-12.765 6.546-12.765 6.546-16.332 13.68-.247 4.453.011 7.096 2 11q.498 2.176.875 4.375c1.546 7.157 5.227 11.034 10.93 15.328 7.267 4.293 15.995 4.403 24.195 3.297 3.94-1.266 7.445-2.891 11-5 1 1 1 1 1.25 3.563-.313 4.301-.721 7.85-3.25 11.437-8.394 5.467-19.858 6.083-29.59 6.656-2.512.358-4.224 1.086-6.41 2.344.38 4.256.8 7.788 2.563 11.688 2.469 6.24 2.87 13.698.382 19.972-1.23 2.182-2.568 4.249-3.945 6.34l-1 2.813c-1 2.187-1 2.187-3.5 4.125C728 731 728 731 727.219 733.87c-1.587 4.074-3.502 5.047-7.219 7.254-4 2.394-6.01 3.728-8 7.875-1.91.793-1.91.793-4.062 1.188-3.875.75-3.875.75-4.938 1.812l-3.312.375c-3.833.65-4.728 1.383-7.688 3.625a84 84 0 0 1-4.062.875c-3.32.717-3.753.882-5.938 3.75L681 763c-6.285-1.097-12.284-2.638-18.375-4.5-6.815-2.075-13.546-3.586-20.625-4.5 1.305 2.61 2.358 2.68 5.063 3.625.733.26 1.466.52 2.222.79.566.192 1.132.386 1.715.585-4.52 1.439-7.933.049-12.25-1.5l-2.316-.824c-5.943-2.239-10.063-5.057-14.434-9.676q-1.731-1.428-3.5-2.812L616 742v-2h8l-1-3c-2.285-.95-2.285-.95-5.062-1.687l-2.786-.762L613 734l.125-3c.011-2.813-.355-5.173-1.125-7.875-3.309-12.45 1.612-24.927 4.922-36.918.813-3.048 1.479-6.102 2.094-9.195 2.24-10.967 5.474-19.772 11.254-29.348 2.515-4.178 4.614-8.486 6.698-12.892 5.113-10.777 11.168-19.844 18.693-29.067 1.69-2.153 3.116-4.424 4.527-6.768C663.065 594.433 669.322 587 675 587"/><path fill="#017272" d="M1042 867c1.562 1.33 1.562 1.33 2.86 3.176l1.44 2.01 1.45 2.126 1.496 2.092c4.925 6.983 4.995 12.406 5.066 20.846l.088 3.395c.084 10.882-3.55 15.925-10.853 23.812-4.23 4.224-8.82 7.895-13.547 11.543l-3.016 2.387c-8.947 6.94-18.239 11.557-28.796 15.55l-2.693 1.026c-9.07 3.378-18.324 6.019-27.673 8.5C966 964 966 964 964 965c-2.762.262-5.51.473-8.277.648l-5.19.36q-4.06.275-8.12.539c-9.64.632-19.193 1.424-28.741 2.926l-2.301.361a122 122 0 0 0-23.123 6.205c-5.341 1.58-10.762 1.333-16.286 1.332-2.061.004-4.12.04-6.18.078-8.202.073-16.499-.282-23.782-4.449-1.708-2.53-1.708-2.53-3-5-1.867-1.809-1.867-1.809-3.875-3.437-9.198-7.86-9.198-7.86-9.966-15.31-.27-3.836-.303-7.658-.284-11.503l-.012-2.39.004-2.313.004-2.068c.137-2.097.608-3.947 1.129-5.979l.125-3.187c1.065-4.643 3.113-7.05 6.184-10.602C834 909 834 909 834.91 906.539c1.479-3.445 3.187-5.154 6.09-7.539 2.824-.62 5.14-.944 7.984-1.074l2.345-.166c2.473-.171 4.946-.31 7.421-.447 3.224-.205 6.448-.421 9.672-.637l2.417-.157c10.639-.712 21.16-1.859 31.607-4.008 4.095-.82 8.211-1.492 12.331-2.167l2.703-.448q4.23-.7 8.457-1.396l8.427-1.393 5.418-.894c4.42-.732 8.824-1.509 13.222-2.37 3.803-.715 7.537-1.055 11.398-1.3 6.573-.447 12.762-1.708 19.16-3.23q3.534-.815 7.067-1.625l3.653-.844c7.369-1.672 14.768-3.207 22.166-4.751 6.116-1.294 12.124-2.743 18.115-4.536 2.64-.603 4.741-.877 7.437-.557"/><path fill="#017171" d="m1001 816-2 2c-.633 2.383-.633 2.383-1.125 5.125L997 828l-12 2-1-7a100 100 0 0 0-5 0c-1.896 1.896-1.366 5.295-1.523 7.871C977 833 977 833 974 835v2l3 1v5l-3.875.332-5.125.48-2.543.213c-5.626.546-10.247 1.774-15.457 3.975v3h27l1 18q-7.75 1.377-15.5 2.75l-2.336.414a2214 2214 0 0 1-29.414 5.024c-6.057.99-12.07 2.04-18.062 3.375-19.01 4.191-38.321 5.844-57.688 7.437l-3.539.293c-13.187 1.057-26.37 1.727-39.59 2.203l-3.52.128q-8.797.318-17.594.591l-6.558.222-3.017.083c-6.464.229-13.298.538-19.182 3.48-7.019.737-13.951-.298-20.875-1.375l-2.486-.382c-4.118-.677-7.824-1.467-11.639-3.243l3-7h5c-.375-1.937-.375-1.937-1-4l-2-1-.078-3.473-.172-4.59-.043-2.279c-.243-5.607-1.601-8.98-4.707-13.658h-6c-1.118 2.236-1.194 3.649-1.316 6.133l-.127 2.441-.12 2.551-.13 2.574q-.159 3.15-.307 6.301a532 532 0 0 1-5.125-.375l-2.883-.21C708 873 708 873 702 871l1-15-6 2c-1.312 3.438-1.312 3.438-2 7l-1 3-12-1-1 3 2.168.836c2.79 1.146 5.455 2.426 8.144 3.789l2.676 1.352L696 877v7c-14.739.413-25.245-2.712-38-10l-2.06-1.175c-9.772-5.657-9.772-5.657-12.94-8.825 7.414-2.595 11.265-1.619 18.3 1.738 4.724 2.208 8.48 2.362 13.7 2.262l1-2-2.21-.865a140 140 0 0 1-7.435-3.3l-2.548-1.21-2.62-1.25-2.677-1.273L652 855l.5-2.812c.737-5.045.583-10.102.5-15.188l3.203.048c4.014.055 8.029.089 12.044.117q2.58.022 5.16.061c9.371.14 18.46-.088 27.726-1.613l2.315-.38c5.284-.965 5.284-.965 7.552-3.233a116 116 0 0 1 7.688-1.625l2.107-.406c4.472-.819 8.66-1.1 13.205-.969-3.803 2.226-7.942 3.07-12.187 4.063-7.684 1.808-7.684 1.808-8.813 2.937-.125 2.5-.125 2.5 0 5 2.839 2.839 10.885 1.244 14.875 1.25l2.058.007c9.98.013 19.574-.658 29.38-2.6 3.375-.601 6.278-1.022 9.687-.657l2 3c5.039 1.894 9.795 2.32 15.125 2.25l2.373-.025c25.148-.462 49.907-5.585 74.314-11.35l2.959-.694c5.739-1.406 11.217-3.176 16.728-5.31 3.89-1.355 7.748-1.96 11.837-2.336l2.456-.233 2.583-.24a418 418 0 0 0 22.852-2.792C925 821 925 821 927 822c2.248.098 4.5.13 6.75.125l3.672.008C941 822 941 822 943.739 821.517c3.673-.582 7.31-.758 11.019-.915 9.146-.465 18.084-1.776 27.117-3.227q4.495-.719 8.992-1.414l3.941-.631C998 815 998 815 1001 816"/><path fill="#fdd811" d="M1016.438 475.688C1018 478 1018 478 1017.875 480.625 1017 483 1017 483 1015 485h-3v2l-3.375 1.438c-1.892.815-3.782 1.64-5.625 2.562-2.054.194-4.108.384-6.165.544-11.188.893-21.76 3.07-32.65 5.701-6.044 1.433-12.116 2.744-18.185 4.067l-4.063.89a2465 2465 0 0 1-22.382 4.778l-2.409.503-4.842 1.01a1688 1688 0 0 0-44.007 9.788c-7.65 1.81-15.315 3.553-22.985 5.282l-3.89.878a2633 2633 0 0 1-18.742 4.157l-10.385 2.269a275 275 0 0 0-18.482 4.758c-7.608 2.239-15.245 3.505-23.074 4.715-12.274 1.959-24.3 4.951-36.377 7.857a874 874 0 0 1-13.55 3.115l-2.136.477a245 245 0 0 1-14.414 2.719c-2.262.492-2.262.492-4.688 1.48-2.827 1.111-5.45 1.611-8.449 2.074l-3.164.497c-3.319.494-6.636.988-9.961 1.441v-2c-7.265-.461-11.589.727-18 4-7.812 3.896-15.418 7.25-23.812 9.688-24.97 7.41-47.557 21.118-69.188 35.312-4.97 3.235-9.946 6.42-15.11 9.34-7.629 4.331-14.316 8.545-20.675 14.676C527.188 634.623 522.52 638 517 638a382 382 0 0 1-.187-6.187l-.106-3.481c.405-4.603 2.076-7.115 5.293-10.332 2.82-.633 2.82-.633 6.125-1.125l3.32-.508L534 616c.797-2.838 1.152-5.435 1.246-8.379l.095-2.526.096-2.658c.695-15.546 2.796-26.558 13.141-38.593q2.417-2.837 4.656-5.813c6.831-9.01 13.73-12.43 24.465-15.336C580 542 580 542 583.5 540.25c3.653-1.305 4.618-1.185 8.25-.5 5.918.888 9.224-1.707 13.902-5.086C608 533 608 533 611 532l2.656.621c4.547.515 7.665-.88 11.844-2.558 9.209-3.65 9.209-3.65 14.5-3.063 3.313 1.688 3.313 1.688 6 4 .813 2.625.813 2.625 1 5l1 2c.464 5.85.464 5.85 0 8-3.206 3.296-7.552 4.443-11.812 5.875l-2.248.774c-2.31.792-4.625 1.573-6.94 2.351l-2.26.762Q618.378 557.903 612 560v4l1.941-.875C619.33 560.812 623.111 560 629 560a61 61 0 0 0 7-4c6.453-4.23 13.17-7.576 20.188-10.75l2.592-1.178c3.597-1.601 7.036-3.02 10.833-4.088 2.771-.805 4.737-1.64 7.23-2.988 5.122-2.666 10.442-3.41 16.09-4.33 5.208-.958 8.704-2.528 13.07-5.487 3.389-2.001 6.978-2.644 10.81-3.366l2.212-.46a313 313 0 0 1 9.464-1.783c8.68-1.507 17.218-3.585 25.77-5.69 1.959-.48 3.92-.95 5.882-1.42l3.485-.85c4.486-.811 8.637-1.402 12.858.523 3.641 1.255 6.304.007 9.766-1.258q2.164-.73 4.332-1.445l2.233-.74c8.12-2.565 16.552-4.195 24.904-5.803 12.25-2.36 24.262-5.112 36.291-8.428 10.81-2.979 21.32-5.609 32.564-6.248C889 490 889 490 892 489a77 77 0 0 1 4.64.008l2.747.05q2.84.067 5.68.157c5.893.092 9.663-.606 14.933-3.215 4.677-1.26 9.434-1.265 14.246-1.43l5.475-.222q4.291-.172 8.584-.322c2.773-.098 5.544-.213 8.316-.33l2.576-.077c5.021-.228 8.357-1.082 12.803-3.619 2.156-.676 2.156-.676 4.145-1.098l2.276-.487 2.391-.478 2.503-.512c27.708-5.486 27.708-5.486 33.122-1.738"/><path fill="#015171" d="M674 572c-2.94 2.285-6.006 4.332-9.127 6.362C655 584.805 645.122 591.442 638 601l-.305 1.828c-1.098 3.432-3.718 5.598-6.195 8.11C611 632.426 611 632.426 611 643c3.48-.563 4.854-1.572 7.023-4.316l1.657-2.069 1.695-2.178 1.672-2.095c3.742-4.713 7.365-9.512 10.953-14.342 0 3.87-1.242 5.002-3.562 8.063l-2.215 2.972L626 632c-13.645 18.581-13.645 18.581-13.7 27.734-.35 2.643-1.364 4.754-2.451 7.169-1.722 4.253-2.77 8.722-3.912 13.16l-.797 3.097c-7.608 30.228-7.608 30.228-1.097 42.86 1.693 3.502 2.073 7.122 1.832 10.98-.239 3.939-.07 5.722 2.223 9 2.783 3.135 5.88 4.972 9.59 6.938q1.856 1.017 3.707 2.046l1.838 1.018a134 134 0 0 1 7.642 4.686l2.43 1.574C635 764 635 764 635 769l16 4v1c-7.739.257-15.057-.682-22.687-1.937l-1.954-.321c-15.22-2.548-29.726-6.88-44.359-11.742l-2.811-.913c-9.61-3.147-9.61-3.147-13.189-5.087-.38-.775-.761-1.55-1.154-2.347-2.658-3.82-5.907-4.852-10.127-6.579l-4.989-2.166a994 994 0 0 0-7.86-3.316 542 542 0 0 1-7.589-3.268l-2.377-.954c-4.073-1.803-6.242-3.17-7.925-7.398-1.038-3.342-.988-6.333-.823-9.831-.256-3.512-1.732-6.476-3.183-9.649-2.333-5.976-2.097-12.055-2.035-18.367l.013-2.664q.02-3.23.049-6.461l-4-1c-.03-4.208-.047-8.417-.062-12.625l-.026-3.605-.01-3.497-.016-3.205c.308-8.3.308-8.3 3.739-11.568 7.1-4.509 15.619-8.356 24.06-8.872 5.218-.487 9.547-1.885 14.354-3.91l2.566-1.054c10.388-4.365 20.447-9.426 30.497-14.51 3.286-1.66 6.578-3.308 9.87-4.955C609.826 606.755 620.57 601.222 631 595v-2c-5.835.513-10.52 1.736-15.875 4.063C608.215 600 608.215 600 606 600l-2-5q2.684-1.507 5.375-3l3.023-1.687C615 589 615 589 617 589l1 2c4.324-.593 8.061-1.646 12.113-3.258l3.51-1.387 3.69-1.48q1.89-.75 3.781-1.497c5.472-2.17 10.93-4.37 16.351-6.663l2.347-.99q2.078-.884 4.145-1.794c3.495-1.494 6.254-2.256 10.063-1.931m491-80 1 3c2.477.914 2.477.914 5.625 1.625l3.102.727c6.486 1.284 12.816 1.834 19.406 2.043q2.675.098 5.35.2l2.795.106c14.706.577 29.007 1.278 43.36 4.75 4.613 1.073 9.272 1.917 13.925 2.799l2.692.53 2.499.486 2.197.43C1269 509 1269 509 1273 509l1-2-7-1v-1c13.633.964 13.633.964 20 2v14h-3l.007 1.75q.032 9.029.048 18.056.008 3.367.02 6.736.017 4.845.023 9.688l.015 3.038v2.85l.007 2.496c-.128 2.545-.585 4.898-1.12 7.386a74 74 0 0 0-.105 4.11c-.214 14.87-.214 14.87-5.325 21.456C1276 600 1276 600 1273 601c-1.578 1.82-1.578 1.82-3.25 4.125-5.427 7.168-11.614 12.673-18.605 18.297-3.566 2.893-7.005 5.926-10.457 8.953-6.49 5.667-13.165 11.033-19.985 16.295a298 298 0 0 0-4.953 3.967c-10.093 8.182-20.868 15.277-31.75 22.363 0-3.912 1.157-4.564 3.75-7.437 4.428-5.257 8.034-10.794 11.563-16.688l1.524-2.53C1209 634.524 1209 634.524 1209 628h-6l-4 8c-1.17-3.509-.463-5.303.484-8.78.839-3.61.943-7.215 1.079-10.908.187-4.527.488-8.871 1.437-13.312 2.182-20.605 2.634-41.983-11-59a134 134 0 0 1-2.812-5.812c-3.406-6.983-7.612-12.181-13.626-17.063L1172 519v-2l-2.02-.766c-2.91-1.205-5.722-2.559-8.549-3.95-14.28-6.969-28.765-11.65-44.431-14.284 2.819-1.879 3.89-2.331 7.07-2.816l2.443-.376 2.612-.37c.888-.13 1.776-.26 2.69-.392 11.034-1.537 22.047-2.108 33.185-2.046"/><path fill="#016f6f" d="m1221 743 1 2-1.363 1.145c-4.177 3.574-8.103 7.3-11.95 11.23-4.352 4.43-8.949 8.382-13.808 12.246-3.233 2.671-6.268 5.502-9.316 8.379-5.862 5.48-11.996 10.38-18.563 15l-2.102 1.488c-10.988 7.748-22.17 14.94-33.898 21.512l-2.707 1.531c-27.554 15.53-56.467 27.168-86.879 35.778l-4.414 1.254-2.14.607a70 70 0 0 0-11.61 4.518c-7.263 3.531-15.228 4.475-23.25 4.312l.805-1.773c3.652-8.878 4.403-17.755 5.195-27.227 3.337-1.38 6.435-2.389 10-3v-4l-9-1-.113-2.082-.2-2.73-.175-2.708c-.586-2.84-1.43-3.572-3.512-5.48l1.946-.456c11.53-2.708 23.023-5.475 34.429-8.669 11.043-3.07 22.25-6.002 33.648-7.398 15.076-1.925 29.167-7.28 43.455-12.255a760 760 0 0 1 10.69-3.61c1.715-.573 3.42-1.175 5.125-1.78l2.895-1.02 2.917-1.042c3.102-.825 5.7-.978 8.895-.77l1 1c25.184 1.384 53.114-21.742 73-35"/><path fill="#d88e04" d="M1278 608c3.001 3.345 3.001 3.345 2.996 6.227-1.248 5.358-2.895 10.301-5.043 15.367-1.35 3.41-2.158 6.829-2.953 10.406l-1-3h-2c-1.943 5.414-1.943 5.414-2.191 7.98-.87 7.585-5.728 11.972-10.906 17.118-2.193 2.192-4.348 4.42-6.505 6.648q-2.478 2.536-4.96 5.067l-2.36 2.425c-13.47 13.539-13.47 13.539-23.078 14.762-3.085.602-5.184 1.59-7.8 3.328l-2.19 1.417-2.322 1.505c-6.974 4.408-13.359 7.28-21.266 9.656-12.823 4.099-12.823 4.099-15.382 8.891l-.938 2.074c-2.045 4.423-4.566 6.662-8.54 9.379l-1.944 1.374c-35 24.142-35 24.142-52.618 21.376l-2-2c-11.969-.776-23.285 6.55-33.527 11.795-6.473 3.155-11.46 3.54-18.598 3.518l-3.035.048-2.91.002-2.65.01c-2.745-.449-3.647-1.153-5.28-3.373-.093-3.527.87-4.85 3.188-7.5 4.843-3.748 13.675-7.5 19.812-7.5l.938-1.875L1065 739l-2-1 3.68-1.328c11.747-4.324 23.072-9.175 34.259-14.81 5.912-2.863 10.014-4.165 16.549-3.77 5.057-.186 9.488-2.615 14.012-4.717l2.934-1.293c6.49-2.918 12.527-6.332 18.566-10.082 3.326-1.891 5.475-2.941 9.277-3.367 14.976-2.546 31.88-17.507 42.723-27.633a1058 1058 0 0 1 4.5-3.937l2.031-1.778L1213 664l2 1-1.531 1.68-1.969 2.195-1.969 2.18C1208 673 1208 673 1208 675c5.027-.476 7.787-1.915 11.75-5 .517-.4 1.033-.802 1.565-1.215 5.117-4.02 9.96-8.315 14.685-12.785l2.258-2.133c3.843-3.73 6.776-7.39 9.742-11.867 1.245-1.57 2.49-3.14 3.756-4.694 6.514-7.999 11.913-16.491 17.244-25.306l2-3c3.625-.687 3.625-.687 7-1"/><path fill="#fdd811" d="M1270 637h2c-.22 3.367-.573 6.654-1 10l-.23 2.08c-1.72 14.36-6.857 22.645-16.77 32.92l-2.205 2.362c-9.49 10.146-19.096 19.058-30.886 26.43a200 200 0 0 0-5.71 3.774c-6.713 4.575-13.522 8.935-20.53 13.044-3.14 1.845-6.214 3.732-9.22 5.788-23.127 15.639-52.222 24.157-78.96 31.532a55 55 0 0 0-7.192 2.73c-3.108 1.263-4.223 1.655-7.36.903-4.301-.615-5.914.066-9.937 1.437-2.368.345-4.745.631-7.125.875-6.528.732-12.937 1.823-19.375 3.125l-2.497.503a242 242 0 0 0-10.778 2.456c-4.115 1.036-8.252 1.888-12.416 2.697l-4.612.91q-3.577.703-7.155 1.402-3.492.685-6.983 1.376l-2.135.413c-3.24.642-6.386 1.379-9.557 2.308-9.688 2.69-20.31 2.146-30.318 2.175-2.075.01-4.15.041-6.225.072q-2.005.01-4.011.016l-3.606.028c-3.487-.387-5.376-1.337-8.207-3.356 0-2.312 0-2.312 1-5 6.619-3.231 12.852-3.538 20.125-3.875 19.41-1.172 38.944-3.987 57.648-9.426 2.691-.583 4.63-.747 7.329-.68 3.803-.019 5.48-.641 8.898-2.019 2.007-.106 4.016-.205 6.026-.225 14.493-.16 25.546-5.45 38.155-12.072 5.945-3.004 12.089-4.81 18.819-4.703l2 2c18.352 3.252 38.205-11.442 52.521-21.353l1.979-1.397 1.87-1.282c4.277-3.137 5.664-6.15 7.63-10.968 6.433-5.701 15.364-8.158 23.39-10.781 6.45-2.307 11.71-5.791 17.17-9.866 4.365-3.12 6.956-3.592 12.44-3.353 11.183-4.841 20.462-16.378 28.938-24.812l2.55-2.536 2.414-2.422 2.172-2.175c3.145-3.356 5.156-5.857 5.926-10.43.766-3.93 2.02-7.114 4-10.625"/><path fill="#d88f04" d="m681 493 1 1 3.688-.937c6.332-1.5 12.842-1.629 19.312-1.063 3 2 3 2 3.563 4.313-.687 3.281-2.088 4.587-4.743 6.562-4.96 3.065-10.269 4.239-15.883 5.5-3.649.873-6.39 1.633-9.312 4-6.7 5.39-15.998 7.263-24.187 9.313-5.308 1.336-10.438 2.978-15.59 4.82l-1.94.69a779 779 0 0 0-9.742 3.537l-3.666 1.316-3.281 1.208c-3.727.858-6.478.371-10.219-.259-2.766 1.145-2.766 1.145-5.25 2.813l-2.516 1.644L600 539c-3 2-3 2-5.059 1.8l-2.379-.487c-5.722-.726-9.532.963-14.671 3.355-2.554 1.177-5.019 2.077-7.703 2.894-9.709 3.225-14.053 8.4-20.188 16.438l-2.469 3.07c-9.739 12.364-10.592 23.588-11.049 38.86l-.103 2.586-.076 2.32c-.344 2.454-.962 4.083-2.303 6.164-2.715.941-2.715.941-5.937 1.563-6.61 1.293-6.61 1.293-9.063 4.437l-2 3-.684-6.152C516 617 516 617 515 616c-.04-2-.043-4 0-6l-3.437-.437C508 609 508 609 507 608c-.851-6.932.956-12.255 3.51-18.608 2.291-5.708 4.106-11.477 5.665-17.427.552-1.93.552-1.93 1.825-4.965 2.023-.691 2.023-.691 4-1l2-4c1.572-1.612 1.572-1.612 3.406-3.172l2.004-1.765a425 425 0 0 1 4.18-3.579c4.86-4.32 6.152-7.152 7.41-13.484 8.1-10.05 29.06-14.202 40.875-17.687l2.672-.791a223 223 0 0 1 14.348-3.582c13.328-2.856 25.977-6.694 38.793-11.315q2.715-.962 5.431-1.922c7.136-2.53 14.262-5.076 21.337-7.774l2.644-1.001a525 525 0 0 0 4.965-1.915c5.601-2.124 5.601-2.124 8.935-1.013"/><path fill="#efb404" d="M1065 739c-2.104 4.694-3.759 6.514-8.652 8.43a354 354 0 0 1-6.455 2.144c-4.61 1.598-7.258 3.085-9.893 7.426.188 2.257.395 3.395 2 5 1.34.156 2.688.25 4.035.316l2.451.127 2.576.12 2.588.13q3.175.159 6.35.307v1l-3.762.148-4.926.227c-.816.03-1.633.062-2.474.094-6.275.305-6.275.305-9.42 1.57-2.848 1.132-5.24.969-8.267.893-3.823.121-7.365 1.282-11.026 2.318-18.077 4.773-36.49 7.062-55.143 7.98-6.27.353-11.234 1.202-16.982 3.77l1 5c2.884.961 4.618 1.105 7.605 1.063l2.733-.024 5.64-.078c5.45-.046 10.63.228 16.022 1.039v1c-44.061 5.165-88.118 9.688-132.47 11.317-13.12.506-13.12.506-19.647 1.73-10.425 1.788-21.156 1.16-31.696 1.078q-3.38-.016-6.76-.027-8.213-.034-16.427-.098v-1l1.788-.335q4.014-.762 8.024-1.54l2.815-.527 2.705-.528 2.491-.476C794 798 794 798 797 796v-4l-2-2c9.328-2.424 18.47-3.744 28.063-4.562l4.087-.373q4.043-.37 8.087-.729c5.153-.46 10.302-.954 15.45-1.461l2.425-.229c5.52-.54 5.52-.54 7.644-1.15 2.565-.567 5.07-.67 7.69-.767 10.301-.387 20.151-2.084 30.241-4.104l4.76-.922a952 952 0 0 0 21.041-4.32 269 269 0 0 1 14.393-2.712c13.892-2.232 27.516-5.451 41.19-8.734 3.99-.955 7.986-1.883 11.984-2.804q10.98-2.531 21.945-5.133l2.52-.597c7.731-1.856 14.892-4.303 22.19-7.394 4.462-1.834 8.42-2.65 13.212-2.864 4.645-.324 8.282-2.427 13.078-2.145"/><path fill="#d88e03" d="M1123 407q10.5-.094 21 0l2.392.018c11.89.157 23.269 2.039 34.953 4.173 10.373 1.86 20.474 2.898 31.026 2.783l2.422-.025 2.212-.04c2.62.12 4.678.895 6.995 2.091v2l2.168.41c2.754.574 5.435 1.27 8.145 2.027 3.198.892 6.383 1.726 9.624 2.438 9.043 2.256 17.036 5.773 23.45 12.602 1.825 1.723 3.733 2.947 5.863 4.273 6.266 4.123 12.306 8.918 14.75 16.25-.118 3.496-.35 5.94-2.187 8.938-2.833 1.66-4.581 1.569-7.813 1.062-3.15-2.25-5.573-4.547-8.223-7.36-3.168-3.012-6.497-5.328-10.152-7.702l-1.922-1.276c-23.115-15.214-49.84-17.894-76.89-19.85q-4.894-.366-9.787-.744-3.01-.232-6.02-.447l-2.706-.204-2.379-.172C1158 428 1158 428 1156 427c-5.04-.248-9.52.05-14.473.988-8.735 1.38-17.46 1.384-26.287 1.383-2.895.004-5.787.04-8.681.078q-2.767.009-5.536.012l-2.613.043c-5.902-.045-5.902-.045-8.447-2.345-1.325-2.97-1.432-4.942-.963-8.159 3.128-4.124 5.988-4.717 10.996-5.45l2.032-.311c2.135-.324 4.272-.626 6.41-.926q2.15-.32 4.298-.643 3.956-.595 7.914-1.161c2.807-.426 5.573-.922 8.35-1.509l-6-1z"/><path fill="#d48a04" d="M775.5 619.875c3.377 2.87 6.046 5.74 6.9 10.232.175 2.395.206 4.742.163 7.143l-.032 2.557c-.292 8.588-2.555 14.695-8.906 20.63-5.547 4.577-11.432 6.109-18.5 6l-2.129-.025c-8.963-.29-14.863-3.53-21.34-9.557-3.98-4.458-5.137-10.214-6.656-15.855l-1-3c-.542-5.74.33-8.558 4-13 13.635-13.31 31.17-13.873 47.5-5.125"/><path fill="#f9d410" d="M537 753c6.229.804 11.805 3.819 17.273 6.762 9.475 4.972 19.212 7.986 29.54 10.613l2.002.512c7.514 1.904 15.01 3.508 22.667 4.706 2.923.472 5.773 1.12 8.643 1.845 6.248 1.493 12.53 2.563 18.872 3.56 8.463 1.342 8.463 1.342 10.69 4.064L648 787l-3.762-.14q-2.463-.057-4.926-.11l-2.474-.102c-4.245-.068-6.27-.02-9.92 2.368L625 791c.063 2.25.063 2.25 1 5 4.457 3.25 8.452 4.482 13.816 5.504C642 802 642 802 645.437 803.5c7.079 2.98 14.49 3.864 22.125 3.813l2.563-.004c12.064-.164 24.11-1.259 36.13-2.241 9.615-.775 19.09-1.284 28.745-1.068-1.64 3.848-1.64 3.848-4.887 5.215-5.22 1.232-10.587 1.21-15.926 1.347q-3.104.09-6.207.192l-2.753.072C703 811 703 811 701 812c-2.423.099-4.816.14-7.238.133l-2.175.003q-2.282 0-4.562-.006-3.476-.005-6.953.007-2.217 0-4.435-.004l-2.09.006c-3.659-.018-6.98-.368-10.547-1.139q-2.756-.209-5.52-.316l-3.095-.127-3.197-.12-3.256-.13q-3.966-.159-7.932-.307l2-1v-2l-2.984.113c-4.269-.003-8.148-.87-12.266-1.926l-2.14-.501c-6.53-1.64-6.53-1.64-8.61-4.686v-2l-2.371-.148-3.067-.227c-1.009-.07-2.018-.14-3.058-.21-.413-.07-.413-.07-2.504-.415l-1-2a188 188 0 0 0-8.812-1.687c-10.054-1.852-19.403-4.857-28.95-8.467a488 488 0 0 0-6.242-2.303c-9.145-3.382-9.145-3.382-12.996-6.543l1-5-2.152-1.39-2.785-1.86-2.778-1.828C538 764 538 764 537.06 761.953 537 760 537 760 539 757z"/><path fill="#000406" d="M954 533h5c.715 1.547.715 1.547 1 4a77 77 0 0 1-3.437 7.25l-1.026 1.969A508 508 0 0 1 953 551h5c.563 1.937.563 1.937 1 4l-1 1-3.625-.312c-2.164.214-2.164.214-4.375 1.312-3.3 4.752-7.074 10.794-6.937 16.703-.063 2.297-.063 2.297-1.86 4.25L939 580c-1.145 1.88-2.228 3.8-3.25 5.75l-1.578 2.984L933 591h-4c.468-4.056.88-7.466 3-11-2.23.035-2.23.035-5 1a64.5 64.5 0 0 0-4.312 7.438C919.126 595.18 915.45 601.563 910 607h-2c.533-5.91 2.984-10.631 5.563-15.875.424-.88.849-1.758 1.287-2.664A1153 1153 0 0 1 918 582l-2 1c-11.582.958-25.359 1.32-36-4l.656 1.906c1.825 5.608 2.671 10.204 2.344 16.094l-5 1c-6.363-10.45-12.504-21.023-18.594-31.634l-1.855-3.23-1.79-3.135a167 167 0 0 0-3.588-5.842l-1.693-2.64c-.502-.755-1.005-1.51-1.522-2.29-1.204-2.801-.807-4.353.042-7.229 3.778-.403 5.496-.359 8.64 1.879 5.203 5.35 9.804 10.802 13.985 16.996l1.29 1.908c2.176 3.364 3.643 6.212 4.085 10.217l2-1a89 89 0 0 1 5.215.086l3.244.131 3.479.158 3.524.148c9.85.423 19.695.92 29.538 1.477l.867-2.262c1.43-3.458 3.237-6.514 5.133-9.738l-3.562.438-2.227.273c-1.888.247-3.77.544-5.649.851-4.213.518-8.324.524-12.562.438v-3c9.408-4.184 19.578-7.727 30-7l.813-2.25c1.13-2.616 2.396-4.552 4.187-6.75l3 1c-.506 2.169-1 4-2 6h3l.773-2.57c1.312-3.668 2.973-6.896 4.852-10.305l1.914-3.492z"/><path fill="#01050d" d="M932 1092c2 2 2 2 2 5 .987-.095 1.975-.19 2.992-.29 1.282-.11 2.563-.22 3.883-.335l3.867-.352L948 1096l2 2c-.125 2.5-.125 2.5-1 5-2.864 1.82-5.4 2.33-8.75 2.625l-2.422.227L936 1106l.035 3.262c.216 27.138.216 27.138-6.035 36.738-2 2-2 2-4.625 2.125L923 1148c-1.924-3.24-2.245-5.63-2.187-9.375l.019-2.773c.168-2.852.168-2.852.645-5.618.679-4.196.88-8.367 1.086-12.609l.13-2.52q.158-3.053.307-6.105l-14 1 .14 4.39c.535 23.871.535 23.871-5.617 31.422-1.523 1.188-1.523 1.188-4.086 1C897 1146 897 1146 895 1144c-.74-6.273.103-12.318 1.488-18.43.892-4.48 1.183-9.02 1.512-13.57l-2.43.219c-27.735 2.264-27.735 2.264-38.57-1.219l-2-2c.188-2.5.188-2.5 1-5 10.553-7.036 29.654-4.12 42-4l1-5h7l2 4 16-1v-5c2.763-1.381 4.947-1.19 8-1"/><path fill="#d38905" d="M1128.129 551.465c5.784 4.745 8.317 11.48 9.11 18.71.201 5.82-.907 10.014-4.239 14.825-5.016 5.16-11.885 8.206-19.062 8.438-8.989-.445-14.746-4.04-20.938-10.438-4.587-5.552-5.556-11.226-6.375-18.187.605-4.535 2.586-7.404 6.176-10.231 9.855-6.525 24.524-8.815 35.328-3.117"/><path fill="#cf8605" d="M779 673c2 2 2 2 2.309 4.695-.866 9.27-7.5 18.88-11.934 26.992l-1.09 2.033c-2.25 4.015-4.458 6.58-8.285 9.28-1.896 1.773-3.653 3.562-5.266 5.598-3.968 4.96-8.354 8.083-13.734 11.402l-2.18 1.484c-2.978 2-5.115 3.409-8.695 3.953C728 738 728 738 726 736c0-2.312 0-2.312 1-5a326 326 0 0 1 4.441-3.41c2.578-2.63 3.511-5.855 4.7-9.285C737 716 737 716 739 713c.952-7.795.019-14.402-3.125-21.562-.995-2.773-1.411-4.527-.875-7.438 3.986-3.558 8.479-3.575 13.563-3.937 10.189-.918 21.02-7.864 30.437-7.063"/><path fill="#010b12" d="M1001 814c4.875 1.875 4.875 1.875 6 3 .072 1.686.084 3.375.063 5.063l-.028 2.785L1007 827h9l1 5c-3.314 1.13-6.597 2.179-10 3l-.297 3.55c-1.736 18.916-1.736 18.916-5.703 25.45-2.805 1.676-5.332 2.374-8.547 2.852l-2.558.39-2.645.383-2.691.406q-3.279.494-6.559.969c-1.594-3.188-1.102-6.629-1.062-10.125l.013-2.285q.02-2.795.049-5.59l-2.32.496c-4.87.667-9.647.61-14.555.567l-2.953-.014q-3.585-.018-7.172-.049l-1-4c7.815-5.928 18.675-5.293 28-5v-5l-4-1 2-4h2l-.07-1.898-.055-2.477-.07-2.46C977 824 977 824 979 822c2.625.375 2.625.375 5 1l2 6 11-1 .313-4.75c.266-4.053 1.005-6.173 3.687-9.25"/><path fill="#d38a04" d="M1134.563 597.25C1138 598 1138 598 1140 600c1.422 8.352-.871 15.77-5 23-1.632 2.007-3.31 3.699-5.242 5.414-1.816 1.638-3.288 3.371-4.82 5.274-2.635 3.13-5.418 5.185-8.938 7.312l-2.937 2.25c-3.627 2.072-5.952 2.079-10.063 1.75v-3l-2 1 1 3-7 1 1-1.875c1-2.125 1-2.125 1-4.125-1.875.25-1.875.25-4 1-1.25 2.063-1.25 2.063-2 4-1-1-1-1-1.5-3.125.793-4.557 4.135-6.896 7.5-9.875l2 1c1.5-1.375 1.5-1.375 3-3 0-2 0-2-1-5l1.875-2.125c2.844-3.847 2.921-7.2 3.125-11.875h-2v8h-1v-10l5-2-5 1c.063-1.75.063-1.75 1-4 5.252-3.61 9.464-4.675 15.75-5.125 5.25-.422 9.955-2.966 14.813-2.625"/><path fill="#efb505" d="M1270 637h2c-.22 3.367-.573 6.654-1 10l-.23 2.08c-1.72 14.36-6.857 22.645-16.77 32.92l-2.205 2.362c-9.481 10.136-19.076 19.045-30.856 26.409a206 206 0 0 0-5.986 3.971l-2.01 1.371q-1.863 1.269-3.721 2.542c-4.244 2.844-8.617 5.129-13.222 7.345.25-2.875.25-2.875 1-6q1.988-1.025 4-2l.938-2.937C1203 712 1203 712 1205.625 710.5L1208 709c.313-3.187.313-3.187 0-6l-6-2c2.618-2.842 5.585-4.983 8.75-7.187l3.047-2.168c3.722-1.911 6.078-1.75 10.203-1.645 11.183-4.841 20.462-16.378 28.938-24.812l2.55-2.536 2.414-2.422c.359-.358.359-.358 2.172-2.175 3.145-3.356 5.156-5.857 5.926-10.43.766-3.93 2.02-7.114 4-10.625"/><path fill="#d98e04" d="m1153.391 430.787 2.971.056 3.28.055c8.684.263 17.354.698 26.028 1.164q3.57.187 7.138.355c34.134 1.6 34.134 1.6 41.068 7.06C1235 441 1235 441 1235.5 443.438c-.5 2.563-.5 2.563-2.422 4.696-4.329 2.626-7.858 2.425-12.828 2.305l-2.931-.038c-9.288-.218-18.422-1.31-27.62-2.548-4.843-.645-9.688-1.15-14.554-1.579l-3.983-.362a731 731 0 0 0-7.682-.645l-3.527-.325c-1.03-.085-2.06-.17-3.12-.26-3.496-.84-5.31-2.143-7.833-4.681-.437-3.625-.437-3.625 0-7 2-2 2-2 4.391-2.213"/><path fill="#010910" d="M723.813 852.313c3.4.733 4.003 1.009 6.062 3.625 3.727 6.56 2.497 14.788 2.125 22.062l3 1v4c-.392.03-.392.03-2.375.188-2.625.812-2.625.812-4 3.25C728 889 728 889 729 891a246 246 0 0 1-23.75-4.062l-2.382-.529c-5.597-1.274-5.597-1.274-7.868-2.409v-7l-14-7 1-4q2.438.212 4.875.438c.905.08 1.81.162 2.742.246C692 867 692 867 694 868l.367-2.117.508-2.758.492-2.742C696 858 696 858 698 856c2.625-.125 2.625-.125 5 0 .185 10.558.185 10.558-1 15l2.313.375c4.903.831 9.795 1.728 14.687 2.625l-.07-3.832q-.029-2.49-.055-4.98c-.017-.834-.034-1.667-.05-2.526l-.02-2.432-.032-2.237c.411-3.608 1.59-4.837 5.04-5.68"/><path fill="#000203" d="M600 627c2.625.375 2.625.375 5 1 .262 4.776-.56 8.205-2.266 12.656l-.71 1.892q-1.126 2.98-2.274 5.952c-5.99 15.65-10.761 30.852-12.207 47.668a419 419 0 0 0-.67 8.235c-.486 5.903-1.746 11.069-3.873 16.597h-5c-8.828-19.422.17-48.451 6.845-67.399 3.58-9.346 8.009-19.455 15.155-26.601"/><path fill="#000102" d="M1213 518c13.232 13.661 19.365 43.526 19.5 61.938l.02 2.529c-.097 4.517-.318 8.057-3.52 11.533-2.687.313-2.687.313-5 0-5.012-8.241-6.515-16.649-8-26-1.86-11.712-5.309-22.784-9.04-34.01l-1.194-3.685-1.101-3.313c-.696-3.13-.69-4.97.335-7.992 3.112-1.556 4.542-1.731 8-1"/><path fill="#feda11" d="M730 500c1 1 1 1 1.063 4.063L731 507l4 2v4c-34.921 14.944-34.921 14.944-48 14-.687-1.812-.687-1.812-1-4 1.438-1.75 1.438-1.75 3-3l-1.898-.148-2.477-.227c-.812-.07-1.624-.14-2.46-.21C680 519 680 519 678 517c-.375-2.437-.375-2.437 0-5 9.506-8.814 29.718-9.547 42-12l2.656-.59c2.734-.478 4.684-.149 7.344.59"/><path fill="#020910" d="M705 419c2 .125 2 .125 4 1 3.194 4.944 3.206 11.33 4 17l17-2 2 4c-2.426 2.426-4.142 2.758-7.437 3.625l-2.934.79C719 444 719 444 716 444l1.094 2.16c2.685 5.541 4.593 9.66 3.906 15.84-1.687.75-1.687.75-4 1-4.117-2.275-5.702-5.218-7.812-9.25-2.563-4.562-2.563-4.562-5.348-5.398-2.215.023-2.215.023-5.84.648a1204 1204 0 0 0 1.875 3.813l1.055 2.144C702 457 702 457 704 460c.125 3.188.125 3.188 0 6-2.187.75-2.187.75-5 1-5.484-2.88-7.743-8.486-10-14v-2l-1.937.5c-4.039.66-7.981.58-12.063.5 1-3 1-3 2.742-4.168l2.133-1.02 2.117-1.042C684 445 684 445 687 445l-1-2a85 85 0 0 1-.125-5.062l-.008-2.723C686 433 686 433 687 432c2.438-.187 2.438-.187 5 0 3.006 3.006 2.596 5.824 3 10l2.25-1c2.75-1 2.75-1 6.75-1l-1-3c-.122-2.7-.185-5.363-.187-8.062l-.038-2.221c-.005-1.907.103-3.814.225-5.717z"/><path fill="#01050d" d="m810 1101 2 2c-.182 4.689-2.346 6.779-5.562 10-12.689 13.324-20.705 31.388-25.438 49q-.622 2.157-1.25 4.313L779 1169c-2.187.375-2.187.375-5 0-3.227-2.653-4.664-4.329-5.488-8.426-.394-7.768 2.082-13.724 5.488-20.574l1.073-2.208c18.671-38.175 18.671-38.175 34.927-36.792"/><path fill="#feda11" d="M939 438c1 1 1 1 1.375 3.375C940 444 940 444 937.688 445.813 935 447 935 447 932 447l.5 2.625c.53 3.808.669 7.595.75 11.438l.078 3.535c-.455 4.72-1.976 8.05-5.328 11.402-2.875.063-2.875.063-6-1-4.157-5.095-5.126-10.302-5.062-16.687l.027-3.575L917 452l-2.098.656c-8.525 2.427-16.112 2.668-24.902 2.344.347-2.802.602-4.549 2.496-6.695 4.47-3.293 8.512-5.245 13.914-6.567 2.59-.738 2.59-.738 5.9-2.273 3.96-1.572 7.488-2.046 11.691-2.215l2.04-.129A53.3 53.3 0 0 1 939 438"/><path fill="#000203" d="M930 700h5a805 805 0 0 1 2.5 4.375l1.406 2.46C940 709 940 709 940 711l1.977-.875c4.815-2.046 8.682-3.687 14.023-3.125l1 4c-4.486 3.806-4.486 3.806-6.855 4.7-2.25.876-3.519 1.49-5.145 3.3-.922 4.338-1.045 8.575-1 13-1.89-.309-1.89-.309-4-1-1.75-3.062-1.75-3.062-3-6-5.313 1.535-9.815 3.974-14.625 6.625-6.958 3.743-13.991 7.09-21.312 10.063l-2.563 1.062-2.402.95-2.11.838c-2.33.541-3.742.21-5.988-.538l-1-5c14.135-9.546 29.022-17.94 45-24-.468-3.087-.89-5.745-2.125-8.625-.976-2.649-.839-3.773.125-6.375"/><path fill="#017070" d="m586 821 1.754.879L590 823l1.902.965c11.667 5.576 24.102 6.645 36.809 7.945 5.938.623 11.542 1.459 17.289 3.09l-2 15c-3.34-1.336-5.672-2.33-8.562-4.187C632 844 632 844 629.563 844.25L628 845c1.868 5.3 6.729 7.043 11.348 9.707C642 857 642 857 642.87 860.762L643 864c-8.053-1.355-13.071-4.172-19.176-9.527-6.138-5.375-12.767-10.201-19.636-14.598-7.131-4.677-12.874-11.253-18.188-17.875z"/><path fill="#010b12" d="M1109 345c7.126 1.7 14.083 3.58 21 6v7l2.875.875C1136 360 1136 360 1138 362v3h-8l-.227 1.941c-1.007 6.628-2.915 10.446-7.773 15.059l-4-1c-.223-6.728.05-12.54 2-19h-5l.07 2.957.055 3.856.07 3.832C1115 376 1115 376 1113 379c-2.625.188-2.625.188-5 0-4.045-5.899-3.277-12.073-3-19l-3.246-.184-4.191-.253-2.143-.12c-5.307-.33-5.307-.33-6.42-1.443-.125-2.5-.125-2.5 0-5 1-1 1-1 2.766-1.114l2.27.016 2.45.01 2.576.026 2.588.013q3.175.02 6.35.049z"/><path fill="#02070f" d="M856 1046c2.313.188 2.313.188 5 1 3.632 4.929 4.114 8.98 4 15l1.898.078 2.477.172 2.46.14c2.165.61 2.165.61 3.454 2.657L876 1067c-2.843 2.843-5.701 2.704-9.59 3.242-2.996.942-3.611 2.272-5.41 4.758-3.625.313-3.625.313-7 0-1-1-1-1-1.062-3.562L853 1069h-6l-.375 1.875C846 1073 846 1073 844 1075c-3.04.323-5.144.457-7.875-1-1.83-3.253-1.306-6.314-1.125-10l-2.5-.25c-4.268-.914-7.692-2.672-11.5-4.75l1-5q2.156.214 4.313.438c.8.08 1.6.162 2.425.246C831 1055 831 1055 834 1056l-.125-2.375C834 1051 834 1051 836 1049c3.403.145 5.325.349 7.813 2.75 1.283 2.432 1.81 4.536 2.187 7.25l8 2-.07-2.52-.055-3.293-.07-3.269C854 1049 854 1049 856 1046"/><path fill="#01050d" d="m1003 1080 .25 2.375c.75 2.625.75 2.625 2.688 3.938 2.793.93 4.127.674 7.062.062l3-.375c2 2 2 2 2.25 4.5-.25 2.5-.25 2.5-2.25 4.5-2.937.313-2.937.313-6 0l-3-3c-3.595.284-6.704 1.587-10 3l1.5 2.125c1.694 3.246 1.752 5.268 1.5 8.875l2 1v2l3.125-.312c5.13.413 6.445 1.548 9.875 5.312.375 2.813.375 2.813 0 5l-1.937.75c-2.063 1.25-2.063 1.25-2.563 3.188l-.5 2.062c-1.625 1.813-1.625 1.813-4 3a236 236 0 0 1-7-1 104 104 0 0 0-5 2c-2.312-.375-2.312-.375-4-1a88 88 0 0 1-1-5l1-1c1.438.006 2.876.054 4.313.125 3.916.062 5.782-.336 8.687-3.125h2c-1.245-3.736-2.634-4.188-6-6l-2 4c-2.375.125-2.375.125-5 0l-2-2c.33-3.297.623-4.623 3-7l-1.812-1.187c-2.53-2.097-3.834-3.819-5.188-6.813.237-3.401.57-4.57 3-7h3l-.625-2.375L991 1088l2-2h3l-1-6c3.29-1.097 4.713-.8 8 0"/><path fill="#d98f04" d="m1196.146 449.762 2.42.083c3.708.236 7.396.551 11.09.96l2.386.254q2.475.267 4.95.54 3.751.41 7.504.803l4.848.528 2.226.234c15.763 1.772 15.763 1.772 20.43 5.836.625 2.5.625 2.5 0 5-6.128 4.643-13.525 3.615-20.812 2.613a530 530 0 0 1-5.688-1.043c-4.506-.734-9.019-1.148-13.562-1.57-17.003-1.632-17.003-1.632-20.938-3-2.155-3.233-2.469-4.252-2-8 2.185-2.845 3.609-3.373 7.146-3.238"/><path fill="#020810" d="M748 399c2.988.236 4.525.485 6.59 2.723 1.581 2.554 2.093 4.577 2.597 7.527.16.892.318 1.784.481 2.703L758 414l3.29-.656 4.335-.844 2.16-.434c4.112-.792 8.009-1.42 12.215-1.066l2 2-1 4-18 4 5 5c1.582 2.902 1.582 2.902 2.813 5.938l1.269 3.027c.96 3.174 1.09 5.739.918 9.035l-5 1-2.125-2.687c-1.871-2.268-3.526-3.828-5.875-5.688-2.793-2.444-3.65-3.708-5.25-6.875-1.568-2.753-2.195-3.59-5.285-4.484-2.514-.24-4.942-.344-7.465-.266.188-2.312.188-2.312 1-5 2.55-1.668 2.55-1.668 5-3l-.254-3.684-.308-4.753-.17-2.432A193 193 0 0 1 747 400z"/><path fill="#01050d" d="M1080.563 1037.438c7.827.05 14.764 4.897 21.437 8.562l2.785 1.469c4.065 2.175 7.762 4.594 11.457 7.343 1.913 1.293 3.859 2.265 5.946 3.25 3.21 1.553 5.63 3.028 7.812 5.938v4c-3.07 1.535-5.603 1.218-9 1-3.176-1.242-3.176-1.242-6.312-2.875-4.785-2.343-8.892-3.74-14.122-4.559-5.098-1.125-9.821-3.43-14.566-5.566l1-5-2.152-1.355-2.785-1.832-2.778-1.793c-2.285-2.02-2.285-2.02-3.164-4.696L1076 1039c1-1 1-1 4.563-1.562"/><path fill="#feda11" d="M966 438c4.37 2.146 7.514 4.794 10 9 .66 4.097.933 6.413-1.176 10-2.798 3.471-5.353 6.085-9.824 7-5.032.533-8.788.606-13.375-1.687-4.13-3.638-6.35-5.603-7.25-11.188.21-4.28 2.089-6.603 4.922-9.68 5.023-4.262 10.366-4.19 16.703-3.445"/><path fill="#d18605" d="M1134.563 597.25C1138 598 1138 598 1140 600c1.422 8.352-.871 15.77-5 23-1.631 2.007-3.308 3.697-5.242 5.41-1.83 1.655-3.288 3.41-4.82 5.34-2.583 3.098-5.162 4.722-8.938 6.25v-2h-2q.654-2.22 1.313-4.437l.824-2.782c.758-2.441 1.606-4.82 2.488-7.218 1.742-5.089 2.085-10.221 2.375-15.563h-4v-2l5-1v-3h-11v-1l3.613-.367 4.7-.508 2.38-.238 2.295-.254 2.11-.222c3.675-.794 4.368-2.448 8.465-2.161"/><path fill="#000304" d="M872 629c4.875.875 4.875.875 6 2 .245 4.377.229 8.76.24 13.143.01 2.188.04 4.376.072 6.564.062 8.167-.573 15.52-3.312 23.293l-1 3h-2l-1-20-2 8a91 91 0 0 1-1.508 4.281l-.8 2.11-.817 2.109-.84 2.203q-1.012 2.65-2.035 5.297h-4a570 570 0 0 1 3.563-21.687l.384-2.106c.933-4.966.933-4.966 2.053-7.207l-3-1 .813-1.562a135 135 0 0 0 2.687-5.938c1.095-2.556 2.219-5.036 3.5-7.5h2z"/><path fill="#000204" d="m575 640 5 1c.999 3.14 1.141 4.641-.082 7.75l-1.73 3.25c-4.577 9.027-7.623 18.606-10.81 28.184-.41 1.223-.82 2.446-1.241 3.707l-1.103 3.344C564 690 564 690 562 693c-2.562.25-2.562.25-5 0-1.848-1.848-1.303-4.639-1.375-7.125.181-16.303 8.622-33.74 19.375-45.875"/><path fill="#01050d" d="M816.813 1121.188 820 1122c.688 1.727.688 1.727 1 4-1.187 2.086-1.187 2.086-3 4.375-5.893 7.998-10.216 16.69-13.125 26.188-1.488 4.756-2.697 7.617-6.875 10.437-2.187.063-2.187.063-4-1-2.764-3.455-2.397-7.791-2-12 .714-2.718 1.763-5.2 2.938-7.75l.937-2.085c3.703-7.89 11.54-23.44 20.938-22.977"/><path fill="#010910" d="M646 835c3.438.813 3.438.813 7 2 2.1 6.299 1.037 11.888-1 18l2.484.746c4.11 1.466 7.887 3.331 11.766 5.317l2.18 1.103q2.786 1.413 5.57 2.834l2 1-1 3c-5.326.266-9.167-.514-14.125-2.437-7.946-3.052-7.946-3.052-11.875-3.563l-1 1c-1.666.04-3.334.043-5 0l-.25-3c-1.444-5.394-6.483-7.44-11-10.105-2.7-1.86-3.674-2.863-4.75-5.895l2-2c4.064.325 6.9 1.924 10.313 4.063l2.675 1.66L644 850l-.07-1.758c-.113-4.856.195-8.671 2.07-13.242"/><path fill="#000203" d="M1245 523c2.868 3.795 3.95 7.812 5.125 12.375l1.008 3.836c1.471 6.43 2.06 12.595 2.054 19.164l.002 2.254c-.051 5.375-.681 10.188-2.189 15.371h-5c-1.7-3.8-2.45-7.251-2.965-11.375l-.486-3.738-.486-3.887c-1.07-8.54-2.34-16.85-4.48-25.195-.56-2.694-.693-5.063-.583-7.805 2.861-1.43 4.84-1.387 8-1"/><path fill="#020910" d="m1039.578 367.762 2.534-.03c2.713-.024 5.425-.036 8.138-.045l2.785-.01c15.716-.025 31.9.302 46.965 5.323v4l-3.895-.184c-24.354-1.069-48.732-1.384-73.105-1.816l-2-4c6.222-2.666 11.849-3.174 18.578-3.238"/><path fill="#02070f" d="M1049.125 982.875 1052 983c.934 3.01 1.044 3.867 0 7 1.813.688 1.813.688 4 1l1.438-1.437C1059 988 1059 988 1061.5 987.625c2.5.375 2.5.375 4.375 1.563 1.125 1.812 1.125 1.812 1 4.187-2.437 7.31-7.295 11-13.875 14.625-2.932.916-4.875 1.056-8 1l-2-2c.255-3.825 2.355-5.44 5-8v-2l-10 1-.312-2.25c-.688-2.75-.688-2.75-2.313-4.812L1034 989c.414-2.121.414-2.121 1-4l1.898.07 2.477.055 2.46.07c3.377-.304 3.588-2.172 7.29-2.32"/><path fill="#020810" d="m1172 779 1 4-1.625 1.11c-4.116 2.843-8.185 5.723-12.145 8.78-23.882 18.422-23.882 18.422-35.23 17.11l-2-2c.11-1.95.11-1.95 1-4 1.828-1.457 1.828-1.457 4.25-2.812l2.75-1.567a414 414 0 0 1 6.063-3.21c6.8-3.543 13.007-7.39 19.092-12.035 5.473-4.102 10.02-5.701 16.845-5.376"/><path fill="#020911" d="M1014 974v4a1668 1668 0 0 1-10.187 4l-2.909 1.156-2.822 1.094-2.587 1.016c-2.623.772-4.776.87-7.495.734l.14 2.746c.23 7.743-.153 13.526-4.14 20.254h-4c-2-2-2-2-2.23-4.863l.043-3.45.019-3.425A45.3 45.3 0 0 1 979 989h-8v-4c6.38-3.88 12.57-5.713 19.876-6.897 5.688-.94 11.005-2.523 16.452-4.431 2.736-.688 4.064-.64 6.672.328"/><path fill="#f2b705" d="M606.195 535.344 608 536c-1.375 4.499-3.387 6.128-7 9l-.375 1.938c-1.082 3.569-4.409 4.623-7.496 6.402-2.562 1.998-3.223 3.576-4.129 6.66v2q-3.404 1.007-6.812 2l-3.833 1.125C575 566 575 566 572 566a83 83 0 0 1-3-4l-3-2 15-8c0-5.625 0-5.625-3-9 4.873-2.742 8.496-4.387 14.125-3.437 4.353.71 4.353.71 6.922-.63 1.828-1.433 1.828-1.433 3.383-2.902C604 535 604 535 606.195 535.344"/><path fill="#02070f" d="M1039 953c9.13.487 16.362 7.994 22.371 14.336 2.236 2.284 4.672 4.287 7.149 6.305C1070 975 1070 975 1072 978c.125 3.188.125 3.188 0 6-2.707.864-4.224 1.28-7 1-5.434-3.046-9.75-7.645-14.035-12.102-3.325-3.212-6.982-6.02-10.61-8.882C1038 962 1038 962 1036 959c.359-2.96.847-3.847 3-6"/><path fill="#020810" d="m934.363 893.902 2.4.005c2.517.005 5.033.018 7.55.03l5.134.014q6.277.017 12.553.049l1 5c-12.269 5.277-27.625 6.362-40.875 6.438l-2.374.03c-3.001-.047-5.233-.148-7.821-1.745-.93-1.723-.93-1.723-.883-3.805.953-1.918.953-1.918 2.844-2.93l2.359-.676 2.328-.699c5.33-1.35 10.288-1.748 15.785-1.71"/><path fill="#f2cf10" d="M554 535a839 839 0 0 1-5 6l-1.61 1.934c-2.939 3.458-5.881 6.557-9.39 9.441-7.567 6.467-11.655 14.414-15 23.625-1.437 3.563-1.437 3.563-3 6-2.598.652-2.598.652-5 1l.438 3.84.562 5.097c.095.831.19 1.662.29 2.518.604 5.55.8 10.961.71 16.545a839 839 0 0 1-4.437-.937l-2.497-.528C508 609 508 609 507 608c-.851-6.932.956-12.255 3.51-18.608 2.291-5.708 4.106-11.477 5.665-17.427.552-1.93.552-1.93 1.825-4.965 2.023-.691 2.023-.691 4-1l2-4c1.572-1.612 1.572-1.612 3.406-3.172l2.004-1.765a425 425 0 0 1 4.18-3.579c3.412-3.032 5.67-5.154 6.605-9.714.805-3.77.805-3.77 2.828-5.899l2.352-1.433 2.336-1.504c2.616-1.067 3.693-.924 6.289.066"/><path fill="#02050d" d="M1104 1066c2.875-.125 2.875-.125 6 0l2 2c-.658 8.328-8.056 15.633-13.812 21.176-6.918 5.769-13.143 8.995-22.188 8.824l-1-5c4.237-3.231 8.51-6.347 12.938-9.312 6.66-4.643 13.402-9.792 16.062-17.688"/><path fill="#020911" d="m1033.063 345.75 2.292.018c6.371.112 12.403.962 18.645 2.232q2.022.353 4.047.695a8140 8140 0 0 1 8.191 1.426c3.917.915 7.127 2.19 10.762 3.879v4c-8.98.401-17.316-.34-26.153-1.79-7.14-1.159-14.278-1.909-21.488-2.475-3.839-.333-6.096-.56-9.359-2.735v-3c4.331-2.136 8.325-2.31 13.063-2.25"/><path fill="#020a12" d="M865 948c3.297.33 4.623.623 7 3a97 97 0 0 1 .25 5.875c.345 5.637.345 5.637 2.145 7.805 1.668 1.07 1.668 1.07 4.605 2.32l-1 4h-8l-2 4c-2.312-.062-2.312-.062-5-1l-1.062-3.125c-2.05-5.962-8.677-8.191-13.938-10.875l1-5c2.689-1.008 4.417-1.227 7.113-.176A120 120 0 0 1 862 958l.375-3.875c.375-3.875.375-3.875 2.625-6.125"/><path fill="#fed911" d="M888.938 455.188c1.465 2.5 1.56 3.963 1.062 6.812-7.231 7.106-22.13 6.28-31.678 6.241-5.176-.095-5.176-.095-6.322-1.241a100 100 0 0 1 0-5c8.897-4.777 27.148-12.813 36.938-6.812"/><path fill="#02070f" d="m911 836 2 2c-.375 2.625-.375 2.625-1 5l-2.06.427-9.378 1.948-3.24.672-3.193.664-3.162.656c-2.624.56-5.232 1.168-7.842 1.79-3.608.809-6.978 1.053-10.687.968l-3.13-.055L867 850c.61-3.388.993-3.993 3.688-6.5 11.148-7.463 27.3-8.507 40.312-7.5"/><path fill="#000203" d="M1268.063 535.938 1271 536c4.879 9.121 5.904 20.972 3.176 31.043-1.403 3.197-2.701 5.482-5.176 7.957-2.625-.375-2.625-.375-5-1q-.037-7.876-.055-15.753-.008-2.682-.02-5.363-.017-3.847-.023-7.693l-.015-2.436c0-1.919.051-3.837.113-5.755 1-1 1-1 4.063-1.062"/><path fill="#020a12" d="M1097 810h5l.25 1.875c.75 2.125.75 2.125 2.813 3.375l1.937.75c-.11 2.281-.11 2.281-1 5-2.703 1.844-2.703 1.844-6.25 3.5l-1.893.889c-1.941.897-3.895 1.76-5.857 2.611l-3.574 1.559c-10.568 4.332-10.568 4.332-16.426 3.441l-3-2c.293-1.875.293-1.875 1-4 6.566-3.964 15.25-8 23-8v-4h3v2l2-1-1-1a100 100 0 0 1 0-5"/><path fill="#ecb305" d="M1194 728c-26.232 18.11-57.038 28.57-87.617 36.965a58 58 0 0 0-7.145 2.683c-3.424 1.43-4.784 1.503-8.238.352 1.421-2.843 3.465-3.015 6.346-3.98l2.275-.735 2.345-.777c2.488-.822 4.98-1.634 7.472-2.446q2.467-.813 4.935-1.63c12.841-4.235 12.841-4.235 18.994-5.983 5.962-1.756 11.618-4.246 17.32-6.699l3.474-1.483c11.703-5.022 23.216-10.283 34.448-16.298C1191 727 1191 727 1194 728"/><path fill="#020910" d="m616 472 1 5-3.008 1.504-1.971.986a1926 1926 0 0 1-4.325 2.154c-3.59 1.786-7.163 3.592-10.7 5.481l-1.884.99a715 715 0 0 0-5.124 2.733c-3.252 1.254-4.721 1.213-7.988.152-.812-1.687-.812-1.687-1-4 6.53-8.557 24.212-18.308 35-15"/><path fill="#01060e" d="M1033.75 1059.063c2.25.937 2.25.937 4.25 2.937-.187 1.688-.187 1.688-1 4l-1.125 3.375c-1.848 4.235-4.971 7.203-8.875 9.625h-3l-2 4c-3.716.2-4.772.152-8-2l-1 1a177 177 0 0 1-7-1c-.125-2.375-.125-2.375 0-5l2-2c2.375.375 2.375.375 5 1h4a159 159 0 0 0 5-6h2l.125-2.187c1.432-4.602 4.651-7.864 9.625-7.75"/><path fill="#02060e" d="M949 348c2.977 1.327 3.833 2.333 6 5 .855 2.885.85 5.114 0 8-2.699 3.41-4.218 4.653-8.45 5.477-4.436.252-6.882-.05-10.675-2.477-2.06-3.297-2.69-5.228-2.414-9.062.77-2.766 2.293-4.463 4.629-6.086 3.665-1.635 7.02-1.698 10.91-.852"/><path fill="#000406" d="M927 648h3c.346 14.625.592 27.312-5 41-4.875-.875-4.875-.875-6-2-1.58-12.403 2.605-26.489 7-38z"/><path fill="#01050d" d="m1095 1065 2 4c-17.535 18.12-17.535 18.12-27.437 21H1067c-2-2-2-2-2.062-4.25 2.566-6.644 11.059-11.098 16.687-15.125l2.234-1.652 2.18-1.559 1.944-1.408c2.47-1.232 4.291-1.189 7.017-1.006"/><path fill="#020911" d="m838.625 845.875 3.332.027q4.021.036 8.043.098c.625 2.375.625 2.375 1 5-2.4 2.4-3.041 2.274-6.324 2.379l-2.62.103-2.744.08c-5.854.2-11.509.589-17.312 1.438-2.145.063-4.292.087-6.437.063l-3.184-.028L810 855v-4c8.977-5.197 18.505-5.285 28.625-5.125"/><path fill="#020810" d="M840.688 918.313 843 919c-.893 5.611-.893 5.611-1.527 7.91-1.415 6.255-.503 13.017.504 19.278L842 948l-2 2c-3.438-.09-4.708-.702-7.133-3.172-3.261-4.94-2.535-10.118-1.867-15.828 3.617-13.393 3.617-13.393 9.688-12.687"/><path fill="#02070f" d="m843 999 2 2c-.646 4.133-2.38 8.078-3.812 12l-.752 2.156c-1.505 4.105-2.877 7.084-6.436 9.844-2.625.375-2.625.375-5 0-2-2-2-2-2.363-4.645.468-4.325 2.06-7.296 4.176-11.043l1.08-2.01c4.987-9.087 4.987-9.087 11.107-8.302"/><path fill="#fed911" d="M727.938 487.188C729 489 729 489 729.09 491.406 728 494 728 494 726.368 494.968c-2.224.89-4.455 1.636-6.743 2.344l-2.367.8c-3.251 1.07-5.809 1.888-9.258 1.888l-.187-2.875c-.813-3.125-.813-3.125-3-4.437A88 88 0 0 0 696 491c2.415-2.415 3.47-2.412 6.797-2.852l2.906-.39 3.047-.383 3-.406c13.043-1.709 13.043-1.709 16.188.219M993 433c2.313 1.156 4.174 2.174 6 4 .493 4.274.452 6.335-2 9.938-4.133 2.841-6.049 2.69-11 2.062-2.437-1-2.437-1-4-3-.96-2.738-1.32-5.11-1-8 3.321-4.982 6.168-5.833 12-5"/><path fill="#020c13" d="m814 423-1 5c-3.33.849-6.664 1.676-10 2.5l-2.832.723c-5.53 1.353-10.471 2.243-16.168 1.777l-2-2v-3c8.027-4.75 23.582-10.612 32-5"/><path fill="#02070f" d="m899.188 1060.813 3.158-.038c5.272-.01 9.733.075 14.654 2.225v4c-7.82 3.83-17.064 4.599-25.523 2.32-1.914-.82-1.914-.82-4.477-2.32a100 100 0 0 1 0-5c2.448-2.448 8.9-1.186 12.188-1.187"/><path fill="#020911" d="m861 858 1 5c-11.012 4.283-22.388 4.265-34 4l-1-4c10.76-5.38 22.241-5.29 34-5"/><path fill="#02050d" d="M825.063 1139.938 828 1140c1.968 3.427 2.07 4.739 1.023 8.629a160 160 0 0 1-1.648 3.934l-.793 1.998c-1.613 3.877-3.245 6.841-6.582 9.439-4.3-.3-4.3-.3-6-2-.522-5.838.728-9.402 3.438-14.375l.986-1.902c2.99-5.711 2.99-5.711 6.639-5.785"/><path fill="#020810" d="M1036.39 870.605c2.61.395 2.61.395 4.594 2.258l1.766 2.45 1.797 2.425c2.211 3.442 2.631 6.253 2.703 10.262l.078 2.625c-.328 2.375-.328 2.375-1.594 4.25C1044 896 1044 896 1041.941 895.977c-2.714-1.366-3.014-2.768-4.004-5.602l-.992-2.738L1036 885a221 221 0 0 0-1.687-3.812c-1.154-2.803-2.054-5.171-2.313-8.188 2-2 2-2 4.39-2.395"/><path fill="#e8b005" d="M779 535h4v2l2 1-1.727.256c-16.509 2.494-32.658 6.029-48.885 9.932a1139 1139 0 0 1-13.95 3.25l-2.125.496c-3.5.788-6.723 1.238-10.313 1.066 9.218-4.784 18.94-7.643 28.988-10.023 5.03-1.198 9.971-2.668 14.926-4.145 6.638-1.79 12.712-1.906 19.516-1.705 1.857.03 3.715-.042 5.57-.127z"/><path fill="#01060e" d="M971 1094c6.577.577 6.577.577 8 2l-.25 2.875.25 3.125c2.438 1.625 2.438 1.625 5 3 .625 2.063.625 2.063 1 4l3 2c.188 2.625.188 2.625 0 5h-6l-1-4-3.375.125C974 1112 974 1112 972 1110c.375-2.625.375-2.625 1-5l-5-4c.75-4.75.75-4.75 3-7"/><path fill="#000507" d="m850 708 4 1c-.59 4.934-4.276 8.363-7.318 12.047-2.853 3.558-4.29 6.559-5.682 10.953-1.516 1.871-1.516 1.871-3.25 3.438-3.105 2.897-5.775 5.934-8.39 9.277C828 746 828 746 825 746c.732-4.142 2.68-6.072 5.527-9.023C832 735 832 735 832.824 732.277c1.588-4.424 4.182-7.655 7.051-11.34l1.605-2.103A536 536 0 0 1 850 708"/><path fill="#121623" d="M747 621c7.357-.263 13.76-.074 19.75 4.625 3.463 3.28 6.01 6.724 7.25 11.375.02 3.091-.357 5.98-1 9h-3l-1 3-2-2c0-1.92.006-3.84.063-5.758-.1-3.594-1.078-6.794-2.063-10.242l-4-1v-2l-12-3v-2h-2z"/><path fill="#01060e" d="M846 1117c2.625.375 2.625.375 5 1 1.125 4.75 1.125 4.75 0 7h4c1.58 5.758 2.053 10.035 1 16 .325 1.335.655 2.67 1 4l-2 2c-3.125-.375-3.125-.375-6-1v-5h2l-2-3c-.043-2-.04-4 0-6l-.562-2.75C848 1127 848 1127 849 1125l-1.937-.75C845 1123 845 1123 844.125 1121l-.125-2z"/><path fill="#252120" d="M1134 601v2l-3 1v3l-1 2 6-1v2l-6 1-.367 2.047-.508 2.703-.492 2.672c-.601 2.447-1.413 4.384-2.633 6.578h-2q.715-2.688 1.438-5.375l.808-3.023C1127 614 1127 614 1128 612l-5 1-.043 1.73c-.49 8.337-3.234 15.824-6.957 23.27h-2q.654-2.22 1.313-4.437l.824-2.782c.758-2.441 1.606-4.82 2.488-7.218 1.742-5.089 2.085-10.221 2.375-15.563h-4v-2q3.686-1.255 7.375-2.5l2.117-.723C1131.773 601 1131.773 601 1134 601"/><path fill="#000405" d="m554 643 3 1c.749 7.418.055 12.142-4.2 18.32-2.223 2.075-3.8 2.431-6.8 2.68-1.531-1.531-1.243-2.932-1.312-5.062.082-6.469 2.34-10.966 6.875-15.5.804-.475 1.608-.95 2.437-1.438"/><path fill="#020b12" d="m1102 797 5 1v4l5 1v4l5 1c.625 2.375.625 2.375 1 5l-2 2a88 88 0 0 0 1 5c-1 1-1 1-3.562 1.063L1111 821c-1-4.75-1-4.75-1-7-.187-2.5-.187-2.5-1-5-2.562-1.312-2.562-1.312-5-2v2h-2v-3h2v-3l-3-1z"/><path fill="#020d15" d="M801.125 852.5 803 854c-.573 2.867-.861 3.861-3 6a93 93 0 0 1-7.937.25l-2.21.023c-3.811-.014-5.611-.112-8.853-2.273.125-1.812.125-1.812 1-4 5.68-4.078 12.888-4.494 19.125-1.5"/><path fill="#fed911" d="M1010 427c2.375 1.625 2.375 1.625 4 4 .45 3.144.504 5.055-1 7.875-3.222 1.812-6.399 1.658-10 1.125-2-1.062-2-1.062-3-3-.437-3.5-.437-3.5 0-7 2.843-3.39 5.744-3.62 10-3"/><path fill="#020810" d="m915.125 907.688 2.496-.01c6.112.055 6.112.055 8.379 2.322-.536 3.536-.536 3.536-2 5a69 69 0 0 1-4.473.098l-2.724-.01-2.865-.025-2.877-.014q-3.53-.018-7.061-.049l-2-4c3.82-3.956 7.994-3.414 13.125-3.312"/><path fill="#020b13" d="M989.688 358.75c8.653.068 17.357 1.824 25.312 5.25v2c-23.942.442-23.942.442-29-2-1.246-2.078-1.246-2.078-2-4 1.634-1.634 3.43-1.21 5.688-1.25"/><path fill="#020c14" d="m812.438 859.688 2.87-.051c3.063.413 4.418 1.326 6.692 3.363l-1 5c-3.067 1.022-5.287 1.166-8.5 1.188l-2.906.042C807 869 807 869 804 867c-.375-2.5-.375-2.5 0-5 3.322-2.215 4.55-2.297 8.438-2.312"/><path fill="#fed911" d="M1027 425c2.438 1.688 2.438 1.688 4 4 .486 2.844.393 4.288-1 6.813-3.2 1.9-6.38 1.73-10 1.187-2-1.125-2-1.125-3-3-.39-3.118-.504-5.11 1.063-7.875 3.088-1.793 5.448-1.553 8.937-1.125"/><path fill="#014c69" d="M729 768c2.296 1.148 4.077 1.308 6.625 1.563l2.477.253L740 770c-6.453 5.18-13.842 7.396-22 8l1-2h2l-1-4h-9c2.33-2.33 4.246-3.071 7.313-4.25l2.863-1.14c3.381-.73 4.796-.173 7.824 1.39"/><path fill="#211e21" d="m765 679 1 2 6-1v2l-4 2v3l-1 2h2v2h-3l-2 10-3 1-1 3-2-1 5-11h-6c1.25-1.5 1.25-1.5 3-3h4v-2h-5l2-2h-10l1-2c2.941-.633 2.941-.633 6.563-1.125l3.628-.508L765 682z"/><path fill="#231f21" d="M1113 558c5.264-.501 7.91.688 12 4v2h3c1.905 5.103 3.426 9.463 3 15h-2l-4-11-4 2v7l-2-1v-3c-2.82 2.21-5.53 4.4-8 7 .48-4.314 1.746-6.166 5-9l-.937-1.812C1114 567 1114 567 1113 564l1.75.938c2.134 1.007 3.911 1.75 6.25 2.062l2-2c-3.08-3.672-5.248-4.568-10-5z"/><path fill="#f1b705" d="m545 591 .867 1.89c1.329 2.475 2.82 3.568 5.133 5.11-6.31 7.172-6.31 7.172-10.875 8.25L537 607l-1 3c-.55-4.129-.783-7.893 0-12 2.599-3.054 5.521-5.04 9-7"/><path fill="#020911" d="M1027 886c2.324-.227 2.324-.227 5 0 3.244 3.156 4.881 6.93 5.375 11.375C1037 900 1037 900 1036 902c-2.812.313-2.812.313-6 0-2.503-2.42-2.959-4.348-3.176-7.781-.01-2.747.046-5.475.176-8.219"/><path fill="#016f6f" d="M600 854c11.353 5.332 21.69 13.883 32 21-2 1-2 1-4.434.25-10-4.161-20.47-8.85-26.566-18.25z"/><path fill="#020911" d="M1042.625 901.375c2.654.698 3.69 1.496 5.375 3.625-1.189 4.358-2.233 7.353-6 10-3.75.25-3.75.25-7 0-.613-5.027.547-7.775 3.566-11.64 1.434-1.36 1.434-1.36 4.059-1.985"/><path fill="#02070f" d="M993 1011c.813 1.688.813 1.688 1 4-3.122 3.784-6.733 6.6-11 9-2.875.25-2.875.25-5 0-.75-1.75-.75-1.75-1-4 1.813-2.25 1.813-2.25 4-4h2l1-3c3.008-2.041 5.422-2.199 9-2"/><path fill="#01060e" d="M836.438 1096.813C839 1097 839 1097 841 1099c-.375 2.125-.375 2.125-1 4h-2l2 3c-.375 2.188-.375 2.188-1 4q-2.22.039-4.437.063l-2.497.035C830 1110 830 1110 829 1109a100 100 0 0 1 0-5l3-1 .438-2.437c.768-3.502.768-3.502 4-3.75"/><path fill="#e2aa04" d="m1213 664 2 1-1.566 1.645-1.996 2.168-2.004 2.144L1208 673c1 3 1 3 3 5-1.159.07-2.318.14-3.512.21-4.903.612-8.255 2.704-12.3 5.415A109 109 0 0 1 1188 688l-3-1q2.37-1.943 4.75-3.875l2.672-2.18c2.172-1.639 4.15-2.77 6.578-3.945a129 129 0 0 0 3.43-3.426c3.357-3.365 7-6.439 10.57-9.574"/><path fill="#014d6b" d="M948 658c2 1 2 1 3 3.375.831 3.013 1.383 5.86 1.875 8.938.792 4.722 2.214 8.575 4.418 12.812C958 685 958 685 957 688c-5.91-5.356-8.956-13.382-11-21v-4h2z"/><path fill="#edc50d" d="m678 496-1.785.67a5725 5725 0 0 0-8.153 3.08l-2.806 1.055c-5.192 1.967-10.271 4.044-15.28 6.445-3.1 1.177-5.698 1.029-8.976.75 1-3 1-3 3.281-4.15l3.004-1.077 3.299-1.187 3.479-1.211 3.396-1.234c14.517-5.149 14.517-5.149 20.541-3.141"/><path fill="#f7d411" d="M554 535a839 839 0 0 1-5 6l-1.61 1.934c-4.103 4.828-8.519 9.017-13.39 13.066l-2-1 1.46-1.25c5.788-5.29 5.788-5.29 6.415-9.812.489-2.843.962-3.783 3.094-5.813 6.772-4.749 6.772-4.749 11.031-3.125"/><path fill="#017171" d="M987 849h6l.148 2.484.227 3.266c.07 1.067.14 2.135.21 3.234.388 2.818.972 4.599 2.415 7.016-2 1-2 1-8 1z"/><path fill="#020a11" d="M752.258 434.273 754 435c.7 1.773.7 1.773 1 4-1.293 1.852-1.293 1.852-3.187 3.625-.613.59-1.225 1.18-1.856 1.79-1.933 1.566-3.651 2.657-5.957 3.585-2.25-.375-2.25-.375-4-1 1.334-3.92 2.974-6.43 5.875-9.375l2.055-2.148C750 434 750 434 752.258 434.273"/><path fill="#02060e" d="M831 1094c.625 1.813.625 1.813 1 4-2 3-2 3-4.312 3.582l-2.688.23-2.687.27C820 1102 820 1102 818 1100c-.125-2.625-.125-2.625 0-5 4.791-1.63 8.056-2.206 13-1"/><path fill="#741218" d="M1108 707a253 253 0 0 1-18.121 7.453l-2.503.925q-2.59.954-5.18 1.905-3.978 1.463-7.952 2.936l-5.053 1.86c-.792.293-1.585.586-2.402.89C1061.23 725 1061.23 725 1059 725l-1-3 2.712-.653c10.58-2.668 20.481-6.387 30.566-10.515 2.022-.825 4.05-1.635 6.077-2.445l3.583-1.462c3.142-.95 4.067-.849 7.062.075"/><path fill="#016e6e" d="m702 879 16 3-1 6c-5.03-.525-10.019-1.106-15-2z"/><path fill="#ca9904" d="m737.941 804.902 3.621.035 3.63.028L748 805c-2.36 2.36-3.779 2.491-7 3l-1 3h-37v-1l1.984-.044c3.006-.075 6.01-.172 9.016-.269l3.121-.068c7.53-.264 14.133-4.495 20.82-4.717"/><path fill="#01060e" d="M978.5 1117.75c3.5.25 3.5.25 5.5 2.25.365 2.846.402 4.386-1.187 6.813-2.462 1.612-3.924 1.62-6.813 1.187-1.812-1.187-1.812-1.187-3-3-.312-2.562-.312-2.562 0-5 2-2 2-2 5.5-2.25"/><path fill="#e8b005" d="M811 528v2l2 1q-5.312 1.222-10.625 2.438l-3.027.697C794.58 535.224 789.84 536.28 785 537v-3c2.707-1.453 5.19-2.405 8.188-3.07l2.367-.528 2.445-.527 2.445-.55c3.679-.808 6.75-1.325 10.555-1.325"/><path fill="#035158" d="M790 1034c1.16 3.478.496 5.216-.453 8.66-.949 4.059-1.224 8.192-1.547 12.34h-4c-1.65-3.3-1.644-6.449-1-10 1.844-3.836 3.962-7.962 7-11"/><path fill="#020911" d="M852.625 1004.875 855 1005c.323 8.239.323 8.239-2 12-2.562.875-2.562.875-5 1l-1-1a68 68 0 0 1 .313-4.937l.238-2.715c.658-3.44 1.569-4.306 5.074-4.473"/><path fill="#e6af05" d="M843 523c-2.975 1.625-5.761 2.538-9.062 3.29l-2.915.663-3.023.672-3.023.695c-4.136.932-7.714 1.68-11.977 1.68.969-2.562 1.536-3.758 4.004-5.047 8.685-2.387 17.07-2.236 25.996-1.953"/><path fill="#01060e" d="M973 1082c5.455.455 5.455.455 8 3-.556 4.556-.556 4.556-2 6-3.437.188-3.437.188-7 0l-2-2c.33-3.297.623-4.623 3-7"/><path fill="#42321c" d="M1126 605c2.125.938 2.125.938 4 2v2l6-1v2l-6 1-.367 2.047-.508 2.703-.492 2.672c-.601 2.447-1.413 4.384-2.633 6.578h-2q.715-2.688 1.438-5.375l.808-3.023C1127 614 1127 614 1128 612l-4 1c-1.039-3.116-1.09-4.026 0-7z"/><path fill="#821117" d="M817 654h2a933 933 0 0 1-2 12l-.625 3.89c-1.275 7.273-2.376 12.57-7.375 18.11-1.326-2.652-.726-3.593.11-6.402l.784-2.685.856-2.85 1.68-5.727.823-2.786c1.318-4.498 2.538-9.022 3.747-13.55"/><path fill="#01060e" d="M849.5 1097.75c2.5.25 2.5.25 4.5 2.25-.125 2.5-.125 2.5-1 5-2 1.125-2 1.125-4 2l-1 3h-4l1.063-2.187c1.053-3.162.624-4.634-.063-7.813 2-2 2-2 4.5-2.25"/><path fill="#015e5f" d="m1123 811 1 6 3 1a984 984 0 0 1-4.875 3l-2.742 1.688C1117 824 1117 824 1115 824l.879-6.055C1116 816 1116 816 1115 814c4.625-3 4.625-3 8-3"/><path fill="#f1b605" d="m548 564 6 1c-2.963 2.387-5.943 4.735-9 7a85 85 0 0 0 2 7c-6.75 4-6.75 4-9 4 1.708-7.794 4.74-13.033 10-19"/><path fill="#e1ad05" d="M573 768a351 351 0 0 1 30 7v1c-6.625.125-6.625.125-10-1a260 260 0 0 0-6.25-.375c-5.28-.36-9.102-1.139-13.75-3.625z"/><path fill="#6f1218" d="M1169 648c0 6.36-6.759 11.885-11 16.25-3.429 3.348-7.016 6.094-11 8.75 1.328-3.984 3.01-6.106 6-9l1-3c1.855-1.36 1.855-1.36 4.188-2.75 4.546-2.89 7.509-6.015 10.812-10.25"/><path fill="#02050d" d="M1047.563 1048.625C1050 1049 1050 1049 1052 1051c-.33 3.297-.623 4.623-3 7-3.125.125-3.125.125-6 0-.92-3.013-1.279-4.427.125-7.312 1.875-1.688 1.875-1.688 4.438-2.063"/><path fill="#711118" d="M780 574c9.817 1.197 15.624 5.752 23 12l-1 3-1.582-1.066a589 589 0 0 0-16.133-10.418C782 576 782 576 780 574"/></svg>