<?xml version="1.0" encoding="UTF-8"?>
<!-- Generator: visioncortex VTracer 0.6.12 -->
<svg version="1.1" xmlns="http://www.w3.org/2000/svg" width="918" height="836" viewBox="0 0 918 836">
<path d="M0,0 L918,0 L918,836 L0,836 Z " fill="#FEFEFE" transform="translate(0,0)"/>
<path d="M0,0 L50,0 L52,4 L57,6 L62,9 L67,15 L76,19 L83,21 L98,26 L108,33 L111,35 L111,37 L114,38 L120,48 L124,59 L126,67 L129,72 L133,75 L133,77 L135,77 L142,85 L144,89 L146,89 L150,95 L159,106 L163,115 L165,128 L164,137 L160,146 L154,153 L152,153 L151,156 L142,163 L137,171 L135,179 L135,234 L137,242 L144,254 L153,264 L159,269 L166,270 L183,263 L203,263 L204,261 L206,262 L221,264 L235,270 L242,270 L248,267 L257,258 L264,247 L268,238 L269,209 L269,188 L267,173 L264,167 L257,160 L249,153 L242,144 L239,138 L239,122 L241,113 L246,104 L248,104 L250,99 L258,90 L261,85 L266,80 L268,80 L268,78 L270,78 L270,76 L276,71 L281,56 L284,48 L290,38 L300,30 L307,26 L318,22 L326,21 L329,18 L337,16 L339,12 L345,7 L351,4 L355,0 L402,0 L407,4 L409,10 L409,22 L403,36 L399,41 L400,48 L403,51 L406,64 L412,79 L419,87 L426,92 L433,100 L439,107 L444,119 L445,124 L445,137 L443,147 L439,154 L432,160 L430,161 L435,162 L450,162 L476,166 L487,170 L499,172 L512,176 L524,180 L535,187 L548,197 L567,211 L589,225 L597,229 L606,231 L606,234 L586,241 L564,251 L545,259 L535,263 L523,267 L498,271 L483,273 L470,273 L450,272 L431,268 L413,262 L405,261 L398,272 L396,275 L397,285 L399,289 L400,295 L400,308 L395,318 L390,325 L380,331 L375,333 L362,332 L354,326 L351,321 L349,306 L342,297 L339,290 L331,286 L316,282 L310,281 L299,288 L295,292 L296,298 L304,315 L305,318 L305,333 L303,337 L303,340 L304,343 L305,357 L303,366 L294,383 L295,387 L300,392 L309,398 L316,397 L324,394 L332,392 L338,389 L343,380 L348,374 L349,372 L350,359 L355,351 L362,347 L372,346 L382,349 L390,355 L396,364 L399,370 L399,385 L397,392 L395,399 L396,405 L400,410 L404,418 L413,417 L421,414 L443,408 L450,407 L470,406 L482,406 L511,410 L524,413 L546,420 L550,423 L561,427 L577,434 L585,438 L598,443 L605,445 L605,448 L592,452 L574,463 L554,477 L540,488 L527,497 L515,502 L502,506 L496,508 L483,510 L475,513 L449,517 L431,517 L431,519 L439,526 L443,532 L444,542 L445,544 L445,553 L444,554 L443,561 L438,573 L424,588 L414,597 L409,604 L407,611 L404,621 L403,622 L402,629 L399,632 L398,638 L404,646 L408,657 L408,670 L404,678 L402,679 L353,679 L349,674 L341,670 L336,664 L326,659 L326,657 L318,657 L304,652 L296,646 L288,639 L282,629 L278,616 L276,607 L273,606 L268,601 L268,599 L265,598 L260,593 L259,590 L257,590 L254,585 L243,571 L239,561 L238,554 L238,544 L242,534 L248,526 L256,519 L261,514 L265,509 L268,498 L268,470 L267,441 L265,435 L259,425 L250,415 L244,410 L242,409 L234,409 L223,414 L215,416 L196,416 L185,415 L174,411 L168,408 L162,408 L153,414 L145,423 L137,437 L136,440 L135,469 L135,491 L137,505 L142,514 L154,525 L162,534 L165,542 L165,556 L163,565 L159,573 L156,574 L154,579 L148,586 L147,589 L142,594 L140,594 L140,596 L138,596 L138,599 L136,599 L136,601 L132,603 L127,609 L122,625 L118,634 L112,642 L103,649 L95,653 L82,657 L76,659 L69,662 L67,662 L65,667 L60,671 L52,676 L50,678 L0,678 L-4,672 L-5,669 L-5,656 L0,644 L5,637 L4,631 L1,626 L-2,614 L-7,602 L-13,594 L-26,582 L-35,572 L-40,559 L-41,553 L-41,543 L-40,533 L-34,523 L-27,518 L-27,517 L-49,516 L-71,513 L-82,509 L-98,506 L-119,499 L-133,490 L-151,476 L-170,463 L-187,452 L-198,448 L-202,447 L-200,443 L-192,441 L-179,436 L-157,426 L-144,421 L-134,416 L-120,412 L-106,409 L-93,407 L-81,406 L-48,406 L-34,409 L-19,413 L-8,417 L0,418 L2,413 L8,403 L7,394 L5,388 L4,381 L4,370 L12,356 L19,350 L27,346 L34,345 L43,347 L51,354 L54,360 L55,373 L56,375 L59,376 L65,388 L75,393 L85,395 L89,397 L95,397 L105,390 L109,386 L108,380 L100,364 L99,361 L99,345 L101,340 L102,336 L99,336 L98,329 L98,317 L108,296 L108,291 L101,285 L94,281 L85,282 L80,284 L71,286 L63,291 L60,298 L54,305 L53,318 L49,326 L42,331 L38,332 L27,332 L17,327 L12,322 L6,313 L3,307 L4,292 L7,282 L7,274 L-1,261 L-9,261 L-22,266 L-48,272 L-80,272 L-105,269 L-127,264 L-139,260 L-152,254 L-173,245 L-184,240 L-197,235 L-203,233 L-202,230 L-190,227 L-166,212 L-148,199 L-134,188 L-120,179 L-99,172 L-80,168 L-72,165 L-54,162 L-28,161 L-33,156 L-39,148 L-40,146 L-42,134 L-42,125 L-38,111 L-33,103 L-20,89 L-12,82 L-7,75 L-4,66 L-1,58 L1,49 L4,47 L4,40 L-1,33 L-5,22 L-6,9 L-2,1 Z " fill="#EEE8D4" transform="translate(224,93)"/>
<path d="M0,0 L9,1 L13,6 L13,17 L8,26 L0,33 L-3,36 L5,43 L12,55 L14,81 L24,86 L35,95 L42,105 L46,116 L46,124 L42,138 L35,145 L29,148 L19,150 L19,167 L28,167 L60,172 L93,176 L119,183 L138,192 L149,200 L170,216 L181,222 L181,225 L168,226 L158,230 L141,235 L124,240 L116,242 L96,243 L59,243 L45,242 L38,240 L20,237 L17,236 L15,249 L9,257 L0,262 L-6,262 L-1,274 L5,286 L5,294 L2,299 L-1,301 L-7,301 L-13,297 L-15,292 L-15,285 L-18,284 L-18,272 L-17,263 L-32,263 L-47,259 L-57,254 L-66,247 L-69,246 L-79,246 L-87,251 L-97,262 L-107,277 L-119,292 L-111,298 L-104,308 L-100,316 L-99,323 L-99,337 L-102,350 L-108,361 L-113,367 L-119,370 L-117,374 L-109,384 L-101,396 L-94,405 L-88,412 L-80,417 L-69,417 L-63,413 L-54,407 L-41,402 L-33,400 L-18,399 L-19,388 L-19,379 L-16,377 L-14,367 L-10,363 L-8,362 L-2,362 L2,364 L4,367 L4,377 L1,385 L-2,389 L-5,396 L-7,401 L-1,401 L7,405 L13,412 L16,419 L16,427 L25,425 L38,423 L45,421 L59,420 L95,420 L113,421 L134,426 L152,432 L165,436 L168,437 L181,438 L180,442 L170,447 L154,459 L139,470 L123,478 L115,481 L101,485 L85,488 L34,495 L18,497 L18,513 L31,516 L39,522 L42,527 L45,537 L45,548 L42,557 L36,566 L29,573 L21,579 L17,581 L13,581 L13,592 L11,608 L6,618 L-1,625 L-4,628 L4,634 L10,641 L13,647 L13,655 L10,661 L6,663 L0,663 L-5,659 L-6,653 L-9,661 L-14,661 L-16,658 L-16,654 L-21,654 L-23,652 L-23,648 L-28,648 L-29,647 L-30,635 L-32,636 L-48,636 L-57,634 L-65,629 L-73,622 L-80,610 L-82,604 L-83,597 L-83,584 L-92,582 L-97,579 L-107,570 L-112,560 L-114,552 L-114,540 L-110,531 L-103,523 L-93,516 L-92,471 L-90,457 L-87,443 L-88,435 L-96,419 L-110,401 L-122,388 L-132,376 L-138,378 L-149,382 L-163,382 L-176,380 L-186,376 L-209,364 L-223,353 L-234,341 L-238,334 L-238,332 L-244,332 L-244,331 L-237,331 L-235,325 L-229,317 L-219,307 L-208,299 L-185,287 L-174,283 L-162,281 L-150,281 L-140,284 L-131,288 L-129,284 L-116,269 L-106,258 L-94,242 L-89,232 L-87,227 L-87,218 L-91,199 L-92,190 L-92,152 L-91,147 L-95,145 L-105,138 L-111,130 L-113,123 L-113,111 L-111,102 L-106,92 L-94,82 L-84,79 L-83,75 L-82,60 L-77,48 L-70,39 L-62,32 L-53,28 L-47,27 L-30,27 L-28,16 L-24,14 L-22,15 L-21,9 L-15,9 L-15,4 L-13,2 L-8,3 L-7,4 L-7,11 L-5,11 L-4,4 Z " fill="#615B50" transform="translate(602,101)"/>
<path d="M0,0 L50,0 L52,4 L57,6 L62,9 L67,15 L76,19 L83,21 L98,26 L108,33 L111,35 L111,37 L114,38 L120,48 L124,59 L126,67 L129,72 L133,75 L133,77 L135,77 L142,85 L144,89 L146,89 L150,95 L159,106 L163,115 L165,128 L164,137 L160,146 L154,153 L152,153 L151,156 L142,163 L137,171 L135,179 L135,234 L137,242 L144,254 L153,264 L159,269 L166,270 L183,263 L203,263 L204,261 L206,262 L221,264 L235,270 L242,270 L248,267 L257,258 L264,247 L268,238 L269,209 L269,188 L267,173 L264,167 L257,160 L249,153 L242,144 L239,138 L239,122 L241,113 L246,104 L248,104 L250,99 L258,90 L261,85 L266,80 L268,80 L268,78 L270,78 L270,76 L276,71 L281,56 L284,48 L290,38 L300,30 L307,26 L318,22 L326,21 L329,18 L337,16 L339,12 L345,7 L351,4 L355,0 L402,0 L407,4 L409,10 L409,22 L403,36 L399,41 L400,48 L403,51 L406,64 L412,79 L419,87 L426,92 L433,100 L439,107 L444,119 L445,124 L445,137 L443,147 L439,154 L432,160 L430,161 L435,162 L450,162 L476,166 L487,170 L499,172 L512,176 L524,180 L535,187 L548,197 L567,211 L589,225 L597,229 L606,231 L606,234 L586,241 L564,251 L545,259 L535,263 L523,267 L498,271 L483,273 L470,273 L450,272 L431,268 L413,262 L405,261 L398,272 L396,275 L397,285 L399,289 L400,295 L400,308 L395,318 L390,325 L380,331 L375,333 L362,332 L354,326 L351,321 L349,306 L342,297 L339,290 L331,286 L316,282 L310,281 L299,288 L295,292 L296,298 L304,315 L305,318 L305,333 L303,337 L303,340 L304,343 L305,357 L303,366 L294,383 L295,387 L300,392 L309,398 L316,397 L324,394 L332,392 L338,389 L343,380 L348,374 L349,372 L350,359 L355,351 L362,347 L372,346 L382,349 L390,355 L396,364 L399,370 L399,385 L397,392 L395,399 L396,405 L400,410 L404,418 L413,417 L421,414 L443,408 L450,407 L470,406 L482,406 L511,410 L524,413 L546,420 L550,423 L561,427 L577,434 L585,438 L598,443 L605,445 L605,448 L592,452 L574,463 L554,477 L540,488 L527,497 L515,502 L502,506 L496,508 L483,510 L475,513 L449,517 L431,517 L431,519 L439,526 L443,532 L444,542 L445,544 L445,553 L444,554 L443,561 L438,573 L424,588 L414,597 L409,604 L407,611 L404,621 L403,622 L402,629 L399,632 L398,638 L404,646 L408,657 L408,670 L404,678 L402,679 L353,679 L349,674 L341,670 L336,664 L326,659 L326,657 L318,657 L304,652 L296,646 L288,639 L282,629 L278,616 L276,607 L273,606 L268,601 L268,599 L265,598 L260,593 L259,590 L257,590 L254,585 L243,571 L239,561 L238,554 L238,544 L242,534 L248,526 L256,519 L261,514 L265,509 L268,498 L268,470 L267,441 L265,435 L259,425 L250,415 L244,410 L242,409 L234,409 L223,414 L215,416 L196,416 L185,415 L174,411 L168,408 L162,408 L153,414 L145,423 L137,437 L136,440 L135,469 L135,491 L137,505 L142,514 L154,525 L162,534 L165,542 L165,556 L163,565 L159,573 L156,574 L154,579 L148,586 L147,589 L142,594 L140,594 L140,596 L138,596 L138,599 L136,599 L136,601 L132,603 L127,609 L122,625 L118,634 L112,642 L103,649 L95,653 L82,657 L76,659 L69,662 L67,662 L65,667 L60,671 L52,676 L50,678 L0,678 L-4,672 L-5,669 L-5,656 L0,644 L5,637 L4,631 L1,626 L-2,614 L-7,602 L-13,594 L-26,582 L-35,572 L-40,559 L-41,553 L-41,543 L-40,533 L-34,523 L-27,518 L-27,517 L-49,516 L-71,513 L-82,509 L-98,506 L-119,499 L-133,490 L-151,476 L-170,463 L-187,452 L-198,448 L-202,447 L-200,443 L-192,441 L-179,436 L-157,426 L-144,421 L-134,416 L-120,412 L-106,409 L-93,407 L-81,406 L-48,406 L-34,409 L-19,413 L-8,417 L0,418 L2,413 L8,403 L7,394 L5,388 L4,381 L4,370 L12,356 L19,350 L27,346 L34,345 L43,347 L51,354 L54,360 L55,373 L56,375 L59,376 L65,388 L75,393 L85,395 L89,397 L95,397 L105,390 L109,386 L108,380 L100,364 L99,361 L99,345 L101,340 L102,336 L99,336 L98,329 L98,317 L108,296 L108,291 L101,285 L94,281 L85,282 L80,284 L71,286 L63,291 L60,298 L54,305 L53,318 L49,326 L42,331 L38,332 L27,332 L17,327 L12,322 L6,313 L3,307 L4,292 L7,282 L7,274 L-1,261 L-9,261 L-22,266 L-48,272 L-80,272 L-105,269 L-127,264 L-139,260 L-152,254 L-173,245 L-184,240 L-197,235 L-203,233 L-202,230 L-190,227 L-166,212 L-148,199 L-134,188 L-120,179 L-99,172 L-80,168 L-72,165 L-54,162 L-28,161 L-33,156 L-39,148 L-40,146 L-42,134 L-42,125 L-38,111 L-33,103 L-20,89 L-12,82 L-7,75 L-4,66 L-1,58 L1,49 L4,47 L4,40 L-1,33 L-5,22 L-6,9 L-2,1 Z M14,4 L9,7 L6,14 L7,23 L12,33 L20,41 L24,42 L24,44 L18,46 L12,56 L9,63 L7,81 L1,86 L-7,92 L-13,99 L-21,110 L-27,124 L-27,143 L-23,151 L-15,157 L-3,161 L-1,165 L-2,169 L-7,170 L-32,172 L-52,174 L-55,175 L-73,177 L-87,181 L-99,184 L-115,192 L-126,199 L-130,202 L-130,204 L-134,206 L-144,215 L-156,224 L-171,231 L-169,233 L-152,238 L-132,245 L-118,251 L-101,254 L-90,258 L-78,260 L-57,260 L-33,257 L-12,253 L3,249 L6,249 L10,262 L14,268 L22,272 L21,277 L15,291 L15,303 L20,312 L25,316 L27,317 L34,317 L39,314 L42,308 L43,298 L49,291 L49,280 L48,277 L56,277 L69,273 L82,269 L92,263 L101,263 L107,266 L123,282 L125,282 L127,288 L129,288 L129,298 L121,309 L116,320 L115,323 L115,352 L120,366 L130,381 L129,388 L125,395 L120,399 L115,404 L106,413 L101,415 L93,415 L83,409 L73,405 L57,401 L49,400 L50,397 L50,388 L47,383 L45,383 L42,367 L38,362 L35,361 L28,361 L22,364 L16,373 L15,375 L15,383 L18,393 L22,401 L22,406 L14,411 L9,419 L6,429 L-9,426 L-19,423 L-47,419 L-55,418 L-78,418 L-92,421 L-101,424 L-123,429 L-136,435 L-159,442 L-169,445 L-170,447 L-153,455 L-146,461 L-144,461 L-143,464 L-132,473 L-124,480 L-110,488 L-98,494 L-72,501 L-53,503 L-50,504 L-21,507 L-4,508 L-1,509 L-2,518 L-13,520 L-22,526 L-26,534 L-27,537 L-27,548 L-24,559 L-19,570 L-8,584 L1,592 L6,595 L8,597 L10,615 L15,627 L19,632 L24,634 L24,636 L20,638 L14,643 L8,653 L7,657 L7,664 L10,671 L15,674 L25,674 L28,672 L39,672 L43,670 L44,666 L50,664 L54,660 L60,657 L62,650 L81,647 L86,645 L93,643 L104,633 L111,622 L115,610 L117,602 L122,597 L133,589 L138,583 L145,571 L149,563 L150,559 L150,546 L146,537 L139,529 L130,521 L126,518 L125,515 L124,461 L123,455 L124,438 L129,428 L138,417 L143,413 L151,403 L156,397 L159,395 L158,384 L154,386 L143,399 L132,411 L122,424 L116,434 L112,444 L112,455 L116,472 L117,485 L117,523 L125,529 L133,536 L137,543 L138,548 L138,559 L135,571 L130,579 L120,587 L113,589 L121,585 L130,578 L135,568 L137,559 L137,547 L133,537 L124,529 L117,525 L105,521 L87,521 L73,523 L63,528 L55,537 L53,542 L52,548 L52,557 L55,567 L61,576 L72,583 L81,587 L86,588 L78,587 L65,580 L61,577 L55,579 L41,586 L31,589 L19,590 L17,592 L17,613 L20,620 L26,628 L33,633 L35,633 L36,631 L36,624 L38,624 L38,626 L42,626 L42,628 L44,628 L43,631 L38,633 L37,637 L34,638 L34,640 L38,640 L38,642 L33,643 L32,638 L28,639 L28,642 L23,642 L19,647 L20,652 L18,652 L17,650 L15,657 L16,666 L18,666 L18,662 L20,662 L22,660 L25,665 L23,668 L27,667 L28,666 L28,659 L25,659 L24,656 L26,656 L29,651 L33,652 L33,645 L36,646 L38,645 L35,649 L34,655 L32,656 L32,653 L30,653 L31,657 L35,658 L36,662 L37,662 L37,666 L39,667 L34,667 L33,659 L30,660 L29,667 L26,669 L18,669 L14,665 L13,663 L13,655 L18,646 L25,639 L30,636 L29,633 L21,626 L16,618 L15,615 L13,589 L1,583 L-8,576 L-15,565 L-19,554 L-19,546 L-17,541 L-15,533 L-10,527 L-5,524 L7,520 L7,504 L-32,498 L-63,494 L-55,494 L-24,498 L8,503 L22,505 L43,512 L52,518 L57,523 L56,524 L51,518 L37,511 L21,506 L10,505 L10,519 L15,520 L33,521 L50,527 L56,531 L60,529 L67,524 L80,520 L93,519 L104,519 L115,522 L116,516 L116,483 L113,463 L109,449 L103,439 L92,427 L87,422 L82,418 L73,414 L61,410 L55,409 L43,409 L42,421 L38,426 L37,417 L41,417 L41,414 L35,414 L34,415 L32,411 L25,412 L17,417 L12,426 L12,436 L33,442 L54,449 L66,452 L74,453 L89,453 L88,455 L64,453 L37,445 L22,440 L-3,434 L-19,431 L-24,430 L-74,430 L-90,431 L-135,444 L-143,447 L-143,449 L-132,450 L-82,451 L-59,451 L-8,456 L16,460 L41,467 L56,473 L77,485 L83,490 L82,491 L78,487 L61,477 L44,469 L16,461 L-18,456 L-62,452 L-104,452 L-134,451 L-146,450 L-143,453 L-130,463 L-112,476 L-93,485 L-80,489 L-68,492 L-77,491 L-97,485 L-114,476 L-125,468 L-138,458 L-149,451 L-155,448 L-156,446 L-145,446 L-134,442 L-113,436 L-96,431 L-87,429 L-68,428 L-50,428 L-19,430 L-3,433 L9,434 L12,422 L18,414 L26,410 L32,409 L31,403 L26,393 L23,387 L22,383 L22,375 L26,371 L35,371 L38,372 L41,385 L43,386 L43,407 L61,409 L74,413 L88,421 L93,425 L103,426 L110,423 L122,411 L132,396 L145,380 L145,377 L138,373 L129,359 L127,354 L126,340 L127,346 L130,347 L128,348 L129,356 L135,367 L141,374 L147,376 L146,380 L139,389 L130,401 L123,412 L114,422 L105,427 L96,428 L102,436 L109,446 L111,444 L115,433 L122,422 L132,410 L140,400 L147,393 L151,387 L158,380 L163,384 L167,388 L179,393 L184,396 L202,400 L226,400 L229,398 L237,397 L246,397 L251,402 L258,410 L263,415 L272,425 L277,433 L280,440 L280,458 L279,471 L279,512 L276,520 L267,527 L259,535 L254,544 L253,548 L254,562 L262,578 L268,587 L277,595 L286,602 L292,622 L299,633 L304,638 L311,644 L328,649 L339,650 L341,652 L343,657 L347,660 L351,662 L354,665 L359,668 L361,671 L364,672 L376,673 L383,675 L389,674 L394,671 L397,664 L396,656 L391,646 L382,637 L380,635 L386,631 L393,617 L394,613 L395,598 L401,593 L407,589 L414,582 L420,574 L424,568 L429,555 L430,551 L430,536 L426,528 L419,522 L406,518 L404,513 L404,510 L409,508 L451,505 L466,503 L482,500 L505,493 L522,484 L534,475 L545,465 L558,455 L572,448 L572,446 L562,442 L546,438 L522,428 L502,424 L494,421 L484,419 L458,419 L442,420 L428,423 L416,425 L402,429 L397,429 L392,415 L388,410 L382,407 L380,407 L383,398 L387,388 L388,384 L388,375 L382,366 L377,362 L375,361 L368,361 L363,365 L360,372 L359,381 L353,389 L353,396 L354,401 L342,403 L324,408 L309,416 L302,416 L296,412 L283,400 L277,393 L276,391 L274,391 L273,382 L283,367 L287,358 L288,353 L287,337 L289,333 L288,323 L283,311 L274,297 L275,290 L279,283 L287,276 L297,266 L303,263 L310,263 L320,269 L334,274 L347,277 L355,277 L354,282 L354,291 L360,299 L361,309 L365,316 L369,318 L376,318 L383,314 L389,303 L389,295 L384,281 L382,277 L382,272 L390,268 L394,261 L397,252 L397,249 L410,252 L420,255 L440,258 L442,259 L458,260 L482,260 L497,257 L516,252 L525,250 L552,239 L568,235 L574,233 L571,230 L557,223 L547,215 L537,206 L524,196 L510,188 L494,182 L486,180 L467,176 L430,172 L413,171 L406,170 L405,165 L407,161 L420,157 L427,151 L430,144 L431,128 L426,114 L420,104 L409,91 L404,87 L397,83 L396,82 L394,64 L390,54 L386,48 L383,45 L380,45 L385,40 L393,31 L397,21 L397,14 L394,7 L387,4 L378,5 L376,6 L363,7 L359,12 L353,15 L351,19 L344,21 L341,28 L340,29 L328,30 L312,35 L302,43 L295,53 L291,62 L287,77 L276,86 L268,93 L262,102 L255,116 L254,120 L254,133 L259,143 L270,155 L277,159 L279,163 L280,208 L281,231 L279,242 L274,252 L265,262 L258,269 L257,273 L253,275 L247,282 L237,282 L228,280 L226,279 L204,279 L184,283 L180,286 L164,294 L158,299 L158,297 L156,295 L159,295 L160,283 L154,279 L149,273 L147,273 L145,268 L132,255 L126,245 L123,238 L123,219 L124,200 L124,165 L127,158 L136,151 L145,142 L150,130 L149,117 L141,101 L135,92 L128,85 L117,77 L115,72 L112,60 L107,50 L99,40 L91,34 L76,30 L63,28 L61,26 L59,21 L54,18 L52,18 L50,14 L44,11 L39,6 L28,6 L24,4 Z " fill="#333432" transform="translate(224,93)"/>
<path d="M0,0 L7,1 L11,5 L11,11 L13,11 L14,3 L19,2 L22,6 L22,9 L28,10 L29,15 L34,16 L35,17 L36,27 L58,28 L68,32 L79,42 L85,52 L88,59 L90,79 L101,83 L112,92 L116,98 L119,110 L119,124 L117,131 L111,139 L98,148 L98,194 L95,211 L93,219 L93,226 L98,238 L105,249 L114,260 L123,270 L136,285 L137,287 L135,289 L127,280 L124,275 L114,265 L104,252 L98,244 L93,235 L91,230 L91,225 L89,225 L87,230 L79,240 L77,243 L86,243 L95,249 L103,257 L110,267 L117,278 L129,292 L129,295 L120,299 L113,309 L109,318 L107,330 L105,330 L106,317 L113,304 L121,295 L126,294 L118,283 L111,274 L102,261 L92,250 L85,246 L78,246 L72,248 L59,257 L45,262 L34,264 L23,264 L24,273 L25,275 L25,284 L21,286 L21,294 L18,299 L15,301 L6,301 L1,295 L1,287 L9,270 L12,262 L5,262 L-4,256 L-9,249 L-10,244 L-10,237 L-20,239 L-33,241 L-52,243 L-105,243 L-126,238 L-142,233 L-158,228 L-165,226 L-175,225 L-175,222 L-162,215 L-145,202 L-131,192 L-114,184 L-94,178 L-70,174 L-45,171 L-26,168 L-13,166 L-12,151 L-24,148 L-30,144 L-36,138 L-38,130 L-39,127 L-39,114 L-35,104 L-28,95 L-19,87 L-10,82 L-7,82 L-7,72 L-5,54 L2,43 L9,37 L11,37 L11,35 L6,33 L-2,26 L-7,17 L-7,7 L-2,1 Z " fill="#635C51" transform="translate(243,100)"/>
<path d="M0,0 L4,1 L12,7 L28,11 L34,12 L46,12 L59,9 L61,22 L61,42 L58,66 L54,80 L49,90 L38,102 L32,109 L22,115 L8,120 L-1,122 L-13,122 L-13,112 L-17,106 L-19,110 L-18,112 L-19,116 L-23,115 L-23,119 L-30,119 L-37,115 L-41,110 L-43,107 L-44,96 L-41,94 L-25,90 L-12,85 L10,79 L17,78 L33,78 L33,76 L8,78 L-12,84 L-34,91 L-58,97 L-72,99 L-90,101 L-128,101 L-145,100 L-171,93 L-195,85 L-199,84 L-199,82 L-191,81 L-166,80 L-109,79 L-65,75 L-40,71 L-15,64 L1,57 L13,51 L24,44 L26,44 L28,39 L26,39 L24,43 L13,50 L-3,58 L-15,63 L-45,71 L-69,74 L-73,75 L-121,79 L-167,79 L-191,80 L-201,81 L-201,79 L-192,73 L-175,60 L-162,52 L-144,44 L-120,38 L-95,35 L-53,29 L-34,26 L-13,19 L-4,13 L-1,10 L1,10 L2,5 L0,5 L-2,10 L-8,15 L-16,19 L-35,25 L-46,26 L-46,12 L-21,9 L-8,5 Z " fill="#F0E3BB" transform="translate(279,240)"/>
<path d="M0,0 L4,2 L13,7 L29,11 L48,12 L48,26 L35,25 L19,20 L8,14 L2,7 L0,6 L2,10 L12,18 L31,25 L47,28 L92,35 L124,39 L147,45 L164,52 L182,64 L192,72 L203,80 L203,81 L181,80 L114,79 L64,74 L43,71 L19,64 L4,58 L-15,48 L-26,40 L-21,45 L-8,53 L8,61 L19,65 L40,71 L64,75 L101,79 L113,80 L189,81 L199,82 L201,84 L192,88 L167,95 L162,96 L161,98 L153,99 L143,101 L130,102 L92,102 L76,100 L49,95 L24,88 L0,80 L-18,77 L-30,77 L-6,80 L21,88 L36,93 L46,96 L46,106 L40,115 L32,120 L26,120 L25,116 L18,117 L17,115 L21,115 L21,108 L18,108 L16,111 L15,122 L2,122 L-12,119 L-23,114 L-32,107 L-40,99 L-48,88 L-52,79 L-56,65 L-58,46 L-58,16 L-57,10 L-46,12 L-25,12 L-8,7 Z " fill="#F0E2B9" transform="translate(570,240)"/>
<path d="M0,0 L13,0 L13,9 L16,15 L16,17 L18,17 L18,14 L20,14 L18,10 L19,7 L14,7 L14,5 L21,5 L23,2 L29,2 L37,7 L43,15 L43,26 L35,29 L23,32 L12,36 L-4,41 L-22,44 L-33,44 L-33,46 L-13,44 L1,41 L22,34 L32,31 L51,26 L74,22 L78,21 L110,20 L128,20 L145,21 L150,23 L158,25 L181,32 L199,38 L196,40 L183,41 L110,42 L61,47 L42,50 L23,55 L3,62 L-16,72 L-27,80 L-28,82 L-26,82 L-25,79 L-12,71 L4,63 L17,58 L42,51 L62,48 L112,43 L178,42 L200,41 L195,46 L177,60 L161,70 L144,77 L122,83 L82,88 L45,94 L32,96 L14,102 L4,108 L1,111 L-1,111 L-2,116 L0,116 L2,111 L12,104 L20,101 L39,96 L46,96 L46,110 L28,111 L17,113 L5,118 L-1,122 L-3,122 L-7,118 L-14,114 L-23,111 L-29,110 L-50,110 L-59,112 L-61,101 L-61,76 L-58,55 L-53,38 L-44,25 L-37,18 L-32,13 L-28,9 L-11,2 Z " fill="#F0E2B9" transform="translate(572,503)"/>
<path d="M0,0 L4,5 L11,14 L14,19 L3,20 L-5,26 L-12,33 L-19,43 L-26,54 L-37,67 L-38,71 L-32,72 L-24,81 L-18,92 L-17,104 L-22,103 L-26,98 L-27,99 L-24,102 L-25,104 L-30,103 L-35,102 L-38,96 L-38,99 L-40,99 L-41,104 L-43,105 L-49,105 L-50,97 L-52,97 L-52,99 L-54,99 L-54,105 L-56,102 L-57,97 L-63,98 L-64,105 L-99,106 L-65,106 L-64,109 L-63,106 L-56,106 L-58,116 L-55,106 L-41,106 L-41,109 L-39,110 L-41,114 L-38,116 L-39,120 L-37,120 L-36,114 L-32,112 L-25,112 L-25,110 L-23,111 L-29,118 L-24,114 L-23,109 L-28,111 L-31,111 L-31,109 L-35,110 L-36,112 L-38,111 L-37,106 L-17,106 L-17,113 L-20,125 L-25,135 L-32,143 L-39,144 L-35,151 L-25,163 L-17,176 L-8,187 L-1,193 L3,195 L14,196 L8,204 L4,209 L1,214 L-1,214 L-5,202 L-14,189 L-23,178 L-30,169 L-35,165 L-43,154 L-47,150 L-56,153 L-62,155 L-80,155 L-96,152 L-119,141 L-129,134 L-141,123 L-149,115 L-152,110 L-151,104 L-139,90 L-130,82 L-120,75 L-98,64 L-93,62 L-79,60 L-62,60 L-49,65 L-44,63 L-37,54 L-30,46 L-20,35 L-8,19 L-2,7 Z " fill="#FBF9EE" transform="translate(518,325)"/>
<path d="M0,0 L18,0 L30,4 L41,11 L47,18 L50,26 L50,38 L47,50 L42,58 L31,66 L26,68 L26,70 L22,70 L22,79 L21,89 L15,103 L9,111 L7,111 L7,113 L-4,120 L-13,122 L-26,123 L-32,122 L-32,130 L-34,135 L-39,135 L-40,140 L-44,141 L-46,140 L-46,145 L-50,145 L-50,140 L-52,141 L-52,137 L-56,136 L-57,132 L-55,132 L-55,135 L-53,134 L-51,127 L-49,124 L-53,125 L-54,126 L-54,131 L-58,130 L-61,135 L-63,135 L-61,138 L-59,138 L-59,145 L-61,147 L-64,146 L-62,144 L-65,139 L-69,141 L-69,145 L-71,145 L-72,136 L-70,129 L-69,131 L-67,131 L-68,126 L-64,121 L-59,121 L-58,117 L-55,117 L-54,122 L-49,121 L-49,119 L-53,119 L-53,117 L-49,115 L-48,111 L-44,110 L-43,107 L-45,107 L-45,105 L-49,105 L-49,103 L-51,103 L-51,110 L-52,112 L-57,110 L-64,104 L-69,96 L-70,92 L-70,71 L-68,69 L-52,67 L-42,63 L-28,56 L-23,58 L-13,64 L-6,67 L-1,67 L-12,64 L-26,55 L-32,46 L-35,36 L-35,27 L-33,18 L-25,8 L-17,3 L-10,1 Z " fill="#C2BA97" transform="translate(311,614)"/>
<path d="M0,0 L2,2 L3,7 L6,9 L5,11 L3,10 L6,20 L11,29 L16,35 L23,38 L22,42 L15,51 L6,63 L-1,74 L-11,85 L-20,90 L-28,91 L-18,103 L-15,106 L-11,95 L-4,84 L6,72 L14,62 L21,55 L25,49 L33,41 L34,43 L33,45 L31,45 L29,49 L20,60 L8,73 L-2,86 L-8,96 L-12,106 L-12,117 L-8,134 L-7,147 L-7,185 L4,193 L11,201 L14,210 L14,221 L11,233 L6,241 L-3,249 L-10,252 L-13,251 L-1,244 L4,240 L9,230 L11,221 L11,209 L7,199 L-1,192 L-8,188 L-20,184 L-38,184 L-52,186 L-62,191 L-70,201 L-72,210 L-72,219 L-69,229 L-63,238 L-50,246 L-37,250 L-37,251 L-44,251 L-60,243 L-64,240 L-70,242 L-84,249 L-94,252 L-106,253 L-107,254 L-107,275 L-104,282 L-98,290 L-90,295 L-89,286 L-87,286 L-87,288 L-83,288 L-83,290 L-81,290 L-82,294 L-86,295 L-87,299 L-91,300 L-91,302 L-87,302 L-87,304 L-92,305 L-92,303 L-94,302 L-93,300 L-96,301 L-96,305 L-102,304 L-104,308 L-105,312 L-105,314 L-108,313 L-109,324 L-109,328 L-107,328 L-107,324 L-105,324 L-104,321 L-100,324 L-101,326 L-99,327 L-101,329 L-98,328 L-97,321 L-100,322 L-101,318 L-99,318 L-97,312 L-93,313 L-93,306 L-87,307 L-89,311 L-91,318 L-93,318 L-93,315 L-95,315 L-93,319 L-90,320 L-89,323 L-87,321 L-88,328 L-85,327 L-86,330 L-91,330 L-93,324 L-92,321 L-94,322 L-95,329 L-99,332 L-107,332 L-112,327 L-113,325 L-113,317 L-108,308 L-100,300 L-95,298 L-100,293 L-107,285 L-111,277 L-112,266 L-112,251 L-117,250 L-128,243 L-134,238 L-141,227 L-145,216 L-145,208 L-143,203 L-141,195 L-135,188 L-130,185 L-118,182 L-118,166 L-130,165 L-166,160 L-188,157 L-190,155 L-180,155 L-149,159 L-117,164 L-103,166 L-82,173 L-73,179 L-67,185 L-68,188 L-72,183 L-81,177 L-94,172 L-104,169 L-113,168 L-115,167 L-115,181 L-92,182 L-75,188 L-69,192 L-65,190 L-58,185 L-45,181 L-32,180 L-21,180 L-10,184 L-10,145 L-13,125 L-17,111 L-23,101 L-34,89 L-39,84 L-46,79 L-64,73 L-82,71 L-82,83 L-86,89 L-88,88 L-89,79 L-87,78 L-84,79 L-84,76 L-92,78 L-93,74 L-100,75 L-107,79 L-112,88 L-113,98 L-102,100 L-89,104 L-71,110 L-59,113 L-36,115 L-37,118 L-61,116 L-88,108 L-103,103 L-128,97 L-144,94 L-149,93 L-199,93 L-215,94 L-260,107 L-265,109 L-268,109 L-268,111 L-207,112 L-184,112 L-133,117 L-109,121 L-84,128 L-69,134 L-48,146 L-41,152 L-43,154 L-44,151 L-49,149 L-62,141 L-81,132 L-109,124 L-143,119 L-187,115 L-229,115 L-259,114 L-270,113 L-261,119 L-247,130 L-233,139 L-218,146 L-205,150 L-193,153 L-192,155 L-202,154 L-222,148 L-239,139 L-250,131 L-263,121 L-274,114 L-281,110 L-281,108 L-270,107 L-259,103 L-238,97 L-221,92 L-212,90 L-193,89 L-175,89 L-144,91 L-128,94 L-116,96 L-115,86 L-109,77 L-104,73 L-99,71 L-93,71 L-98,58 L-102,52 L-104,45 L-104,37 L-99,32 L-90,32 L-85,37 L-84,47 L-81,48 L-81,60 L-82,69 L-70,69 L-54,73 L-38,81 L-32,86 L-22,87 L-15,84 L-4,73 L6,58 L19,42 L20,39 L14,37 L5,25 L1,16 Z " fill="#645C51" transform="translate(349,431)"/>
<path d="M0,0 L20,0 L32,2 L40,8 L43,13 L46,23 L46,34 L43,43 L37,52 L30,59 L22,65 L18,67 L14,67 L14,78 L12,94 L7,104 L0,111 L-3,114 L5,120 L11,127 L14,133 L14,141 L12,141 L10,145 L8,145 L8,143 L3,145 L3,147 L-1,145 L-2,144 L-2,137 L2,138 L2,135 L0,134 L0,132 L-2,132 L-2,128 L-4,130 L-7,130 L-7,128 L-5,128 L-7,124 L-12,123 L-8,128 L-8,135 L-9,140 L-12,137 L-11,128 L-13,124 L-16,127 L-13,128 L-16,133 L-18,137 L-16,138 L-20,137 L-20,130 L-22,126 L-22,124 L-24,125 L-23,130 L-21,132 L-26,132 L-27,118 L-24,118 L-25,110 L-22,111 L-20,114 L-19,112 L-16,112 L-16,114 L-13,113 L-12,111 L-17,110 L-15,104 L-10,103 L-8,110 L-2,108 L4,101 L8,94 L9,90 L9,79 L8,69 L0,69 L0,67 L-8,66 L-20,61 L-27,57 L-32,55 L-30,50 L-26,43 L-25,37 L-25,23 L-28,15 L-29,11 L-22,6 L-11,2 Z " fill="#B8B18E" transform="translate(601,615)"/>
<path d="M0,0 L18,2 L30,6 L42,13 L49,21 L52,28 L53,42 L51,51 L47,57 L38,65 L30,68 L17,70 L2,70 L-8,67 L-18,62 L-28,53 L-32,44 L-32,30 L-28,17 L-21,9 L-12,3 Z " fill="#D9D4A8" transform="translate(523,181)"/>
<path d="M0,0 L11,0 L20,2 L31,9 L37,16 L40,24 L42,37 L40,47 L35,55 L28,61 L18,66 L9,69 L-6,69 L-22,67 L-32,62 L-39,55 L-43,47 L-43,29 L-39,20 L-32,12 L-20,5 L-11,2 Z " fill="#E6E1B2" transform="translate(319,181)"/>
<path d="M0,0 L22,0 L32,1 L42,6 L51,15 L54,21 L54,37 L51,47 L47,53 L39,59 L29,64 L24,66 L5,69 L-5,68 L-17,62 L-24,56 L-29,47 L-31,34 L-30,24 L-25,14 L-18,8 L-10,3 Z " fill="#D9D3A8" transform="translate(521,615)"/>
<path d="M0,0 L5,1 L17,7 L27,11 L30,12 L43,13 L45,23 L45,34 L42,42 L35,51 L29,55 L25,53 L25,47 L20,48 L19,53 L23,55 L22,58 L19,58 L19,56 L14,59 L12,55 L10,54 L8,58 L3,59 L4,63 L-8,64 L-17,63 L-27,58 L-36,50 L-44,34 L-45,14 L-31,13 L-15,9 L-1,1 Z " fill="#F2F0E4" transform="translate(566,671)"/>
<path d="M0,0 L21,1 L36,5 L42,8 L46,11 L45,16 L43,20 L42,37 L45,47 L50,55 L34,63 L26,66 L16,68 L5,68 L-7,62 L-19,51 L-26,37 L-27,32 L-27,25 L-23,12 L-18,6 L-12,3 Z " fill="#D1CCA0" transform="translate(233,614)"/>
<path d="M0,0 L10,0 L15,1 L13,5 L19,6 L21,8 L21,11 L26,12 L26,10 L28,10 L30,14 L35,17 L36,10 L40,9 L48,16 L55,26 L55,49 L54,51 L41,52 L27,57 L13,64 L9,63 L-6,54 L-21,51 L-35,50 L-34,34 L-31,24 L-24,12 L-13,4 L-4,1 Z " fill="#F2F0E4" transform="translate(556,130)"/>
<path d="M0,0 L15,0 L25,4 L38,14 L45,25 L48,36 L47,46 L44,56 L36,63 L23,67 L3,67 L-11,64 L-20,60 L-25,56 L-24,51 L-21,43 L-21,30 L-26,17 L-28,15 L-28,12 L-7,2 Z " fill="#D2CDA1" transform="translate(598,183)"/>
<path d="M0,0 L5,2 L15,8 L26,12 L47,15 L47,29 L45,38 L38,51 L29,59 L19,63 L14,64 L-1,64 L-1,61 L0,59 L-5,59 L-8,56 L-8,53 L-13,52 L-14,55 L-16,54 L-15,51 L-17,51 L-17,49 L-21,49 L-21,47 L-23,47 L-23,54 L-24,56 L-29,54 L-36,48 L-41,40 L-42,36 L-42,15 L-40,13 L-24,11 L-14,7 Z " fill="#F3F1E5" transform="translate(283,670)"/>
<path d="M0,0 L9,0 L20,2 L36,10 L42,13 L38,20 L35,28 L35,47 L39,56 L33,61 L19,66 L-7,68 L-24,63 L-31,55 L-34,45 L-34,33 L-31,24 L-24,14 L-11,4 L-5,1 Z " fill="#D0CCA0" transform="translate(240,182)"/>
<path d="M0,0 L18,0 L30,5 L38,11 L44,21 L47,28 L49,44 L49,49 L32,51 L21,53 L6,62 L5,63 L-2,62 L-18,54 L-25,52 L-39,51 L-41,48 L-41,32 L-40,24 L-32,13 L-25,8 L-22,9 L-21,17 L-19,17 L-19,15 L-15,13 L-14,9 L-12,9 L-10,11 L-6,11 L-5,6 L0,4 Z " fill="#F3F1E5" transform="translate(281,130)"/>
<path d="M0,0 L2,3 L-7,15 L-15,25 L-7,31 L0,41 L4,49 L5,56 L5,70 L2,83 L-4,94 L-9,100 L-15,103 L-13,107 L-5,117 L3,129 L10,138 L16,145 L24,150 L35,150 L41,146 L50,140 L63,135 L71,133 L86,133 L88,132 L88,126 L89,125 L87,124 L87,113 L89,113 L92,118 L92,120 L95,120 L94,117 L92,117 L93,109 L93,105 L99,104 L101,108 L101,110 L103,109 L101,113 L100,115 L98,115 L99,123 L95,126 L94,131 L92,132 L92,134 L94,135 L94,137 L92,138 L90,141 L88,140 L88,142 L93,142 L94,149 L92,149 L92,152 L90,152 L86,144 L87,135 L68,137 L55,141 L45,146 L39,151 L32,159 L24,170 L21,176 L17,190 L14,211 L13,243 L12,243 L12,204 L14,190 L18,170 L21,171 L23,166 L31,156 L33,154 L23,153 L14,147 L4,136 L-7,119 L-17,107 L-19,104 L-19,101 L-11,98 L-3,87 L0,80 L3,63 L-17,63 L-17,68 L-16,67 L-14,65 L-11,66 L-11,68 L-5,65 L-2,66 L-3,71 L-7,75 L-9,75 L-8,72 L-4,68 L-5,69 L-15,71 L-17,77 L-19,77 L-19,73 L-22,71 L-21,67 L-23,68 L-21,63 L-35,63 L-36,71 L-39,75 L-38,69 L-37,64 L-43,63 L-43,73 L-44,73 L-45,63 L-60,64 L-99,64 L-99,63 L-79,62 L-44,62 L-43,55 L-37,54 L-35,59 L-34,56 L-32,56 L-32,54 L-30,54 L-29,62 L-21,61 L-20,56 L-18,56 L-19,53 L-17,52 L-15,56 L-15,59 L-6,59 L-9,55 L-6,54 L-1,60 L3,61 L1,49 L-5,38 L-12,30 L-18,28 L-17,23 L-4,7 Z " fill="#69645E" transform="translate(498,368)"/>
<path d="M0,0 L53,0 L63,1 L67,4 L67,10 L63,13 L-7,13 L-10,11 L-9,6 L-3,1 Z " fill="#30302D" transform="translate(505,639)"/>
<path d="M0,0 L69,0 L74,3 L73,10 L70,12 L60,13 L8,13 L1,10 L-3,5 L-2,1 Z " fill="#30312D" transform="translate(499,213)"/>
<path d="M0,0 L22,0 L28,1 L63,0 L71,1 L72,6 L68,11 L63,13 L51,14 L29,14 L0,13 L-4,10 L-4,3 Z " fill="#31312D" transform="translate(283,212)"/>
<path d="M0,0 L36,0 L44,4 L47,8 L46,12 L45,13 L3,13 L-22,14 L-28,12 L-30,10 L-30,5 L-27,2 L-24,1 Z " fill="#2F2F2C" transform="translate(309,638)"/>
<path d="M0,0 L4,2 L5,3 L5,8 L-1,10 L0,16 L-2,18 L-1,20 L-2,22 L0,22 L0,17 L1,12 L2,14 L5,15 L4,18 L10,16 L12,17 L11,13 L9,13 L7,15 L7,11 L11,9 L11,6 L13,6 L15,10 L15,13 L13,13 L15,19 L17,14 L16,12 L21,12 L22,15 L28,14 L27,17 L24,16 L24,23 L27,22 L26,19 L29,19 L30,26 L34,28 L35,32 L31,33 L29,34 L28,38 L23,39 L22,36 L20,36 L19,41 L18,37 L14,35 L13,31 L10,28 L13,28 L11,25 L8,30 L5,29 L5,25 L2,25 L1,27 L-5,20 L-3,10 L-5,10 L-6,17 L-8,16 L-9,9 L-7,2 L-5,1 L-4,3 L0,2 Z " fill="#917970" transform="translate(247,103)"/>
<path d="M0,0 L18,0 L21,3 L20,10 L17,12 L-10,13 L-35,13 L-39,12 L-40,7 L-35,3 L-30,2 Z " fill="#2F302B" transform="translate(622,213)"/>
<path d="M0,0 L36,0 L37,5 L29,10 L26,11 L28,13 L27,18 L23,20 L3,20 L-1,16 L0,13 L3,12 L20,11 L-4,10 L-12,7 L-11,2 Z " fill="#33332E" transform="translate(601,227)"/>
<path d="M0,0 L24,0 L52,1 L56,4 L56,11 L53,13 L35,13 L5,11 L-3,8 L-4,7 L-4,2 Z " fill="#2F302B" transform="translate(586,639)"/>
<path d="M0,0 L17,0 L24,2 L25,3 L25,8 L24,9 L34,14 L34,20 L0,20 L-11,19 L-15,17 L-14,13 L-11,11 L-6,10 L18,9 L0,8 L-3,6 L-2,2 Z " fill="#32322D" transform="translate(603,618)"/>
<path d="M0,0 L13,0 L20,1 L45,2 L54,5 L56,7 L55,12 L53,13 L17,13 L0,12 L-4,10 L-5,6 L-3,1 Z " fill="#2E2F2A" transform="translate(213,212)"/>
<path d="M0,0 L13,1 L15,5 L13,9 L9,11 L-23,13 L-30,14 L-42,14 L-46,10 L-45,3 L-43,2 Z " fill="#2E2F2B" transform="translate(255,638)"/>
<path d="M0,0 L2,0 L2,2 L4,2 L4,4 L6,4 L6,2 L9,3 L10,12 L8,18 L2,26 L-2,26 L-4,25 L-3,29 L-7,31 L-9,26 L-11,25 L-11,28 L-9,28 L-9,30 L-14,32 L-13,36 L-17,38 L-18,41 L-19,37 L-21,37 L-21,39 L-26,38 L-28,34 L-30,32 L-27,32 L-27,30 L-30,28 L-28,24 L-28,17 L-27,15 L-22,15 L-22,17 L-15,18 L-15,20 L-17,20 L-17,23 L-15,23 L-13,19 L-11,19 L-11,21 L-13,21 L-12,23 L-8,23 L-9,17 L-4,18 L-3,15 L-1,15 L0,11 L-1,9 L-3,10 L-3,3 Z " fill="#AE8D83" transform="translate(603,103)"/>
<path d="M0,0 L20,0 L36,1 L37,2 L44,3 L46,6 L45,11 L44,12 L-5,12 L-8,11 L-9,4 L-6,1 Z " fill="#3A3A36" transform="translate(301,197)"/>
<path d="M0,0 L50,0 L52,2 L51,7 L41,11 L30,12 L7,12 L-3,9 L-3,2 Z " fill="#3A3A36" transform="translate(296,655)"/>
<path d="M0,0 L20,0 L49,1 L56,3 L57,4 L57,9 L55,11 L32,11 L-1,10 L-5,6 L-4,2 Z " fill="#393834" transform="translate(294,625)"/>
<path d="M0,0 L16,0 L51,1 L53,3 L53,9 L50,11 L44,12 L15,12 L0,9 L-3,6 L-2,2 Z " fill="#383834" transform="translate(506,655)"/>
<path d="M0,0 L29,0 L36,2 L37,3 L37,10 L35,11 L1,12 L-15,12 L-18,9 L-17,4 L-14,2 Z " fill="#373734" transform="translate(522,198)"/>
<path d="M0,0 L1,2 L13,2 L19,4 L21,6 L20,10 L16,12 L-3,12 L-35,11 L-40,9 L-42,5 L-39,2 L0,2 Z " fill="#343431" transform="translate(542,227)"/>
<path d="M0,0 L18,0 L23,2 L22,8 L14,10 L-37,10 L-39,8 L-38,3 L-37,2 L-30,1 Z " fill="#333330" transform="translate(539,626)"/>
<path d="M0,0 L18,0 L21,3 L20,7 L17,9 L-14,10 L-39,10 L-41,8 L-40,3 L-38,1 Z " fill="#30302D" transform="translate(330,228)"/>
<path d="M0,0 L34,0 L38,3 L37,7 L33,10 L26,11 L-4,11 L-8,10 L-10,4 L-7,1 Z " fill="#34342E" transform="translate(226,654)"/>
<path d="M0,0 L33,0 L41,2 L44,4 L43,9 L40,11 L21,11 L0,10 L-3,7 L-2,2 Z " fill="#31312C" transform="translate(219,199)"/>
<path d="M0,0 L31,1 L39,2 L41,4 L40,9 L36,12 L-1,11 L-6,7 L-5,2 Z " fill="#31312C" transform="translate(594,654)"/>
<path d="M0,0 L5,2 L7,7 L4,10 L-5,11 L-34,12 L-39,10 L-41,8 L-40,4 L-37,2 L-32,1 Z " fill="#30312C" transform="translate(629,199)"/>
<path d="M0,0 L3,4 L3,7 L12,7 L15,8 L15,10 L22,10 L22,11 L1,11 L1,16 L2,15 L4,13 L7,14 L7,16 L13,13 L16,14 L15,19 L11,23 L9,23 L10,20 L14,16 L13,17 L3,19 L1,25 L-1,25 L-1,21 L-4,19 L-3,15 L-5,16 L-3,11 L-17,11 L-18,19 L-21,23 L-20,17 L-19,12 L-25,11 L-25,21 L-26,21 L-27,11 L-42,12 L-81,12 L-81,11 L-61,10 L-26,10 L-25,3 L-19,2 L-17,7 L-16,4 L-14,4 L-14,2 L-12,2 L-11,10 L-3,9 L-2,4 L0,4 L-1,1 Z " fill="#908B85" transform="translate(480,420)"/>
<path d="M0,0 L44,1 L47,3 L47,8 L39,10 L5,10 L-1,6 L-2,2 Z " fill="#31312C" transform="translate(215,226)"/>
<path d="M0,0 L35,0 L43,2 L42,7 L36,9 L-4,10 L-6,9 L-6,4 Z " fill="#30302C" transform="translate(220,628)"/>
<path d="M0,0 L1,2 L3,3 L0,3 L1,6 L1,17 L4,16 L2,13 L2,9 L5,9 L5,11 L7,12 L8,14 L8,22 L10,18 L13,13 L11,12 L12,9 L14,9 L17,13 L17,18 L16,22 L17,23 L18,14 L18,11 L15,10 L15,8 L21,8 L22,13 L20,13 L20,15 L24,13 L26,11 L25,17 L27,17 L27,19 L30,20 L29,23 L25,22 L26,29 L30,32 L30,30 L35,28 L35,30 L37,29 L39,25 L40,29 L36,33 L34,34 L28,34 L23,30 L22,24 L19,32 L14,32 L12,29 L12,25 L7,25 L5,23 L5,19 L0,19 L-1,18 L-2,2 Z " fill="#514842" transform="translate(574,730)"/>
<path d="M0,0 L4,1 L7,4 L-3,11 L-19,19 L-30,24 L-58,32 L-63,32 L-60,30 L-57,30 L-58,27 L-61,24 L-54,24 L-53,26 L-46,26 L-44,20 L-37,20 L-33,18 L-30,18 L-30,16 L-25,14 L-22,14 L-22,12 L-5,4 L-3,4 L-3,2 Z " fill="#E5C77C" transform="translate(297,278)"/>
<path d="M0,0 L5,2 L5,4 L2,4 L2,7 L5,5 L7,1 L10,2 L10,7 L13,7 L14,5 L20,11 L20,14 L22,14 L24,22 L22,25 L22,30 L20,30 L20,28 L15,30 L15,32 L11,30 L10,29 L10,22 L14,23 L14,20 L12,19 L12,17 L10,17 L10,13 L8,15 L5,15 L5,13 L7,13 L5,9 L0,8 L4,13 L4,20 L3,25 L0,22 L1,13 L-1,11 L0,2 L-3,3 L-3,1 Z " fill="#AF9187" transform="translate(589,730)"/>
<path d="M0,0 L5,0 L5,2 L12,3 L12,5 L10,5 L10,8 L12,8 L14,4 L16,4 L16,6 L14,6 L14,14 L12,15 L10,14 L10,16 L15,16 L13,17 L14,21 L10,23 L9,26 L8,22 L6,22 L6,24 L1,23 L-1,19 L-3,17 L0,17 L0,15 L-3,13 L-1,9 L-1,2 Z " fill="#947B71" transform="translate(576,118)"/>
<path d="M0,0 L4,2 L5,3 L5,8 L-1,10 L0,16 L-2,18 L-1,20 L-2,22 L0,22 L0,17 L1,12 L2,14 L5,15 L4,18 L10,16 L10,22 L14,23 L15,28 L18,28 L17,31 L11,30 L10,28 L13,28 L11,25 L8,30 L5,29 L5,25 L2,25 L1,27 L-5,20 L-3,10 L-5,10 L-6,17 L-8,16 L-9,9 L-7,2 L-5,1 L-4,3 L0,2 Z " fill="#B2958C" transform="translate(247,103)"/>
<path d="M0,0 L3,0 L4,5 L9,4 L9,6 L11,6 L9,11 L7,10 L9,7 L5,8 L4,9 L4,14 L0,13 L-3,18 L-5,18 L-3,21 L-1,21 L-1,28 L-3,30 L-6,29 L-4,27 L-7,22 L-11,24 L-11,28 L-13,28 L-14,19 L-12,12 L-11,14 L-9,14 L-10,9 L-6,4 L-1,4 Z " fill="#B5958C" transform="translate(253,731)"/>
<path d="M0,0 L11,0 L13,2 L12,6 L4,9 L-1,10 L-17,10 L-21,8 L-21,3 L-14,1 Z " fill="#3F3F3A" transform="translate(330,668)"/>
<path d="M0,0 L17,0 L28,3 L30,4 L29,9 L28,10 L2,9 L-4,6 L-3,2 Z " fill="#3D3E39" transform="translate(312,186)"/>
<path d="M0,0 L13,0 L18,2 L19,7 L14,9 L-1,10 L-14,10 L-15,6 L-12,3 Z " fill="#3E3E39" transform="translate(524,186)"/>
<path d="M0,0 L24,2 L29,4 L29,9 L22,11 L12,11 L-3,7 L-4,2 Z " fill="#3C3C38" transform="translate(513,668)"/>
<path d="M0,0 L2,0 L2,3 L5,4 L5,6 L2,9 L6,10 L5,14 L9,18 L10,20 L9,24 L7,24 L9,26 L11,27 L11,29 L14,30 L14,32 L10,31 L11,35 L6,36 L4,36 L4,31 L1,31 L1,28 L4,28 L5,22 L3,21 L1,26 L-2,29 L-3,28 L-3,21 L-2,17 L0,17 L-1,15 L-1,3 L-1,2 Z " fill="#A37569" transform="translate(588,356)"/>
<path d="M0,0 L4,1 L4,5 L5,6 L7,5 L5,9 L4,11 L2,11 L3,19 L-1,22 L-2,27 L-4,28 L-4,30 L-2,31 L-2,33 L-4,34 L-6,37 L-8,32 L-8,22 L-7,21 L-9,20 L-9,9 L-7,9 L-4,14 L-4,16 L-1,16 L-2,13 L-4,13 L-3,5 L-3,1 Z " fill="#A4766A" transform="translate(594,472)"/>
<path d="M0,0 L16,0 L19,3 L18,8 L0,9 L-6,10 L-9,7 L-8,3 L-6,1 Z " fill="#2E2F2B" transform="translate(232,617)"/>
<path d="M0,0 L7,1 L25,2 L26,6 L22,10 L7,10 L-1,8 L-2,7 L-2,1 Z " fill="#31322D" transform="translate(225,237)"/>
<path d="M0,0 L2,1 L1,3 L-13,7 L-29,10 L-80,17 L-96,19 L-99,17 L-54,10 L-21,6 Z " fill="#706954" transform="translate(716,579)"/>
<path d="M0,0 L17,0 L20,2 L19,6 L11,8 L-6,8 L-9,7 L-10,4 L-7,1 Z " fill="#363734" transform="translate(316,239)"/>
</svg>
