<svg xmlns="http://www.w3.org/2000/svg" width="918" height="836" viewBox="0 0 918 836"><path fill="#eee8d4" d="M224 93h50l2 4 5 2 5 3 5 6 9 4 7 2 15 5 10 7 3 2v2l3 1 6 10 4 11 2 8 3 5 4 3v2h2l7 8 2 4h2l4 6 9 11 4 9 2 13-1 9-4 9-6 7h-2l-1 3-9 7-5 8-2 8v55l2 8 7 12 9 10 6 5 7 1 17-7h20l1-2 2 1 15 2 14 6h7l6-3 9-9 7-11 4-9 1-29v-21l-2-15-3-6-7-7-8-7-7-9-3-6v-16l2-9 5-9h2l2-5 8-9 3-5 5-5h2v-2h2v-2l6-5 5-15 3-8 6-10 10-8 7-4 11-4 8-1 3-3 8-2 2-4 6-5 6-3 4-4h47l5 4 2 6v12l-6 14-4 5 1 7 3 3 3 13 6 15 7 8 7 5 7 8 6 7 5 12 1 5v13l-2 10-4 7-7 6-2 1 5 1h15l26 4 11 4 12 2 13 4 12 4 11 7 13 10 19 14 22 14 8 4 9 2v3l-20 7-22 10-19 8-10 4-12 4-25 4-15 2h-13l-20-1-19-4-18-6-8-1-7 11-2 3 1 10 2 4 1 6v13l-5 10-5 7-10 6-5 2-13-1-8-6-3-5-2-15-7-9-3-7-8-4-15-4-6-1-11 7-4 4 1 6 8 17 1 3v15l-2 4v3l1 3 1 14-2 9-9 17 1 4 5 5 9 6 7-1 8-3 8-2 6-3 5-9 5-6 1-2 1-13 5-8 7-4 10-1 10 3 8 6 6 9 3 6v15l-2 7-2 7 1 6 4 5 4 8 9-1 8-3 22-6 7-1 20-1h12l29 4 13 3 22 7 4 3 11 4 16 7 8 4 13 5 7 2v3l-13 4-18 11-20 14-14 11-13 9-12 5-13 4-6 2-13 2-8 3-26 4h-18v2l8 7 4 6 1 10 1 2v9l-1 1-1 7-5 12-14 15-10 9-5 7-2 7-3 10-1 1-1 7-3 3-1 6 6 8 4 11v13l-4 8-2 1h-49l-4-5-8-4-5-6-10-5v-2h-8l-14-5-8-6-8-7-6-10-4-13-2-9-3-1-5-5v-2l-3-1-5-5-1-3h-2l-3-5-11-14-4-10-1-7v-10l4-10 6-8 8-7 5-5 4-5 3-11v-28l-1-29-2-6-6-10-9-10-6-5-2-1h-8l-11 5-8 2h-19l-11-1-11-4-6-3h-6l-9 6-8 9-8 14-1 3-1 29v22l2 14 5 9 12 11 8 9 3 8v14l-2 9-4 8-3 1-2 5-6 7-1 3-5 5h-2v2h-2v3h-2v2l-4 2-5 6-5 16-4 9-6 8-9 7-8 4-13 4-6 2-7 3h-2l-2 5-5 4-8 5-2 2h-50l-4-6-1-3v-13l5-12 5-7-1-6-3-5-3-12-5-12-6-8-13-12-9-10-5-13-1-6v-10l1-10 6-10 7-5v-1l-22-1-22-3-11-4-16-3-21-7-14-9-18-14-19-13-17-11-11-4-4-1 2-4 8-2 13-5 22-10 13-5 10-5 14-4 14-3 13-2 12-1h33l14 3 15 4 11 4 8 1 2-5 6-10-1-9-2-6-1-7v-11l8-14 7-6 8-4 7-1 9 2 8 7 3 6 1 13 1 2 3 1 6 12 10 5 10 2 4 2h6l10-7 4-4-1-6-8-16-1-3v-16l2-5 1-4h-3l-1-7v-12l10-21v-5l-7-6-7-4-9 1-5 2-9 2-8 5-3 7-6 7-1 13-4 8-7 5-4 1h-11l-10-5-5-5-6-9-3-6 1-15 3-10v-8l-8-13h-8l-13 5-26 6h-32l-25-3-22-5-12-4-13-6-21-9-11-5-13-5-6-2 1-3 12-3 24-15 18-13 14-11 14-9 21-7 19-4 8-3 18-3 26-1-5-5-6-8-1-2-2-12v-9l4-14 5-8 13-14 8-7 5-7 3-9 3-8 2-9 3-2v-7l-5-7-4-11-1-13 4-8Z"/><path fill="#615b50" d="m602 101 9 1 4 5v11l-5 9-8 7-3 3 8 7 7 12 2 26 10 5 11 9 7 10 4 11v8l-4 14-7 7-6 3-10 2v17h9l32 5 33 4 26 7 19 9 11 8 21 16 11 6v3l-13 1-10 4-17 5-17 5-8 2-20 1h-37l-14-1-7-2-18-3-3-1-2 13-6 8-9 5h-6l5 12 6 12v8l-3 5-3 2h-6l-6-4-2-5v-7l-3-1v-12l1-9h-15l-15-4-10-5-9-7-3-1h-10l-8 5-10 11-10 15-12 15 8 6 7 10 4 8 1 7v14l-3 13-6 11-5 6-6 3 2 4 8 10 8 12 7 9 6 7 8 5h11l6-4 9-6 13-5 8-2 15-1-1-11v-9l3-2 2-10 4-4 2-1h6l4 2 2 3v10l-3 8-3 4-3 7-2 5h6l8 4 6 7 3 7v8l9-2 13-2 7-2 14-1h36l18 1 21 5 18 6 13 4 3 1 13 1-1 4-10 5-16 12-15 11-16 8-8 3-14 4-16 3-51 7-16 2v16l13 3 8 6 3 5 3 10v11l-3 9-6 9-7 7-8 6-4 2h-4v11l-2 16-5 10-7 7-3 3 8 6 6 7 3 6v8l-3 6-4 2h-6l-5-4-1-6-3 8h-5l-2-3v-4h-5l-2-2v-4h-5l-1-1-1-12-2 1h-16l-9-2-8-5-8-7-7-12-2-6-1-7v-13l-9-2-5-3-10-9-5-10-2-8v-12l4-9 7-8 10-7 1-45 2-14 3-14-1-8-8-16-14-18-12-13-10-12-6 2-11 4h-14l-13-2-10-4-23-12-14-11-11-12-4-7v-2h-6v-1h7l2-6 6-8 10-10 11-8 23-12 11-4 12-2h12l10 3 9 4 2-4 13-15 10-11 12-16 5-10 2-5v-9l-4-19-1-9v-38l1-5-4-2-10-7-6-8-2-7v-12l2-9 5-10 12-10 10-3 1-4 1-15 5-12 7-9 8-7 9-4 6-1h17l2-11 4-2 2 1 1-6h6v-5l2-2 5 1 1 1v7h2l1-7Z"/><path fill="#333432" d="M224 93h50l2 4 5 2 5 3 5 6 9 4 7 2 15 5 10 7 3 2v2l3 1 6 10 4 11 2 8 3 5 4 3v2h2l7 8 2 4h2l4 6 9 11 4 9 2 13-1 9-4 9-6 7h-2l-1 3-9 7-5 8-2 8v55l2 8 7 12 9 10 6 5 7 1 17-7h20l1-2 2 1 15 2 14 6h7l6-3 9-9 7-11 4-9 1-29v-21l-2-15-3-6-7-7-8-7-7-9-3-6v-16l2-9 5-9h2l2-5 8-9 3-5 5-5h2v-2h2v-2l6-5 5-15 3-8 6-10 10-8 7-4 11-4 8-1 3-3 8-2 2-4 6-5 6-3 4-4h47l5 4 2 6v12l-6 14-4 5 1 7 3 3 3 13 6 15 7 8 7 5 7 8 6 7 5 12 1 5v13l-2 10-4 7-7 6-2 1 5 1h15l26 4 11 4 12 2 13 4 12 4 11 7 13 10 19 14 22 14 8 4 9 2v3l-20 7-22 10-19 8-10 4-12 4-25 4-15 2h-13l-20-1-19-4-18-6-8-1-7 11-2 3 1 10 2 4 1 6v13l-5 10-5 7-10 6-5 2-13-1-8-6-3-5-2-15-7-9-3-7-8-4-15-4-6-1-11 7-4 4 1 6 8 17 1 3v15l-2 4v3l1 3 1 14-2 9-9 17 1 4 5 5 9 6 7-1 8-3 8-2 6-3 5-9 5-6 1-2 1-13 5-8 7-4 10-1 10 3 8 6 6 9 3 6v15l-2 7-2 7 1 6 4 5 4 8 9-1 8-3 22-6 7-1 20-1h12l29 4 13 3 22 7 4 3 11 4 16 7 8 4 13 5 7 2v3l-13 4-18 11-20 14-14 11-13 9-12 5-13 4-6 2-13 2-8 3-26 4h-18v2l8 7 4 6 1 10 1 2v9l-1 1-1 7-5 12-14 15-10 9-5 7-2 7-3 10-1 1-1 7-3 3-1 6 6 8 4 11v13l-4 8-2 1h-49l-4-5-8-4-5-6-10-5v-2h-8l-14-5-8-6-8-7-6-10-4-13-2-9-3-1-5-5v-2l-3-1-5-5-1-3h-2l-3-5-11-14-4-10-1-7v-10l4-10 6-8 8-7 5-5 4-5 3-11v-28l-1-29-2-6-6-10-9-10-6-5-2-1h-8l-11 5-8 2h-19l-11-1-11-4-6-3h-6l-9 6-8 9-8 14-1 3-1 29v22l2 14 5 9 12 11 8 9 3 8v14l-2 9-4 8-3 1-2 5-6 7-1 3-5 5h-2v2h-2v3h-2v2l-4 2-5 6-5 16-4 9-6 8-9 7-8 4-13 4-6 2-7 3h-2l-2 5-5 4-8 5-2 2h-50l-4-6-1-3v-13l5-12 5-7-1-6-3-5-3-12-5-12-6-8-13-12-9-10-5-13-1-6v-10l1-10 6-10 7-5v-1l-22-1-22-3-11-4-16-3-21-7-14-9-18-14-19-13-17-11-11-4-4-1 2-4 8-2 13-5 22-10 13-5 10-5 14-4 14-3 13-2 12-1h33l14 3 15 4 11 4 8 1 2-5 6-10-1-9-2-6-1-7v-11l8-14 7-6 8-4 7-1 9 2 8 7 3 6 1 13 1 2 3 1 6 12 10 5 10 2 4 2h6l10-7 4-4-1-6-8-16-1-3v-16l2-5 1-4h-3l-1-7v-12l10-21v-5l-7-6-7-4-9 1-5 2-9 2-8 5-3 7-6 7-1 13-4 8-7 5-4 1h-11l-10-5-5-5-6-9-3-6 1-15 3-10v-8l-8-13h-8l-13 5-26 6h-32l-25-3-22-5-12-4-13-6-21-9-11-5-13-5-6-2 1-3 12-3 24-15 18-13 14-11 14-9 21-7 19-4 8-3 18-3 26-1-5-5-6-8-1-2-2-12v-9l4-14 5-8 13-14 8-7 5-7 3-9 3-8 2-9 3-2v-7l-5-7-4-11-1-13 4-8Zm14 4-5 3-3 7 1 9 5 10 8 8 4 1v2l-6 2-6 10-3 7-2 18-6 5-8 6-6 7-8 11-6 14v19l4 8 8 6 12 4 2 4-1 4-5 1-25 2-20 2-3 1-18 2-14 4-12 3-16 8-11 7-4 3v2l-4 2-10 9-12 9-15 7 2 2 17 5 20 7 14 6 17 3 11 4 12 2h21l24-3 21-4 15-4h3l4 13 4 6 8 4-1 5-6 14v12l5 9 5 4 2 1h7l5-3 3-6 1-10 6-7v-11l-1-3h8l13-4 13-4 10-6h9l6 3 16 16h2l2 6h2v10l-8 11-5 11-1 3v29l5 14 10 15-1 7-4 7-5 4-5 5-9 9-5 2h-8l-10-6-10-4-16-4-8-1 1-3v-9l-3-5h-2l-3-16-4-5-3-1h-7l-6 3-6 9-1 2v8l3 10 4 8v5l-8 5-5 8-3 10-15-3-10-3-28-4-8-1h-23l-14 3-9 3-22 5-13 6-23 7-10 3-1 2 17 8 7 6h2l1 3 11 9 8 7 14 8 12 6 26 7 19 2 3 1 29 3 17 1 3 1-1 9-11 2-9 6-4 8-1 3v11l3 11 5 11 11 14 9 8 5 3 2 2 2 18 5 12 4 5 5 2v2l-4 2-6 5-6 10-1 4v7l3 7 5 3h10l3-2h11l4-2 1-4 6-2 4-4 6-3 2-7 19-3 5-2 7-2 11-10 7-11 4-12 2-8 5-5 11-8 5-6 7-12 4-8 1-4v-13l-4-9-7-8-9-8-4-3-1-3-1-54-1-6 1-17 5-10 9-11 5-4 8-10 5-6 3-2-1-11-4 2-11 13-11 12-10 13-6 10-4 10v11l4 17 1 13v38l8 6 8 7 4 7 1 5v11l-3 12-5 8-10 8-7 2 8-4 9-7 5-10 2-9v-12l-4-10-9-8-7-4-12-4h-18l-14 2-10 5-8 9-2 5-1 6v9l3 10 6 9 11 7 9 4 5 1-8-1-13-7-4-3-6 2-14 7-10 3-12 1-2 2v21l3 7 6 8 7 5h2l1-2v-7h2v2h4v2h2l-1 3-5 2-1 4-3 1v2h4v2l-5 1-1-5-4 1v3h-5l-4 5 1 5h-2l-1-2-2 7 1 9h2v-4h2l2-2 3 5-2 3 4-1 1-1v-7h-3l-1-3h2l3-5 4 1v-7l3 1 2-1-3 4-1 6-2 1v-3h-2l1 4 4 1 1 4h1v4l2 1h-5l-1-8-3 1-1 7-3 2h-8l-4-4-1-2v-8l5-9 7-7 5-3-1-3-8-7-5-8-1-3-2-26-12-6-9-7-7-11-4-11v-8l2-5 2-8 5-6 5-3 12-4v-16l-39-6-31-4h8l31 4 32 5 14 2 21 7 9 6 5 5-1 1-5-6-14-7-16-5-11-1v14l5 1 18 1 17 6 6 4 4-2 7-5 13-4 13-1h11l11 3 1-6v-33l-3-20-4-14-6-10-11-12-5-5-5-4-9-4-12-4-6-1h-12l-1 12-4 5-1-9h4v-3h-6l-1 1-2-4-7 1-8 5-5 9v10l21 6 21 7 12 3 8 1h15l-1 2-24-2-27-8-15-5-25-6-16-3-5-1h-50l-16 1-45 13-8 3v2l11 1 50 1h23l51 5 24 4 25 7 15 6 21 12 6 5-1 1-4-4-17-10-17-8-28-8-34-5-44-4h-42l-30-1-12-1 3 3 13 10 18 13 19 9 13 4 12 3-9-1-20-6-17-9-11-8-13-10-11-7-6-3-1-2h11l11-4 21-6 17-5 9-2 19-1h18l31 2 16 3 12 1 3-12 6-8 8-4 6-1-1-6-5-10-3-6-1-4v-8l4-4h9l3 1 3 13 2 1v21l18 2 13 4 14 8 5 4 10 1 7-3 12-12 10-15 13-16v-3l-7-4-9-14-2-5-1-14 1 6 3 1-2 1 1 8 6 11 6 7 6 2-1 4-7 9-9 12-7 11-9 10-9 5-9 1 6 8 7 10 2-2 4-11 7-11 10-12 8-10 7-7 4-6 7-7 5 4 4 4 12 5 5 3 18 4h24l3-2 8-1h9l5 5 7 8 5 5 9 10 5 8 3 7v18l-1 13v41l-3 8-9 7-8 8-5 9-1 4 1 14 8 16 6 9 9 8 9 7 6 20 7 11 5 5 7 6 17 5 11 1 2 2 2 5 4 3 4 2 3 3 5 3 2 3 3 1 12 1 7 2 6-1 5-3 3-7-1-8-5-10-9-9-2-2 6-4 7-14 1-4 1-15 6-5 6-4 7-7 6-8 4-6 5-13 1-4v-15l-4-8-7-6-13-4-2-5v-3l5-2 42-3 15-2 16-3 23-7 17-9 12-9 11-10 13-10 14-7v-2l-10-4-16-4-24-10-20-4-8-3-10-2h-26l-16 1-14 3-12 2-14 4h-5l-5-14-4-5-6-3h-2l3-9 4-10 1-4v-9l-6-9-5-4-2-1h-7l-5 4-3 7-1 9-6 8v7l1 5-12 2-18 5-15 8h-7l-6-4-13-12-6-7-1-2h-2l-1-9 10-15 4-9 1-5-1-16 2-4-1-10-5-12-9-14 1-7 4-7 8-7 10-10 6-3h7l10 6 14 5 13 3h8l-1 5v9l6 8 1 10 4 7 4 2h7l7-4 6-11v-8l-5-14-2-4v-5l8-4 4-7 3-9v-3l13 3 10 3 20 3 2 1 16 1h24l15-3 19-5 9-2 27-11 16-4 6-2-3-3-14-7-10-8-10-9-13-10-14-8-16-6-8-2-19-4-37-4-17-1-7-1-1-5 2-4 13-4 7-6 3-7 1-16-5-14-6-10-11-13-5-4-7-4-1-1-2-18-4-10-4-6-3-3h-3l5-5 8-9 4-10v-7l-3-7-7-3-9 1-2 1-13 1-4 5-6 3-2 4-7 2-3 7-1 1-12 1-16 5-10 8-7 10-4 9-4 15-11 9-8 7-6 9-7 14-1 4v13l5 10 11 12 7 4 2 4 1 45 1 23-2 11-5 10-9 10-7 7-1 4-4 2-6 7h-10l-9-2-2-1h-22l-20 4-4 3-16 8-6 5v-2l-2-2h3l1-12-6-4-5-6h-2l-2-5-13-13-6-10-3-7v-19l1-19v-35l3-7 9-7 9-9 5-12-1-13-8-16-6-9-7-7-11-8-2-5-3-12-5-10-8-10-8-6-15-4-13-2-2-2-2-5-5-3h-2l-2-4-6-3-5-5h-11l-4-2Z"/><path fill="#635c51" d="m243 100 7 1 4 4v6h2l1-8 5-1 3 4v3l6 1 1 5 5 1 1 1 1 10 22 1 10 4 11 10 6 10 3 7 2 20 11 4 11 9 4 6 3 12v14l-2 7-6 8-13 9v46l-3 17-2 8v7l5 12 7 11 9 11 9 10 13 15 1 2-2 2-8-9-3-5-10-10-10-13-6-8-5-9-2-5v-5h-2l-2 5-8 10-2 3h9l9 6 8 8 7 10 7 11 12 14v3l-9 4-7 10-4 9-2 12h-2l1-13 7-13 8-9 5-1-8-11-7-9-9-13-10-11-7-4h-7l-6 2-13 9-14 5-11 2h-11l1 9 1 2v9l-4 2v8l-3 5-3 2h-9l-5-6v-8l8-17 3-8h-7l-9-6-5-7-1-5v-7l-10 2-13 2-19 2h-53l-21-5-16-5-16-5-7-2-10-1v-3l13-7 17-13 14-10 17-8 20-6 24-4 25-3 19-3 13-2 1-15-12-3-6-4-6-6-2-8-1-3v-13l4-10 7-9 9-8 9-5h3v-10l2-18 7-11 7-6h2v-2l-5-2-8-7-5-9v-10l5-6Z"/><path fill="#f0e3bb" d="m279 240 4 1 8 6 16 4 6 1h12l13-3 2 13v20l-3 24-4 14-5 10-11 12-6 7-10 6-14 5-9 2h-12v-10l-4-6-2 4 1 2-1 4-4-1v4h-7l-7-4-4-5-2-3-1-11 3-2 16-4 13-5 22-6 7-1h16v-2l-25 2-20 6-22 7-24 6-14 2-18 2h-38l-17-1-26-7-24-8-4-1v-2l8-1 25-1 57-1 44-4 25-4 25-7 16-7 12-6 11-7h2l2-5h-2l-2 4-11 7-16 8-12 5-30 8-24 3-4 1-48 4h-46l-24 1-10 1v-2l9-6 17-13 13-8 18-8 24-6 25-3 42-6 19-3 21-7 9-6 3-3h2l1-5h-2l-2 5-6 5-8 4-19 6-11 1v-14l25-3 13-4Z"/><path fill="#f0e2b9" d="m570 240 4 2 9 5 16 4 19 1v14l-13-1-16-5-11-6-6-7-2-1 2 4 10 8 19 7 16 3 45 7 32 4 23 6 17 7 18 12 10 8 11 8v1l-22-1-67-1-50-5-21-3-24-7-15-6-19-10-11-8 5 5 13 8 16 8 11 4 21 6 24 4 37 4 12 1 76 1 10 1 2 2-9 4-25 7-5 1-1 2-8 1-10 2-13 1h-38l-16-2-27-5-25-7-24-8-18-3h-12l24 3 27 8 15 5 10 3v10l-6 9-8 5h-6l-1-4-7 1-1-2h4v-7h-3l-2 3-1 11h-13l-14-3-11-5-9-7-8-8-8-11-4-9-4-14-2-19v-30l1-6 11 2h21l17-5Zm2 263h13v9l3 6v2h2v-3h2l-2-4 1-3h-5v-2h7l2-3h6l8 5 6 8v11l-8 3-12 3-11 4-16 5-18 3h-11v2l20-2 14-3 21-7 10-3 19-5 23-4 4-1 32-1h18l17 1 5 2 8 2 23 7 18 6-3 2-13 1-73 1-49 5-19 3-19 5-20 7-19 10-11 8-1 2h2l1-3 13-8 16-8 13-5 25-7 20-3 50-5 66-1 22-1-5 5-18 14-16 10-17 7-22 6-40 5-37 6-13 2-18 6-10 6-3 3h-2l-1 5h2l2-5 10-7 8-3 19-5h7v14l-18 1-11 2-12 5-6 4h-2l-4-4-7-4-9-3-6-1h-21l-9 2-2-11v-25l3-21 5-17 9-13 7-7 5-5 4-4 17-7Z"/><path fill="#fbf9ee" d="m518 325 4 5 7 9 3 5-11 1-8 6-7 7-7 10-7 11-11 13-1 4 6 1 8 9 6 11 1 12-5-1-4-5-1 1 3 3-1 2-5-1-5-1-3-6v3h-2l-1 5-2 1h-6l-1-8h-2v2h-2v6l-2-3-1-5-6 1-1 7-35 1h34l1 3 1-3h7l-2 10 3-10h14v3l2 1-2 4 3 2-1 4h2l1-6 4-2h7v-2l2 1-6 7 5-4 1-5-5 2h-3v-2l-4 1-1 2-2-1 1-5h20v7l-3 12-5 10-7 8-7 1 4 7 10 12 8 13 9 11 7 6 4 2 11 1-6 8-4 5-3 5h-2l-4-12-9-13-9-11-7-9-5-4-8-11-4-4-9 3-6 2h-18l-16-3-23-11-10-7-12-11-8-8-3-5 1-6 12-14 9-8 10-7 22-11 5-2 14-2h17l13 5 5-2 7-9 7-8 10-11 12-16 6-12Z"/><path fill="#c2ba97" d="M311 614h18l12 4 11 7 6 7 3 8v12l-3 12-5 8-11 8-5 2v2h-4v9l-1 10-6 14-6 8h-2v2l-11 7-9 2-13 1-6-1v8l-2 5h-5l-1 5-4 1-2-1v5h-4v-5l-2 1v-4l-4-1-1-4h2v3l2-1 2-7 2-3-4 1-1 1v5l-4-1-3 5h-2l2 3h2v7l-2 2-3-1 2-2-3-5-4 2v4h-2l-1-9 2-7 1 2h2l-1-5 4-5h5l1-4h3l1 5 5-1v-2h-4v-2l4-2 1-4 4-1 1-3h-2v-2h-4v-2h-2v7l-1 2-5-2-7-6-5-8-1-4v-21l2-2 16-2 10-4 14-7 5 2 10 6 7 3h5l-11-3-14-9-6-9-3-10v-9l2-9 8-10 8-5 7-2Z"/><path fill="#645c51" d="m349 431 2 2 1 5 3 2-1 2-2-1 3 10 5 9 5 6 7 3-1 4-7 9-9 12-7 11-10 11-9 5-8 1 10 12 3 3 4-11 7-11 10-12 8-10 7-7 4-6 8-8 1 2-1 2h-2l-2 4-9 11-12 13-10 13-6 10-4 10v11l4 17 1 13v38l11 8 7 8 3 9v11l-3 12-5 8-9 8-7 3-3-1 12-7 5-4 5-10 2-9v-12l-4-10-8-7-7-4-12-4h-18l-14 2-10 5-8 10-2 9v9l3 10 6 9 13 8 13 4v1h-7l-16-8-4-3-6 2-14 7-10 3-12 1-1 1v21l3 7 6 8 8 5 1-9h2v2h4v2h2l-1 4-4 1-1 4-4 1v2h4v2l-5 1v-2l-2-1 1-2-3 1v4l-6-1-2 4-1 4v2l-3-1-1 11v4h2v-4h2l1-3 4 3-1 2 2 1-2 2 3-1 1-7-3 1-1-4h2l2-6 4 1v-7l6 1-2 4-2 7h-2v-3h-2l2 4 3 1 1 3 2-2-1 7 3-1-1 3h-5l-2-6 1-3-2 1-1 7-4 3h-8l-5-5-1-2v-8l5-9 8-8 5-2-5-5-7-8-4-8-1-11v-15l-5-1-11-7-6-5-7-11-4-11v-8l2-5 2-8 6-7 5-3 12-3v-16l-12-1-36-5-22-3-2-2h10l31 4 32 5 14 2 21 7 9 6 6 6-1 3-4-5-9-6-13-5-10-3-9-1-2-1v14l23 1 17 6 6 4 4-2 7-5 13-4 13-1h11l11 4v-39l-3-20-4-14-6-10-11-12-5-5-7-5-18-6-18-2v12l-4 6-2-1-1-9 2-1 3 1v-3l-8 2-1-4-7 1-7 4-5 9-1 10 11 2 13 4 18 6 12 3 23 2-1 3-24-2-27-8-15-5-25-6-16-3-5-1h-50l-16 1-45 13-5 2h-3v2l61 1h23l51 5 24 4 25 7 15 6 21 12 7 6-2 2-1-3-5-2-13-8-19-9-28-8-34-5-44-4h-42l-30-1-11-1 9 6 14 11 14 9 15 7 13 4 12 3 1 2-10-1-20-6-17-9-11-8-13-10-11-7-7-4v-2l11-1 11-4 21-6 17-5 9-2 19-1h18l31 2 16 3 12 2 1-10 6-9 5-4 5-2h6l-5-13-4-6-2-7v-8l5-5h9l5 5 1 10 3 1v12l-1 9h12l16 4 16 8 6 5 10 1 7-3 11-11 10-15 13-16 1-3-6-2-9-12-4-9Z"/><path fill="#b8b18e" d="M601 615h20l12 2 8 6 3 5 3 10v11l-3 9-6 9-7 7-8 6-4 2h-4v11l-2 16-5 10-7 7-3 3 8 6 6 7 3 6v8h-2l-2 4h-2v-2l-5 2v2l-4-2-1-1v-7l4 1v-3l-2-1v-2h-2v-4l-2 2h-3v-2h2l-2-4-5-1 4 5v7l-1 5-3-3 1-9-2-4-3 3 3 1-3 5-2 4 2 1-4-1v-7l-2-4v-2l-2 1 1 5 2 2h-5l-1-14h3l-1-8 3 1 2 3 1-2h3v2l3-1 1-2-5-1 2-6 5-1 2 7 6-2 6-7 4-7 1-4v-11l-1-10h-8v-2l-8-1-12-5-7-4-5-2 2-5 4-7 1-6v-14l-3-8-1-4 7-5 11-4Z"/><path fill="#d9d4a8" d="m523 181 18 2 12 4 12 7 7 8 3 7 1 14-2 9-4 6-9 8-8 3-13 2h-15l-10-3-10-5-10-9-4-9v-14l4-13 7-8 9-6Z"/><path fill="#e6e1b2" d="M319 181h11l9 2 11 7 6 7 3 8 2 13-2 10-5 8-7 6-10 5-9 3h-15l-16-2-10-5-7-7-4-8v-18l4-9 7-8 12-7 9-3Z"/><path fill="#d9d3a8" d="M521 615h22l10 1 10 5 9 9 3 6v16l-3 10-4 6-8 6-10 5-5 2-19 3-10-1-12-6-7-6-5-9-2-13 1-10 5-10 7-6 8-5Z"/><path fill="#f2f0e4" d="m566 671 5 1 12 6 10 4 3 1 13 1 2 10v11l-3 8-7 9-6 4-4-2v-6l-5 1-1 5 4 2-1 3h-3v-2l-5 3-2-4-2-1-2 4-5 1 1 4-12 1-9-1-10-5-9-8-8-16-1-20 14-1 16-4 14-8Z"/><path fill="#d1cca0" d="m233 614 21 1 15 4 6 3 4 3-1 5-2 4-1 17 3 10 5 8-16 8-8 3-10 2h-11l-12-6-12-11-7-14-1-5v-7l4-13 5-6 6-3Z"/><path fill="#f2f0e4" d="M556 130h10l5 1-2 4 6 1 2 2v3l5 1v-2h2l2 4 5 3 1-7 4-1 8 7 7 10v23l-1 2-13 1-14 5-14 7-4-1-15-9-15-3-14-1 1-16 3-10 7-12 11-8 9-3Z"/><path fill="#d2cda1" d="M598 183h15l10 4 13 10 7 11 3 11-1 10-3 10-8 7-13 4h-20l-14-3-9-4-5-4 1-5 3-8v-13l-5-13-2-2v-3l21-10Z"/><path fill="#f3f1e5" d="m283 670 5 2 10 6 11 4 21 3v14l-2 9-7 13-9 8-10 4-5 1h-15v-3l1-2h-5l-3-3v-3l-5-1-1 3-2-1 1-3h-2v-2h-4v-2h-2v7l-1 2-5-2-7-6-5-8-1-4v-21l2-2 16-2 10-4Z"/><path fill="#d0cca0" d="M240 182h9l11 2 16 8 6 3-4 7-3 8v19l4 9-6 5-14 5-26 2-17-5-7-8-3-10v-12l3-9 7-10 13-10 6-3Z"/><path fill="#f3f1e5" d="M281 130h18l12 5 8 6 6 10 3 7 2 16v5l-17 2-11 2-15 9-1 1-7-1-16-8-7-2-14-1-2-3v-16l1-8 8-11 7-5 3 1 1 8h2v-2l4-2 1-4h2l2 2h4l1-5 5-2Z"/><path fill="#69645e" d="m498 368 2 3-9 12-8 10 8 6 7 10 4 8 1 7v14l-3 13-6 11-5 6-6 3 2 4 8 10 8 12 7 9 6 7 8 5h11l6-4 9-6 13-5 8-2h15l2-1v-6l1-1-2-1v-11h2l3 5v2h3l-1-3h-2l1-8v-4l6-1 2 4v2l2-1-2 4-1 2h-2l1 8-4 3-1 5-2 1v2l2 1v2l-2 1-2 3-2-1v2h5l1 7h-2v3h-2l-4-8 1-9-19 2-13 4-10 5-6 5-7 8-8 11-3 6-4 14-3 21-1 32h-1v-39l2-14 4-20 3 1 2-5 8-10 2-2-10-1-9-6-10-11-11-17-10-12-2-3v-3l8-3 8-11 3-7 3-17h-20v5l1-1 2-2 3 1v2l6-3 3 1-1 5-4 4h-2l1-3 4-4-1 1-10 2-2 6h-2v-4l-3-2 1-4-2 1 2-5h-14l-1 8-3 4 1-6 1-5-6-1v10h-1l-1-10-15 1h-39v-1l20-1h35l1-7 6-1 2 5 1-3h2v-2h2l1 8 8-1 1-5h2l-1-3 2-1 2 4v3h9l-3-4 3-1 5 6 4 1-2-12-6-11-7-8-6-2 1-5 13-16Z"/><path fill="#30302d" d="M505 639h53l10 1 4 3v6l-4 3h-70l-3-2 1-5 6-5Z"/><path fill="#30312d" d="M499 213h69l5 3-1 7-3 2-10 1h-52l-7-3-4-5 1-4Z"/><path fill="#31312d" d="M283 212h22l6 1 35-1 8 1 1 5-4 5-5 2-12 1h-22l-29-1-4-3v-7Z"/><path fill="#2f2f2c" d="M309 638h36l8 4 3 4-1 4-1 1h-42l-25 1-6-2-2-2v-5l3-3 3-1Z"/><path fill="#917970" d="m247 103 4 2 1 1v5l-6 2 1 6-2 2 1 2-1 2h2v-5l1-5 1 2 3 1-1 3 6-2 2 1-1-4h-2l-2 2v-4l4-2v-3h2l2 4v3h-2l2 6 2-5-1-2h5l1 3 6-1-1 3-3-1v7l3-1-1-3h3l1 7 4 2 1 4-4 1-2 1-1 4-5 1-1-3h-2l-1 5-1-4-4-2-1-4-3-3h3l-2-3-3 5-3-1v-4h-3l-1 2-6-7 2-10h-2l-1 7-2-1-1-7 2-7 2-1 1 2 4-1Z"/><path fill="#2f302b" d="M622 213h18l3 3-1 7-3 2-27 1h-25l-4-1-1-5 5-4 5-1Z"/><path fill="#33332e" d="M601 227h36l1 5-8 5-3 1 2 2-1 5-4 2h-20l-4-4 1-3 3-1 17-1-24-1-8-3 1-5Z"/><path fill="#2f302b" d="M586 639h24l28 1 4 3v7l-3 2h-18l-30-2-8-3-1-1v-5Z"/><path fill="#32322d" d="M603 618h17l7 2 1 1v5l-1 1 10 5v6h-34l-11-1-4-2 1-4 3-2 5-1 24-1-18-1-3-2 1-4Z"/><path fill="#2e2f2a" d="M213 212h13l7 1 25 1 9 3 2 2-1 5-2 1h-36l-17-1-4-2-1-4 2-5Z"/><path fill="#2e2f2b" d="m255 638 13 1 2 4-2 4-4 2-32 2-7 1h-12l-4-4 1-7 2-1Z"/><path fill="#ae8d83" d="M603 103h2v2h2v2h2v-2l3 1 1 9-2 6-6 8h-4l-2-1 1 4-4 2-2-5-2-1v3h2v2l-5 2 1 4-4 2-1 3-1-4h-2v2l-5-1-2-4-2-2h3v-2l-3-2 2-4v-7l1-2h5v2l7 1v2h-2v3h2l2-4h2v2h-2l1 2h4l-1-6 5 1 1-3h2l1-4-1-2-2 1v-7Z"/><path fill="#3a3a36" d="M301 197h20l16 1 1 1 7 1 2 3-1 5-1 1h-49l-3-1-1-7 3-3Zm-5 458h50l2 2-1 5-10 4-11 1h-23l-10-3v-7Z"/><path fill="#393834" d="M294 625h20l29 1 7 2 1 1v5l-2 2h-23l-33-1-4-4 1-4Z"/><path fill="#383834" d="M506 655h16l35 1 2 2v6l-3 2-6 1h-29l-15-3-3-3 1-4Z"/><path fill="#373734" d="M522 198h29l7 2 1 1v7l-2 1-34 1h-16l-3-3 1-5 3-2Z"/><path fill="#343431" d="m542 227 1 2h12l6 2 2 2-1 4-4 2h-19l-32-1-5-2-2-4 3-3h39Z"/><path fill="#333330" d="M539 626h18l5 2-1 6-8 2h-51l-2-2 1-5 1-1 7-1Z"/><path fill="#30302d" d="M330 228h18l3 3-1 4-3 2-31 1h-25l-2-2 1-5 2-2Z"/><path fill="#34342e" d="M226 654h34l4 3-1 4-4 3-7 1h-30l-4-1-2-6 3-3Z"/><path fill="#31312c" d="M219 199h33l8 2 3 2-1 5-3 2h-19l-21-1-3-3 1-5Zm375 455 31 1 8 1 2 2-1 5-4 3-37-1-5-4 1-5Z"/><path fill="#30312c" d="m629 199 5 2 2 5-3 3-9 1-29 1-5-2-2-2 1-4 3-2 5-1Z"/><path fill="#908b85" d="m480 420 3 4v3h9l3 1v2h7v1h-21v5l1-1 2-2 3 1v2l6-3 3 1-1 5-4 4h-2l1-3 4-4-1 1-10 2-2 6h-2v-4l-3-2 1-4-2 1 2-5h-14l-1 8-3 4 1-6 1-5-6-1v10h-1l-1-10-15 1h-39v-1l20-1h35l1-7 6-1 2 5 1-3h2v-2h2l1 8 8-1 1-5h2l-1-3Z"/><path fill="#31312c" d="m215 226 44 1 3 2v5l-8 2h-34l-6-4-1-4Z"/><path fill="#30302c" d="M220 628h35l8 2-1 5-6 2-40 1-2-1v-5Z"/><path fill="#514842" d="m574 730 1 2 2 1h-3l1 3v11l3-1-2-3v-4h3v2l2 1 1 2v8l2-4 3-5-2-1 1-3h2l3 4v5l-1 4 1 1 1-9v-3l-3-1v-2h6l1 5h-2v2l4-2 2-2-1 6h2v2l3 1-1 3-4-1 1 7 4 3v-2l5-2v2l2-1 2-4 1 4-4 4-2 1h-6l-5-4-1-6-3 8h-5l-2-3v-4h-5l-2-2v-4h-5l-1-1-1-16Z"/><path fill="#e5c77c" d="m297 278 4 1 3 3-10 7-16 8-11 5-28 8h-5l3-2h3l-1-3-3-3h7l1 2h7l2-6h7l4-2h3v-2l5-2h3v-2l17-8h2v-2Z"/><path fill="#af9187" d="m589 730 5 2v2h-3v3l3-2 2-4 3 1v5h3l1-2 6 6v3h2l2 8-2 3v5h-2v-2l-5 2v2l-4-2-1-1v-7l4 1v-3l-2-1v-2h-2v-4l-2 2h-3v-2h2l-2-4-5-1 4 5v7l-1 5-3-3 1-9-2-2 1-9-3 1v-2Z"/><path fill="#947b71" d="M576 118h5v2l7 1v2h-2v3h2l2-4h2v2h-2v8l-2 1-2-1v2h5l-2 1 1 4-4 2-1 3-1-4h-2v2l-5-1-2-4-2-2h3v-2l-3-2 2-4v-7Z"/><path fill="#b2958c" d="m247 103 4 2 1 1v5l-6 2 1 6-2 2 1 2-1 2h2v-5l1-5 1 2 3 1-1 3 6-2v6l4 1 1 5h3l-1 3-6-1-1-2h3l-2-3-3 5-3-1v-4h-3l-1 2-6-7 2-10h-2l-1 7-2-1-1-7 2-7 2-1 1 2 4-1Z"/><path fill="#b5958c" d="M253 731h3l1 5 5-1v2h2l-2 5-2-1 2-3-4 1-1 1v5l-4-1-3 5h-2l2 3h2v7l-2 2-3-1 2-2-3-5-4 2v4h-2l-1-9 2-7 1 2h2l-1-5 4-5h5Z"/><path fill="#3f3f3a" d="M330 668h11l2 2-1 4-8 3-5 1h-16l-4-2v-5l7-2Z"/><path fill="#3d3e39" d="M312 186h17l11 3 2 1-1 5-1 1-26-1-6-3 1-4Z"/><path fill="#3e3e39" d="M524 186h13l5 2 1 5-5 2-15 1h-13l-1-4 3-3Z"/><path fill="#3c3c38" d="m513 668 24 2 5 2v5l-7 2h-10l-15-4-1-5Z"/><path fill="#a37569" d="M588 356h2v3l3 1v2l-3 3 4 1-1 4 4 4 1 2-1 4h-2l2 2 2 1v2l3 1v2l-4-1 1 4-5 1h-2v-5h-3v-3h3l1-6-2-1-2 5-3 3-1-1v-7l1-4h2l-1-2v-13Z"/><path fill="#a4766a" d="m594 472 4 1v4l1 1 2-1-2 4-1 2h-2l1 8-4 3-1 5-2 1v2l2 1v2l-2 1-2 3-2-5v-10l1-1-2-1v-11h2l3 5v2h3l-1-3h-2l1-8v-4Z"/><path fill="#2e2f2b" d="M232 617h16l3 3-1 5-18 1-6 1-3-3 1-4 2-2Z"/><path fill="#31322d" d="m225 237 7 1 18 1 1 4-4 4h-15l-8-2-1-1v-6Z"/><path fill="#706954" d="m716 579 2 1-1 2-14 4-16 3-51 7-16 2-3-2 45-7 33-4Z"/><path fill="#363734" d="M316 239h17l3 2-1 4-8 2h-17l-3-1-1-3 3-3Z"/></svg>