<?xml version="1.0" standalone="no"?>
<!DOCTYPE svg PUBLIC "-//W3C//DTD SVG 20010904//EN"
 "http://www.w3.org/TR/2001/REC-SVG-20010904/DTD/svg10.dtd">
<svg version="1.0" xmlns="http://www.w3.org/2000/svg"
 width="956.000000pt" height="424.000000pt" viewBox="0 0 956.000000 424.000000"
 preserveAspectRatio="xMidYMid meet">
<metadata>
Created by potrace 1.16, written by Peter Selinger 2001-2019
</metadata>
<g transform="translate(0.000000,424.000000) scale(0.100000,-0.100000)"
fill="#000000" stroke="none">
<path d="M5 2120 c0 -1169 1 -1647 2 -1062 2 584 2 1540 0 2125 -1 584 -2 106
-2 -1063z"/>
<path d="M6320 3987 c-61 -30 -71 -60 -42 -129 20 -50 21 -57 8 -113 -13 -59
-30 -341 -27 -460 1 -33 13 -150 26 -260 13 -110 23 -234 23 -276 l-1 -77 -56
-5 c-88 -9 -185 -64 -272 -155 -130 -135 -160 -187 -209 -362 -43 -151 -46
-156 -60 -97 -22 87 -95 121 -166 76 -42 -26 -101 -105 -118 -161 -22 -68 -40
-325 -32 -467 16 -326 51 -447 155 -546 27 -25 34 -28 51 -17 11 7 30 12 44
12 13 0 35 9 49 20 14 11 27 20 30 20 3 0 11 -26 17 -57 22 -113 42 -189 77
-298 72 -225 70 -221 173 -290 85 -57 195 -92 310 -101 116 -9 185 6 313 68
144 69 197 128 250 273 26 73 67 266 67 316 0 32 15 39 24 12 4 -10 21 -35 39
-56 l32 -39 63 12 c79 16 120 43 152 100 22 40 25 59 29 175 2 72 -2 184 -8
250 -6 66 -16 185 -22 265 -12 171 -20 215 -56 333 -21 69 -34 94 -60 117 -19
17 -44 30 -56 30 -35 0 -114 -86 -135 -148 l-19 -53 -6 83 c-11 138 -66 312
-129 410 -68 106 -187 203 -304 251 l-59 23 0 160 c0 87 -8 226 -18 308 -13
114 -16 186 -11 310 6 146 5 168 -15 239 -26 97 -26 101 4 115 27 13 75 104
75 145 0 28 -38 67 -66 66 -10 0 -39 -10 -64 -22z m90 -11 c0 -2 3 -12 6 -21
6 -15 4 -15 -15 -4 -25 16 -27 29 -6 29 8 0 15 -2 15 -4z m-48 -128 c-20 -20
-36 5 -21 33 l12 24 10 -23 c7 -16 7 -26 -1 -34z m-35 -142 c-8 -17 -19 -53
-24 -81 l-8 -50 -3 54 c-2 41 1 57 12 63 10 6 16 23 16 46 1 32 2 34 12 18 8
-15 7 -26 -5 -50z m31 -113 c-1 -24 -3 -43 -4 -43 -8 0 -22 72 -17 91 9 33 23
1 21 -48z m-4 -88 c11 -16 14 -34 10 -47 -6 -20 -8 -19 -20 11 -13 32 -18 61
-10 61 2 0 11 -11 20 -25z m-15 -135 c1 -26 -2 -31 -9 -20 -5 8 -9 33 -9 55 0
31 2 36 9 20 5 -11 9 -36 9 -55z m46 -460 c3 -66 3 -69 -5 -25 -18 104 -40
269 -39 289 2 37 39 -187 44 -264z m-26 -20 c-1 -53 -6 -44 -12 24 -3 30 -1
43 4 35 5 -8 8 -34 8 -59z m21 -75 c0 -8 -4 -15 -10 -15 -5 0 -10 7 -10 15 0
8 5 15 10 15 6 0 10 -7 10 -15z m-75 -205 c-27 -12 -43 -12 -25 0 8 5 22 9 30
9 10 0 8 -3 -5 -9z m161 -41 c27 -12 69 -38 94 -58 25 -21 66 -52 92 -69 83
-56 158 -181 158 -260 0 -24 8 -82 17 -128 10 -46 15 -86 11 -89 -10 -10 -104
21 -136 45 -28 21 -33 21 -128 11 -54 -6 -128 -12 -164 -14 l-65 -2 -3 -35
c-4 -42 16 -60 69 -60 80 0 129 -12 129 -31 0 -13 -10 -20 -37 -24 -120 -21
-166 -52 -179 -121 -7 -38 10 -475 22 -562 6 -38 4 -42 -15 -42 -17 0 -21 7
-22 33 -16 421 -25 524 -51 572 -28 53 -47 63 -185 101 -17 4 -16 24 2 48 12
16 25 19 67 17 29 -1 60 -9 69 -17 14 -13 18 -13 28 0 10 12 5 20 -30 46 -64
46 -125 60 -265 60 -116 0 -124 -1 -135 -22 -10 -18 -8 -24 12 -39 30 -23 122
-43 166 -36 31 5 34 4 31 -16 -3 -21 -8 -22 -103 -22 -55 0 -110 -4 -122 -8
-31 -11 -30 10 2 109 14 42 25 98 25 123 0 26 7 73 15 104 24 93 135 243 198
267 17 7 55 37 83 67 l52 54 68 -2 c38 0 80 4 94 9 40 17 84 14 136 -9z m-386
-48 c-12 -17 -26 -31 -31 -31 -6 0 2 16 17 35 32 43 45 39 14 -4z m768 -426
c0 -29 0 -29 -8 -5 -4 14 -8 36 -8 50 -1 23 0 23 8 5 5 -11 8 -33 8 -50z
m-1209 -30 c29 -25 43 -57 55 -122 l5 -31 -31 15 c-29 15 -34 14 -65 -3 -39
-20 -57 -50 -68 -109 -10 -55 -6 -426 5 -505 11 -76 51 -184 80 -215 l20 -21
-20 -42 c-20 -42 -21 -42 -49 -27 -16 8 -32 22 -36 32 -36 90 -48 147 -64 304
-16 157 -17 187 -4 270 7 52 18 123 23 159 5 36 9 99 10 140 0 69 3 79 35 128
40 59 59 64 104 27z m1492 -70 c13 -30 26 -115 44 -291 14 -137 34 -305 46
-374 28 -161 24 -299 -10 -353 -47 -76 -133 -121 -177 -92 -30 19 -64 77 -71
120 l-6 36 47 -23 46 -22 21 20 c12 12 36 76 60 160 l41 139 -11 115 c-5 63
-20 156 -31 205 -15 61 -20 106 -16 140 3 28 2 66 -3 86 -9 38 -76 115 -106
121 -15 3 -15 6 4 30 40 50 96 43 122 -17z m-1680 -296 l-19 -84 -1 60 c-1 62
14 213 27 275 5 25 8 7 10 -66 2 -72 -3 -124 -17 -185z m1252 264 c-13 -2 -35
-2 -50 0 -16 2 -5 4 22 4 28 0 40 -2 28 -4z m261 -93 c-8 -30 -14 -68 -15 -85
0 -16 -4 -39 -8 -50 -14 -35 -23 28 -11 79 9 42 41 119 46 113 1 -1 -4 -27
-12 -57z m-1291 3 c8 -16 17 -55 20 -88 4 -33 11 -89 17 -125 18 -115 -20
-495 -54 -528 -14 -14 -17 -11 -36 30 -45 103 -52 159 -54 431 l-1 259 28 24
c37 32 63 31 80 -3z m1189 3 c11 -16 10 -54 -2 -61 -11 -7 -115 12 -141 25 -9
4 -42 11 -75 15 -55 7 -79 19 -69 36 8 11 279 -3 287 -15z m199 -53 c38 -164
31 -624 -11 -719 -10 -24 -22 -44 -25 -44 -15 0 -55 112 -65 177 -16 115 9
580 35 646 5 11 16 17 29 15 17 -2 24 -16 37 -75z m-429 -24 c204 -41 236 -61
230 -147 -2 -29 -41 -46 -139 -61 -93 -14 -191 0 -290 41 -69 28 -73 32 -73
62 0 60 42 96 125 107 78 10 90 10 147 -2z m-577 -9 c22 -6 56 -13 75 -16 19
-3 43 -10 52 -15 44 -24 67 -139 31 -154 -10 -4 -57 -15 -106 -26 -137 -29
-267 -5 -317 59 -52 65 5 134 124 152 73 11 96 11 141 0z m470 -231 c11 -17 0
-20 -21 -4 -17 13 -17 14 -2 15 9 0 20 -5 23 -11z m310 -32 c0 -20 -4 -38 -10
-39 -13 -4 -29 46 -22 67 12 29 32 10 32 -28z m299 -152 c1 -96 -3 -127 -17
-155 l-17 -35 5 35 c3 19 6 107 7 195 1 127 4 152 11 120 6 -22 10 -94 11
-160z m-446 168 c-10 -2 -18 -14 -18 -26 0 -16 -3 -18 -11 -10 -17 17 -3 43
23 42 17 -1 18 -2 6 -6z m-709 -93 c0 -40 -3 -49 -9 -34 -7 19 -14 82 -11 109
1 6 6 3 11 -5 5 -8 9 -40 9 -70z m433 23 c9 3 19 -2 22 -10 8 -21 29 -11 36
18 5 21 9 17 24 -29 13 -37 26 -57 43 -65 19 -8 26 -8 32 2 6 9 10 6 15 -11 3
-12 20 -39 36 -58 29 -33 30 -33 45 -15 8 11 15 26 15 33 0 6 5 12 10 12 6 0
10 21 10 46 0 36 3 44 13 36 6 -5 27 -13 45 -17 24 -5 33 -13 38 -33 8 -43 20
-57 43 -55 35 4 55 -56 46 -137 -4 -36 -9 -141 -11 -235 -4 -184 -11 -233 -50
-340 -42 -118 -103 -185 -165 -185 -11 0 -58 -19 -105 -41 -80 -39 -89 -41
-145 -35 -33 4 -104 7 -157 7 -91 0 -99 1 -158 34 -58 32 -63 38 -69 77 -11
66 -24 81 -25 29 l0 -44 -26 24 c-62 57 -120 151 -138 223 l-7 28 41 -32 c22
-17 52 -52 66 -76 14 -24 30 -44 35 -44 32 0 -25 87 -110 167 -30 29 -52 56
-48 59 4 4 18 -3 32 -16 14 -13 46 -36 72 -50 39 -21 49 -33 66 -80 27 -74
104 -151 177 -176 45 -15 80 -19 187 -17 114 1 139 5 192 26 84 34 152 80 192
129 32 41 34 47 34 123 -1 120 -26 157 -136 201 -60 23 -75 25 -230 24 -174
-1 -316 -12 -346 -29 -10 -5 -36 -28 -58 -50 -35 -37 -44 -41 -87 -41 -55 0
-62 9 -96 120 -16 54 -20 105 -25 305 l-6 240 17 -82 c10 -53 21 -83 29 -83
10 0 13 22 14 83 1 45 3 73 6 62 2 -11 6 -30 9 -42 6 -31 18 -29 31 5 l10 27
8 -30 c5 -16 15 -35 23 -41 8 -6 20 -40 26 -75 8 -44 17 -64 27 -64 11 0 15
20 18 90 l3 90 12 -55 c11 -56 31 -67 31 -17 0 22 5 29 25 34 33 8 50 22 50
42 0 10 9 16 25 16 19 0 27 -6 31 -25 15 -67 30 -68 39 -2 10 71 11 72 19 10
4 -32 12 -60 17 -63 5 -4 9 -15 9 -26 0 -16 -3 -18 -19 -9 -69 37 -120 -30
-71 -93 11 -14 37 -31 58 -38 46 -15 52 -23 52 -75 0 -47 14 -64 50 -64 44 0
62 29 55 86 l-7 49 42 2 c78 2 103 57 53 113 -20 23 -40 33 -70 37 l-43 6 0
71 1 71 17 -28 c11 -18 23 -26 34 -24z m427 -68 c0 -11 -4 -29 -9 -40 -7 -19
-8 -18 -13 5 -3 14 -8 37 -10 52 -3 23 -2 25 15 15 10 -7 18 -21 17 -32z
m-619 -74 c0 -12 -29 -35 -36 -28 -11 10 5 37 21 37 8 0 15 -4 15 -9z m232
-14 c10 -15 10 -41 1 -50 -6 -6 -73 59 -73 71 0 9 64 -9 72 -21z m-197 -37 c3
-5 -3 -10 -15 -10 -12 0 -18 5 -15 10 3 6 10 10 15 10 5 0 12 -4 15 -10z
m-531 -196 c-7 -36 -55 -94 -78 -94 -19 0 -13 18 31 87 18 29 33 62 34 75 1
20 2 19 10 -7 5 -16 6 -44 3 -61z m1183 -81 c-3 -10 -5 -2 -5 17 0 19 2 27 5
18 2 -10 2 -26 0 -35z m-285 -98 c57 -20 100 -67 96 -104 -4 -31 -51 -60 -153
-93 -91 -29 -224 -29 -392 1 -156 27 -173 34 -173 65 0 48 17 71 75 100 49 25
79 31 194 42 164 15 289 12 353 -11z m-653 -111 c7 -6 -11 -24 -23 -24 -8 0
-24 9 -37 20 l-24 20 40 -6 c22 -4 42 -8 44 -10z m761 -88 c0 -38 -75 -113
-152 -152 -60 -30 -84 -36 -184 -45 -191 -18 -278 10 -346 113 -43 63 -39 72
30 63 31 -3 73 -10 92 -15 19 -5 84 -14 143 -21 133 -16 214 -4 326 46 42 18
79 34 84 34 4 1 7 -10 7 -23z m-700 -316 c17 -7 30 -19 30 -27 0 -23 -76 25
-121 76 -57 65 -47 79 11 16 28 -29 64 -58 80 -65z m605 -15 c-77 -37 -121
-42 -50 -7 33 17 69 30 80 30 12 0 -1 -10 -30 -23z m-317 -65 c44 -17 60 -19
90 -10 52 14 79 13 64 -2 -18 -18 -159 -21 -237 -5 -47 10 -60 15 -40 17 23 1
70 14 70 19 0 1 24 -8 53 -19z"/>
<path d="M8282 3302 c3 -62 11 -119 19 -133 9 -17 13 -63 12 -160 -1 -164 -7
-193 -41 -218 l-27 -19 -1 83 c0 89 -14 125 -40 104 -15 -13 -19 -61 -6 -87 5
-9 5 -71 1 -137 -4 -69 -3 -124 2 -129 5 -6 9 -19 9 -30 0 -18 -1 -18 -12 -4
-12 15 -19 15 -68 2 -37 -10 -67 -12 -90 -7 l-35 9 -5 166 c-5 170 -12 197
-45 185 -13 -6 -15 -19 -9 -87 6 -70 5 -80 -10 -80 -9 0 -16 -7 -16 -15 0 -8
5 -15 10 -15 15 0 12 -123 -2 -142 -9 -11 -37 -17 -91 -21 -122 -9 -192 -55
-249 -164 -14 -29 -26 -29 -56 -1 l-23 23 -37 -22 c-57 -32 -80 -90 -112 -281
-55 -323 -58 -656 -8 -785 14 -35 47 -43 88 -22 l33 17 -6 -66 c-7 -75 14
-278 38 -371 33 -125 108 -351 128 -385 40 -69 86 -117 180 -189 l96 -73 108
5 c124 6 203 20 253 48 19 10 56 27 82 38 26 11 52 30 59 43 7 13 26 39 43 59
108 127 203 427 213 671 4 87 7 106 19 101 22 -8 70 16 82 41 33 73 45 316 24
491 -6 55 -17 179 -23 275 -14 208 -19 234 -59 283 -25 29 -38 37 -63 36 -45
-1 -67 -11 -81 -38 -12 -22 -13 -22 -40 21 -16 24 -40 56 -55 71 -29 32 -119
81 -169 92 -18 3 -36 14 -41 23 -14 28 -23 159 -12 179 5 10 30 29 56 42 l47
23 -6 102 c-9 147 -10 362 -3 431 10 87 9 95 -4 111 -6 8 -23 14 -37 14 l-25
0 5 -108z m-102 -753 c0 -5 -17 -9 -37 -8 l-38 1 30 13 c30 13 45 11 45 -6z
m-210 -19 c0 -6 -30 -10 -71 -10 -44 0 -68 4 -64 10 3 6 35 10 71 10 36 0 64
-4 64 -10z m132 -51 c23 -12 69 -24 102 -26 34 -3 78 -14 98 -24 43 -22 52
-23 42 -8 -3 6 9 3 27 -7 28 -14 31 -18 16 -23 -14 -5 -8 -12 29 -29 25 -13
45 -24 43 -26 -2 -1 -47 1 -99 5 -93 8 -151 4 -179 -11 -26 -14 33 -42 81 -38
42 3 43 2 46 -31 l3 -33 -53 6 c-43 5 -59 3 -86 -14 -34 -21 -62 -71 -62 -112
0 -16 -7 -8 -24 27 -32 69 -70 90 -158 86 l-68 -2 0 30 0 31 82 0 c72 0 80 2
68 15 -20 19 -270 42 -324 29 -22 -5 -41 -14 -43 -21 -5 -14 50 -33 98 -33 40
0 69 -8 69 -19 0 -10 -139 -1 -179 11 -32 10 -33 12 -27 50 8 51 46 132 75
161 26 27 79 33 229 30 132 -3 159 -6 194 -24z m93 0 c14 -14 -24 -10 -65 7
l-35 14 45 -5 c25 -3 49 -10 55 -16z m-667 -150 c3 -44 2 -47 -26 -52 -23 -5
-33 -15 -47 -49 -34 -85 -65 -260 -72 -401 -3 -75 -8 -135 -11 -133 -8 8 -2
218 9 306 10 85 68 300 96 353 22 44 47 32 51 -24z m-108 -74 c-29 -93 -41
-99 -16 -10 17 63 35 109 41 104 2 -3 -9 -45 -25 -94z m1264 22 c39 -51 46
-80 61 -266 8 -97 19 -239 26 -316 9 -108 9 -167 0 -263 -14 -145 -22 -169
-55 -178 -55 -13 -63 36 -14 92 32 36 32 38 40 173 4 76 3 162 -2 196 -5 33
-18 114 -29 180 -10 66 -22 156 -26 200 -8 91 -26 143 -57 167 -19 14 -20 19
-9 32 20 24 37 20 65 -17z m-236 8 c30 -6 52 -29 52 -54 0 -12 -36 -14 -104
-5 -42 6 -46 9 -46 34 0 34 8 42 40 36 14 -3 40 -8 58 -11z m-878 -32 c-1 -28
-3 -34 -10 -22 -8 14 -3 59 6 59 2 0 4 -17 4 -37z m967 -30 c-4 -15 -5 -15 -6
3 0 12 -8 24 -16 28 -8 3 -15 10 -15 16 0 6 9 2 21 -9 12 -11 19 -27 16 -38z
m-1018 -24 c1 -24 -4 -105 -13 -179 -9 -74 -21 -177 -26 -229 -8 -71 -19 -113
-46 -169 -19 -41 -37 -73 -40 -69 -3 3 -1 92 5 199 15 272 65 508 104 495 7
-2 14 -23 16 -48z m1121 12 c5 -11 15 -66 20 -123 6 -57 17 -139 26 -183 25
-138 40 -374 26 -445 -6 -35 -14 -65 -17 -68 -11 -11 -45 33 -55 70 -18 65
-29 277 -18 343 11 67 6 140 -18 260 -13 65 -14 89 -5 123 13 46 25 53 41 23z
m-604 -46 c44 -47 55 -102 25 -126 -26 -22 -113 -41 -172 -38 -58 2 -142 19
-153 30 -6 5 -21 9 -35 9 -35 0 -105 41 -109 64 -5 26 6 62 24 80 13 13 46 16
201 16 l186 0 33 -35z m463 12 c23 -11 26 -18 26 -67 -1 -86 -5 -90 -77 -90
-64 0 -215 17 -258 30 -23 6 -25 11 -21 56 4 63 15 82 48 88 49 8 255 -4 282
-17z m48 -94 c-3 -10 -5 -4 -5 12 0 17 2 24 5 18 2 -7 2 -21 0 -30z m-1012
-80 c-4 -35 -9 -62 -12 -59 -3 2 -2 38 2 78 5 40 10 67 13 60 2 -8 1 -43 -3
-79z m609 -108 c3 -71 2 -164 -2 -205 l-8 -75 -7 55 c-4 30 -8 132 -9 227 -2
133 0 167 8 150 7 -12 15 -80 18 -152z m-504 135 c8 -5 12 -11 9 -14 -3 -3
-14 1 -25 9 -21 16 -8 20 16 5z m598 -118 c9 -73 9 -107 0 -135 -9 -28 -9 -40
0 -49 21 -21 26 0 30 122 4 104 7 120 21 118 10 -2 15 4 15 15 -1 9 3 17 8 17
7 0 8 -18 4 -49 -6 -47 6 -78 18 -46 7 19 26 20 26 1 0 -7 7 -19 15 -26 8 -7
15 -27 15 -44 0 -41 10 -76 22 -76 5 0 7 28 2 69 -4 44 -3 71 4 75 6 4 8 22 5
44 l-5 37 21 -37 c12 -21 21 -56 21 -78 0 -22 4 -40 9 -40 10 0 27 45 34 90 2
14 5 -6 6 -44 1 -60 3 -67 16 -56 12 10 15 9 15 -4 0 -9 7 -30 15 -47 12 -21
17 -73 20 -197 3 -100 12 -215 24 -287 27 -158 28 -275 3 -306 -17 -20 -29
-23 -105 -25 -101 -2 -103 0 -62 88 24 52 24 65 4 119 -11 27 -80 78 -143 104
-40 17 -90 20 -81 5 3 -5 17 -10 30 -10 20 0 35 -16 35 -40 0 -11 -73 -8 -81
3 -7 10 -32 11 -89 3 -41 -5 -42 -5 -12 4 17 6 32 13 32 15 0 11 -208 -8 -254
-22 -29 -9 -65 -32 -92 -57 -43 -42 -44 -44 -46 -112 0 -38 -1 -78 0 -89 21
-310 17 -289 66 -378 66 -122 105 -148 224 -152 67 -3 76 -1 120 29 72 49 173
205 213 329 25 78 36 98 53 101 11 3 53 12 91 20 118 27 118 27 85 -69 -23
-67 -23 -68 -10 -60 14 9 13 3 -21 -95 -43 -123 -101 -216 -177 -283 -60 -53
-66 -56 -154 -72 -50 -9 -113 -25 -140 -36 -67 -26 -118 -24 -181 7 -71 36
-147 87 -147 98 0 5 -22 44 -50 86 -40 63 -53 96 -70 171 -11 52 -36 166 -55
255 -53 243 -64 400 -50 717 6 130 10 156 20 147 15 -12 14 -14 34 115 l9 60
-3 -67 c-2 -38 0 -68 5 -68 11 0 20 26 20 58 1 23 2 25 11 9 6 -9 15 -15 20
-11 7 4 9 -12 7 -46 -2 -39 1 -54 11 -58 9 -3 12 0 9 9 -3 8 -2 34 2 59 7 44
8 43 9 -21 1 -81 -8 -136 -20 -117 -6 9 -9 2 -9 -19 0 -51 26 -42 34 12 4 24
11 47 17 50 5 4 10 39 11 78 l2 72 3 -62 c2 -35 8 -63 13 -63 6 0 10 7 10 15
0 7 6 18 14 22 7 4 16 15 19 23 3 8 6 -19 6 -60 1 -81 8 -120 22 -120 4 0 11
17 14 38 14 81 38 172 46 172 5 0 9 22 9 50 0 39 4 52 20 60 18 10 20 8 20
-23 0 -18 5 -38 11 -44 8 -8 8 -33 0 -94 -9 -71 -9 -85 4 -98 24 -24 42 1 26
36 -9 19 -9 29 -2 31 6 2 11 25 11 52 0 43 2 48 20 43 11 -3 20 -9 20 -14 0
-5 9 -9 20 -9 15 0 20 7 21 28 1 26 1 25 9 -6 14 -58 20 -48 22 34 l1 79 8
-90 c10 -123 11 -255 2 -255 -5 0 -28 7 -52 16 -69 24 -161 14 -183 -20 -4 -6
-5 -20 -2 -31 17 -57 90 -94 182 -95 l62 0 0 -99 c0 -105 12 -136 49 -129 14
3 16 19 16 110 l-1 106 33 -5 c17 -3 62 0 98 7 50 10 70 18 82 36 14 22 14 26
-1 49 -32 49 -74 67 -143 62 -41 -3 -63 -1 -65 7 -2 6 -1 65 2 131 5 112 6
118 20 90 l13 -30 8 60 c4 33 5 70 2 83 -3 12 -1 22 5 22 5 0 14 -44 20 -98z
m-188 51 c0 -22 -2 -25 -10 -13 -13 20 -13 40 0 40 6 0 10 -12 10 -27z m453
20 c-7 -2 -13 -17 -14 -31 0 -24 -1 -25 -9 -7 -14 33 -11 45 13 44 12 0 16 -3
10 -6z m-866 -55 c-2 -13 -4 -5 -4 17 -1 22 1 32 4 23 2 -10 2 -28 0 -40z
m182 9 c-1 -31 -1 -31 -9 -7 -11 36 -11 52 0 45 6 -3 10 -21 9 -38z m-152 -34
c-3 -10 -5 -4 -5 12 0 17 2 24 5 18 2 -7 2 -21 0 -30z m-160 -205 c-2 -13 -4
-5 -4 17 -1 22 1 32 4 23 2 -10 2 -28 0 -40z m-119 -186 c9 2 30 30 47 65 17
35 32 63 35 63 3 0 6 -47 8 -103 3 -109 -5 -147 -40 -184 -56 -59 -79 -3 -76
184 1 97 3 113 5 55 3 -72 6 -83 21 -80z m584 96 c2 -26 10 -37 38 -50 l35
-18 -40 0 c-73 0 -154 66 -113 91 7 5 27 9 45 9 29 0 32 -3 35 -32z m96 0 c19
-19 14 -38 -9 -38 -29 0 -59 18 -59 35 0 18 51 20 68 3z m287 -35 c3 -9 0 -22
-7 -29 -18 -18 -148 -38 -162 -24 -7 7 -3 10 13 10 13 0 41 5 62 12 35 10 39
14 39 45 0 33 0 33 24 18 13 -9 27 -23 31 -32z m-107 31 c35 -10 26 -32 -18
-44 -45 -12 -60 -7 -60 20 0 11 9 20 23 23 12 2 24 5 27 6 3 0 15 -2 28 -5z
m-106 -196 c3 -37 1 -73 -3 -80 -5 -7 -9 -11 -9 -8 0 3 -2 55 -4 115 -3 115 9
95 16 -27z m519 -75 c-9 -16 -11 -15 -20 10 -6 16 -11 38 -11 50 0 19 3 18 21
-10 15 -24 18 -37 10 -50z m-1142 -118 c6 -79 24 -199 41 -275 16 -74 39 -180
50 -235 12 -55 23 -109 27 -120 3 -11 3 -17 -1 -14 -11 11 -106 331 -121 412
-22 119 -31 264 -21 324 5 29 11 52 12 50 1 -1 7 -65 13 -142z m691 -40 c19
-1 50 -2 69 -3 l34 -2 -7 -55 c-8 -67 5 -71 31 -10 20 49 24 52 43 30 14 -17
7 -99 -10 -120 -16 -19 -90 -25 -125 -10 -28 11 -31 17 -27 44 6 40 -10 40
-29 -1 -16 -36 -62 -56 -136 -57 -33 -1 -46 4 -61 24 -21 27 -42 33 -42 12 0
-7 -6 -22 -14 -32 -14 -19 -14 -19 -49 0 -20 11 -35 26 -34 35 3 26 -17 26
-30 0 -7 -14 -14 -29 -17 -35 -2 -6 -8 -5 -16 2 -18 17 11 90 50 128 31 30 45
27 52 -10 6 -34 23 -22 28 20 9 70 70 56 70 -16 0 -40 13 -52 24 -23 3 9 6 26
6 39 0 54 7 58 84 50 39 -4 87 -9 106 -10z m-411 -244 c11 -7 10 -13 -4 -35
-10 -14 -19 -26 -21 -26 -2 0 -4 16 -4 35 0 36 5 41 29 26z m354 2 c-7 -2 -21
-2 -30 0 -10 3 -4 5 12 5 17 0 24 -2 18 -5z m152 -40 c-3 -18 -1 -33 5 -35 6
-2 -3 -29 -22 -63 l-33 -60 -3 43 c-5 61 -19 52 -30 -20 -7 -50 -10 -55 -11
-25 0 20 -5 37 -10 37 -15 0 -19 -38 -10 -81 11 -48 7 -88 -5 -54 -27 72 -31
72 -34 3 -3 -72 -5 -75 -75 -112 -38 -21 -46 -22 -51 -9 -11 28 -6 110 9 153
19 53 19 60 0 60 -16 0 -45 -85 -45 -131 0 -38 -17 -79 -32 -79 -8 0 -22 16
-32 35 -18 34 -19 37 -3 71 21 42 21 44 3 44 -7 0 -20 -10 -28 -22 -14 -20
-15 -20 -40 -4 -31 20 -44 53 -52 125 -6 56 7 94 40 122 16 13 16 12 0 -20
-27 -52 -5 -58 31 -8 40 57 69 66 91 26 23 -39 48 -38 56 2 6 30 8 31 44 25
20 -3 52 -6 70 -6 30 0 32 -2 32 -35 0 -23 5 -35 14 -35 17 0 26 21 26 59 0
26 2 27 51 27 l50 -1 -6 -32z m5 -170 c0 -5 -10 -19 -21 -33 l-20 -25 16 33
c15 30 25 41 25 25z m-602 -268 c-5 -5 -68 90 -68 102 0 4 16 -16 36 -45 20
-30 34 -55 32 -57z m446 44 c-10 -11 -28 -25 -39 -31 -11 -6 -4 4 15 20 41 36
51 41 24 11z"/>
<path d="M4718 2934 c-93 -48 -146 -122 -186 -259 -27 -93 -42 -205 -42 -321
l0 -95 -29 20 c-16 12 -38 21 -50 21 -53 0 -76 -153 -47 -327 9 -54 20 -140
26 -191 10 -89 30 -154 84 -274 41 -92 85 -116 120 -66 13 18 15 12 21 -54 7
-76 -6 -208 -30 -312 -17 -69 -20 -232 -5 -270 26 -69 276 -59 432 18 65 32
91 61 140 156 20 39 23 65 28 200 4 107 2 177 -7 225 -19 105 -18 111 16 73
25 -27 33 -31 48 -22 52 32 91 251 108 594 6 130 5 155 -15 238 -18 78 -28 99
-56 128 -61 61 -86 47 -114 -65 -16 -62 -22 -45 -9 25 14 74 7 228 -13 274
-18 42 -166 220 -207 249 -43 31 -112 61 -141 60 -14 0 -46 -11 -72 -25z m174
-73 c104 -75 173 -187 183 -297 4 -32 2 -72 -3 -89 l-9 -30 -8 38 c-9 46 -28
44 -36 -4 -4 -22 -7 -26 -8 -11 0 12 -5 22 -10 22 -22 0 -41 -13 -42 -29 0
-10 -2 -11 -6 -3 -5 14 -33 17 -33 3 0 -6 -14 -25 -30 -43 -17 -18 -33 -41
-36 -52 -10 -30 29 -51 98 -52 37 -1 65 -7 76 -17 9 -8 26 -17 36 -18 28 -6
31 -26 4 -32 -13 -3 -67 -11 -120 -17 -133 -17 -133 -16 -103 -155 13 -60 28
-157 34 -215 6 -58 18 -161 26 -230 23 -180 29 -270 18 -270 -5 0 -15 24 -22
53 -7 28 -24 90 -37 136 -30 105 -60 270 -68 376 -16 196 -28 275 -45 284 -16
9 -101 -2 -122 -14 -5 -4 -9 7 -9 24 0 16 -3 38 -6 48 -6 16 -5 16 10 -2 16
-20 17 -19 50 19 18 21 38 36 43 33 6 -4 18 0 28 7 26 18 13 57 -34 108 -38
40 -40 40 -70 27 -23 -10 -34 -24 -42 -51 -10 -37 -22 -47 -34 -28 -3 5 8 83
24 172 17 90 33 180 36 201 5 31 15 44 51 70 60 42 125 77 145 77 9 0 40 -18
71 -39z m-323 -261 c-10 -63 -23 -128 -28 -145 -16 -52 -13 81 4 151 13 58 35
117 41 112 1 -2 -6 -55 -17 -118z m542 55 c15 -32 18 -63 17 -150 l-1 -110 -7
90 c-8 110 -17 148 -43 200 -18 36 -18 38 -2 25 10 -8 26 -33 36 -55z m149
-265 c50 -71 65 -317 34 -592 -12 -114 -21 -154 -42 -198 -15 -30 -32 -56 -39
-58 -21 -6 -44 57 -56 150 l-11 90 33 28 c40 32 49 74 50 242 1 113 -7 149
-41 185 -20 21 -20 26 -8 80 25 113 41 128 80 73z m-723 -67 c-3 -10 -5 -4 -5
12 0 17 2 24 5 18 2 -7 2 -21 0 -30z m-94 -65 c9 -7 27 -44 40 -81 22 -61 23
-67 7 -62 -24 8 -50 -20 -51 -53 -4 -126 20 -251 67 -350 30 -62 39 -74 66
-79 l31 -6 -6 -57 c-6 -68 -25 -113 -49 -118 -13 -3 -25 12 -44 55 -57 127
-75 190 -96 331 -29 202 -34 348 -14 395 16 40 23 44 49 25z m647 -74 c0 -31
-24 -37 -131 -28 -110 8 -106 24 9 39 117 16 122 16 122 -11z m113 -154 c-1
-71 -7 -138 -14 -155 l-12 -30 -8 34 c-15 69 -21 275 -9 306 l12 30 16 -30
c14 -24 17 -54 15 -155z m-612 147 c-13 -13 -26 -3 -16 12 3 6 11 8 17 5 6 -4
6 -10 -1 -17z m99 -32 c-22 -24 -96 -52 -107 -41 -15 15 69 65 111 66 18 0 18
-2 -4 -25z m68 -142 c14 -173 44 -352 79 -466 14 -48 24 -89 21 -92 -3 -3 -20
1 -39 9 -63 26 -119 1 -93 -41 19 -31 76 -63 111 -63 21 0 39 -7 50 -20 22
-26 49 -26 63 0 6 11 26 26 44 34 66 27 115 164 62 174 -28 6 -63 -17 -77 -50
-6 -16 -15 -25 -20 -21 -4 4 -17 89 -28 188 -12 99 -26 221 -32 271 -5 50 -16
115 -24 143 -13 50 -13 52 8 60 12 5 49 5 82 0 33 -5 75 -6 93 -3 27 5 32 3
33 -12 0 -11 5 -111 11 -224 16 -291 16 -480 -1 -580 -8 -47 -14 -108 -14
-137 l1 -51 -34 5 c-50 8 -117 -12 -239 -73 -75 -37 -117 -64 -130 -84 -35
-52 -35 -49 -14 145 9 84 9 109 -5 160 -8 33 -21 141 -26 240 -9 148 -31 315
-67 528 -5 23 -2 27 18 27 28 0 123 43 133 59 17 27 23 3 34 -126z m-244 55
c13 -21 41 -141 66 -285 6 -34 8 -74 4 -88 -6 -25 -7 -25 -25 -9 -48 43 -111
296 -94 375 8 35 29 37 49 7z m536 -563 c0 -9 -7 -30 -17 -48 -16 -31 -16 -31
-26 -10 -7 17 -6 29 7 48 19 28 36 33 36 10z m180 5 c0 -5 -4 -10 -9 -10 -6 0
-13 5 -16 10 -3 6 1 10 9 10 9 0 16 -4 16 -10z m-412 -98 c3 -17 0 -21 -15
-15 -26 9 -53 34 -48 43 10 16 60 -6 63 -28z m342 -127 c0 -86 -12 -140 -24
-105 -2 8 -7 23 -10 32 -8 27 15 192 25 176 5 -7 9 -53 9 -103z m-101 -174
c20 -13 -7 -27 -181 -101 -81 -34 -152 -68 -159 -76 -13 -16 -29 -19 -29 -5 0
41 128 123 260 168 73 25 89 27 109 14z m-448 -121 c-10 -25 -10 -24 -10 6 -1
17 2 47 7 65 l7 34 3 -40 c2 -23 -1 -52 -7 -65z m353 9 c-10 -12 -35 -29 -54
-39 -19 -10 -52 -32 -74 -49 -55 -44 -147 -42 -98 2 16 15 216 104 236 106 5
1 1 -8 -10 -20z m106 3 c0 -16 -34 -41 -130 -95 -29 -16 -23 -7 31 47 67 66
99 82 99 48z m-195 -102 c-10 -11 -23 -20 -29 -20 -6 0 0 9 14 20 32 25 38 25
15 0z m200 10 c-3 -5 -20 -19 -38 -30 l-32 -22 33 31 c32 30 49 40 37 21z
m-105 -34 c0 -7 -66 -46 -76 -46 -5 0 9 12 31 25 42 26 45 28 45 21z m-175
-46 c-7 -11 -69 -24 -87 -17 -7 2 3 9 22 15 46 13 73 14 65 2z"/>
<path d="M2830 2898 c-30 -49 -26 -85 10 -106 21 -12 35 -33 50 -74 12 -32 19
-62 16 -67 -3 -5 5 -35 18 -67 13 -33 31 -99 41 -148 9 -50 23 -105 31 -124
25 -61 22 -64 -58 -60 l-73 3 -8 -55 c-5 -30 -10 -70 -13 -89 l-5 -33 -28 26
c-31 30 -81 35 -102 10 -7 -9 -13 -40 -13 -72 1 -147 6 -220 19 -295 8 -45 15
-99 15 -119 0 -47 47 -193 67 -210 9 -7 32 -13 52 -13 l35 0 16 -97 c10 -63
22 -104 34 -117 30 -34 99 -61 168 -68 64 -6 65 -5 106 32 55 49 71 110 72
268 l0 77 25 -16 c21 -13 29 -14 62 -3 21 7 42 16 47 20 17 14 45 166 45 244
1 90 -14 244 -30 322 -15 74 -34 93 -110 109 -63 14 -64 13 -84 -11 l-20 -24
-17 30 c-10 18 -36 38 -62 50 -67 29 -92 79 -101 204 -5 64 -14 116 -27 145
-11 25 -29 74 -40 110 -11 36 -27 79 -36 95 -8 17 -16 45 -18 64 -3 34 -30 81
-52 89 -6 2 -21 -11 -32 -30z m97 -149 c18 -38 43 -129 35 -129 -4 0 -17 28
-30 63 -13 34 -28 70 -33 81 -8 14 -7 17 3 14 7 -3 18 -15 25 -29z m-7 -528
c0 -11 -31 -24 -39 -16 -3 3 1 10 9 15 19 12 30 12 30 1z m146 -26 c66 -17 97
-35 120 -70 14 -21 16 -41 10 -113 -12 -150 -12 -150 -59 -154 -30 -2 -43 -8
-45 -20 -2 -13 3 -18 17 -18 30 0 26 -27 -6 -42 -27 -13 -28 -16 -25 -88 1
-41 9 -115 18 -164 8 -49 12 -91 9 -94 -2 -3 -7 1 -9 9 -11 35 -36 198 -36
237 0 35 -6 48 -31 71 -28 26 -30 33 -25 68 l7 39 -53 10 -53 9 -8 50 c-10 70
-10 73 4 142 9 45 18 64 31 69 10 3 30 21 44 40 15 19 28 34 30 34 2 0 29 -7
60 -15z m-106 -3 c0 -5 -18 -23 -41 -41 -22 -18 -38 -38 -36 -45 2 -6 1 -20
-4 -31 -6 -15 -8 -11 -8 19 -1 30 6 45 33 72 33 33 56 43 56 26z m378 -47 c65
-46 92 -157 94 -381 1 -121 -1 -135 -26 -189 -27 -61 -47 -70 -26 -13 32 89
19 426 -19 478 -25 35 -64 37 -96 6 l-25 -25 0 48 c0 48 13 74 40 84 25 9 35
8 58 -8z m-543 -95 c9 -17 11 -30 5 -30 -5 0 -19 -9 -30 -20 -18 -18 -19 -30
-15 -142 l5 -123 -14 60 c-8 33 -15 78 -15 101 -1 72 26 184 45 184 2 0 10
-13 19 -30z m530 -49 c38 -43 26 -276 -15 -276 -27 0 -48 57 -50 135 -3 112
-1 127 16 144 20 21 27 20 49 -3z m-504 -37 c17 -46 27 -191 17 -241 -7 -32
-7 -58 2 -87 6 -23 14 -49 16 -58 4 -13 1 -16 -9 -12 -8 3 -26 44 -40 92 -21
69 -27 110 -28 199 -1 61 2 116 5 122 12 18 26 12 37 -15z m399 -83 c0 -6 -4
-13 -10 -16 -5 -3 -10 1 -10 9 0 9 5 16 10 16 6 0 10 -4 10 -9z m150 -263 c-7
-38 -16 -71 -21 -74 -26 -16 -79 74 -79 132 0 31 2 35 15 24 27 -22 54 -2 70
52 8 29 16 65 17 82 1 17 4 -9 6 -59 2 -49 -2 -120 -8 -157z m-399 172 c5 0 9
-4 9 -9 0 -10 -51 -22 -63 -14 -13 8 15 34 30 28 8 -3 19 -5 24 -5z m219 -39
c13 -25 13 -71 0 -71 -22 0 -90 41 -90 54 0 13 39 33 67 35 7 1 17 -8 23 -18z
m-406 -86 l6 -30 -15 25 c-8 14 -14 36 -14 50 0 23 1 23 8 5 4 -11 11 -33 15
-50z m234 56 c17 -11 12 -41 -9 -54 -35 -22 -94 20 -74 53 8 12 65 13 83 1z
m-149 -69 c0 -24 -1 -25 -9 -7 -12 28 -12 47 0 40 6 -3 10 -18 9 -33z m298 16
c60 -17 69 -44 65 -197 -1 -73 -8 -135 -15 -150 -11 -24 -18 -26 -107 -33 -52
-4 -106 -8 -120 -10 l-25 -3 -6 115 c-4 63 -10 134 -14 157 -4 23 -5 53 -1 66
5 21 13 26 51 29 l45 3 0 -37 c0 -27 -4 -38 -15 -38 -8 0 -19 -9 -25 -20 -15
-28 4 -60 35 -60 19 0 26 -7 31 -27 19 -90 57 -97 62 -12 3 49 6 58 28 68 21
9 25 17 22 44 -3 28 -6 32 -33 31 -37 -1 -45 10 -45 59 0 27 4 37 13 33 6 -3
31 -11 54 -18z m-228 -170 c11 -28 11 -148 0 -148 -16 0 -28 58 -29 142 -2
127 1 153 10 88 4 -30 13 -67 19 -82z m-79 -19 c0 -37 -20 -28 -55 23 -20 31
-35 65 -35 82 0 28 2 27 45 -28 25 -32 45 -67 45 -77z m448 45 c-4 -3 -12 5
-18 18 -12 22 -12 22 6 6 10 -10 15 -20 12 -24z m-273 -274 c-11 -5 -27 -9
-35 -9 -9 0 -8 4 5 9 11 5 27 9 35 9 9 0 8 -4 -5 -9z m150 0 c-3 -5 -17 -10
-31 -10 -13 0 -24 5 -24 10 0 6 14 10 31 10 17 0 28 -4 24 -10z m-45 -40 c12
-8 12 -10 -3 -16 -22 -8 -87 2 -101 16 -13 13 83 14 104 0z"/>
<path d="M3784 2472 c-47 -30 -72 -68 -79 -120 -10 -66 -83 -433 -88 -439 -2
-2 -7 20 -11 49 -14 106 -61 131 -93 51 -16 -42 -18 -77 -16 -281 1 -244 8
-292 43 -292 10 0 20 6 23 13 6 17 15 -40 26 -176 12 -144 25 -186 68 -236 39
-46 142 -101 187 -101 178 1 333 145 366 340 8 46 19 79 32 92 14 14 22 38 25
77 2 31 8 94 13 141 6 47 10 171 10 276 0 190 0 191 -25 218 -22 24 -25 35
-25 109 0 112 -13 154 -65 203 -61 59 -136 86 -260 91 -87 4 -104 2 -131 -15z
m95 -26 c-25 -6 -58 -21 -75 -32 -52 -37 -57 -39 -46 -18 24 45 57 62 122 63
l45 0 -46 -13z m225 -38 c62 -55 113 -254 100 -390 l-6 -66 -62 -11 c-33 -5
-83 -13 -111 -17 -27 -3 -56 -11 -62 -16 -9 -7 -13 -45 -13 -123 0 -62 -3
-133 -6 -159 -13 -91 -24 -43 -24 102 0 135 -2 151 -19 167 -21 18 -93 24
-181 15 l-45 -4 1 64 c1 66 55 301 81 353 30 59 138 105 255 106 56 1 71 -3
92 -21z m162 -600 c-3 -134 -9 -274 -14 -313 -14 -139 -20 -45 -11 205 4 140
8 276 9 303 0 27 5 47 11 47 8 0 10 -67 5 -242z m-696 160 c1 -24 3 -105 6
-180 4 -89 2 -157 -6 -190 -6 -29 -13 -63 -16 -76 -2 -13 -9 -20 -14 -17 -14
8 -13 460 0 486 17 31 30 22 30 -23z m567 -91 c-20 -5 -50 -6 -65 -1 l-27 8
35 5 c19 4 49 4 65 2 l30 -5 -38 -9z m-302 -17 c-24 -10 -185 -13 -168 -2 6 4
51 8 100 9 59 2 81 0 68 -7z m357 -160 c-3 -119 -10 -173 -38 -300 -41 -184
-71 -253 -151 -338 -57 -61 -59 -62 -111 -62 -67 0 -114 24 -175 89 -51 55
-54 65 -33 116 12 29 20 35 45 35 36 0 38 -3 46 -66 11 -96 16 -111 39 -133
30 -28 79 -30 114 -5 61 45 117 231 88 294 -17 37 -72 62 -123 56 -55 -7 -79
-23 -98 -63 -15 -31 -19 -33 -65 -33 -63 0 -67 6 -85 167 -12 101 -13 149 -5
232 6 58 16 111 22 118 7 9 38 13 94 13 45 0 94 4 107 9 l24 9 6 -92 c3 -51 2
-106 -3 -122 -4 -16 -9 -23 -9 -16 -2 24 -41 13 -52 -15 -8 -22 -5 -33 16 -65
19 -29 32 -39 45 -35 16 4 19 -2 22 -31 4 -42 25 -54 34 -18 3 14 32 50 65 80
57 54 77 91 65 121 -8 23 -54 18 -81 -10 l-25 -24 6 102 c3 56 7 107 9 114 5
14 30 18 130 18 l80 0 -3 -145z m-142 -89 c0 -10 -7 -24 -15 -31 -12 -10 -16
-9 -21 4 -3 9 -4 23 0 31 8 21 36 19 36 -4z m135 -322 c-23 -94 -29 -82 -8 16
9 43 19 72 21 66 2 -7 -4 -43 -13 -82z m-530 -19 c12 -14 13 -19 2 -35 -18
-23 -23 -10 -31 71 -5 53 -4 55 5 20 5 -22 16 -47 24 -56z m289 51 c17 -18 17
-20 -1 -29 -27 -15 -116 -18 -120 -5 -6 17 46 53 77 53 15 0 35 -9 44 -19z
m24 -138 c2 -25 -3 -39 -23 -59 -23 -23 -33 -26 -67 -21 -48 6 -59 20 -56 67
3 33 6 35 43 41 22 4 54 6 70 5 26 -1 30 -5 33 -33z m113 -91 c-5 -9 -20 -26
-32 -37 l-23 -20 15 25 c9 14 19 31 23 38 12 20 28 15 17 -6z m-182 -33 c-20
-13 -45 -11 -57 4 -8 10 -2 12 30 9 28 -3 36 -7 27 -13z"/>
<path d="M167 2290 c-15 -12 -29 -38 -36 -68 -8 -32 -19 -51 -34 -57 -29 -13
-35 -41 -36 -163 -1 -90 2 -107 19 -129 18 -23 20 -41 20 -150 0 -167 13 -192
107 -208 63 -10 131 4 166 34 37 34 44 73 36 199 -6 86 -4 97 14 115 18 18 19
28 12 150 -8 149 -15 174 -48 182 -13 4 -31 21 -41 40 -13 23 -33 40 -67 54
-60 26 -80 26 -112 1z m115 -58 c34 -32 34 -62 -2 -62 -32 0 -24 -29 13 -45
l32 -14 -27 -1 c-16 0 -37 -9 -48 -20 -19 -19 -20 -19 -30 0 -6 11 -17 20 -25
20 -23 0 -28 20 -9 35 16 12 17 17 7 34 -17 27 -16 41 4 63 23 25 48 22 85
-10z m117 -157 c1 -17 -1 -17 -9 -5 -5 8 -9 26 -9 40 0 23 1 23 9 5 5 -11 9
-29 9 -40z m-289 33 c0 -7 -5 -20 -10 -28 -8 -12 -10 -9 -10 13 0 15 5 27 10
27 6 0 10 -6 10 -12z m220 -84 c8 -8 15 -50 18 -93 l4 -78 -40 1 -40 1 -5 85
c-2 47 -2 88 0 93 7 13 50 7 63 -9z m-137 -1 c2 -5 1 -39 -2 -77 -6 -66 -8
-70 -34 -77 l-28 -8 6 72 c4 40 8 78 10 85 5 13 41 17 48 5z m47 -114 c0 -51
-4 -78 -10 -74 -5 3 -10 42 -10 86 0 51 4 78 10 74 6 -3 10 -42 10 -86z m157
24 c-3 -10 -5 -2 -5 17 0 19 2 27 5 18 2 -10 2 -26 0 -35z m-297 -11 c0 -15
-2 -15 -10 -2 -13 20 -13 33 0 25 6 -3 10 -14 10 -23z m258 -243 c-3 -49 -11
-87 -22 -103 -22 -35 -37 -33 -23 4 9 23 8 36 -5 64 -21 43 -47 52 -105 36
-53 -16 -61 -10 -69 54 -7 48 -7 49 17 43 13 -4 32 -7 42 -7 12 0 17 -8 17
-30 0 -47 22 -46 87 3 67 52 68 52 61 -64z m-103 -29 c4 -6 -5 -10 -20 -10
-15 0 -24 4 -20 10 3 6 12 10 20 10 8 0 17 -4 20 -10z m-68 -64 c15 -12 42
-28 58 -35 29 -11 28 -11 -13 -7 -27 3 -53 13 -68 27 -44 41 -24 55 23 15z
m78 14 c-3 -5 -13 -10 -21 -10 -8 0 -14 5 -14 10 0 6 9 10 21 10 11 0 17 -4
14 -10z"/>
<path d="M1949 2286 c-4 -4 -52 -11 -107 -15 -137 -12 -240 -58 -263 -118 -8
-22 -9 -22 -38 -5 -28 16 -31 16 -50 -2 -31 -28 -45 -83 -45 -176 0 -77 4 -94
43 -190 23 -58 45 -107 47 -109 2 -2 15 -4 29 -5 22 -1 30 -12 59 -77 44 -102
62 -126 170 -222 72 -64 107 -87 157 -105 73 -27 203 -47 300 -47 57 1 73 5
108 29 66 46 141 125 141 149 0 12 9 42 20 66 11 24 20 58 20 77 0 25 7 38 25
50 17 11 31 37 45 81 17 55 20 93 20 243 0 159 -2 179 -18 193 -25 23 -48 21
-66 -4 -14 -21 -15 -20 -49 27 -44 61 -66 74 -202 120 -94 31 -127 37 -225 41
-63 3 -118 2 -121 -1z m329 -67 c54 -18 96 -38 102 -49 14 -25 1 -31 -27 -13
-20 13 -29 14 -44 5 -12 -8 -20 -8 -24 -2 -4 6 -11 7 -18 3 -6 -4 -22 -7 -35
-8 -13 0 -27 -7 -32 -15 -8 -12 -10 -12 -16 3 -8 22 -20 22 -41 -2 -9 -11 -21
-17 -26 -14 -17 10 -77 -30 -77 -53 0 -21 4 -22 90 -20 50 0 90 -2 90 -5 0 -4
31 -4 68 -1 48 3 76 0 93 -9 13 -8 33 -14 43 -14 11 0 21 -6 24 -13 3 -10 -4
-12 -34 -5 -55 11 -215 5 -333 -13 l-34 -5 7 -72 c14 -158 18 -304 9 -310 -6
-4 -10 33 -10 96 0 131 -18 240 -47 273 -20 24 -28 25 -138 30 -64 2 -150 4
-192 4 l-75 0 23 25 c28 30 52 32 61 5 9 -27 25 -25 25 3 0 17 2 19 10 7 7
-12 16 -13 52 -3 24 6 65 9 92 6 32 -2 61 2 83 12 36 18 36 35 -2 35 -12 0
-25 7 -29 15 -4 11 -13 14 -31 9 -21 -5 -27 -2 -32 16 -5 18 -11 21 -37 16
-19 -3 -38 0 -50 9 -11 8 -37 15 -58 15 -51 0 -48 13 10 36 47 18 167 28 377
32 77 2 104 -3 183 -29z m-738 -123 c-1 -11 -7 -32 -15 -46 -29 -51 -13 -226
26 -279 21 -28 23 -70 4 -62 -13 5 -64 143 -76 209 -10 53 -2 127 20 184 12
32 41 28 41 -6z m1054 -43 c3 -21 6 -47 6 -58 -1 -18 -3 -17 -25 7 -21 24 -23
32 -14 58 15 40 25 38 33 -7z m-621 -92 c12 -12 -39 -15 -226 -14 -119 2 -152
8 -127 23 21 14 339 5 353 -9z m510 -10 c13 -13 -43 -14 -250 -4 -78 3 -140
10 -137 14 7 13 375 2 387 -10z m-497 -36 c20 -6 48 -204 32 -221 -3 -2 -33 9
-67 26 -33 17 -77 34 -96 37 -34 5 -35 4 -35 -25 0 -21 11 -43 31 -67 40 -45
78 -65 123 -65 27 0 40 -6 52 -25 20 -30 35 -32 52 -5 8 14 23 20 46 20 74 0
189 116 155 156 -18 22 -80 16 -128 -11 -23 -14 -44 -25 -46 -25 -1 0 -5 30
-9 68 -4 37 -10 85 -13 106 l-6 39 209 -7 c115 -4 210 -9 212 -10 1 -2 4 -79
4 -172 2 -182 -10 -256 -55 -338 -28 -53 -104 -91 -209 -108 -148 -22 -361 30
-423 104 -29 35 -23 51 21 51 18 0 34 -9 44 -23 8 -12 30 -39 49 -61 l33 -39
152 0 c148 1 152 1 191 28 35 24 40 33 43 71 6 76 -53 111 -190 111 -35 0 -81
5 -102 10 -57 13 -145 -5 -174 -36 -30 -31 -67 -31 -125 2 -60 33 -101 81
-120 141 -17 52 -37 182 -37 241 l0 37 187 -3 c104 -1 193 -4 199 -7z m261
-191 c2 -7 -7 -24 -20 -39 -23 -27 -24 -27 -55 -11 -18 9 -32 19 -32 21 0 9
75 44 89 42 8 -1 16 -7 18 -13z m-326 -20 c21 -10 25 -19 22 -39 -7 -33 -20
-32 -60 7 -57 55 -38 71 38 32z m73 -60 c4 -10 1 -14 -6 -12 -15 5 -23 28 -10
28 5 0 13 -7 16 -16z m161 -5 c-8 -12 -35 -12 -35 0 0 11 22 20 33 14 4 -2 5
-9 2 -14z m108 -150 c21 -5 35 -14 32 -18 -7 -12 -162 -34 -176 -25 -6 3 -54
9 -107 13 -95 6 -129 22 -83 39 29 10 287 4 334 -9z m-505 -11 c7 -7 12 -16
12 -20 0 -15 -15 -8 -28 12 -13 22 -3 27 16 8z m552 -71 c0 -7 -18 -23 -39
-35 -79 -45 -311 -26 -311 24 0 12 19 13 108 9 59 -4 127 -2 152 3 65 14 90
14 90 -1z m-202 -147 c70 -9 102 -8 166 4 44 9 81 14 83 12 10 -10 -76 -38
-116 -38 -88 0 -232 19 -244 32 -10 10 -8 12 6 7 10 -4 57 -11 105 -17z"/>
<path d="M816 2200 c-49 -6 -86 -16 -97 -26 -18 -16 -21 -15 -64 7 l-45 24
-38 -20 c-49 -27 -55 -71 -17 -145 26 -51 26 -55 15 -137 -6 -46 -15 -95 -20
-109 -16 -41 -11 -97 10 -131 24 -40 34 -40 84 -4 l39 28 31 -34 c23 -24 66
-46 174 -88 78 -30 149 -55 158 -55 9 0 44 16 78 35 72 40 76 41 76 18 0 -10
9 -33 20 -51 16 -27 26 -33 48 -30 39 4 54 40 47 113 -2 33 -8 108 -11 168
l-6 107 37 78 c60 125 61 129 15 152 -52 26 -63 25 -103 -10 l-34 -29 -33 46
c-62 86 -172 114 -364 93z m164 -29 c78 -13 111 -27 104 -45 -8 -20 -34 -28
-50 -15 -10 8 -20 5 -40 -15 -26 -24 -27 -26 -8 -32 44 -16 46 -26 13 -53 -30
-25 -32 -31 -41 -131 -6 -58 -14 -115 -19 -127 -12 -33 -33 -29 -25 5 31 138
30 189 -1 225 -21 22 -104 47 -160 47 -40 0 -43 2 -43 28 0 15 5 34 11 42 8
11 9 7 4 -17 -8 -40 8 -50 37 -24 22 21 58 20 85 -1 7 -6 21 -7 30 -3 10 4 29
8 42 9 13 0 26 6 28 12 4 11 -40 24 -83 24 -13 0 -33 9 -44 20 -11 11 -30 20
-42 20 -47 0 2 23 64 30 35 4 68 8 73 9 6 0 35 -3 65 -8z m-336 -27 c20 -20
20 -22 -4 -68 -13 -26 -17 -49 -13 -70 9 -48 -2 -29 -32 58 -23 65 -25 80 -14
87 21 13 46 11 63 -7z m611 -115 c-18 -32 -25 -38 -25 -23 0 21 38 79 46 71 3
-2 -7 -24 -21 -48z m-85 4 c0 -17 -41 -17 -65 1 -17 12 -15 13 23 12 27 0 42
-5 42 -13z m150 -4 c0 -29 -41 -120 -51 -113 -16 9 -10 54 14 94 24 44 37 51
37 19z m-448 -60 c24 -13 20 -43 -7 -47 -28 -4 -128 30 -133 46 -10 30 84 31
140 1z m285 -1 c10 -11 13 -25 9 -41 -5 -22 -10 -24 -48 -20 -109 11 -139 31
-107 70 17 20 122 14 146 -9z m-498 -210 c1 -9 -10 -29 -23 -45 l-24 -27 -6
40 c-11 66 -10 96 8 147 9 26 17 55 17 65 1 16 26 -144 28 -180z m18 155 c-3
-10 -5 -4 -5 12 0 17 2 24 5 18 2 -7 2 -21 0 -30z m166 -16 c49 -10 57 -15 57
-34 0 -28 -1 -28 -50 -3 -22 11 -55 20 -74 20 -19 0 -38 5 -41 10 -11 17 6 32
29 25 11 -3 47 -11 79 -18z m297 -20 c23 -2 25 -6 30 -66 3 -36 4 -82 1 -103
l-3 -40 -50 7 c-55 8 -142 36 -146 48 -7 22 3 27 57 27 66 0 111 26 111 64 0
28 -55 56 -110 56 -23 0 -40 5 -40 11 0 8 18 10 63 5 34 -4 73 -8 87 -9z
m-333 -35 c8 -5 6 -13 -7 -30 -22 -26 -24 -27 -44 -7 -30 30 13 61 51 37z
m278 -14 c30 -13 32 -24 6 -38 -26 -14 -31 -13 -31 5 0 9 -15 22 -32 30 l-33
14 32 1 c18 0 44 -5 58 -12z m-295 -67 c19 -5 47 -12 63 -15 41 -10 33 -23
-25 -40 -47 -13 -54 -13 -69 0 -20 18 -31 64 -15 64 6 0 27 -4 46 -9z m54
-131 c93 -47 118 -55 177 -58 71 -4 89 -16 43 -28 -18 -5 -64 8 -157 42 -125
47 -187 82 -187 107 0 8 3 9 8 2 4 -6 56 -35 116 -65z m436 -76 c0 -68 -30
-39 -50 49 -4 20 -3 42 2 52 9 15 13 11 29 -25 11 -23 19 -57 19 -76z m-321
95 c27 -5 57 -19 67 -30 22 -24 18 -24 -69 2 -113 34 -112 53 2 28z m181 -39
c0 -5 -12 -10 -27 -9 l-28 1 25 8 c14 4 26 8 28 9 1 1 2 -3 2 -9z"/>
</g>
</svg>
