<svg xmlns="http://www.w3.org/2000/svg" width="1274.667" height="565.333" viewBox="0 0 956 424"><path d="M.5 212c0 116.9.1 164.7.2 106.2.2-58.4.2-154 0-212.5C.6 47.3.5 95.1.5 212M632 25.3c-6.1 3-7.1 6-4.2 12.9 2 5 2.1 5.7.8 11.3-1.3 5.9-3 34.1-2.7 46 .1 3.3 1.3 15 2.6 26s2.3 23.4 2.3 27.6l-.1 7.7-5.6.5c-8.8.9-18.5 6.4-27.2 15.5-13 13.5-16 18.7-20.9 36.2-4.3 15.1-4.6 15.6-6 9.7-2.2-8.7-9.5-12.1-16.6-7.6-4.2 2.6-10.1 10.5-11.8 16.1-2.2 6.8-4 32.5-3.2 46.7 1.6 32.6 5.1 44.7 15.5 54.6 2.7 2.5 3.4 2.8 5.1 1.7 1.1-.7 3-1.2 4.4-1.2 1.3 0 3.5-.9 4.9-2s2.7-2 3-2 1.1 2.6 1.7 5.7c2.2 11.3 4.2 18.9 7.7 29.8 7.2 22.5 7 22.1 17.3 29 8.5 5.7 19.5 9.2 31 10.1 11.6.9 18.5-.6 31.3-6.8 14.4-6.9 19.7-12.8 25-27.3 2.6-7.3 6.7-26.6 6.7-31.6 0-3.2 1.5-3.9 2.4-1.2.4 1 2.1 3.5 3.9 5.6l3.2 3.9 6.3-1.2c7.9-1.6 12-4.3 15.2-10 2.2-4 2.5-5.9 2.9-17.5.2-7.2-.2-18.4-.8-25s-1.6-18.5-2.2-26.5c-1.2-17.1-2-21.5-5.6-33.3-2.1-6.9-3.4-9.4-6-11.7-1.9-1.7-4.4-3-5.6-3-3.5 0-11.4 8.6-13.5 14.8l-1.9 5.3-.6-8.3c-1.1-13.8-6.6-31.2-12.9-41-6.8-10.6-18.7-20.3-30.4-25.1l-5.9-2.3v-16c0-8.7-.8-22.6-1.8-30.8-1.3-11.4-1.6-18.6-1.1-31 .6-14.6.5-16.8-1.5-23.9-2.6-9.7-2.6-10.1.4-11.5 2.7-1.3 7.5-10.4 7.5-14.5 0-2.8-3.8-6.7-6.6-6.6-1 0-3.9 1-6.4 2.2m9 1.1c0 .2.3 1.2.6 2.1.6 1.5.4 1.5-1.5.4-2.5-1.6-2.7-2.9-.6-2.9.8 0 1.5.2 1.5.4m-4.8 12.8c-2 2-3.6-.5-2.1-3.3l1.2-2.4 1 2.3c.7 1.6.7 2.6-.1 3.4m-3.5 14.2c-.8 1.7-1.9 5.3-2.4 8.1l-.8 5-.3-5.4c-.2-4.1.1-5.7 1.2-6.3 1-.6 1.6-2.3 1.6-4.6.1-3.2.2-3.4 1.2-1.8.8 1.5.7 2.6-.5 5m3.1 11.3c-.1 2.4-.3 4.3-.4 4.3-.8 0-2.2-7.2-1.7-9.1.9-3.3 2.3-.1 2.1 4.8m-.4 8.8c1.1 1.6 1.4 3.4 1 4.7-.6 2-.8 1.9-2-1.1-1.3-3.2-1.8-6.1-1-6.1.2 0 1.1 1.1 2 2.5M633.9 87c.1 2.6-.2 3.1-.9 2-.5-.8-.9-3.3-.9-5.5 0-3.1.2-3.6.9-2 .5 1.1.9 3.6.9 5.5m4.6 46c.3 6.6.3 6.9-.5 2.5-1.8-10.4-4-26.9-3.9-28.9.2-3.7 3.9 18.7 4.4 26.4m-2.6 2c-.1 5.3-.6 4.4-1.2-2.4-.3-3-.1-4.3.4-3.5s.8 3.4.8 5.9m2.1 7.5c0 .8-.4 1.5-1 1.5-.5 0-1-.7-1-1.5s.5-1.5 1-1.5c.6 0 1 .7 1 1.5m-7.5 20.5c-2.7 1.2-4.3 1.2-2.5 0 .8-.5 2.2-.9 3-.9 1 0 .8.3-.5.9m16.1 4.1c2.7 1.2 6.9 3.8 9.4 5.8 2.5 2.1 6.6 5.2 9.2 6.9 8.3 5.6 15.8 18.1 15.8 26 0 2.4.8 8.2 1.7 12.8 1 4.6 1.5 8.6 1.1 8.9-1 1-10.4-2.1-13.6-4.5-2.8-2.1-3.3-2.1-12.8-1.1-5.4.6-12.8 1.2-16.4 1.4l-6.5.2-.3 3.5c-.4 4.2 1.6 6 6.9 6 8 0 12.9 1.2 12.9 3.1 0 1.3-1 2-3.7 2.4-12 2.1-16.6 5.2-17.9 12.1-.7 3.8 1 47.5 2.2 56.2.6 3.8.4 4.2-1.5 4.2-1.7 0-2.1-.7-2.2-3.3-1.6-42.1-2.5-52.4-5.1-57.2-2.8-5.3-4.7-6.3-18.5-10.1-1.7-.4-1.6-2.4.2-4.8 1.2-1.6 2.5-1.9 6.7-1.7 2.9.1 6 .9 6.9 1.7 1.4 1.3 1.8 1.3 2.8 0 1-1.2.5-2-3-4.6-6.4-4.6-12.5-6-26.5-6-11.6 0-12.4.1-13.5 2.2-1 1.8-.8 2.4 1.2 3.9 3 2.3 12.2 4.3 16.6 3.6 3.1-.5 3.4-.4 3.1 1.6-.3 2.1-.8 2.2-10.3 2.2-5.5 0-11 .4-12.2.8-3.1 1.1-3-1 .2-10.9 1.4-4.2 2.5-9.8 2.5-12.3 0-2.6.7-7.3 1.5-10.4 2.4-9.3 13.5-24.3 19.8-26.7 1.7-.7 5.5-3.7 8.3-6.7l5.2-5.4 6.8.2c3.8 0 8-.4 9.4-.9 4-1.7 8.4-1.4 13.6.9m-38.6 4.8c-1.2 1.7-2.6 3.1-3.1 3.1-.6 0 .2-1.6 1.7-3.5 3.2-4.3 4.5-3.9 1.4.4m76.8 42.6c0 2.9 0 2.9-.8.5-.4-1.4-.8-3.6-.8-5-.1-2.3 0-2.3.8-.5.5 1.1.8 3.3.8 5m-120.9 3c2.9 2.5 4.3 5.7 5.5 12.2l.5 3.1-3.1-1.5c-2.9-1.5-3.4-1.4-6.5.3-3.9 2-5.7 5-6.8 10.9-1 5.5-.6 42.6.5 50.5 1.1 7.6 5.1 18.4 8 21.5l2 2.1-2 4.2c-2 4.2-2.1 4.2-4.9 2.7-1.6-.8-3.2-2.2-3.6-3.2-3.6-9-4.8-14.7-6.4-30.4s-1.7-18.7-.4-27c.7-5.2 1.8-12.3 2.3-15.9s.9-9.9 1-14c0-6.9.3-7.9 3.5-12.8 4-5.9 5.9-6.4 10.4-2.7m149.2 7c1.3 3 2.6 11.5 4.4 29.1 1.4 13.7 3.4 30.5 4.6 37.4 2.8 16.1 2.4 29.9-1 35.3-4.7 7.6-13.3 12.1-17.7 9.2-3-1.9-6.4-7.7-7.1-12l-.6-3.6 4.7 2.3 4.6 2.2 2.1-2c1.2-1.2 3.6-7.6 6-16l4.1-13.9-1.1-11.5c-.5-6.3-2-15.6-3.1-20.5-1.5-6.1-2-10.6-1.6-14 .3-2.8.2-6.6-.3-8.6-.9-3.8-7.6-11.5-10.6-12.1-1.5-.3-1.5-.6.4-3 4-5 9.6-4.3 12.2 1.7m-168 29.6-1.9 8.4-.1-6c-.1-6.2 1.4-21.3 2.7-27.5.5-2.5.8-.7 1 6.6.2 7.2-.3 12.4-1.7 18.5m125.2-26.4c-1.3.2-3.5.2-5 0-1.6-.2-.5-.4 2.2-.4 2.8 0 4 .2 2.8.4m26.1 9.3c-.8 3-1.4 6.8-1.5 8.5 0 1.6-.4 3.9-.8 5-1.4 3.5-2.3-2.8-1.1-7.9.9-4.2 4.1-11.9 4.6-11.3.1.1-.4 2.7-1.2 5.7m-129.1-.3c.8 1.6 1.7 5.5 2 8.8.4 3.3 1.1 8.9 1.7 12.5 1.8 11.5-2 49.5-5.4 52.8-1.4 1.4-1.7 1.1-3.6-3-4.5-10.3-5.2-15.9-5.4-43.1l-.1-25.9 2.8-2.4c3.7-3.2 6.3-3.1 8 .3m118.9-.3c1.1 1.6 1 5.4-.2 6.1-1.1.7-11.5-1.2-14.1-2.5-.9-.4-4.2-1.1-7.5-1.5-5.5-.7-7.9-1.9-6.9-3.6.8-1.1 27.9.3 28.7 1.5m19.9 5.3c3.8 16.4 3.1 62.4-1.1 71.9-1 2.4-2.2 4.4-2.5 4.4-1.5 0-5.5-11.2-6.5-17.7-1.6-11.5.9-58 3.5-64.6.5-1.1 1.6-1.7 2.9-1.5 1.7.2 2.4 1.6 3.7 7.5m-42.9 2.4c20.4 4.1 23.6 6.1 23 14.7-.2 2.9-4.1 4.6-13.9 6.1-9.3 1.4-19.1 0-29-4.1-6.9-2.8-7.3-3.2-7.3-6.2 0-6 4.2-9.6 12.5-10.7 7.8-1 9-1 14.7.2m-57.7.9c2.2.6 5.6 1.3 7.5 1.6s4.3 1 5.2 1.5c4.4 2.4 6.7 13.9 3.1 15.4-1 .4-5.7 1.5-10.6 2.6-13.7 2.9-26.7.5-31.7-5.9-5.2-6.5.5-13.4 12.4-15.2 7.3-1.1 9.6-1.1 14.1 0m47 23.1c1.1 1.7 0 2-2.1.4-1.7-1.3-1.7-1.4-.2-1.5.9 0 2 .5 2.3 1.1m31 3.2c0 2-.4 3.8-1 3.9-1.3.4-2.9-4.6-2.2-6.7 1.2-2.9 3.2-1 3.2 2.8m29.9 15.2c.1 9.6-.3 12.7-1.7 15.5l-1.7 3.5.5-3.5c.3-1.9.6-10.7.7-19.5.1-12.7.4-15.2 1.1-12 .6 2.2 1 9.4 1.1 16m-44.6-16.8c-1 .2-1.8 1.4-1.8 2.6 0 1.6-.3 1.8-1.1 1-1.7-1.7-.3-4.3 2.3-4.2 1.7.1 1.8.2.6.6m-70.9 9.3c0 4-.3 4.9-.9 3.4-.7-1.9-1.4-8.2-1.1-10.9.1-.6.6-.3 1.1.5s.9 4 .9 7m43.3-2.3c.9-.3 1.9.2 2.2 1 .8 2.1 2.9 1.1 3.6-1.8.5-2.1.9-1.7 2.4 2.9 1.3 3.7 2.6 5.7 4.3 6.5 1.9.8 2.6.8 3.2-.2.6-.9 1-.6 1.5 1.1.3 1.2 2 3.9 3.6 5.8 2.9 3.3 3 3.3 4.5 1.5.8-1.1 1.5-2.6 1.5-3.3 0-.6.5-1.2 1-1.2.6 0 1-2.1 1-4.6 0-3.6.3-4.4 1.3-3.6.6.5 2.7 1.3 4.5 1.7 2.4.5 3.3 1.3 3.8 3.3.8 4.3 2 5.7 4.3 5.5 3.5-.4 5.5 5.6 4.6 13.7-.4 3.6-.9 14.1-1.1 23.5-.4 18.4-1.1 23.3-5 34-4.2 11.8-10.3 18.5-16.5 18.5-1.1 0-5.8 1.9-10.5 4.1-8 3.9-8.9 4.1-14.5 3.5-3.3-.4-10.4-.7-15.7-.7-9.1 0-9.9-.1-15.8-3.4-5.8-3.2-6.3-3.8-6.9-7.7-1.1-6.6-2.4-8.1-2.5-2.9v4.4l-2.6-2.4c-6.2-5.7-12-15.1-13.8-22.3l-.7-2.8 4.1 3.2c2.2 1.7 5.2 5.2 6.6 7.6s3 4.4 3.5 4.4c3.2 0-2.5-8.7-11-16.7-3-2.9-5.2-5.6-4.8-5.9.4-.4 1.8.3 3.2 1.6s4.6 3.6 7.2 5c3.9 2.1 4.9 3.3 6.6 8 2.7 7.4 10.4 15.1 17.7 17.6 4.5 1.5 8 1.9 18.7 1.7 11.4-.1 13.9-.5 19.2-2.6 8.4-3.4 15.2-8 19.2-12.9 3.2-4.1 3.4-4.7 3.4-12.3-.1-12-2.6-15.7-13.6-20.1-6-2.3-7.5-2.5-23-2.4-17.4.1-31.6 1.2-34.6 2.9-1 .5-3.6 2.8-5.8 5-3.5 3.7-4.4 4.1-8.7 4.1-5.5 0-6.2-.9-9.6-12-1.6-5.4-2-10.5-2.5-30.5l-.6-24 1.7 8.2c1 5.3 2.1 8.3 2.9 8.3 1 0 1.3-2.2 1.4-8.3.1-4.5.3-7.3.6-6.2.2 1.1.6 3 .9 4.2.6 3.1 1.8 2.9 3.1-.5l1-2.7.8 3c.5 1.6 1.5 3.5 2.3 4.1s2 4 2.6 7.5c.8 4.4 1.7 6.4 2.7 6.4 1.1 0 1.5-2 1.8-9l.3-9 1.2 5.5c1.1 5.6 3.1 6.7 3.1 1.7 0-2.2.5-2.9 2.5-3.4 3.3-.8 5-2.2 5-4.2 0-1 .9-1.6 2.5-1.6 1.9 0 2.7.6 3.1 2.5 1.5 6.7 3 6.8 3.9.2 1-7.1 1.1-7.2 1.9-1 .4 3.2 1.2 6 1.7 6.3.5.4.9 1.5.9 2.6 0 1.6-.3 1.8-1.9.9-6.9-3.7-12 3-7.1 9.3 1.1 1.4 3.7 3.1 5.8 3.8 4.6 1.5 5.2 2.3 5.2 7.5 0 4.7 1.4 6.4 5 6.4 4.4 0 6.2-2.9 5.5-8.6l-.7-4.9 4.2-.2c7.8-.2 10.3-5.7 5.3-11.3-2-2.3-4-3.3-7-3.7l-4.3-.6v-7.1l.1-7.1 1.7 2.8c1.1 1.8 2.3 2.6 3.4 2.4m42.7 6.8c0 1.1-.4 2.9-.9 4-.7 1.9-.8 1.8-1.3-.5-.3-1.4-.8-3.7-1-5.2-.3-2.3-.2-2.5 1.5-1.5 1 .7 1.8 2.1 1.7 3.2m-61.9 7.4c0 1.2-2.9 3.5-3.6 2.8-1.1-1 .5-3.7 2.1-3.7.8 0 1.5.4 1.5.9m23.2 1.4c1 1.5 1 4.1.1 5-.6.6-7.3-5.9-7.3-7.1 0-.9 6.4.9 7.2 2.1m-19.7 3.7c.3.5-.3 1-1.5 1s-1.8-.5-1.5-1c.3-.6 1-1 1.5-1s1.2.4 1.5 1m-53.1 19.6c-.7 3.6-5.5 9.4-7.8 9.4-1.9 0-1.3-1.8 3.1-8.7 1.8-2.9 3.3-6.2 3.4-7.5.1-2 .2-1.9 1 .7.5 1.6.6 4.4.3 6.1m118.3 8.1c-.3 1-.5.2-.5-1.7s.2-2.7.5-1.8c.2 1 .2 2.6 0 3.5m-28.5 9.8c5.7 2 10 6.7 9.6 10.4-.4 3.1-5.1 6-15.3 9.3-9.1 2.9-22.4 2.9-39.2-.1-15.6-2.7-17.3-3.4-17.3-6.5 0-4.8 1.7-7.1 7.5-10 4.9-2.5 7.9-3.1 19.4-4.2 16.4-1.5 28.9-1.2 35.3 1.1m-65.3 11.1c.7.6-1.1 2.4-2.3 2.4-.8 0-2.4-.9-3.7-2l-2.4-2 4 .6c2.2.4 4.2.8 4.4 1m76.1 8.8c0 3.8-7.5 11.3-15.2 15.2-6 3-8.4 3.6-18.4 4.5-19.1 1.8-27.8-1-34.6-11.3-4.3-6.3-3.9-7.2 3-6.3 3.1.3 7.3 1 9.2 1.5s8.4 1.4 14.3 2.1c13.3 1.6 21.4.4 32.6-4.6 4.2-1.8 7.9-3.4 8.4-3.4.4-.1.7 1 .7 2.3M603 385c1.7.7 3 1.9 3 2.7 0 2.3-7.6-2.5-12.1-7.6-5.7-6.5-4.7-7.9 1.1-1.6 2.8 2.9 6.4 5.8 8 6.5m60.5 1.5c-7.7 3.7-12.1 4.2-5 .7 3.3-1.7 6.9-3 8-3 1.2 0-.1 1-3 2.3m-31.7 6.5c4.4 1.7 6 1.9 9 1 5.2-1.4 7.9-1.3 6.4.2-1.8 1.8-15.9 2.1-23.7.5-4.7-1-6-1.5-4-1.7 2.3-.1 7-1.4 7-1.9 0-.1 2.4.8 5.3 1.9M828.2 93.8c.3 6.2 1.1 11.9 1.9 13.3.9 1.7 1.3 6.3 1.2 16-.1 16.4-.7 19.3-4.1 21.8l-2.7 1.9-.1-8.3c0-8.9-1.4-12.5-4-10.4-1.5 1.3-1.9 6.1-.6 8.7.5.9.5 7.1.1 13.7-.4 6.9-.3 12.4.2 12.9.5.6.9 1.9.9 3 0 1.8-.1 1.8-1.2.4-1.2-1.5-1.9-1.5-6.8-.2-3.7 1-6.7 1.2-9 .7l-3.5-.9-.5-16.6c-.5-17-1.2-19.7-4.5-18.5-1.3.6-1.5 1.9-.9 8.7.6 7 .5 8-1 8-.9 0-1.6.7-1.6 1.5s.5 1.5 1 1.5c1.5 0 1.2 12.3-.2 14.2-.9 1.1-3.7 1.7-9.1 2.1-12.2.9-19.2 5.5-24.9 16.4-1.4 2.9-2.6 2.9-5.6.1l-2.3-2.3-3.7 2.2c-5.7 3.2-8 9-11.2 28.1-5.5 32.3-5.8 65.6-.8 78.5 1.4 3.5 4.7 4.3 8.8 2.2l3.3-1.7-.6 6.6c-.7 7.5 1.4 27.8 3.8 37.1 3.3 12.5 10.8 35.1 12.8 38.5 4 6.9 8.6 11.7 18 18.9l9.6 7.3 10.8-.5c12.4-.6 20.3-2 25.3-4.8 1.9-1 5.6-2.7 8.2-3.8s5.2-3 5.9-4.3 2.6-3.9 4.3-5.9c10.8-12.7 20.3-42.7 21.3-67.1.4-8.7.7-10.6 1.9-10.1 2.2.8 7-1.6 8.2-4.1 3.3-7.3 4.5-31.6 2.4-49.1-.6-5.5-1.7-17.9-2.3-27.5-1.4-20.8-1.9-23.4-5.9-28.3-2.5-2.9-3.8-3.7-6.3-3.6-4.5.1-6.7 1.1-8.1 3.8-1.2 2.2-1.3 2.2-4-2.1-1.6-2.4-4-5.6-5.5-7.1-2.9-3.2-11.9-8.1-16.9-9.2-1.8-.3-3.6-1.4-4.1-2.3-1.4-2.8-2.3-15.9-1.2-17.9.5-1 3-2.9 5.6-4.2l4.7-2.3-.6-10.2c-.9-14.7-1-36.2-.3-43.1 1-8.7.9-9.5-.4-11.1-.6-.8-2.3-1.4-3.7-1.4h-2.5zM818 169.1c0 .5-1.7.9-3.7.8l-3.8-.1 3-1.3q4.5-1.95 4.5.6m-21 1.9c0 .6-3 1-7.1 1-4.4 0-6.8-.4-6.4-1 .3-.6 3.5-1 7.1-1s6.4.4 6.4 1m13.2 5.1c2.3 1.2 6.9 2.4 10.2 2.6 3.4.3 7.8 1.4 9.8 2.4 4.3 2.2 5.2 2.3 4.2.8-.3-.6.9-.3 2.7.7 2.8 1.4 3.1 1.8 1.6 2.3-1.4.5-.8 1.2 2.9 2.9 2.5 1.3 4.5 2.4 4.3 2.6-.2.1-4.7-.1-9.9-.5-9.3-.8-15.1-.4-17.9 1.1-2.6 1.4 3.3 4.2 8.1 3.8 4.2-.3 4.3-.2 4.6 3.1l.3 3.3-5.3-.6c-4.3-.5-5.9-.3-8.6 1.4-3.4 2.1-6.2 7.1-6.2 11.2 0 1.6-.7.8-2.4-2.7-3.2-6.9-7-9-15.8-8.6l-6.8.2V196h8.2c7.2 0 8-.2 6.8-1.5-2-1.9-27-4.2-32.4-2.9-2.2.5-4.1 1.4-4.3 2.1-.5 1.4 5 3.3 9.8 3.3 4 0 6.9.8 6.9 1.9 0 1-13.9.1-17.9-1.1-3.2-1-3.3-1.2-2.7-5 .8-5.1 4.6-13.2 7.5-16.1 2.6-2.7 7.9-3.3 22.9-3 13.2.3 15.9.6 19.4 2.4m9.3 0c1.4 1.4-2.4 1-6.5-.7l-3.5-1.4 4.5.5c2.5.3 4.9 1 5.5 1.6m-66.7 15c.3 4.4.2 4.7-2.6 5.2-2.3.5-3.3 1.5-4.7 4.9-3.4 8.5-6.5 26-7.2 40.1-.3 7.5-.8 13.5-1.1 13.3-.8-.8-.2-21.8.9-30.6 1-8.5 6.8-30 9.6-35.3 2.2-4.4 4.7-3.2 5.1 2.4m-10.8 7.4c-2.9 9.3-4.1 9.9-1.6 1 1.7-6.3 3.5-10.9 4.1-10.4.2.3-.9 4.5-2.5 9.4m126.4-2.2c3.9 5.1 4.6 8 6.1 26.6.8 9.7 1.9 23.9 2.6 31.6.9 10.8.9 16.7 0 26.3-1.4 14.5-2.2 16.9-5.5 17.8-5.5 1.3-6.3-3.6-1.4-9.2 3.2-3.6 3.2-3.8 4-17.3.4-7.6.3-16.2-.2-19.6-.5-3.3-1.8-11.4-2.9-18-1-6.6-2.2-15.6-2.6-20-.8-9.1-2.6-14.3-5.7-16.7-1.9-1.4-2-1.9-.9-3.2 2-2.4 3.7-2 6.5 1.7m-23.6-.8c3 .6 5.2 2.9 5.2 5.4 0 1.2-3.6 1.4-10.4.5-4.2-.6-4.6-.9-4.6-3.4 0-3.4.8-4.2 4-3.6 1.4.3 4 .8 5.8 1.1m-87.8 3.2c-.1 2.8-.3 3.4-1 2.2-.8-1.4-.3-5.9.6-5.9.2 0 .4 1.7.4 3.7m96.7 3c-.4 1.5-.5 1.5-.6-.3 0-1.2-.8-2.4-1.6-2.8-.8-.3-1.5-1-1.5-1.6s.9-.2 2.1.9 1.9 2.7 1.6 3.8m-101.8 2.4c.1 2.4-.4 10.5-1.3 17.9s-2.1 17.7-2.6 22.9c-.8 7.1-1.9 11.3-4.6 16.9-1.9 4.1-3.7 7.3-4 6.9-.3-.3-.1-9.2.5-19.9 1.5-27.2 6.5-50.8 10.4-49.5.7.2 1.4 2.3 1.6 4.8m112.1-1.2c.5 1.1 1.5 6.6 2 12.3.6 5.7 1.7 13.9 2.6 18.3 2.5 13.8 4 37.4 2.6 44.5-.6 3.5-1.4 6.5-1.7 6.8-1.1 1.1-4.5-3.3-5.5-7-1.8-6.5-2.9-27.7-1.8-34.3 1.1-6.7.6-14-1.8-26-1.3-6.5-1.4-8.9-.5-12.3 1.3-4.6 2.5-5.3 4.1-2.3m-60.4 4.6c4.4 4.7 5.5 10.2 2.5 12.6-2.6 2.2-11.3 4.1-17.2 3.8-5.8-.2-14.2-1.9-15.3-3-.6-.5-2.1-.9-3.5-.9-3.5 0-10.5-4.1-10.9-6.4-.5-2.6.6-6.2 2.4-8 1.3-1.3 4.6-1.6 20.1-1.6h18.6zm46.3-1.2c2.3 1.1 2.6 1.8 2.6 6.7-.1 8.6-.5 9-7.7 9-6.4 0-21.5-1.7-25.8-3-2.3-.6-2.5-1.1-2.1-5.6.4-6.3 1.5-8.2 4.8-8.8 4.9-.8 25.5.4 28.2 1.7m4.8 9.4c-.3 1-.5.4-.5-1.2 0-1.7.2-2.4.5-1.8.2.7.2 2.1 0 3m-101.2 8c-.4 3.5-.9 6.2-1.2 5.9-.3-.2-.2-3.8.2-7.8.5-4 1-6.7 1.3-6 .2.8.1 4.3-.3 7.9m60.9 10.8c.3 7.1.2 16.4-.2 20.5l-.8 7.5-.7-5.5c-.4-3-.8-13.2-.9-22.7-.2-13.3 0-16.7.8-15 .7 1.2 1.5 8 1.8 15.2M764 221c.8.5 1.2 1.1.9 1.4s-1.4-.1-2.5-.9c-2.1-1.6-.8-2 1.6-.5m59.8 11.8c.9 7.3.9 10.7 0 13.5s-.9 4 0 4.9c2.1 2.1 2.6 0 3-12.2.4-10.4.7-12 2.1-11.8 1 .2 1.5-.4 1.5-1.5-.1-.9.3-1.7.8-1.7.7 0 .8 1.8.4 4.9-.6 4.7.6 7.8 1.8 4.6.7-1.9 2.6-2 2.6-.1 0 .7.7 1.9 1.5 2.6s1.5 2.7 1.5 4.4c0 4.1 1 7.6 2.2 7.6.5 0 .7-2.8.2-6.9-.4-4.4-.3-7.1.4-7.5.6-.4.8-2.2.5-4.4l-.5-3.7 2.1 3.7c1.2 2.1 2.1 5.6 2.1 7.8s.4 4 .9 4c1 0 2.7-4.5 3.4-9 .2-1.4.5.6.6 4.4.1 6 .3 6.7 1.6 5.6 1.2-1 1.5-.9 1.5.4 0 .9.7 3 1.5 4.7 1.2 2.1 1.7 7.3 2 19.7.3 10 1.2 21.5 2.4 28.7 2.7 15.8 2.8 27.5.3 30.6-1.7 2-2.9 2.3-10.5 2.5-10.1.2-10.3 0-6.2-8.8 2.4-5.2 2.4-6.5.4-11.9-1.1-2.7-8-7.8-14.3-10.4-4-1.7-9-2-8.1-.5.3.5 1.7 1 3 1 2 0 3.5 1.6 3.5 4 0 1.1-7.3.8-8.1-.3-.7-1-3.2-1.1-8.9-.3-4.1.5-4.2.5-1.2-.4 1.7-.6 3.2-1.3 3.2-1.5 0-1.1-20.8.8-25.4 2.2-2.9.9-6.5 3.2-9.2 5.7-4.3 4.2-4.4 4.4-4.6 11.2 0 3.8-.1 7.8 0 8.9 2.1 31 1.7 28.9 6.6 37.8 6.6 12.2 10.5 14.8 22.4 15.2 6.7.3 7.6.1 12-2.9 7.2-4.9 17.3-20.5 21.3-32.9 2.5-7.8 3.6-9.8 5.3-10.1 1.1-.3 5.3-1.2 9.1-2 11.8-2.7 11.8-2.7 8.5 6.9-2.3 6.7-2.3 6.8-1 6 1.4-.9 1.3-.3-2.1 9.5-4.3 12.3-10.1 21.6-17.7 28.3-6 5.3-6.6 5.6-15.4 7.2-5 .9-11.3 2.5-14 3.6-6.7 2.6-11.8 2.4-18.1-.7-7.1-3.6-14.7-8.7-14.7-9.8 0-.5-2.2-4.4-5-8.6-4-6.3-5.3-9.6-7-17.1-1.1-5.2-3.6-16.6-5.5-25.5-5.3-24.3-6.4-40-5-71.7.6-13 1-15.6 2-14.7 1.5 1.2 1.4 1.4 3.4-11.5l.9-6-.3 6.7c-.2 3.8 0 6.8.5 6.8 1.1 0 2-2.6 2-5.8.1-2.3.2-2.5 1.1-.9.6.9 1.5 1.5 2 1.1.7-.4.9 1.2.7 4.6-.2 3.9.1 5.4 1.1 5.8q1.35.45.9-.9c-.3-.8-.2-3.4.2-5.9.7-4.4.8-4.3.9 2.1.1 8.1-.8 13.6-2 11.7-.6-.9-.9-.2-.9 1.9 0 5.1 2.6 4.2 3.4-1.2.4-2.4 1.1-4.7 1.7-5 .5-.4 1-3.9 1.1-7.8l.2-7.2.3 6.2c.2 3.5.8 6.3 1.3 6.3.6 0 1-.7 1-1.5 0-.7.6-1.8 1.4-2.2.7-.4 1.6-1.5 1.9-2.3s.6 1.9.6 6c.1 8.1.8 12 2.2 12 .4 0 1.1-1.7 1.4-3.8 1.4-8.1 3.8-17.2 4.6-17.2.5 0 .9-2.2.9-5 0-3.9.4-5.2 2-6 1.8-1 2-.8 2 2.3 0 1.8.5 3.8 1.1 4.4.8.8.8 3.3 0 9.4-.9 7.1-.9 8.5.4 9.8 2.4 2.4 4.2-.1 2.6-3.6-.9-1.9-.9-2.9-.2-3.1.6-.2 1.1-2.5 1.1-5.2 0-4.3.2-4.8 2-4.3 1.1.3 2 .9 2 1.4s.9.9 2 .9c1.5 0 2-.7 2.1-2.8.1-2.6.1-2.5.9.6 1.4 5.8 2 4.8 2.2-3.4l.1-7.9.8 9c1 12.3 1.1 25.5.2 25.5-.5 0-2.8-.7-5.2-1.6-6.9-2.4-16.1-1.4-18.3 2-.4.6-.5 2-.2 3.1 1.7 5.7 9 9.4 18.2 9.5h6.2v9.9c0 10.5 1.2 13.6 4.9 12.9 1.4-.3 1.6-1.9 1.6-11l-.1-10.6 3.3.5c1.7.3 6.2 0 9.8-.7 5-1 7-1.8 8.2-3.6 1.4-2.2 1.4-2.6-.1-4.9-3.2-4.9-7.4-6.7-14.3-6.2-4.1.3-6.3.1-6.5-.7-.2-.6-.1-6.5.2-13.1.5-11.2.6-11.8 2-9l1.3 3 .8-6c.4-3.3.5-7 .2-8.3-.3-1.2-.1-2.2.5-2.2.5 0 1.4 4.4 2 9.8m-18.8-5.1c0 2.2-.2 2.5-1 1.3-1.3-2-1.3-4 0-4 .6 0 1 1.2 1 2.7m45.3-2c-.7.2-1.3 1.7-1.4 3.1 0 2.4-.1 2.5-.9.7-1.4-3.3-1.1-4.5 1.3-4.4 1.2 0 1.6.3 1 .6m-86.6 5.5c-.2 1.3-.4.5-.4-1.7-.1-2.2.1-3.2.4-2.3.2 1 .2 2.8 0 4m18.2-.9c-.1 3.1-.1 3.1-.9.7-1.1-3.6-1.1-5.2 0-4.5.6.3 1 2.1.9 3.8m-15.2 3.4c-.3 1-.5.4-.5-1.2 0-1.7.2-2.4.5-1.8.2.7.2 2.1 0 3m-16 20.5c-.2 1.3-.4.5-.4-1.7-.1-2.2.1-3.2.4-2.3.2 1 .2 2.8 0 4m-11.9 18.6c.9-.2 3-3 4.7-6.5s3.2-6.3 3.5-6.3.6 4.7.8 10.3c.3 10.9-.5 14.7-4 18.4-5.6 5.9-7.9.3-7.6-18.4.1-9.7.3-11.3.5-5.5.3 7.2.6 8.3 2.1 8m58.4-9.6c.2 2.6 1 3.7 3.8 5l3.5 1.8h-4c-7.3 0-15.4-6.6-11.3-9.1.7-.5 2.7-.9 4.5-.9 2.9 0 3.2.3 3.5 3.2m9.6 0c1.9 1.9 1.4 3.8-.9 3.8-2.9 0-5.9-1.8-5.9-3.5 0-1.8 5.1-2 6.8-.3m28.7 3.5c.3.9 0 2.2-.7 2.9-1.8 1.8-14.8 3.8-16.2 2.4-.7-.7-.3-1 1.3-1 1.3 0 4.1-.5 6.2-1.2 3.5-1 3.9-1.4 3.9-4.5 0-3.3 0-3.3 2.4-1.8 1.3.9 2.7 2.3 3.1 3.2m-10.7-3.1c3.5 1 2.6 3.2-1.8 4.4-4.5 1.2-6 .7-6-2 0-1.1.9-2 2.3-2.3 1.2-.2 2.4-.5 2.7-.6.3 0 1.5.2 2.8.5m-10.6 19.6c.3 3.7.1 7.3-.3 8-.5.7-.9 1.1-.9.8s-.2-5.5-.4-11.5c-.3-11.5.9-9.5 1.6 2.7m51.9 7.5c-.9 1.6-1.1 1.5-2-1-.6-1.6-1.1-3.8-1.1-5 0-1.9.3-1.8 2.1 1 1.5 2.4 1.8 3.7 1 5m-114.2 11.8c.6 7.9 2.4 19.9 4.1 27.5 1.6 7.4 3.9 18 5 23.5 1.2 5.5 2.3 10.9 2.7 12 .3 1.1.3 1.7-.1 1.4-1.1-1.1-10.6-33.1-12.1-41.2-2.2-11.9-3.1-26.4-2.1-32.4.5-2.9 1.1-5.2 1.2-5 .1.1.7 6.5 1.3 14.2m69.1 4c1.9.1 5 .2 6.9.3l3.4.2-.7 5.5c-.8 6.7.5 7.1 3.1 1 2-4.9 2.4-5.2 4.3-3 1.4 1.7.7 9.9-1 12-1.6 1.9-9 2.5-12.5 1-2.8-1.1-3.1-1.7-2.7-4.4.6-4-1-4-2.9.1-1.6 3.6-6.2 5.6-13.6 5.7-3.3.1-4.6-.4-6.1-2.4-2.1-2.7-4.2-3.3-4.2-1.2 0 .7-.6 2.2-1.4 3.2-1.4 1.9-1.4 1.9-4.9 0-2-1.1-3.5-2.6-3.4-3.5.3-2.6-1.7-2.6-3 0-.7 1.4-1.4 2.9-1.7 3.5-.2.6-.8.5-1.6-.2-1.8-1.7 1.1-9 5-12.8 3.1-3 4.5-2.7 5.2 1 .6 3.4 2.3 2.2 2.8-2 .9-7 7-5.6 7 1.6 0 4 1.3 5.2 2.4 2.3.3-.9.6-2.6.6-3.9 0-5.4.7-5.8 8.4-5 3.9.4 8.7.9 10.6 1m-41.1 24.4c1.1.7 1 1.3-.4 3.5-1 1.4-1.9 2.6-2.1 2.6s-.4-1.6-.4-3.5c0-3.6.5-4.1 2.9-2.6m35.4-.2c-.7.2-2.1.2-3 0-1-.3-.4-.5 1.2-.5 1.7 0 2.4.2 1.8.5m15.2 4c-.3 1.8-.1 3.3.5 3.5s-.3 2.9-2.2 6.3l-3.3 6-.3-4.3c-.5-6.1-1.9-5.2-3 2-.7 5-1 5.5-1.1 2.5 0-2-.5-3.7-1-3.7-1.5 0-1.9 3.8-1 8.1 1.1 4.8.7 8.8-.5 5.4-2.7-7.2-3.1-7.2-3.4-.3-.3 7.2-.5 7.5-7.5 11.2-3.8 2.1-4.6 2.2-5.1.9-1.1-2.8-.6-11 .9-15.3 1.9-5.3 1.9-6 0-6-1.6 0-4.5 8.5-4.5 13.1 0 3.8-1.7 7.9-3.2 7.9-.8 0-2.2-1.6-3.2-3.5-1.8-3.4-1.9-3.7-.3-7.1 2.1-4.2 2.1-4.4.3-4.4-.7 0-2 1-2.8 2.2-1.4 2-1.5 2-4 .4-3.1-2-4.4-5.3-5.2-12.5-.6-5.6.7-9.4 4-12.2 1.6-1.3 1.6-1.2 0 2-2.7 5.2-.5 5.8 3.1.8 4-5.7 6.9-6.6 9.1-2.6 2.3 3.9 4.8 3.8 5.6-.2.6-3 .8-3.1 4.4-2.5 2 .3 5.2.6 7 .6 3 0 3.2.2 3.2 3.5 0 2.3.5 3.5 1.4 3.5 1.7 0 2.6-2.1 2.6-5.9 0-2.6.2-2.7 5.1-2.7l5 .1zm.5 17c0 .5-1 1.9-2.1 3.3l-2 2.5 1.6-3.3c1.5-3 2.5-4.1 2.5-2.5m-60.2 26.8c-.5.5-6.8-9-6.8-10.2 0-.4 1.6 1.6 3.6 4.5 2 3 3.4 5.5 3.2 5.7m44.6-4.4c-1 1.1-2.8 2.5-3.9 3.1s-.4-.4 1.5-2c4.1-3.6 5.1-4.1 2.4-1.1M471.8 130.6c-9.3 4.8-14.6 12.2-18.6 25.9-2.7 9.3-4.2 20.5-4.2 32.1v9.5l-2.9-2c-1.6-1.2-3.8-2.1-5-2.1-5.3 0-7.6 15.3-4.7 32.7.9 5.4 2 14 2.6 19.1 1 8.9 3 15.4 8.4 27.4 4.1 9.2 8.5 11.6 12 6.6 1.3-1.8 1.5-1.2 2.1 5.4.7 7.6-.6 20.8-3 31.2-1.7 6.9-2 23.2-.5 27 2.6 6.9 27.6 5.9 43.2-1.8 6.5-3.2 9.1-6.1 14-15.6 2-3.9 2.3-6.5 2.8-20 .4-10.7.2-17.7-.7-22.5-1.9-10.5-1.8-11.1 1.6-7.3 2.5 2.7 3.3 3.1 4.8 2.2 5.2-3.2 9.1-25.1 10.8-59.4.6-13 .5-15.5-1.5-23.8-1.8-7.8-2.8-9.9-5.6-12.8-6.1-6.1-8.6-4.7-11.4 6.5-1.6 6.2-2.2 4.5-.9-2.5 1.4-7.4.7-22.8-1.3-27.4-1.8-4.2-16.6-22-20.7-24.9-4.3-3.1-11.2-6.1-14.1-6-1.4 0-4.6 1.1-7.2 2.5m17.4 7.3c10.4 7.5 17.3 18.7 18.3 29.7.4 3.2.2 7.2-.3 8.9l-.9 3-.8-3.8c-.9-4.6-2.8-4.4-3.6.4-.4 2.2-.7 2.6-.8 1.1 0-1.2-.5-2.2-1-2.2-2.2 0-4.1 1.3-4.2 2.9q0 1.5-.6.3c-.5-1.4-3.3-1.7-3.3-.3 0 .6-1.4 2.5-3 4.3-1.7 1.8-3.3 4.1-3.6 5.2-1 3 2.9 5.1 9.8 5.2 3.7.1 6.5.7 7.6 1.7.9.8 2.6 1.7 3.6 1.8 2.8.6 3.1 2.6.4 3.2-1.3.3-6.7 1.1-12 1.7-13.3 1.7-13.3 1.6-10.3 15.5 1.3 6 2.8 15.7 3.4 21.5s1.8 16.1 2.6 23q3.45 27 1.8 27c-.5 0-1.5-2.4-2.2-5.3-.7-2.8-2.4-9-3.7-13.6-3-10.5-6-27-6.8-37.6-1.6-19.6-2.8-27.5-4.5-28.4-1.6-.9-10.1.2-12.2 1.4-.5.4-.9-.7-.9-2.4 0-1.6-.3-3.8-.6-4.8-.6-1.6-.5-1.6 1 .2 1.6 2 1.7 1.9 5-1.9 1.8-2.1 3.8-3.6 4.3-3.3.6.4 1.8 0 2.8-.7 2.6-1.8 1.3-5.7-3.4-10.8-3.8-4-4-4-7-2.7-2.3 1-3.4 2.4-4.2 5.1-1 3.7-2.2 4.7-3.4 2.8-.3-.5.8-8.3 2.4-17.2 1.7-9 3.3-18 3.6-20.1.5-3.1 1.5-4.4 5.1-7 6-4.2 12.5-7.7 14.5-7.7.9 0 4 1.8 7.1 3.9M456.9 164c-1 6.3-2.3 12.8-2.8 14.5-1.6 5.2-1.3-8.1.4-15.1 1.3-5.8 3.5-11.7 4.1-11.2.1.2-.6 5.5-1.7 11.8m54.2-5.5c1.5 3.2 1.8 6.3 1.7 15l-.1 11-.7-9c-.8-11-1.7-14.8-4.3-20-1.8-3.6-1.8-3.8-.2-2.5 1 .8 2.6 3.3 3.6 5.5M526 185c5 7.1 6.5 31.7 3.4 59.2-1.2 11.4-2.1 15.4-4.2 19.8-1.5 3-3.2 5.6-3.9 5.8-2.1.6-4.4-5.7-5.6-15l-1.1-9 3.3-2.8c4-3.2 4.9-7.4 5-24.2.1-11.3-.7-14.9-4.1-18.5-2-2.1-2-2.6-.8-8 2.5-11.3 4.1-12.8 8-7.3m-72.3 6.7c-.3 1-.5.4-.5-1.2 0-1.7.2-2.4.5-1.8.2.7.2 2.1 0 3m-9.4 6.5c.9.7 2.7 4.4 4 8.1 2.2 6.1 2.3 6.7.7 6.2-2.4-.8-5 2-5.1 5.3-.4 12.6 2 25.1 6.7 35 3 6.2 3.9 7.4 6.6 7.9l3.1.6-.6 5.7c-.6 6.8-2.5 11.3-4.9 11.8-1.3.3-2.5-1.2-4.4-5.5-5.7-12.7-7.5-19-9.6-33.1-2.9-20.2-3.4-34.8-1.4-39.5 1.6-4 2.3-4.4 4.9-2.5m64.7 7.4c0 3.1-2.4 3.7-13.1 2.8-11-.8-10.6-2.4.9-3.9 11.7-1.6 12.2-1.6 12.2 1.1m11.3 15.4c-.1 7.1-.7 13.8-1.4 15.5l-1.2 3-.8-3.4c-1.5-6.9-2.1-27.5-.9-30.6l1.2-3 1.6 3c1.4 2.4 1.7 5.4 1.5 15.5m-61.2-14.7c-1.3 1.3-2.6.3-1.6-1.2.3-.6 1.1-.8 1.7-.5.6.4.6 1-.1 1.7m9.9 3.2c-2.2 2.4-9.6 5.2-10.7 4.1-1.5-1.5 6.9-6.5 11.1-6.6 1.8 0 1.8.2-.4 2.5m6.8 14.2c1.4 17.3 4.4 35.2 7.9 46.6 1.4 4.8 2.4 8.9 2.1 9.2s-2-.1-3.9-.9c-6.3-2.6-11.9-.1-9.3 4.1 1.9 3.1 7.6 6.3 11.1 6.3 2.1 0 3.9.7 5 2 2.2 2.6 4.9 2.6 6.3 0 .6-1.1 2.6-2.6 4.4-3.4 6.6-2.7 11.5-16.4 6.2-17.4-2.8-.6-6.3 1.7-7.7 5-.6 1.6-1.5 2.5-2 2.1-.4-.4-1.7-8.9-2.8-18.8-1.2-9.9-2.6-22.1-3.2-27.1-.5-5-1.6-11.5-2.4-14.3-1.3-5-1.3-5.2.8-6 1.2-.5 4.9-.5 8.2 0s7.5.6 9.3.3c2.7-.5 3.2-.3 3.3 1.2 0 1.1.5 11.1 1.1 22.4 1.6 29.1 1.6 48-.1 58-.8 4.7-1.4 10.8-1.4 13.7l.1 5.1-3.4-.5c-5-.8-11.7 1.2-23.9 7.3-7.5 3.7-11.7 6.4-13 8.4-3.5 5.2-3.5 4.9-1.4-14.5.9-8.4.9-10.9-.5-16-.8-3.3-2.1-14.1-2.6-24-.9-14.8-3.1-31.5-6.7-52.8-.5-2.3-.2-2.7 1.8-2.7 2.8 0 12.3-4.3 13.3-5.9 1.7-2.7 2.3-.3 3.4 12.6m-24.4-5.5c1.3 2.1 4.1 14.1 6.6 28.5.6 3.4.8 7.4.4 8.8-.6 2.5-.7 2.5-2.5.9-4.8-4.3-11.1-29.6-9.4-37.5.8-3.5 2.9-3.7 4.9-.7m53.6 56.3c0 .9-.7 3-1.7 4.8-1.6 3.1-1.6 3.1-2.6 1-.7-1.7-.6-2.9.7-4.8 1.9-2.8 3.6-3.3 3.6-1m18-.5c0 .5-.4 1-.9 1-.6 0-1.3-.5-1.6-1-.3-.6.1-1 .9-1 .9 0 1.6.4 1.6 1m-41.2 9.8c.3 1.7 0 2.1-1.5 1.5-2.6-.9-5.3-3.4-4.8-4.3 1-1.6 6 .6 6.3 2.8m34.2 12.7c0 8.6-1.2 14-2.4 10.5-.2-.8-.7-2.3-1-3.2-.8-2.7 1.5-19.2 2.5-17.6.5.7.9 5.3.9 10.3m-10.1 17.4c2 1.3-.7 2.7-18.1 10.1-8.1 3.4-15.2 6.8-15.9 7.6-1.3 1.6-2.9 1.9-2.9.5 0-4.1 12.8-12.3 26-16.8 7.3-2.5 8.9-2.7 10.9-1.4M461.1 326c-1 2.5-1 2.4-1-.6-.1-1.7.2-4.7.7-6.5l.7-3.4.3 4c.2 2.3-.1 5.2-.7 6.5m35.3-.9c-1 1.2-3.5 2.9-5.4 3.9s-5.2 3.2-7.4 4.9c-5.5 4.4-14.7 4.2-9.8-.2 1.6-1.5 21.6-10.4 23.6-10.6.5-.1.1.8-1 2m10.6-.3c0 1.6-3.4 4.1-13 9.5-2.9 1.6-2.3.7 3.1-4.7 6.7-6.6 9.9-8.2 9.9-4.8M487.5 335c-1 1.1-2.3 2-2.9 2s0-.9 1.4-2c3.2-2.5 3.8-2.5 1.5 0m20-1c-.3.5-2 1.9-3.8 3l-3.2 2.2 3.3-3.1c3.2-3 4.9-4 3.7-2.1m-10.5 3.4c0 .7-6.6 4.6-7.6 4.6-.5 0 .9-1.2 3.1-2.5 4.2-2.6 4.5-2.8 4.5-2.1m-17.5 4.6c-.7 1.1-6.9 2.4-8.7 1.7-.7-.2.3-.9 2.2-1.5 4.6-1.3 7.3-1.4 6.5-.2M283 134.2c-3 4.9-2.6 8.5 1 10.6 2.1 1.2 3.5 3.3 5 7.4 1.2 3.2 1.9 6.2 1.6 6.7s.5 3.5 1.8 6.7c1.3 3.3 3.1 9.9 4.1 14.8.9 5 2.3 10.5 3.1 12.4 2.5 6.1 2.2 6.4-5.8 6l-7.3-.3-.8 5.5c-.5 3-1 7-1.3 8.9l-.5 3.3-2.8-2.6c-3.1-3-8.1-3.5-10.2-1-.7.9-1.3 4-1.3 7.2.1 14.7.6 22 1.9 29.5.8 4.5 1.5 9.9 1.5 11.9 0 4.7 4.7 19.3 6.7 21 .9.7 3.2 1.3 5.2 1.3h3.5l1.6 9.7c1 6.3 2.2 10.4 3.4 11.7 3 3.4 9.9 6.1 16.8 6.8 6.4.6 6.5.5 10.6-3.2 5.5-4.9 7.1-11 7.2-26.8V274l2.5 1.6c2.1 1.3 2.9 1.4 6.2.3 2.1-.7 4.2-1.6 4.7-2 1.7-1.4 4.5-16.6 4.5-24.4.1-9-1.4-24.4-3-32.2-1.5-7.4-3.4-9.3-11-10.9-6.3-1.4-6.4-1.3-8.4 1.1l-2 2.4-1.7-3c-1-1.8-3.6-3.8-6.2-5-6.7-2.9-9.2-7.9-10.1-20.4-.5-6.4-1.4-11.6-2.7-14.5-1.1-2.5-2.9-7.4-4-11s-2.7-7.9-3.6-9.5c-.8-1.7-1.6-4.5-1.8-6.4-.3-3.4-3-8.1-5.2-8.9-.6-.2-2.1 1.1-3.2 3m9.7 14.9c1.8 3.8 4.3 12.9 3.5 12.9-.4 0-1.7-2.8-3-6.3-1.3-3.4-2.8-7-3.3-8.1-.8-1.4-.7-1.7.3-1.4.7.3 1.8 1.5 2.5 2.9m-.7 52.8c0 1.1-3.1 2.4-3.9 1.6-.3-.3.1-1 .9-1.5 1.9-1.2 3-1.2 3-.1m14.6 2.6c6.6 1.7 9.7 3.5 12 7 1.4 2.1 1.6 4.1 1 11.3-1.2 15-1.2 15-5.9 15.4-3 .2-4.3.8-4.5 2-.2 1.3.3 1.8 1.7 1.8 3 0 2.6 2.7-.6 4.2-2.7 1.3-2.8 1.6-2.5 8.8.1 4.1.9 11.5 1.8 16.4.8 4.9 1.2 9.1.9 9.4-.2.3-.7-.1-.9-.9-1.1-3.5-3.6-19.8-3.6-23.7 0-3.5-.6-4.8-3.1-7.1-2.8-2.6-3-3.3-2.5-6.8l.7-3.9-5.3-1-5.3-.9-.8-5c-1-7-1-7.3.4-14.2.9-4.5 1.8-6.4 3.1-6.9 1-.3 3-2.1 4.4-4 1.5-1.9 2.8-3.4 3-3.4s2.9.7 6 1.5m-10.6.3c0 .5-1.8 2.3-4.1 4.1-2.2 1.8-3.8 3.8-3.6 4.5.2.6.1 2-.4 3.1-.6 1.5-.8 1.1-.8-1.9-.1-3 .6-4.5 3.3-7.2 3.3-3.3 5.6-4.3 5.6-2.6m37.8 4.7c6.5 4.6 9.2 15.7 9.4 38.1.1 12.1-.1 13.5-2.6 18.9-2.7 6.1-4.7 7-2.6 1.3 3.2-8.9 1.9-42.6-1.9-47.8-2.5-3.5-6.4-3.7-9.6-.6l-2.5 2.5v-4.8c0-4.8 1.3-7.4 4-8.4 2.5-.9 3.5-.8 5.8.8m-54.3 9.5c.9 1.7 1.1 3 .5 3-.5 0-1.9.9-3 2-1.8 1.8-1.9 3-1.5 14.2l.5 12.3-1.4-6c-.8-3.3-1.5-7.8-1.5-10.1-.1-7.2 2.6-18.4 4.5-18.4.2 0 1 1.3 1.9 3m53 4.9c3.8 4.3 2.6 27.6-1.5 27.6-2.7 0-4.8-5.7-5-13.5-.3-11.2-.1-12.7 1.6-14.4 2-2.1 2.7-2 4.9.3m-50.4 3.7c1.7 4.6 2.7 19.1 1.7 24.1-.7 3.2-.7 5.8.2 8.7.6 2.3 1.4 4.9 1.6 5.8.4 1.3.1 1.6-.9 1.2-.8-.3-2.6-4.4-4-9.2-2.1-6.9-2.7-11-2.8-19.9-.1-6.1.2-11.6.5-12.2 1.2-1.8 2.6-1.2 3.7 1.5m39.9 8.3c0 .6-.4 1.3-1 1.6-.5.3-1-.1-1-.9 0-.9.5-1.6 1-1.6.6 0 1 .4 1 .9m15 26.3c-.7 3.8-1.6 7.1-2.1 7.4-2.6 1.6-7.9-7.4-7.9-13.2 0-3.1.2-3.5 1.5-2.4 2.7 2.2 5.4.2 7-5.2.8-2.9 1.6-6.5 1.7-8.2s.4.9.6 5.9c.2 4.9-.2 12-.8 15.7M297.1 245c.5 0 .9.4.9.9 0 1-5.1 2.2-6.3 1.4-1.3-.8 1.5-3.4 3-2.8.8.3 1.9.5 2.4.5m21.9 3.9c1.3 2.5 1.3 7.1 0 7.1-2.2 0-9-4.1-9-5.4s3.9-3.3 6.7-3.5c.7-.1 1.7.8 2.3 1.8m-40.6 8.6.6 3-1.5-2.5c-.8-1.4-1.4-3.6-1.4-5 0-2.3.1-2.3.8-.5.4 1.1 1.1 3.3 1.5 5m23.4-5.6c1.7 1.1 1.2 4.1-.9 5.4-3.5 2.2-9.4-2-7.4-5.3.8-1.2 6.5-1.3 8.3-.1m-14.9 6.9c0 2.4-.1 2.5-.9.7-1.2-2.8-1.2-4.7 0-4 .6.3 1 1.8.9 3.3m29.8-1.6c6 1.7 6.9 4.4 6.5 19.7-.1 7.3-.8 13.5-1.5 15-1.1 2.4-1.8 2.6-10.7 3.3-5.2.4-10.6.8-12 1l-2.5.3-.6-11.5c-.4-6.3-1-13.4-1.4-15.7s-.5-5.3-.1-6.6c.5-2.1 1.3-2.6 5.1-2.9l4.5-.3v3.7c0 2.7-.4 3.8-1.5 3.8-.8 0-1.9.9-2.5 2-1.5 2.8.4 6 3.5 6 1.9 0 2.6.7 3.1 2.7 1.9 9 5.7 9.7 6.2 1.2.3-4.9.6-5.8 2.8-6.8 2.1-.9 2.5-1.7 2.2-4.4-.3-2.8-.6-3.2-3.3-3.1-3.7.1-4.5-1-4.5-5.9 0-2.7.4-3.7 1.3-3.3.6.3 3.1 1.1 5.4 1.8m-22.8 17c1.1 2.8 1.1 14.8 0 14.8-1.6 0-2.8-5.8-2.9-14.2-.2-12.7.1-15.3 1-8.8.4 3 1.3 6.7 1.9 8.2m-7.9 1.9c0 3.7-2 2.8-5.5-2.3-2-3.1-3.5-6.5-3.5-8.2 0-2.8.2-2.7 4.5 2.8 2.5 3.2 4.5 6.7 4.5 7.7m44.8-4.5c-.4.3-1.2-.5-1.8-1.8-1.2-2.2-1.2-2.2.6-.6 1 1 1.5 2 1.2 2.4M303.5 299c-1.1.5-2.7.9-3.5.9-.9 0-.8-.4.5-.9 1.1-.5 2.7-.9 3.5-.9.9 0 .8.4-.5.9m15 0c-.3.5-1.7 1-3.1 1-1.3 0-2.4-.5-2.4-1 0-.6 1.4-1 3.1-1s2.8.4 2.4 1m-4.5 4c1.2.8 1.2 1-.3 1.6-2.2.8-8.7-.2-10.1-1.6-1.3-1.3 8.3-1.4 10.4 0m64.4-126.2c-4.7 3-7.2 6.8-7.9 12-1 6.6-8.3 43.3-8.8 43.9-.2.2-.7-2-1.1-4.9-1.4-10.6-6.1-13.1-9.3-5.1-1.6 4.2-1.8 7.7-1.6 28.1.1 24.4.8 29.2 4.3 29.2 1 0 2-.6 2.3-1.3.6-1.7 1.5 4 2.6 17.6 1.2 14.4 2.5 18.6 6.8 23.6 3.9 4.6 14.2 10.1 18.7 10.1 17.8-.1 33.3-14.5 36.6-34 .8-4.6 1.9-7.9 3.2-9.2 1.4-1.4 2.2-3.8 2.5-7.7.2-3.1.8-9.4 1.3-14.1.6-4.7 1-17.1 1-27.6 0-19 0-19.1-2.5-21.8-2.2-2.4-2.5-3.5-2.5-10.9 0-11.2-1.3-15.4-6.5-20.3-6.1-5.9-13.6-8.6-26-9.1-8.7-.4-10.4-.2-13.1 1.5m9.5 2.6c-2.5.6-5.8 2.1-7.5 3.2-5.2 3.7-5.7 3.9-4.6 1.8 2.4-4.5 5.7-6.2 12.2-6.3h4.5zm22.5 3.8c6.2 5.5 11.3 25.4 10 39l-.6 6.6-6.2 1.1c-3.3.5-8.3 1.3-11.1 1.7-2.7.3-5.6 1.1-6.2 1.6-.9.7-1.3 4.5-1.3 12.3 0 6.2-.3 13.3-.6 15.9-1.3 9.1-2.4 4.3-2.4-10.2 0-13.5-.2-15.1-1.9-16.7-2.1-1.8-9.3-2.4-18.1-1.5l-4.5.4.1-6.4c.1-6.6 5.5-30.1 8.1-35.3 3-5.9 13.8-10.5 25.5-10.6 5.6-.1 7.1.3 9.2 2.1m16.2 60c-.3 13.4-.9 27.4-1.4 31.3-1.4 13.9-2 4.5-1.1-20.5.4-14 .8-27.6.9-30.3 0-2.7.5-4.7 1.1-4.7.8 0 1 6.7.5 24.2m-69.6-16c.1 2.4.3 10.5.6 18 .4 8.9.2 15.7-.6 19-.6 2.9-1.3 6.3-1.6 7.6-.2 1.3-.9 2-1.4 1.7-1.4-.8-1.3-46 0-48.6 1.7-3.1 3-2.2 3 2.3m56.7 9.1c-2 .5-5 .6-6.5.1l-2.7-.8 3.5-.5c1.9-.4 4.9-.4 6.5-.2l3 .5zm-30.2 1.7c-2.4 1-18.5 1.3-16.8.2.6-.4 5.1-.8 10-.9 5.9-.2 8.1 0 6.8.7m35.7 16c-.3 11.9-1 17.3-3.8 30-4.1 18.4-7.1 25.3-15.1 33.8-5.7 6.1-5.9 6.2-11.1 6.2-6.7 0-11.4-2.4-17.5-8.9-5.1-5.5-5.4-6.5-3.3-11.6 1.2-2.9 2-3.5 4.5-3.5 3.6 0 3.8.3 4.6 6.6 1.1 9.6 1.6 11.1 3.9 13.3 3 2.8 7.9 3 11.4.5 6.1-4.5 11.7-23.1 8.8-29.4-1.7-3.7-7.2-6.2-12.3-5.6-5.5.7-7.9 2.3-9.8 6.3-1.5 3.1-1.9 3.3-6.5 3.3-6.3 0-6.7-.6-8.5-16.7-1.2-10.1-1.3-14.9-.5-23.2.6-5.8 1.6-11.1 2.2-11.8.7-.9 3.8-1.3 9.4-1.3 4.5 0 9.4-.4 10.7-.9l2.4-.9.6 9.2c.3 5.1.2 10.6-.3 12.2-.4 1.6-.9 2.3-.9 1.6-.2-2.4-4.1-1.3-5.2 1.5-.8 2.2-.5 3.3 1.6 6.5 1.9 2.9 3.2 3.9 4.5 3.5 1.6-.4 1.9.2 2.2 3.1.4 4.2 2.5 5.4 3.4 1.8.3-1.4 3.2-5 6.5-8 5.7-5.4 7.7-9.1 6.5-12.1-.8-2.3-5.4-1.8-8.1 1l-2.5 2.4.6-10.2c.3-5.6.7-10.7.9-11.4.5-1.4 3-1.8 13-1.8h8zm-14.2 8.9c0 1-.7 2.4-1.5 3.1-1.2 1-1.6.9-2.1-.4-.3-.9-.4-2.3 0-3.1.8-2.1 3.6-1.9 3.6.4m13.5 32.2c-2.3 9.4-2.9 8.2-.8-1.6.9-4.3 1.9-7.2 2.1-6.6.2.7-.4 4.3-1.3 8.2m-53 1.9c1.2 1.4 1.3 1.9.2 3.5-1.8 2.3-2.3 1-3.1-7.1-.5-5.3-.4-5.5.5-2 .5 2.2 1.6 4.7 2.4 5.6m28.9-5.1c1.7 1.8 1.7 2-.1 2.9-2.7 1.5-11.6 1.8-12 .5-.6-1.7 4.6-5.3 7.7-5.3 1.5 0 3.5.9 4.4 1.9m2.4 13.8c.2 2.5-.3 3.9-2.3 5.9-2.3 2.3-3.3 2.6-6.7 2.1-4.8-.6-5.9-2-5.6-6.7.3-3.3.6-3.5 4.3-4.1 2.2-.4 5.4-.6 7-.5 2.6.1 3 .5 3.3 3.3m11.3 9.1c-.5.9-2 2.6-3.2 3.7l-2.3 2 1.5-2.5c.9-1.4 1.9-3.1 2.3-3.8 1.2-2 2.8-1.5 1.7.6m-18.2 3.3c-2 1.3-4.5 1.1-5.7-.4-.8-1-.2-1.2 3-.9 2.8.3 3.6.7 2.7 1.3M16.7 195c-1.5 1.2-2.9 3.8-3.6 6.8-.8 3.2-1.9 5.1-3.4 5.7-2.9 1.3-3.5 4.1-3.6 16.3-.1 9 .2 10.7 1.9 12.9 1.8 2.3 2 4.1 2 15 0 16.7 1.3 19.2 10.7 20.8 6.3 1 13.1-.4 16.6-3.4 3.7-3.4 4.4-7.3 3.6-19.9-.6-8.6-.4-9.7 1.4-11.5s1.9-2.8 1.2-15c-.8-14.9-1.5-17.4-4.8-18.2-1.3-.4-3.1-2.1-4.1-4-1.3-2.3-3.3-4-6.7-5.4-6-2.6-8-2.6-11.2-.1m11.5 5.8c3.4 3.2 3.4 6.2-.2 6.2-3.2 0-2.4 2.9 1.3 4.5l3.2 1.4-2.7.1c-1.6 0-3.7.9-4.8 2-1.9 1.9-2 1.9-3 0-.6-1.1-1.7-2-2.5-2-2.3 0-2.8-2-.9-3.5 1.6-1.2 1.7-1.7.7-3.4-1.7-2.7-1.6-4.1.4-6.3 2.3-2.5 4.8-2.2 8.5 1m11.7 15.7c.1 1.7-.1 1.7-.9.5-.5-.8-.9-2.6-.9-4 0-2.3.1-2.3.9-.5.5 1.1.9 2.9.9 4M11 213.2c0 .7-.5 2-1 2.8-.8 1.2-1 .9-1-1.3 0-1.5.5-2.7 1-2.7.6 0 1 .6 1 1.2m22 8.4c.8.8 1.5 5 1.8 9.3l.4 7.8-4-.1-4-.1-.5-8.5c-.2-4.7-.2-8.8 0-9.3.7-1.3 5-.7 6.3.9m-13.7.1c.2.5.1 3.9-.2 7.7-.6 6.6-.8 7-3.4 7.7l-2.8.8.6-7.2c.4-4 .8-7.8 1-8.5.5-1.3 4.1-1.7 4.8-.5m4.7 11.4c0 5.1-.4 7.8-1 7.4-.5-.3-1-4.2-1-8.6 0-5.1.4-7.8 1-7.4.6.3 1 4.2 1 8.6m15.7-2.4c-.3 1-.5.2-.5-1.7s.2-2.7.5-1.8c.2 1 .2 2.6 0 3.5M10 231.8c0 1.5-.2 1.5-1 .2-1.3-2-1.3-3.3 0-2.5.6.3 1 1.4 1 2.3m25.8 24.3c-.3 4.9-1.1 8.7-2.2 10.3-2.2 3.5-3.7 3.3-2.3-.4.9-2.3.8-3.6-.5-6.4-2.1-4.3-4.7-5.2-10.5-3.6-5.3 1.6-6.1 1-6.9-5.4-.7-4.8-.7-4.9 1.7-4.3 1.3.4 3.2.7 4.2.7 1.2 0 1.7.8 1.7 3 0 4.7 2.2 4.6 8.7-.3 6.7-5.2 6.8-5.2 6.1 6.4M25.5 259c.4.6-.5 1-2 1s-2.4-.4-2-1c.3-.6 1.2-1 2-1s1.7.4 2 1m-6.8 6.4c1.5 1.2 4.2 2.8 5.8 3.5 2.9 1.1 2.8 1.1-1.3.7-2.7-.3-5.3-1.3-6.8-2.7-4.4-4.1-2.4-5.5 2.3-1.5m7.8-1.4c-.3.5-1.3 1-2.1 1s-1.4-.5-1.4-1c0-.6.9-1 2.1-1 1.1 0 1.7.4 1.4 1m168.4-68.6c-.4.4-5.2 1.1-10.7 1.5-13.7 1.2-24 5.8-26.3 11.8-.8 2.2-.9 2.2-3.8.5-2.8-1.6-3.1-1.6-5 .2-3.1 2.8-4.5 8.3-4.5 17.6 0 7.7.4 9.4 4.3 19 2.3 5.8 4.5 10.7 4.7 10.9s1.5.4 2.9.5c2.2.1 3 1.2 5.9 7.7 4.4 10.2 6.2 12.6 17 22.2 7.2 6.4 10.7 8.7 15.7 10.5 7.3 2.7 20.3 4.7 30 4.7 5.7-.1 7.3-.5 10.8-2.9 6.6-4.6 14.1-12.5 14.1-14.9 0-1.2.9-4.2 2-6.6s2-5.8 2-7.7c0-2.5.7-3.8 2.5-5 1.7-1.1 3.1-3.7 4.5-8.1 1.7-5.5 2-9.3 2-24.3 0-15.9-.2-17.9-1.8-19.3-2.5-2.3-4.8-2.1-6.6.4-1.4 2.1-1.5 2-4.9-2.7-4.4-6.1-6.6-7.4-20.2-12-9.4-3.1-12.7-3.7-22.5-4.1-6.3-.3-11.8-.2-12.1.1m32.9 6.7c5.4 1.8 9.6 3.8 10.2 4.9 1.4 2.5.1 3.1-2.7 1.3-2-1.3-2.9-1.4-4.4-.5-1.2.8-2 .8-2.4.2s-1.1-.7-1.8-.3c-.6.4-2.2.7-3.5.8-1.3 0-2.7.7-3.2 1.5-.8 1.2-1 1.2-1.6-.3-.8-2.2-2-2.2-4.1.2-.9 1.1-2.1 1.7-2.6 1.4-1.7-1-7.7 3-7.7 5.3 0 2.1.4 2.2 9 2 5 0 9 .2 9 .5 0 .4 3.1.4 6.8.1 4.8-.3 7.6 0 9.3.9 1.3.8 3.3 1.4 4.3 1.4 1.1 0 2.1.6 2.4 1.3.3 1-.4 1.2-3.4.5-5.5-1.1-21.5-.5-33.3 1.3l-3.4.5.7 7.2c1.4 15.8 1.8 30.4.9 31-.6.4-1-3.3-1-9.6 0-13.1-1.8-24-4.7-27.3-2-2.4-2.8-2.5-13.8-3-6.4-.2-15-.4-19.2-.4h-7.5l2.3-2.5c2.8-3 5.2-3.2 6.1-.5s2.5 2.5 2.5-.3c0-1.7.2-1.9 1-.7.7 1.2 1.6 1.3 5.2.3 2.4-.6 6.5-.9 9.2-.6 3.2.2 6.1-.2 8.3-1.2 3.6-1.8 3.6-3.5-.2-3.5-1.2 0-2.5-.7-2.9-1.5-.4-1.1-1.3-1.4-3.1-.9-2.1.5-2.7.2-3.2-1.6s-1.1-2.1-3.7-1.6c-1.9.3-3.8 0-5-.9-1.1-.8-3.7-1.5-5.8-1.5-5.1 0-4.8-1.3 1-3.6 4.7-1.8 16.7-2.8 37.7-3.2 7.7-.2 10.4.3 18.3 2.9M154 214.4c-.1 1.1-.7 3.2-1.5 4.6-2.9 5.1-1.3 22.6 2.6 27.9 2.1 2.8 2.3 7 .4 6.2-1.3-.5-6.4-14.3-7.6-20.9-1-5.3-.2-12.7 2-18.4 1.2-3.2 4.1-2.8 4.1.6m105.4 4.3c.3 2.1.6 4.7.6 5.8-.1 1.8-.3 1.7-2.5-.7-2.1-2.4-2.3-3.2-1.4-5.8 1.5-4 2.5-3.8 3.3.7m-62.1 9.2c1.2 1.2-3.9 1.5-22.6 1.4-11.9-.2-15.2-.8-12.7-2.3 2.1-1.4 33.9-.5 35.3.9m51 1c1.3 1.3-4.3 1.4-25 .4-7.8-.3-14-1-13.7-1.4.7-1.3 37.5-.2 38.7 1m-49.7 3.6c2 .6 4.8 20.4 3.2 22.1-.3.2-3.3-.9-6.7-2.6-3.3-1.7-7.7-3.4-9.6-3.7-3.4-.5-3.5-.4-3.5 2.5 0 2.1 1.1 4.3 3.1 6.7 4 4.5 7.8 6.5 12.3 6.5 2.7 0 4 .6 5.2 2.5 2 3 3.5 3.2 5.2.5.8-1.4 2.3-2 4.6-2 7.4 0 18.9-11.6 15.5-15.6-1.8-2.2-8-1.6-12.8 1.1-2.3 1.4-4.4 2.5-4.6 2.5-.1 0-.5-3-.9-6.8-.4-3.7-1-8.5-1.3-10.6l-.6-3.9 20.9.7c11.5.4 21 .9 21.2 1 .1.2.4 7.9.4 17.2.2 18.2-1 25.6-5.5 33.8-2.8 5.3-10.4 9.1-20.9 10.8-14.8 2.2-36.1-3-42.3-10.4-2.9-3.5-2.3-5.1 2.1-5.1 1.8 0 3.4.9 4.4 2.3.8 1.2 3 3.9 4.9 6.1l3.3 3.9h15.2c14.8-.1 15.2-.1 19.1-2.8 3.5-2.4 4-3.3 4.3-7.1.6-7.6-5.3-11.1-19-11.1-3.5 0-8.1-.5-10.2-1-5.7-1.3-14.5.5-17.4 3.6-3 3.1-6.7 3.1-12.5-.2-6-3.3-10.1-8.1-12-14.1-1.7-5.2-3.7-18.2-3.7-24.1v-3.7l18.7.3c10.4.1 19.3.4 19.9.7m26.1 19.1c.2.7-.7 2.4-2 3.9-2.3 2.7-2.4 2.7-5.5 1.1-1.8-.9-3.2-1.9-3.2-2.1 0-.9 7.5-4.4 8.9-4.2.8.1 1.6.7 1.8 1.3m-32.6 2c2.1 1 2.5 1.9 2.2 3.9-.7 3.3-2 3.2-6-.7-5.7-5.5-3.8-7.1 3.8-3.2m7.3 6c.4 1 .1 1.4-.6 1.2-1.5-.5-2.3-2.8-1-2.8.5 0 1.3.7 1.6 1.6m16.1.5c-.8 1.2-3.5 1.2-3.5 0 0-1.1 2.2-2 3.3-1.4.4.2.5.9.2 1.4m10.8 15c2.1.5 3.5 1.4 3.2 1.8-.7 1.2-16.2 3.4-17.6 2.5-.6-.3-5.4-.9-10.7-1.3-9.5-.6-12.9-2.2-8.3-3.9 2.9-1 28.7-.4 33.4.9m-50.5 1.1c.7.7 1.2 1.6 1.2 2 0 1.5-1.5.8-2.8-1.2-1.3-2.2-.3-2.7 1.6-.8m55.2 7.1c0 .7-1.8 2.3-3.9 3.5-7.9 4.5-31.1 2.6-31.1-2.4 0-1.2 1.9-1.3 10.8-.9 5.9.4 12.7.2 15.2-.3 6.5-1.4 9-1.4 9 .1M210.8 298c7 .9 10.2.8 16.6-.4 4.4-.9 8.1-1.4 8.3-1.2 1 1-7.6 3.8-11.6 3.8-8.8 0-23.2-1.9-24.4-3.2-1-1-.8-1.2.6-.7 1 .4 5.7 1.1 10.5 1.7M81.6 204c-4.9.6-8.6 1.6-9.7 2.6-1.8 1.6-2.1 1.5-6.4-.7l-4.5-2.4-3.8 2c-4.9 2.7-5.5 7.1-1.7 14.5 2.6 5.1 2.6 5.5 1.5 13.7-.6 4.6-1.5 9.5-2 10.9-1.6 4.1-1.1 9.7 1 13.1 2.4 4 3.4 4 8.4.4l3.9-2.8 3.1 3.4c2.3 2.4 6.6 4.6 17.4 8.8 7.8 3 14.9 5.5 15.8 5.5s4.4-1.6 7.8-3.5c7.2-4 7.6-4.1 7.6-1.8 0 1 .9 3.3 2 5.1 1.6 2.7 2.6 3.3 4.8 3 3.9-.4 5.4-4 4.7-11.3-.2-3.3-.8-10.8-1.1-16.8l-.6-10.7 3.7-7.8c6-12.5 6.1-12.9 1.5-15.2-5.2-2.6-6.3-2.5-10.3 1l-3.4 2.9-3.3-4.6c-6.2-8.6-17.2-11.4-36.4-9.3m16.4 2.9c7.8 1.3 11.1 2.7 10.4 4.5-.8 2-3.4 2.8-5 1.5-1-.8-2-.5-4 1.5-2.6 2.4-2.7 2.6-.8 3.2 4.4 1.6 4.6 2.6 1.3 5.3-3 2.5-3.2 3.1-4.1 13.1-.6 5.8-1.4 11.5-1.9 12.7-1.2 3.3-3.3 2.9-2.5-.5 3.1-13.8 3-18.9-.1-22.5-2.1-2.2-10.4-4.7-16-4.7-4 0-4.3-.2-4.3-2.8 0-1.5.5-3.4 1.1-4.2.8-1.1.9-.7.4 1.7-.8 4 .8 5 3.7 2.4 2.2-2.1 5.8-2 8.5.1.7.6 2.1.7 3 .3 1-.4 2.9-.8 4.2-.9 1.3 0 2.6-.6 2.8-1.2.4-1.1-4-2.4-8.3-2.4-1.3 0-3.3-.9-4.4-2s-3-2-4.2-2c-4.7 0 .2-2.3 6.4-3 3.5-.4 6.8-.8 7.3-.9.6 0 3.5.3 6.5.8m-33.6 2.7c2 2 2 2.2-.4 6.8-1.3 2.6-1.7 4.9-1.3 7 .9 4.8-.2 2.9-3.2-5.8-2.3-6.5-2.5-8-1.4-8.7 2.1-1.3 4.6-1.1 6.3.7m61.1 11.5c-1.8 3.2-2.5 3.8-2.5 2.3 0-2.1 3.8-7.9 4.6-7.1.3.2-.7 2.4-2.1 4.8m-8.5-.4c0 1.7-4.1 1.7-6.5-.1-1.7-1.2-1.5-1.3 2.3-1.2 2.7 0 4.2.5 4.2 1.3m15 .4c0 2.9-4.1 12-5.1 11.3-1.6-.9-1-5.4 1.4-9.4 2.4-4.4 3.7-5.1 3.7-1.9m-44.8 6c2.4 1.3 2 4.3-.7 4.7-2.8.4-12.8-3-13.3-4.6-1-3 8.4-3.1 14-.1m28.5.1c1 1.1 1.3 2.5.9 4.1-.5 2.2-1 2.4-4.8 2-10.9-1.1-13.9-3.1-10.7-7 1.7-2 12.2-1.4 14.6.9m-49.8 21c.1.9-1 2.9-2.3 4.5l-2.4 2.7-.6-4c-1.1-6.6-1-9.6.8-14.7.9-2.6 1.7-5.5 1.7-6.5.1-1.6 2.6 14.4 2.8 18m1.8-15.5c-.3 1-.5.4-.5-1.2 0-1.7.2-2.4.5-1.8.2.7.2 2.1 0 3m16.6 1.6c4.9 1 5.7 1.5 5.7 3.4 0 2.8-.1 2.8-5 .3-2.2-1.1-5.5-2-7.4-2s-3.8-.5-4.1-1c-1.1-1.7.6-3.2 2.9-2.5 1.1.3 4.7 1.1 7.9 1.8m29.7 2c2.3.2 2.5.6 3 6.6.3 3.6.4 8.2.1 10.3l-.3 4-5-.7c-5.5-.8-14.2-3.6-14.6-4.8-.7-2.2.3-2.7 5.7-2.7 6.6 0 11.1-2.6 11.1-6.4 0-2.8-5.5-5.6-11-5.6-2.3 0-4-.5-4-1.1 0-.8 1.8-1 6.3-.5 3.4.4 7.3.8 8.7.9m-33.3 3.5c.8.5.6 1.3-.7 3-2.2 2.6-2.4 2.7-4.4.7-3-3 1.3-6.1 5.1-3.7m27.8 1.4c3 1.3 3.2 2.4.6 3.8s-3.1 1.3-3.1-.5c0-.9-1.5-2.2-3.2-3l-3.3-1.4 3.2-.1c1.8 0 4.4.5 5.8 1.2M79 247.9c1.9.5 4.7 1.2 6.3 1.5 4.1 1 3.3 2.3-2.5 4-4.7 1.3-5.4 1.3-6.9 0-2-1.8-3.1-6.4-1.5-6.4.6 0 2.7.4 4.6.9m5.4 13.1c9.3 4.7 11.8 5.5 17.7 5.8 7.1.4 8.9 1.6 4.3 2.8-1.8.5-6.4-.8-15.7-4.2-12.5-4.7-18.7-8.2-18.7-10.7 0-.8.3-.9.8-.2.4.6 5.6 3.5 11.6 6.5m43.6 7.6c0 6.8-3 3.9-5-4.9-.4-2-.3-4.2.2-5.2.9-1.5 1.3-1.1 2.9 2.5 1.1 2.3 1.9 5.7 1.9 7.6m-32.1-9.5c2.7.5 5.7 1.9 6.7 3 2.2 2.4 1.8 2.4-6.9-.2-11.3-3.4-11.2-5.3.2-2.8M114 263c0 .5-1.2 1-2.7.9l-2.8-.1 2.5-.8c1.4-.4 2.6-.8 2.8-.9.1-.1.2.3.2.9"/></svg>