<?xml version="1.0" standalone="no"?>
<!DOCTYPE svg PUBLIC "-//W3C//DTD SVG 20010904//EN"
 "http://www.w3.org/TR/2001/REC-SVG-20010904/DTD/svg10.dtd">
<svg version="1.0" xmlns="http://www.w3.org/2000/svg"
 width="2709.000000pt" height="2586.000000pt" viewBox="0 0 2709.000000 2586.000000"
 preserveAspectRatio="xMidYMid meet">
<metadata>
Created by potrace 1.16, written by Peter Selinger 2001-2019
</metadata>
<g transform="translate(0.000000,2586.000000) scale(0.100000,-0.100000)"
fill="currentColor" stroke="none">
<path d="M9745 25849 c-60 -5 -186 -18 -280 -29 -417 -47 -795 -196 -1125
-443 -119 -90 -318 -282 -376 -364 -84 -117 -131 -251 -153 -433 -21 -173 -55
-265 -190 -518 -22 -41 -43 -97 -48 -130 -13 -76 1 -645 16 -694 9 -29 9 -48
0 -80 -14 -53 -14 -190 0 -280 6 -36 22 -212 36 -390 14 -177 39 -469 55 -648
17 -179 35 -453 40 -610 20 -561 31 -762 70 -1225 22 -258 51 -630 65 -825 27
-373 39 -508 48 -517 3 -2 95 25 205 61 357 118 511 115 872 -16 314 -114 395
-166 512 -333 122 -172 177 -331 210 -605 18 -148 17 -635 -2 -840 -10 -109
-15 -276 -14 -495 0 -316 2 -346 42 -725 24 -217 47 -438 52 -490 22 -210 41
-657 47 -1055 5 -399 4 -435 -21 -710 -15 -159 -31 -344 -37 -410 -41 -492
-139 -892 -299 -1220 -90 -184 -190 -293 -333 -363 -84 -41 -159 -59 -295 -71
-62 -6 -117 -13 -123 -16 -15 -10 -10 -154 10 -270 11 -61 22 -131 26 -157 4
-33 12 -49 24 -53 29 -9 247 23 379 56 140 34 363 109 437 145 28 14 82 56
120 93 39 38 80 74 92 80 25 13 103 15 103 3 0 -5 -7 -31 -15 -59 -25 -85
-162 -199 -310 -258 -225 -90 -689 -198 -1010 -235 -175 -20 -701 -31 -1190
-25 -335 4 -526 3 -605 -5 -63 -6 -360 -15 -660 -20 -529 -8 -913 -24 -1325
-56 -110 -8 -336 -19 -503 -24 -167 -5 -409 -19 -539 -30 -206 -18 -328 -21
-977 -25 -1252 -6 -2195 -23 -2311 -41 -159 -25 -393 -101 -437 -141 -44 -39
-2 -175 72 -234 41 -33 155 -68 330 -100 l125 -24 1165 0 c641 -1 1197 -5
1235 -9 94 -10 466 9 772 39 136 13 455 42 708 65 253 22 528 49 610 60 268
35 352 39 940 55 732 19 1347 53 2050 112 436 37 828 39 1014 5 149 -27 330
-85 460 -149 120 -59 317 -190 361 -240 39 -43 73 -115 68 -143 -3 -19 -6 -19
-63 8 -33 16 -118 68 -190 117 -147 98 -201 128 -343 184 -146 58 -250 83
-381 89 l-114 5 6 -24 c3 -13 19 -98 36 -189 17 -91 40 -205 51 -255 13 -60
24 -167 31 -320 14 -261 9 -300 -54 -391 -88 -128 -309 -210 -597 -221 -196
-8 -265 3 -585 93 -77 21 -122 28 -195 28 -87 0 -100 -2 -149 -29 -79 -43 -95
-85 -88 -222 4 -88 9 -112 33 -160 16 -32 46 -71 67 -87 l37 -30 59 21 58 21
7 -55 c12 -106 56 -155 171 -190 52 -15 96 -18 315 -17 313 0 328 3 766 128
355 101 1443 376 1584 400 172 29 290 39 480 40 168 0 207 -3 282 -22 512
-128 768 -577 888 -1562 66 -544 84 -1028 47 -1235 -54 -297 -195 -573 -359
-702 -186 -148 -504 -299 -780 -372 -345 -92 -1179 -218 -1693 -256 -248 -18
-411 -44 -581 -91 -358 -97 -609 -215 -722 -338 -183 -199 -131 -552 100 -673
52 -28 56 -28 228 -28 262 1 386 33 811 210 485 203 681 253 870 225 249 -36
479 -165 616 -345 94 -124 215 -395 288 -647 54 -184 81 -315 110 -518 30
-215 45 -286 82 -392 l26 -77 -21 -66 c-25 -75 -27 -133 -11 -320 9 -100 8
-146 -1 -200 -26 -148 -24 -203 10 -367 63 -303 137 -500 254 -678 83 -126
157 -202 233 -238 54 -25 67 -27 193 -27 115 0 146 3 208 24 101 33 174 83
284 194 208 210 341 458 400 749 22 106 23 133 20 433 -2 284 0 332 18 425 45
239 63 637 44 945 -13 220 0 1311 21 1655 15 248 17 401 11 823 0 50 5 193 13
317 15 245 11 515 -14 1055 -34 719 -38 873 -40 1535 -2 578 -6 754 -23 1045
-12 193 -35 638 -52 990 -16 352 -32 678 -35 724 -3 46 -10 248 -16 450 -6
201 -14 411 -17 465 l-7 99 -113 -107 c-137 -129 -217 -184 -338 -230 -278
-107 -445 -122 -824 -75 -230 28 -351 96 -552 307 -213 225 -300 423 -417 952
-91 407 -121 707 -140 1375 -11 377 -2 685 34 1145 56 722 90 934 275 1720
109 466 107 460 211 701 92 215 99 240 84 321 -10 52 25 109 134 218 288 288
693 421 1054 345 79 -16 117 -37 303 -163 119 -81 139 -91 147 -77 12 22 26
345 26 615 1 419 -15 692 -99 1680 -11 129 -24 292 -30 362 -16 203 -29 635
-40 1308 -15 881 -24 1103 -70 1730 -32 421 -41 465 -159 778 -101 267 -101
268 -148 329 -49 65 -93 101 -213 170 -52 31 -122 73 -155 94 -77 48 -162 76
-284 93 -172 25 -176 27 -286 162 -46 57 -93 72 -309 99 -107 14 -237 32 -288
41 -113 19 -467 27 -623 13z M16875 25853 c-22 -2 -101 -12 -175 -23 -74 -11
-209 -29 -299 -40 -202 -25 -244 -43 -306 -135 -52 -78 -96 -100 -242 -120
-146 -20 -201 -40 -347 -126 -318 -188 -324 -195 -446 -519 -139 -369 -145
-397 -185 -960 -37 -525 -44 -714 -60 -1615 -20 -1073 -19 -1063 -125 -2315
-32 -377 -40 -589 -40 -1035 0 -365 10 -587 26 -604 3 -3 82 48 177 112 214
145 256 159 472 160 194 2 329 -31 510 -121 140 -70 231 -136 345 -251 126
-127 147 -164 130 -227 -7 -24 -10 -57 -7 -74 4 -16 49 -130 101 -252 l95
-223 96 -408 c201 -856 226 -1016 292 -1832 24 -302 27 -391 28 -790 0 -882
-45 -1313 -200 -1911 -69 -268 -117 -383 -217 -532 -137 -203 -350 -391 -500
-441 -134 -44 -510 -79 -658 -61 -182 23 -402 99 -520 179 -38 25 -118 92
-178 148 l-110 102 -6 -57 c-3 -31 -11 -212 -16 -402 -10 -365 -76 -1774 -111
-2370 -17 -288 -21 -494 -23 -1095 -2 -496 -9 -844 -19 -1055 -36 -721 -40
-851 -31 -1200 4 -190 7 -471 6 -624 -2 -185 4 -419 19 -695 17 -330 22 -548
23 -1051 0 -349 -3 -711 -8 -805 -10 -197 10 -505 46 -715 19 -111 22 -164 23
-470 0 -292 3 -358 18 -429 62 -288 194 -528 407 -742 130 -130 204 -175 336
-205 104 -23 269 -16 337 14 67 30 159 121 233 233 114 171 186 355 247 634
49 221 52 256 32 356 -15 71 -16 108 -9 244 12 222 9 292 -15 353 -21 52 -21
52 -1 102 34 85 58 199 89 415 57 389 151 706 297 998 64 130 101 182 186 263
204 196 501 294 757 250 121 -21 370 -104 586 -196 456 -194 626 -240 887
-240 104 0 137 4 182 21 80 29 148 95 193 187 38 76 38 76 38 201 0 116 -2
130 -27 185 -53 112 -154 200 -322 281 -285 136 -652 230 -996 255 -480 34
-1086 120 -1610 226 -348 71 -781 271 -967 447 -241 227 -365 658 -333 1157
37 588 98 1065 176 1359 88 337 208 568 379 729 116 109 220 167 371 207 236
62 667 32 1074 -74 85 -23 337 -86 560 -141 222 -55 537 -138 700 -185 162
-46 333 -93 380 -104 114 -27 272 -41 460 -41 324 1 439 54 448 207 4 55 7 63
21 58 87 -36 100 -38 135 -16 40 25 80 83 95 137 6 21 11 87 11 145 0 93 -3
110 -23 140 -46 70 -161 101 -291 80 -39 -7 -134 -30 -210 -52 -179 -51 -293
-69 -436 -69 -272 0 -521 76 -625 192 -65 72 -89 141 -89 258 0 153 21 397 43
500 29 132 81 411 81 433 0 15 -10 17 -74 17 -217 0 -489 -96 -731 -259 -129
-87 -272 -168 -281 -159 -2 3 3 28 12 58 21 71 83 135 219 226 247 164 506
255 811 285 161 16 496 6 869 -25 662 -55 1304 -92 1873 -106 631 -16 861 -28
1072 -55 107 -13 400 -43 650 -65 250 -22 566 -52 702 -65 295 -29 689 -49
773 -39 33 4 589 8 1235 9 1287 1 1213 -2 1465 61 135 34 181 63 222 143 54
104 42 151 -51 191 -67 30 -280 89 -379 105 -108 17 -1103 35 -2313 40 -650 4
-770 6 -975 25 -129 11 -371 25 -539 30 -168 5 -393 16 -500 24 -409 32 -794
48 -1330 55 -312 4 -562 11 -570 17 -9 5 -346 9 -830 10 -836 1 -928 5 -1198
44 -266 39 -659 136 -849 210 -153 58 -299 181 -327 273 -17 57 -11 63 55 54
33 -4 54 -19 119 -80 43 -42 93 -83 112 -93 98 -51 381 -140 563 -178 95 -20
260 -37 279 -30 10 4 16 18 16 40 0 18 10 82 22 141 19 99 30 284 18 297 -3 3
-57 10 -120 16 -218 20 -335 68 -460 187 -118 112 -198 260 -294 545 -87 256
-141 519 -170 828 -9 91 -28 293 -43 450 -25 253 -28 325 -27 645 1 576 30
1028 114 1801 41 378 47 665 19 1029 -31 403 -29 712 6 978 27 210 100 393
218 549 106 142 182 191 437 286 210 78 289 100 401 112 168 19 275 4 520 -75
112 -36 207 -65 210 -65 9 0 26 185 54 580 14 195 41 540 60 765 45 534 53
670 65 1090 6 193 17 424 25 515 28 315 74 856 85 1000 5 80 18 201 26 270 12
87 14 148 9 205 -11 113 -10 148 3 250 7 50 12 201 12 336 0 286 -4 305 -85
449 -101 178 -136 279 -159 455 -20 153 -39 223 -87 322 -64 134 -186 272
-381 431 -254 206 -601 375 -932 452 -232 54 -780 94 -1011 73z M8460 18683
c-205 -16 -407 -92 -605 -227 -240 -163 -370 -347 -510 -720 -181 -482 -279
-1036 -292 -1651 -6 -301 4 -513 38 -770 10 -82 46 -375 80 -650 91 -758 116
-912 194 -1232 87 -354 200 -663 355 -973 163 -324 247 -428 470 -577 268
-178 444 -287 504 -312 205 -84 513 36 660 258 69 103 102 186 171 426 111
389 139 546 160 905 9 140 22 350 30 465 32 447 30 693 -11 1315 -24 369 -44
565 -94 925 -44 319 -53 458 -48 765 4 236 10 310 38 520 31 240 32 248 21
405 -32 436 -117 668 -315 853 -151 141 -400 246 -646 272 -94 10 -112 10
-200 3z M18460 18683 c-219 -19 -459 -109 -617 -230 -199 -152 -318 -398 -352
-729 -30 -287 -30 -301 6 -584 52 -415 55 -783 7 -1130 -125 -916 -171 -1728
-129 -2305 8 -110 19 -288 25 -395 23 -420 40 -554 106 -820 50 -202 127 -452
163 -532 70 -156 182 -277 323 -346 148 -74 277 -87 404 -42 52 18 431 254
579 360 165 119 256 240 404 537 273 546 406 1045 511 1913 17 140 53 435 80
655 70 569 73 607 73 935 0 699 -113 1333 -334 1873 -127 308 -252 470 -487
627 -142 95 -302 163 -456 194 -78 16 -235 26 -306 19z M11625 18494 c-247
-44 -363 -110 -495 -284 -242 -320 -371 -601 -474 -1040 -142 -606 -217 -1016
-265 -1460 -53 -478 -62 -643 -72 -1220 -13 -786 -2 -951 91 -1435 16 -82 38
-204 50 -270 32 -186 66 -300 126 -425 176 -367 356 -572 554 -630 152 -45
236 -55 460 -55 183 1 229 4 306 22 248 58 434 176 552 350 82 120 222 400
304 607 127 319 215 682 252 1046 47 453 45 1838 -4 2595 -21 320 -48 501
-115 760 -122 475 -277 812 -504 1095 -250 313 -446 401 -766 344z M15158
18494 c-189 -45 -379 -213 -571 -504 -187 -284 -348 -707 -436 -1145 -70 -349
-101 -955 -101 -1995 0 -858 14 -1135 76 -1470 71 -384 184 -715 370 -1080
131 -257 204 -356 330 -446 189 -135 415 -191 728 -181 295 10 483 64 605 173
120 108 219 250 327 469 86 176 113 262 159 520 19 105 45 249 59 320 13 72
35 207 48 300 22 164 23 193 23 835 -1 698 -4 768 -56 1280 -56 558 -157 1116
-309 1721 -87 345 -224 628 -446 921 -114 149 -209 214 -379 256 -173 44 -320
53 -427 26z"/>
</g>
</svg>
