<svg xmlns="http://www.w3.org/2000/svg" width="3612" height="3448" viewBox="0 0 2709 2586"><path fill="currentColor" d="M974.5 1.1c-6 .5-18.6 1.8-28 2.9C904.8 8.7 867 23.6 834 48.3c-11.9 9-31.8 28.2-37.6 36.4-8.4 11.7-13.1 25.1-15.3 43.3-2.1 17.3-5.5 26.5-19 51.8-2.2 4.1-4.3 9.7-4.8 13-1.3 7.6.1 64.5 1.6 69.4.9 2.9.9 4.8 0 8-1.4 5.3-1.4 19 0 28 .6 3.6 2.2 21.2 3.6 39 1.4 17.7 3.9 46.9 5.5 64.8 1.7 17.9 3.5 45.3 4 61 2 56.1 3.1 76.2 7 122.5 2.2 25.8 5.1 63 6.5 82.5 2.7 37.3 3.9 50.8 4.8 51.7.3.2 9.5-2.5 20.5-6.1 35.7-11.8 51.1-11.5 87.2 1.6 31.4 11.4 39.5 16.6 51.2 33.3 12.2 17.2 17.7 33.1 21 60.5 1.8 14.8 1.7 63.5-.2 84-1 10.9-1.5 27.6-1.4 49.5 0 31.6.2 34.6 4.2 72.5 2.4 21.7 4.7 43.8 5.2 49 2.2 21 4.1 65.7 4.7 105.5.5 39.9.4 43.5-2.1 71-1.5 15.9-3.1 34.4-3.7 41-4.1 49.2-13.9 89.2-29.9 122-9 18.4-19 29.3-33.3 36.3-8.4 4.1-15.9 5.9-29.5 7.1-6.2.6-11.7 1.3-12.3 1.6-1.5 1-1 15.4 1 27 1.1 6.1 2.2 13.1 2.6 15.7.4 3.3 1.2 4.9 2.4 5.3 2.9.9 24.7-2.3 37.9-5.6 14-3.4 36.3-10.9 43.7-14.5 2.8-1.4 8.2-5.6 12-9.3 3.9-3.8 8-7.4 9.2-8 2.5-1.3 10.3-1.5 10.3-.3 0 .5-.7 3.1-1.5 5.9-2.5 8.5-16.2 19.9-31 25.8-22.5 9-68.9 19.8-101 23.5-17.5 2-70.1 3.1-119 2.5-33.5-.4-52.6-.3-60.5.5-6.3.6-36 1.5-66 2-52.9.8-91.3 2.4-132.5 5.6-11 .8-33.6 1.9-50.3 2.4s-40.9 1.9-53.9 3c-20.6 1.8-32.8 2.1-97.7 2.5-125.2.6-219.5 2.3-231.1 4.1-15.9 2.5-39.3 10.1-43.7 14.1-4.4 3.9-.2 17.5 7.2 23.4 4.1 3.3 15.5 6.8 33 10l12.5 2.4H172c64.1.1 119.7.5 123.5.9 9.4 1 46.6-.9 77.2-3.9 13.6-1.3 45.5-4.2 70.8-6.5 25.3-2.2 52.8-4.9 61-6 26.8-3.5 35.2-3.9 94-5.5 73.2-1.9 134.7-5.3 205-11.2 43.6-3.7 82.8-3.9 101.4-.5 14.9 2.7 33 8.5 46 14.9 12 5.9 31.7 19 36.1 24 3.9 4.3 7.3 11.5 6.8 14.3-.3 1.9-.6 1.9-6.3-.8-3.3-1.6-11.8-6.8-19-11.7-14.7-9.8-20.1-12.8-34.3-18.4-14.6-5.8-25-8.3-38.1-8.9l-11.4-.5.6 2.4c.3 1.3 1.9 9.8 3.6 18.9s4 20.5 5.1 25.5c1.3 6 2.4 16.7 3.1 32 1.4 26.1.9 30-5.4 39.1-8.8 12.8-30.9 21-59.7 22.1-19.6.8-26.5-.3-58.5-9.3-7.7-2.1-12.2-2.8-19.5-2.8-8.7 0-10 .2-14.9 2.9-7.9 4.3-9.5 8.5-8.8 22.2.4 8.8.9 11.2 3.3 16 1.6 3.2 4.6 7.1 6.7 8.7l3.7 3 5.9-2.1 5.8-2.1.7 5.5c1.2 10.6 5.6 15.5 17.1 19 5.2 1.5 9.6 1.8 31.5 1.7 31.3 0 32.8-.3 76.6-12.8 35.5-10.1 144.3-37.6 158.4-40 17.2-2.9 29-3.9 48-4 16.8 0 20.7.3 28.2 2.2 51.2 12.8 76.8 57.7 88.8 156.2 6.6 54.4 8.4 102.8 4.7 123.5-5.4 29.7-19.5 57.3-35.9 70.2-18.6 14.8-50.4 29.9-78 37.2-34.5 9.2-117.9 21.8-169.3 25.6-24.8 1.8-41.1 4.4-58.1 9.1-35.8 9.7-60.9 21.5-72.2 33.8-18.3 19.9-13.1 55.2 10 67.3 5.2 2.8 5.6 2.8 22.8 2.8 26.2-.1 38.6-3.3 81.1-21 48.5-20.3 68.1-25.3 87-22.5 24.9 3.6 47.9 16.5 61.6 34.5 9.4 12.4 21.5 39.5 28.8 64.7 5.4 18.4 8.1 31.5 11 51.8 3 21.5 4.5 28.6 8.2 39.2l2.6 7.7-2.1 6.6c-2.5 7.5-2.7 13.3-1.1 32 .9 10 .8 14.6-.1 20-2.6 14.8-2.4 20.3 1 36.7 6.3 30.3 13.7 50 25.4 67.8 8.3 12.6 15.7 20.2 23.3 23.8 5.4 2.5 6.7 2.7 19.3 2.7 11.5 0 14.6-.3 20.8-2.4 10.1-3.3 17.4-8.3 28.4-19.4 20.8-21 34.1-45.8 40-74.9 2.2-10.6 2.3-13.3 2-43.3-.2-28.4 0-33.2 1.8-42.5 4.5-23.9 6.3-63.7 4.4-94.5-1.3-22 0-131.1 2.1-165.5 1.5-24.8 1.7-40.1 1.1-82.3 0-5 .5-19.3 1.3-31.7 1.5-24.5 1.1-51.5-1.4-105.5-3.4-71.9-3.8-87.3-4-153.5-.2-57.8-.6-75.4-2.3-104.5-1.2-19.3-3.5-63.8-5.2-99-1.6-35.2-3.2-67.8-3.5-72.4s-1-24.8-1.6-45c-.6-20.1-1.4-41.1-1.7-46.5l-.7-9.9-11.3 10.7c-13.7 12.9-21.7 18.4-33.8 23-27.8 10.7-44.5 12.2-82.4 7.5-23-2.8-35.1-9.6-55.2-30.7-21.3-22.5-30-42.3-41.7-95.2-9.1-40.7-12.1-70.7-14-137.5-1.1-37.7-.2-68.5 3.4-114.5 5.6-72.2 9-93.4 27.5-172 10.9-46.6 10.7-46 21.1-70.1 9.2-21.5 9.9-24 8.4-32.1-1-5.2 2.5-10.9 13.4-21.8 28.8-28.8 69.3-42.1 105.4-34.5 7.9 1.6 11.7 3.7 30.3 16.3 11.9 8.1 13.9 9.1 14.7 7.7 1.2-2.2 2.6-34.5 2.6-61.5.1-41.9-1.5-69.2-9.9-168-1.1-12.9-2.4-29.2-3-36.2-1.6-20.3-2.9-63.5-4-130.8-1.5-88.1-2.4-110.3-7-173-3.2-42.1-4.1-46.5-15.9-77.8-10.1-26.7-10.1-26.8-14.8-32.9-4.9-6.5-9.3-10.1-21.3-17-5.2-3.1-12.2-7.3-15.5-9.4-7.7-4.8-16.2-7.6-28.4-9.3-17.2-2.5-17.6-2.7-28.6-16.2-4.6-5.7-9.3-7.2-30.9-9.9-10.7-1.4-23.7-3.2-28.8-4.1-11.3-1.9-46.7-2.7-62.3-1.3m713-.4c-2.2.2-10.1 1.2-17.5 2.3s-20.9 2.9-29.9 4c-20.2 2.5-24.4 4.3-30.6 13.5-5.2 7.8-9.6 10-24.2 12s-20.1 4-34.7 12.6c-31.8 18.8-32.4 19.5-44.6 51.9-13.9 36.9-14.5 39.7-18.5 96-3.7 52.5-4.4 71.4-6 161.5-2 107.3-1.9 106.3-12.5 231.5-3.2 37.7-4 58.9-4 103.5 0 36.5 1 58.7 2.6 60.4.3.3 8.2-4.8 17.7-11.2 21.4-14.5 25.6-15.9 47.2-16 19.4-.2 32.9 3.1 51 12.1 14 7 23.1 13.6 34.5 25.1 12.6 12.7 14.7 16.4 13 22.7-.7 2.4-1 5.7-.7 7.4.4 1.6 4.9 13 10.1 25.2l9.5 22.3 9.6 40.8c20.1 85.6 22.6 101.6 29.2 183.2 2.4 30.2 2.7 39.1 2.8 79 0 88.2-4.5 131.3-20 191.1-6.9 26.8-11.7 38.3-21.7 53.2-13.7 20.3-35 39.1-50 44.1-13.4 4.4-51 7.9-65.8 6.1-18.2-2.3-40.2-9.9-52-17.9-3.8-2.5-11.8-9.2-17.8-14.8l-11-10.2-.6 5.7c-.3 3.1-1.1 21.2-1.6 40.2-1 36.5-7.6 177.4-11.1 237-1.7 28.8-2.1 49.4-2.3 109.5-.2 49.6-.9 84.4-1.9 105.5-3.6 72.1-4 85.1-3.1 120 .4 19 .7 47.1.6 62.4-.2 18.5.4 41.9 1.9 69.5 1.7 33 2.2 54.8 2.3 105.1 0 34.9-.3 71.1-.8 80.5-1 19.7 1 50.5 4.6 71.5 1.9 11.1 2.2 16.4 2.3 47 0 29.2.3 35.8 1.8 42.9 6.2 28.8 19.4 52.8 40.7 74.2 13 13 20.4 17.5 33.6 20.5 10.4 2.3 26.9 1.6 33.7-1.4 6.7-3 15.9-12.1 23.3-23.3 11.4-17.1 18.6-35.5 24.7-63.4 4.9-22.1 5.2-25.6 3.2-35.6-1.5-7.1-1.6-10.8-.9-24.4 1.2-22.2.9-29.2-1.5-35.3-2.1-5.2-2.1-5.2-.1-10.2 3.4-8.5 5.8-19.9 8.9-41.5 5.7-38.9 15.1-70.6 29.7-99.8 6.4-13 10.1-18.2 18.6-26.3 20.4-19.6 50.1-29.4 75.7-25 12.1 2.1 37 10.4 58.6 19.6 45.6 19.4 62.6 24 88.7 24 10.4 0 13.7-.4 18.2-2.1 8-2.9 14.8-9.5 19.3-18.7 3.8-7.6 3.8-7.6 3.8-20.1 0-11.6-.2-13-2.7-18.5-5.3-11.2-15.4-20-32.2-28.1-28.5-13.6-65.2-23-99.6-25.5-48-3.4-108.6-12-161-22.6-34.8-7.1-78.1-27.1-96.7-44.7-24.1-22.7-36.5-65.8-33.3-115.7 3.7-58.8 9.8-106.5 17.6-135.9 8.8-33.7 20.8-56.8 37.9-72.9 11.6-10.9 22-16.7 37.1-20.7 23.6-6.2 66.7-3.2 107.4 7.4 8.5 2.3 33.7 8.6 56 14.1 22.2 5.5 53.7 13.8 70 18.5 16.2 4.6 33.3 9.3 38 10.4 11.4 2.7 27.2 4.1 46 4.1 32.4-.1 43.9-5.4 44.8-20.7.4-5.5.7-6.3 2.1-5.8 8.7 3.6 10 3.8 13.5 1.6 4-2.5 8-8.3 9.5-13.7.6-2.1 1.1-8.7 1.1-14.5 0-9.3-.3-11-2.3-14-4.6-7-16.1-10.1-29.1-8-3.9.7-13.4 3-21 5.2-17.9 5.1-29.3 6.9-43.6 6.9-27.2 0-52.1-7.6-62.5-19.2-6.5-7.2-8.9-14.1-8.9-25.8 0-15.3 2.1-39.7 4.3-50 2.9-13.2 8.1-41.1 8.1-43.3 0-1.5-1-1.7-7.4-1.7-21.7 0-48.9 9.6-73.1 25.9-12.9 8.7-27.2 16.8-28.1 15.9-.2-.3.3-2.8 1.2-5.8 2.1-7.1 8.3-13.5 21.9-22.6 24.7-16.4 50.6-25.5 81.1-28.5 16.1-1.6 49.6-.6 86.9 2.5 66.2 5.5 130.4 9.2 187.3 10.6 63.1 1.6 86.1 2.8 107.2 5.5 10.7 1.3 40 4.3 65 6.5s56.6 5.2 70.2 6.5c29.5 2.9 68.9 4.9 77.3 3.9 3.3-.4 58.9-.8 123.5-.9 128.7-.1 121.3.2 146.5-6.1 13.5-3.4 18.1-6.3 22.2-14.3 5.4-10.4 4.2-15.1-5.1-19.1-6.7-3-28-8.9-37.9-10.5-10.8-1.7-110.3-3.5-231.3-4-65-.4-77-.6-97.5-2.5-12.9-1.1-37.1-2.5-53.9-3s-39.3-1.6-50-2.4c-40.9-3.2-79.4-4.8-133-5.5-31.2-.4-56.2-1.1-57-1.7-.9-.5-34.6-.9-83-1-83.6-.1-92.8-.5-119.8-4.4-26.6-3.9-65.9-13.6-84.9-21-15.3-5.8-29.9-18.1-32.7-27.3-1.7-5.7-1.1-6.3 5.5-5.4 3.3.4 5.4 1.9 11.9 8 4.3 4.2 9.3 8.3 11.2 9.3 9.8 5.1 38.1 14 56.3 17.8 9.5 2 26 3.7 27.9 3 1-.4 1.6-1.8 1.6-4 0-1.8 1-8.2 2.2-14.1 1.9-9.9 3-28.4 1.8-29.7-.3-.3-5.7-1-12-1.6-21.8-2-33.5-6.8-46-18.7-11.8-11.2-19.8-26-29.4-54.5-8.7-25.6-14.1-51.9-17-82.8-.9-9.1-2.8-29.3-4.3-45-2.5-25.3-2.8-32.5-2.7-64.5.1-57.6 3-102.8 11.4-180.1 4.1-37.8 4.7-66.5 1.9-102.9-3.1-40.3-2.9-71.2.6-97.8 2.7-21 10-39.3 21.8-54.9 10.6-14.2 18.2-19.1 43.7-28.6 21-7.8 28.9-10 40.1-11.2 16.8-1.9 27.5-.4 52 7.5 11.2 3.6 20.7 6.5 21 6.5.9 0 2.6-18.5 5.4-58 1.4-19.5 4.1-54 6-76.5 4.5-53.4 5.3-67 6.5-109 .6-19.3 1.7-42.4 2.5-51.5 2.8-31.5 7.4-85.6 8.5-100 .5-8 1.8-20.1 2.6-27 1.2-8.7 1.4-14.8.9-20.5-1.1-11.3-1-14.8.3-25 .7-5 1.2-20.1 1.2-33.6 0-28.6-.4-30.5-8.5-44.9-10.1-17.8-13.6-27.9-15.9-45.5-2-15.3-3.9-22.3-8.7-32.2-6.4-13.4-18.6-27.2-38.1-43.1-25.4-20.6-60.1-37.5-93.2-45.2-23.2-5.4-78-9.4-101.1-7.3M846 717.7c-20.5 1.6-40.7 9.2-60.5 22.7-24 16.3-37 34.7-51 72-18.1 48.2-27.9 103.6-29.2 165.1-.6 30.1.4 51.3 3.8 77 1 8.2 4.6 37.5 8 65 9.1 75.8 11.6 91.2 19.4 123.2 8.7 35.4 20 66.3 35.5 97.3 16.3 32.4 24.7 42.8 47 57.7 26.8 17.8 44.4 28.7 50.4 31.2 20.5 8.4 51.3-3.6 66-25.8 6.9-10.3 10.2-18.6 17.1-42.6 11.1-38.9 13.9-54.6 16-90.5.9-14 2.2-35 3-46.5 3.2-44.7 3-69.3-1.1-131.5-2.4-36.9-4.4-56.5-9.4-92.5-4.4-31.9-5.3-45.8-4.8-76.5.4-23.6 1-31 3.8-52 3.1-24 3.2-24.8 2.1-40.5-3.2-43.6-11.7-66.8-31.5-85.3-15.1-14.1-40-24.6-64.6-27.2-9.4-1-11.2-1-20-.3m1000 0c-21.9 1.9-45.9 10.9-61.7 23-19.9 15.2-31.8 39.8-35.2 72.9-3 28.7-3 30.1.6 58.4 5.2 41.5 5.5 78.3.7 113-12.5 91.6-17.1 172.8-12.9 230.5.8 11 1.9 28.8 2.5 39.5 2.3 42 4 55.4 10.6 82 5 20.2 12.7 45.2 16.3 53.2 7 15.6 18.2 27.7 32.3 34.6 14.8 7.4 27.7 8.7 40.4 4.2 5.2-1.8 43.1-25.4 57.9-36 16.5-11.9 25.6-24 40.4-53.7 27.3-54.6 40.6-104.5 51.1-191.3 1.7-14 5.3-43.5 8-65.5 7-56.9 7.3-60.7 7.3-93.5 0-69.9-11.3-133.3-33.4-187.3-12.7-30.8-25.2-47-48.7-62.7-14.2-9.5-30.2-16.3-45.6-19.4-7.8-1.6-23.5-2.6-30.6-1.9m-683.5 18.9c-24.7 4.4-36.3 11-49.5 28.4-24.2 32-37.1 60.1-47.4 104-14.2 60.6-21.7 101.6-26.5 146-5.3 47.8-6.2 64.3-7.2 122-1.3 78.6-.2 95.1 9.1 143.5 1.6 8.2 3.8 20.4 5 27 3.2 18.6 6.6 30 12.6 42.5 17.6 36.7 35.6 57.2 55.4 63 15.2 4.5 23.6 5.5 46 5.5 18.3-.1 22.9-.4 30.6-2.2 24.8-5.8 43.4-17.6 55.2-35 8.2-12 22.2-40 30.4-60.7 12.7-31.9 21.5-68.2 25.2-104.6 4.7-45.3 4.5-183.8-.4-259.5-2.1-32-4.8-50.1-11.5-76-12.2-47.5-27.7-81.2-50.4-109.5-25-31.3-44.6-40.1-76.6-34.4m353.3 0c-18.9 4.5-37.9 21.3-57.1 50.4-18.7 28.4-34.8 70.7-43.6 114.5-7 34.9-10.1 95.5-10.1 199.5 0 85.8 1.4 113.5 7.6 147 7.1 38.4 18.4 71.5 37 108 13.1 25.7 20.4 35.6 33 44.6 18.9 13.5 41.5 19.1 72.8 18.1 29.5-1 48.3-6.4 60.5-17.3 12-10.8 21.9-25 32.7-46.9 8.6-17.6 11.3-26.2 15.9-52 1.9-10.5 4.5-24.9 5.9-32 1.3-7.2 3.5-20.7 4.8-30 2.2-16.4 2.3-19.3 2.3-83.5-.1-69.8-.4-76.8-5.6-128-5.6-55.8-15.7-111.6-30.9-172.1-8.7-34.5-22.4-62.8-44.6-92.1-11.4-14.9-20.9-21.4-37.9-25.6-17.3-4.4-32-5.3-42.7-2.6"/></svg>