<svg xmlns="http://www.w3.org/2000/svg" width="128" height="102" viewBox="0 0 128 102"><path fill="#060905" d="M68 5h2l1 2 1 12 1 2 13 4 6 3 2 3v12l-3 8-9 8-6 2v6h2v5l4 1 6 8-2 5-6 5-20 8h-8l-5-3v-6l3-5 2-7 2-1 3-8v-4h-7l-7-3-3-3-4-2-2-5V37l8-6 2-1V14h2l1 2v12l14-5 7-2Z"/><path fill="#010308" d="m85 53 1 3-8 5h-2v6h2v5l4 1 6 8-2 5-6 5-20 8h-8l-5-3v-6l3-5 2-7 2-1 3-8v-4h-7l-7-3v-3l28-2 12-3Z"/><path fill="#020504" d="M68 5h2l1 2 1 12 1 2 13 4 1 3-17 1-13 4-18 5-2 5h3l7-4 16-3h9l-3 4v7l2 3 9-1 3-4 1-6-3-4 10 1v7l-4 5-9 4-11 3H55v-2l4-4v-7l-8-1-4 1-3 12-5-1-2-1-2-3-1-1V37l8-6 2-1V14h2l1 2v12l14-5 7-2ZM34 49"/><path fill="#0c2b31" d="m81 35 10 1v7l-4 5-9 4-11 3H55v-2l4-4v-7l-8-1-4 1-3 12-5-1-2-1v-7l10-6 16-3h9l-3 4v7l2 3 9-1 3-4 1-6Z"/><path fill="#74151a" d="m51 40 8 1 1 1v7l-3 4h-2v2l17-2 11-4 5-3 3-3-1 5-5 4-7 3-13 2H43l-4-2v-1h5l1-9 4-4Z"/><path fill="#02393e" d="m85 53 1 3-8 5h-2l1 10-6 4-9 1v-2h-3l-1 2v-3l5-3h6v3h2l1-5-10 1-3-2 1-3h6l2-1H52l-5-1v-2l12-1 21-4Z"/><path fill="#e4af06" d="M71 29h16l5 3v3H78l-21 3-12 3-8 4-1-4 3-4 26-7Z"/><path fill="#015759" d="M64 24h14l1 2 4-1 4 3-17 1-13 4-12 2-5 1 5-5 8-4Z"/><path fill="#01161d" d="m75 72 6 2-1 4-11 4-8 2h-8l1-5 5-5 4 1 10-2Z"/><path fill="#b70b0a" d="M74 37h10l1 5-3 6-5 3h-6l-3-4v-5Z"/><path fill="#001a1a" d="M43 59h16v1H47v2l5-1v2l17-1-3 3-6-1 1 3 1 2 11-2-2 6h-2v-3l-8 2-3 1-1 3-2-1 2-6v-4h-7l-7-3Z"/><path fill="#151919" d="m81 35 10 1v7l-4 5-9 4-6 2h-5l2-2h-2l-4 1 3-3 1-8h1l2 7 1 1 9-1 3-4 1-6Z"/><path fill="#034660" d="m67 40 1 2-1 8-2 2 4-2v2l2 1h-4v2H55v-2l4-4 1-7 5-1Z"/><path fill="#ca9a06" d="m90 43 1 3-4 5-9 4-13 2H43l-4-2 2-1 4 1h13l14-2 11-4 5-3Z"/><path fill="#bc2f09" d="m51 40 8 1 1 1v7l-5 5h-6l2-2 1-9h-3v-2Z"/><path fill="#731519" d="m74 37 4 1 1 5-3 5-7 1-1-7Z"/><path fill="#064543" d="m53 27 1 2h4v2l7-1-3 2-17 3-5 1 5-5Z"/><path fill="#f2c90d" d="M50 35h2v2l3 1-10 3-8 4-1-4 3-4 9-1Z"/><path fill="#01595a" d="M62 58h7v4l-8 1h-9l-5-1v-2l12-1Z"/><path fill="#0f1c26" d="M46 42v3l-2 9-5-1-2-1v-7h3l5-2Z"/><path fill="#016e6f" d="M69 62h4l1 4-9 3-6-1 1-4h6Z"/><path fill="#016f6f" d="M59 25h7l1 2 3 2-12 2v-2h-4v-2Z"/><path fill="#151606" d="M36 46h1v6l3 1v2l13 2v1l-9 1v2l-4-2-4-2-2-7Z"/><path fill="#011e25" d="M63 75h6l1 2-1 3 3 1-11 3h-7l4-3 1-3 4 1v2h4v-4Z"/><path fill="#ca8d03" d="M71 29h16l5 3v3l-6-1-8-3-7-1Z"/><path fill="#023034" d="m61 67 1 2 11-2-2 6h-2v-3l-8 2-3 1-1 3-2-1v-2l4-4Z"/><path fill="#291907" d="M78 34h11v1l-6 1v1l-9 1-6 4 2-5-2-2Z"/><path fill="#01425d" d="m81 35 10 1v7l-5 3v-5l2-2-3 1Z"/><path fill="#f3c109" d="M62 31h9l-2 4-14 1 1-2h5Z"/><path fill="#012f31" d="M43 59h16v1H47v2l5-1v2h-8Z"/><path fill="#015355" d="m83 54 2 1-4 1v2l-4 2h-5v-3Z"/><path fill="#014b69" d="m37 46 2 1v2h2l2-2 1 7-5-1-2-1Z"/><path fill="#241f13" d="m44 53 11 1 3 2H45l-4-2Z"/><path fill="#b10a09" d="M76 37h8l1 5h-4v-3l-5-1Z"/><path fill="#026a6b" d="M47 60h9l5 2v1h-9l-5-1Z"/><path fill="#011016" d="M75 72v3l-3 5h-3v-5Z"/><path fill="#b12e0a" d="M52 48h3l1 5-1 1h-6l2-2Z"/><path fill="#012f32" d="m71 57 1 3h3v5l-2-1v-2h-4v-4Z"/><path fill="#e2b107" d="M65 30h10l-2 4-4 1-2-2 2-1Z"/><path fill="#c59006" d="M39 37h4l-1 3-3 1-1 2 2 1-3 1-1-4Z"/><path fill="#014663" d="M67 36h5l-4 4h-3l-6-1v-1Z"/><path fill="#015d5e" d="m45 31 4 1v2l-9 2Z"/><path fill="#6a0707" d="m57 41 3 1v7l-4 4-1-4h2l1-6Z"/><path fill="#be8303" d="m90 43 1 3-5 5-3-2 5-3Z"/><path fill="#062e3b" d="m43 41 4 1-5 4-3-1Z"/><path fill="#342d0c" d="M52 38h4v2l-9 2-2-2Z"/><path fill="#01131a" d="m77 73 4 1-1 4h-4Z"/><path fill="#fad50f" d="M50 35h2v2l3 1-9 2v-2h3Z"/><path fill="#b4670a" d="M78 39h3v5l-3 2Z"/><path fill="#a30809" d="M51 40h5v3h-7v-2Z"/><path fill="#014c6a" d="M86 41h5l-2 4-3 1Z"/></svg>