<?xml version="1.0" encoding="UTF-8"?>
<!-- Generator: visioncortex VTracer 0.6.12 -->
<svg version="1.1" xmlns="http://www.w3.org/2000/svg" width="128" height="102" viewBox="0 0 128 102">
<path d="M0,0 L2,0 L3,2 L4,14 L5,16 L18,20 L24,23 L26,26 L26,38 L23,46 L14,54 L8,56 L8,62 L10,62 L10,67 L14,68 L20,76 L18,81 L12,86 L-8,94 L-16,94 L-21,91 L-21,85 L-18,80 L-16,73 L-14,72 L-11,64 L-11,60 L-18,60 L-25,57 L-28,54 L-32,52 L-34,47 L-34,32 L-26,26 L-24,25 L-24,9 L-22,9 L-21,11 L-21,23 L-7,18 L0,16 Z " fill="#060905" transform="translate(68,5)"/>
<path d="M0,0 L1,3 L-7,8 L-9,8 L-9,14 L-7,14 L-7,19 L-3,20 L3,28 L1,33 L-5,38 L-25,46 L-33,46 L-38,43 L-38,37 L-35,32 L-33,25 L-31,24 L-28,16 L-28,12 L-35,12 L-42,9 L-42,6 L-14,4 L-2,1 Z " fill="#010308" transform="translate(85,53)"/>
<path d="M0,0 L2,0 L3,2 L4,14 L5,16 L18,20 L19,23 L2,24 L-11,28 L-29,33 L-31,38 L-28,38 L-21,34 L-5,31 L4,31 L1,35 L1,42 L3,45 L12,44 L15,40 L16,34 L13,30 L23,31 L23,38 L19,43 L10,47 L-1,50 L-13,50 L-13,48 L-9,44 L-9,37 L-17,36 L-21,37 L-24,49 L-29,48 L-31,47 L-33,44 L-34,43 L-34,32 L-26,26 L-24,25 L-24,9 L-22,9 L-21,11 L-21,23 L-7,18 L0,16 Z M-34,44 Z " fill="#020504" transform="translate(68,5)"/>
<path d="M0,0 L10,1 L10,8 L6,13 L-3,17 L-14,20 L-26,20 L-26,18 L-22,14 L-22,7 L-30,6 L-34,7 L-37,19 L-42,18 L-44,17 L-44,10 L-34,4 L-18,1 L-9,1 L-12,5 L-12,12 L-10,15 L-1,14 L2,10 L3,4 Z " fill="#0C2B31" transform="translate(81,35)"/>
<path d="M0,0 L8,1 L9,2 L9,9 L6,13 L4,13 L4,15 L21,13 L32,9 L37,6 L40,3 L39,8 L34,12 L27,15 L14,17 L-8,17 L-12,15 L-12,14 L-7,14 L-6,5 L-2,1 Z " fill="#74151A" transform="translate(51,40)"/>
<path d="M0,0 L1,3 L-7,8 L-9,8 L-8,18 L-14,22 L-23,23 L-23,21 L-26,21 L-27,23 L-27,20 L-22,17 L-16,17 L-16,20 L-14,20 L-13,15 L-23,16 L-26,14 L-25,11 L-19,11 L-17,10 L-33,10 L-38,9 L-38,7 L-26,6 L-5,2 Z " fill="#02393E" transform="translate(85,53)"/>
<path d="M0,0 L16,0 L21,3 L21,6 L7,6 L-14,9 L-26,12 L-34,16 L-35,12 L-32,8 L-6,1 Z " fill="#E4AF06" transform="translate(71,29)"/>
<path d="M0,0 L14,0 L15,2 L19,1 L23,4 L6,5 L-7,9 L-19,11 L-24,12 L-19,7 L-11,3 Z " fill="#015759" transform="translate(64,24)"/>
<path d="M0,0 L6,2 L5,6 L-6,10 L-14,12 L-22,12 L-21,7 L-16,2 L-12,3 L-2,1 Z " fill="#01161D" transform="translate(75,72)"/>
<path d="M0,0 L10,0 L11,5 L8,11 L3,14 L-3,14 L-6,10 L-6,5 Z " fill="#B70B0A" transform="translate(74,37)"/>
<path d="M0,0 L16,0 L16,1 L4,1 L4,3 L9,2 L9,4 L26,3 L23,6 L17,5 L18,8 L19,10 L30,8 L28,14 L26,14 L26,11 L18,13 L15,14 L14,17 L12,16 L14,10 L14,6 L7,6 L0,3 Z " fill="#001A1A" transform="translate(43,59)"/>
<path d="M0,0 L10,1 L10,8 L6,13 L-3,17 L-9,19 L-14,19 L-12,17 L-14,17 L-18,18 L-15,15 L-14,7 L-13,7 L-11,14 L-10,15 L-1,14 L2,10 L3,4 Z " fill="#151919" transform="translate(81,35)"/>
<path d="M0,0 L1,2 L0,10 L-2,12 L2,10 L2,12 L4,13 L0,13 L0,15 L-12,15 L-12,13 L-8,9 L-7,2 L-2,1 Z " fill="#034660" transform="translate(67,40)"/>
<path d="M0,0 L1,3 L-3,8 L-12,12 L-25,14 L-47,14 L-51,12 L-49,11 L-45,12 L-32,12 L-18,10 L-7,6 L-2,3 Z " fill="#CA9A06" transform="translate(90,43)"/>
<path d="M0,0 L8,1 L9,2 L9,9 L4,14 L-2,14 L0,12 L1,3 L-2,3 L-2,1 Z " fill="#BC2F09" transform="translate(51,40)"/>
<path d="M0,0 L4,1 L5,6 L2,11 L-5,12 L-6,5 Z " fill="#731519" transform="translate(74,37)"/>
<path d="M0,0 L1,2 L5,2 L5,4 L12,3 L9,5 L-8,8 L-13,9 L-8,4 Z " fill="#064543" transform="translate(53,27)"/>
<path d="M0,0 L2,0 L2,2 L5,3 L-5,6 L-13,10 L-14,6 L-11,2 L-2,1 Z " fill="#F2C90D" transform="translate(50,35)"/>
<path d="M0,0 L7,0 L7,4 L-1,5 L-10,5 L-15,4 L-15,2 L-3,1 Z " fill="#01595A" transform="translate(62,58)"/>
<path d="M0,0 L0,3 L-2,12 L-7,11 L-9,10 L-9,3 L-6,3 L-1,1 Z " fill="#0F1C26" transform="translate(46,42)"/>
<path d="M0,0 L4,0 L5,4 L-4,7 L-10,6 L-9,2 L-3,2 Z " fill="#016E6F" transform="translate(69,62)"/>
<path d="M0,0 L7,0 L8,2 L11,4 L-1,6 L-1,4 L-5,4 L-5,2 Z " fill="#016F6F" transform="translate(59,25)"/>
<path d="M0,0 L1,0 L1,6 L4,7 L4,9 L17,11 L17,12 L8,13 L8,15 L4,13 L0,11 L-2,4 Z " fill="#151606" transform="translate(36,46)"/>
<path d="M0,0 L6,0 L7,2 L6,5 L9,6 L-2,9 L-9,9 L-5,6 L-4,3 L0,4 L0,6 L4,6 L4,2 Z " fill="#011E25" transform="translate(63,75)"/>
<path d="M0,0 L16,0 L21,3 L21,6 L15,5 L7,2 L0,1 Z " fill="#CA8D03" transform="translate(71,29)"/>
<path d="M0,0 L1,2 L12,0 L10,6 L8,6 L8,3 L0,5 L-3,6 L-4,9 L-6,8 L-6,6 L-2,2 Z " fill="#023034" transform="translate(61,67)"/>
<path d="M0,0 L11,0 L11,1 L5,2 L5,3 L-4,4 L-10,8 L-8,3 L-10,1 Z " fill="#291907" transform="translate(78,34)"/>
<path d="M0,0 L10,1 L10,8 L5,11 L5,6 L7,4 L4,5 Z " fill="#01425D" transform="translate(81,35)"/>
<path d="M0,0 L9,0 L7,4 L-7,5 L-6,3 L-1,3 Z " fill="#F3C109" transform="translate(62,31)"/>
<path d="M0,0 L16,0 L16,1 L4,1 L4,3 L9,2 L9,4 L1,4 Z " fill="#012F31" transform="translate(43,59)"/>
<path d="M0,0 L2,1 L-2,2 L-2,4 L-6,6 L-11,6 L-11,3 Z " fill="#015355" transform="translate(83,54)"/>
<path d="M0,0 L2,1 L2,3 L4,3 L6,1 L7,8 L2,7 L0,6 Z " fill="#014B69" transform="translate(37,46)"/>
<path d="M0,0 L11,1 L14,3 L1,3 L-3,1 Z " fill="#241F13" transform="translate(44,53)"/>
<path d="M0,0 L8,0 L9,5 L5,5 L5,2 L0,1 Z " fill="#B10A09" transform="translate(76,37)"/>
<path d="M0,0 L9,0 L14,2 L14,3 L5,3 L0,2 Z " fill="#026A6B" transform="translate(47,60)"/>
<path d="M0,0 L0,3 L-3,8 L-6,8 L-6,3 Z " fill="#011016" transform="translate(75,72)"/>
<path d="M0,0 L3,0 L4,5 L3,6 L-3,6 L-1,4 Z " fill="#B12E0A" transform="translate(52,48)"/>
<path d="M0,0 L1,3 L4,3 L4,8 L2,7 L2,5 L-2,5 L-2,1 Z " fill="#012F32" transform="translate(71,57)"/>
<path d="M0,0 L10,0 L8,4 L4,5 L2,3 L4,2 Z " fill="#E2B107" transform="translate(65,30)"/>
<path d="M0,0 L4,0 L3,3 L0,4 L-1,6 L1,7 L-2,8 L-3,4 Z " fill="#C59006" transform="translate(39,37)"/>
<path d="M0,0 L5,0 L1,4 L-2,4 L-8,3 L-8,2 Z " fill="#014663" transform="translate(67,36)"/>
<path d="M0,0 L4,1 L4,3 L-5,5 Z " fill="#015D5E" transform="translate(45,31)"/>
<path d="M0,0 L3,1 L3,8 L-1,12 L-2,8 L0,8 L1,2 Z " fill="#6A0707" transform="translate(57,41)"/>
<path d="M0,0 L1,3 L-4,8 L-7,6 L-2,3 Z " fill="#BE8303" transform="translate(90,43)"/>
<path d="M0,0 L4,1 L-1,5 L-4,4 Z " fill="#062E3B" transform="translate(43,41)"/>
<path d="M0,0 L4,0 L4,2 L-5,4 L-7,2 Z " fill="#342D0C" transform="translate(52,38)"/>
<path d="M0,0 L4,1 L3,5 L-1,5 Z " fill="#01131A" transform="translate(77,73)"/>
<path d="M0,0 L2,0 L2,2 L5,3 L-4,5 L-4,3 L-1,3 Z " fill="#FAD50F" transform="translate(50,35)"/>
<path d="M0,0 L3,0 L3,5 L0,7 Z " fill="#B4670A" transform="translate(78,39)"/>
<path d="M0,0 L5,0 L5,3 L-2,3 L-2,1 Z " fill="#A30809" transform="translate(51,40)"/>
<path d="M0,0 L5,0 L3,4 L0,5 Z " fill="#014C6A" transform="translate(86,41)"/>
</svg>
